<svg width="1440" height="810" viewBox="0 0 1440 810" fill="none" xmlns="http://www.w3.org/2000/svg">
<path d="M952.949 514.262L1064.57 578.941C1068.82 581.324 1090.58 580.602 1094.83 578.215L1135.14 544.113C1137.94 542.559 1137.94 538.516 1135.14 536.961L1017.31 468.965C1012.95 466.477 1007.67 466.477 1003.32 468.965L951.809 498.715C950.254 499.648 949.531 501.203 949.531 502.758C949.531 504.313 951.395 513.328 952.949 514.262ZM902.996 96.7462C903.102 96.7462 903.102 96.6407 903.203 96.6407L903.309 96.5391C906.211 94.9844 909.941 94.7774 913.258 96.6407L1091.41 198.949V155.828C1091.41 153.961 1092.03 152.613 1093.17 151.992C1094.21 151.371 1101.46 149.09 1103.02 150.023L1347.29 290.266C1350.6 292.133 1354.75 299.594 1354.75 303.43L1355.47 467.516C1355.47 469.379 1350.91 475.703 1349.77 476.324C1348.74 476.945 1347.18 476.844 1345.52 475.91L1270.91 432.895L1271.32 586.301C1271.32 591.277 1268.62 595.422 1264.79 597.602L1240.85 611.488L1216.08 577.18L919.164 406.668C906.418 399.309 898.539 385.836 898.539 371.117L897.918 136.031L879.367 110.324L902.996 96.7462Z" fill="#EAE5FF"/>
<path d="M1338.68 416L1256.09 368.941V385.109L1338.68 432.168V416ZM1338.68 456.422L1277.95 421.805V405.633L1338.68 440.254V456.422ZM861.852 270.262L874.703 262.797V118.926C874.703 111.051 883.203 106.176 890.043 110.117L1091.41 226.313V194.387L1351.54 342.508V305.918C1351.54 302.188 1348.84 297.523 1345.63 295.656L1097.42 152.406C1095.86 151.473 1094.41 151.371 1093.38 151.891L1100.53 147.742C1101.56 147.016 1103.12 147.121 1104.88 148.055L1352.98 291.406C1356.2 293.273 1358.89 297.938 1358.89 301.668V468.137C1358.89 470.004 1358.17 471.348 1357.13 471.973L1349.77 476.223C1350.81 475.598 1351.54 474.25 1351.54 472.387V380.445L1091.51 232.324V322.297C1091.51 326.027 1094.21 330.691 1097.42 332.559L1246.96 418.902V600.504C1246.96 610.555 1236.09 616.777 1227.38 611.801L1135.97 559.039C1135.77 559.246 1135.45 559.457 1135.14 559.664L1082.39 589.824C1078.14 592.211 1072.96 592.211 1068.82 589.824L951.914 522.242C950.359 521.313 949.633 519.652 949.633 518.305V502.758C949.633 504.313 950.461 505.867 951.914 506.801L1068.82 574.383C1073.06 576.766 1078.14 576.867 1082.39 574.383L1122.6 551.266L895.328 420.039C882.582 412.68 874.809 399.102 874.809 384.383V294.414L861.852 270.262ZM1092.96 152.098C1093.07 152.098 1092.96 152.098 1092.96 152.098V152.098Z" fill="#024BD6"/>
<path d="M968.496 404.078L1231.42 555.93V409.988L1097.32 332.559C1094 330.691 1091.41 326.027 1091.41 322.297V248.91L895.949 135.926C892.32 133.852 887.867 136.445 887.867 140.59V263.629C907.66 268.707 925.176 260.313 925.176 260.313C936.574 290.371 971.5 313.797 971.5 313.797C971.5 313.797 971.5 377.856 971.5 394.024C971.5 398.066 970.359 401.281 968.496 404.078Z" fill="#1157F5"/>
<path d="M983.937 366.762C983.937 383.66 996.582 404.391 1012.12 412.785L1090.16 457.875C1106.95 466.375 1120.74 459.43 1120.74 442.535C1120.74 425.637 1106.95 404.906 1090.16 396.406L1012.12 351.32C996.582 342.922 983.937 349.867 983.937 366.762ZM1018.96 315.352C1018.34 315.352 1017.82 314.832 1017.82 314.211V286.637C1017.82 276.48 1021.45 268.707 1027.98 264.77C1034.93 260.621 1044.25 261.348 1054.1 266.633C1073.58 277.207 1089.34 303.121 1089.34 324.367V353.391C1089.34 354.012 1088.82 354.531 1088.2 354.531C1087.57 354.531 1087.05 354.012 1087.05 353.391V324.367C1087.05 303.949 1071.82 278.969 1052.96 268.707C1043.84 263.73 1035.34 263.004 1029.12 266.738C1023.21 270.262 1020 277.309 1020 286.535V314.105C1020.11 314.832 1019.59 315.352 1018.96 315.352ZM1080.63 283.734C1073.58 273.477 1064.57 264.559 1054.62 259.172C1043.73 253.262 1033.68 252.434 1026.12 256.891C1019.17 261.035 1015.23 269.434 1015.23 280.523V286.43C1015.23 287.055 1014.72 287.57 1014.09 287.57C1013.47 287.57 1012.95 287.055 1012.95 286.43V280.523C1012.95 268.602 1017.2 259.48 1024.98 254.922C1033.16 250.051 1044.05 250.879 1055.65 257.199C1065.81 262.797 1075.14 271.816 1082.39 282.492C1082.7 282.906 1082.6 283.527 1082.29 283.84C1081.87 284.359 1081.04 284.254 1080.63 283.734ZM1036.27 284.047C1040.83 281.352 1046.74 281.766 1053.16 285.293C1060.84 289.539 1067.68 297.523 1071.72 306.23C1071.93 306.746 1071.72 307.371 1071.2 307.68C1070.58 307.992 1069.95 307.785 1069.64 307.16C1065.81 298.871 1059.38 291.305 1052.03 287.363C1046.43 284.359 1041.25 283.84 1037.41 286.121C1036.59 286.637 1035.75 287.262 1035.03 288.09C1034.61 288.609 1033.89 288.609 1033.37 288.195C1032.96 287.777 1032.85 287.055 1033.27 286.637C1034.2 285.5 1035.24 284.668 1036.27 284.047ZM1041.56 334.836C1041.87 335.254 1041.97 335.77 1041.66 336.184C1041.25 336.809 1040.32 336.91 1039.9 336.391C1033.79 329.758 1029.64 320.637 1029.64 312.758V298.145C1029.64 295.449 1030.05 292.961 1030.78 290.887C1031.09 290.164 1032.02 289.957 1032.64 290.473C1032.96 290.785 1033.06 291.305 1032.96 291.719C1032.34 293.582 1031.92 295.762 1031.92 298.145V312.758C1032.02 320.117 1035.96 328.617 1041.56 334.836ZM1036.07 314.73V302.082C1036.07 297.523 1037.72 294.102 1040.73 292.234C1042.29 291.305 1044.15 290.887 1046.22 290.992C1046.84 290.992 1047.26 291.512 1047.26 292.133V292.234C1047.26 292.859 1046.64 293.375 1046.02 293.375C1044.46 293.273 1043.11 293.582 1041.87 294.207C1039.59 295.555 1038.35 298.352 1038.35 302.082V314.73C1038.35 320.637 1043.01 328.203 1048.4 331.211C1050.78 332.453 1052.96 332.766 1054.62 332.039C1054.62 332.039 1054.72 332.039 1054.82 331.934C1055.34 331.625 1056.07 331.727 1056.38 332.246C1056.69 332.766 1056.59 333.488 1055.96 333.801C1055.76 333.906 1055.55 334.008 1055.55 334.008C1053.27 335.043 1050.37 334.734 1047.26 333.074C1041.14 329.863 1036.07 321.57 1036.07 314.73ZM1024.66 318.254C1024.25 316.078 1024.04 313.898 1024.04 311.723V291.926C1024.04 283.84 1026.95 277.621 1032.23 274.406C1037.83 271.09 1045.29 271.609 1053.16 275.961C1068.61 284.359 1081.15 304.984 1081.15 321.883V329.656C1081.15 330.277 1080.53 330.797 1079.9 330.797C1079.28 330.691 1078.87 330.277 1078.87 329.656V321.883C1078.87 305.816 1066.85 286.121 1052.03 278.035C1044.87 274.098 1038.24 273.578 1033.37 276.48C1028.81 279.176 1026.32 284.668 1026.32 292.027V311.828C1026.32 313.797 1026.53 315.867 1026.95 317.941C1027.05 318.461 1026.84 318.875 1026.43 319.188C1025.7 319.395 1024.87 319.082 1024.66 318.254ZM1068.19 354.324C1063.11 357.332 1056.38 356.813 1049.33 352.977C1038.76 347.172 1029.64 335.043 1025.91 322.918C1025.7 322.398 1026.01 321.883 1026.43 321.57C1027.05 321.258 1027.88 321.57 1028.09 322.297C1031.61 333.906 1040.32 345.41 1050.37 351.008C1056.79 354.531 1062.7 354.945 1066.95 352.355C1070.99 349.973 1073.27 344.996 1073.27 338.57V321.879C1073.27 318.461 1072.55 314.832 1071.41 311.309C1071.2 310.789 1071.41 310.168 1071.93 309.961C1072.55 309.648 1073.27 309.961 1073.48 310.582C1074.82 314.418 1075.55 318.254 1075.55 321.984V338.672C1075.55 345.93 1072.96 351.527 1068.19 354.324ZM1051.3 295.035C1050.89 294.828 1050.47 294.621 1050.16 294.414C1049.75 294.207 1049.54 293.789 1049.54 293.375C1049.54 292.547 1050.37 292.027 1051.2 292.34C1051.61 292.547 1052.13 292.754 1052.54 292.961C1060.63 297.418 1067.36 307.992 1067.78 317.008C1067.78 317.527 1067.47 317.941 1067.05 318.047L1065.5 318.668V317.941C1065.39 309.648 1059.07 299.285 1051.3 295.035ZM1067.68 332.246C1067.68 337.637 1065.71 341.887 1062.18 343.961C1058.45 346.238 1053.48 345.824 1048.19 343.027C1046.54 342.094 1044.98 341.059 1043.43 339.813C1043.01 339.504 1042.91 338.879 1043.22 338.363C1043.53 337.738 1044.36 337.637 1044.87 338.051C1046.22 339.191 1047.78 340.227 1049.23 341.059C1053.68 343.441 1057.93 343.855 1060.94 342.094C1063.74 340.434 1065.29 336.91 1065.29 332.352V322.191C1065.29 321.777 1065.6 321.363 1066.02 321.156C1066.74 320.844 1067.57 321.363 1067.57 322.191V332.246H1067.68ZM1080.11 333.074C1080.73 333.18 1081.15 333.594 1081.15 334.215V345.93C1081.15 353.805 1078.45 359.816 1073.58 363.031C1073.06 363.344 1072.23 363.238 1071.93 362.617C1071.61 362.098 1071.82 361.477 1072.23 361.164C1076.48 358.367 1078.87 352.977 1078.87 345.93V334.215C1078.87 333.488 1079.49 332.973 1080.11 333.074ZM1058.55 314.73C1059.18 314.73 1059.7 315.246 1059.7 315.867V326.441C1059.7 327.375 1059.59 328.309 1059.38 329.137C1059.18 330.07 1057.83 330.277 1057.31 329.449C1057.11 329.137 1057.11 328.824 1057.21 328.617C1057.31 327.996 1057.41 327.27 1057.41 326.441V315.973C1057.41 315.246 1057.93 314.73 1058.55 314.73ZM1096.18 334.941C1095.55 334.941 1095.04 334.422 1095.04 333.801V330.691C1095.76 331.418 1096.48 332.141 1097.32 332.559V333.801C1097.32 334.422 1096.8 334.941 1096.18 334.941ZM1083.32 286.223C1083.84 285.707 1084.77 285.707 1085.09 286.43C1087.47 290.371 1089.64 294.516 1091.41 298.766V305.09C1089.34 299.078 1086.54 293.168 1083.12 287.57C1082.91 287.156 1082.91 286.637 1083.32 286.223ZM867.242 302.703C867.762 298.145 868.59 292.859 872.426 290.266C875.742 288.09 880.301 288.609 883.719 290.68C887.141 292.754 889.629 295.863 892.113 299.078C900.715 310.168 909.629 320.949 916.883 332.973C920.613 339.086 923.101 345.516 930.562 346.238C937.82 346.965 942.273 349.141 944.66 356.813C949.012 370.703 942.273 385.938 932.43 396.613C927.453 402.004 921.031 406.875 913.672 407.086C906.418 407.293 899.785 402.836 895.223 397.133C890.769 391.434 888.074 384.59 885.066 377.957C877.398 360.75 867.656 343.855 866.207 325.094C865.687 317.734 866.414 310.168 867.242 302.703Z" fill="#22DBDE"/>
<path d="M1107.68 446.785L1106.54 429.164L1099.8 425.223C1098.66 424.496 1097.73 424.082 1097.11 423.773C1096.28 423.359 1095.55 423.254 1094.93 423.359C1094.41 423.461 1093.89 423.668 1093.59 424.188C1093.27 424.707 1093.17 425.43 1093.17 426.262C1093.27 427.711 1093.79 429.266 1094.83 430.926C1095.86 432.481 1097.62 434.035 1100.11 435.484L1104.67 438.18L1105.09 445.332L1107.68 446.785ZM1104.78 436.211L1100.22 433.516C1098.66 432.582 1097.62 431.754 1096.9 430.82C1096.18 429.887 1095.86 428.957 1095.76 427.918C1095.76 427.191 1095.86 426.676 1096.18 426.363C1096.48 426.055 1097 425.949 1097.62 426.156C1098.04 426.262 1098.77 426.676 1099.8 427.297L1104.36 429.887L1104.78 436.211ZM1094.93 439.426L1086.95 417.863L1084.36 416.414L1078.14 429.785L1080.84 431.34L1082.6 427.191L1090.06 431.547L1092.34 437.973L1094.93 439.426ZM1089.34 429.164L1083.32 425.637L1084.88 421.805C1085.4 420.664 1085.71 419.625 1085.91 418.902C1086.23 420.145 1086.64 421.492 1087.05 422.84L1089.34 429.164ZM1073.17 426.777L1072.65 419.316L1078.87 413.098L1075.96 411.438L1072.75 414.754C1072.13 415.375 1071.61 416 1071.09 416.723C1070.47 415.481 1069.75 414.027 1068.92 412.473L1065.19 405.32L1062.39 403.766L1070.16 418.07L1070.68 425.535L1073.17 426.777ZM1055.14 416.414L1054 398.793L1051.61 397.34L1043.11 405.738L1042.29 391.848L1040 390.5L1041.14 408.121L1043.53 409.57L1052.03 401.176L1052.86 415.066L1055.14 416.414ZM1037.31 397.754C1037.1 394.852 1036.17 392.055 1034.51 389.465C1032.85 386.871 1030.68 384.902 1028.19 383.449C1026.53 382.52 1025.08 382 1023.84 382C1022.59 382 1021.66 382.52 1021.04 383.449C1020.42 384.488 1020.21 385.836 1020.31 387.598C1020.42 389.359 1020.93 391.227 1021.66 392.988C1022.39 394.75 1023.63 396.512 1024.98 397.961C1026.32 399.414 1027.77 400.656 1029.33 401.59C1030.99 402.523 1032.44 403.043 1033.79 403.043C1035.03 403.043 1035.96 402.523 1036.59 401.488C1037.1 400.555 1037.41 399.309 1037.31 397.754ZM1034.82 396.406C1034.93 398.481 1034.51 399.828 1033.37 400.449C1032.34 400.969 1030.88 400.762 1029.12 399.727C1027.36 398.688 1025.8 397.238 1024.66 395.371C1023.42 393.504 1022.8 391.434 1022.59 389.152C1022.49 387.699 1022.7 386.563 1023.11 385.836C1023.53 385.008 1024.15 384.59 1025.08 384.59C1026.01 384.59 1027.05 384.902 1028.19 385.523C1029.85 386.457 1031.3 387.906 1032.64 389.672C1033.99 391.535 1034.72 393.711 1034.82 396.406ZM1014.61 392.883L1018.24 377.957L1015.86 376.508L1013.89 386.457C1013.68 387.492 1013.47 388.531 1013.37 389.672C1012.75 387.492 1012.44 386.25 1012.33 385.938L1008.19 372.051L1005.39 370.391L1003.42 377.856C1002.9 379.719 1002.59 381.481 1002.38 383.242C1002.07 382 1001.66 380.551 1001.24 378.891L997.719 365.934L995.336 364.586L1001.35 385.008L1003.63 386.356L1006.53 375.055C1006.74 374.121 1006.95 373.5 1006.95 373.293C1007.15 374.227 1007.36 374.953 1007.57 375.676L1012.23 391.328L1014.61 392.883ZM1136.59 304.258L1149.86 311.93C1151.83 313.07 1153.38 315.766 1153.38 317.941V325.715L1136.59 315.973V304.258ZM1134.83 317.113V340.848L1119.8 332.145V294.516L1134.83 303.223V317.113ZM1101.25 297.731L1118.04 307.473V317.32L1101.25 307.578V297.731ZM1118.04 331.106L1104.78 323.438C1102.81 322.297 1101.25 319.602 1101.25 317.422V309.648L1118.04 319.395V331.106ZM1153.38 337.637L1136.59 327.895V318.148L1153.38 327.895V337.637ZM1153.38 339.711V347.484C1153.38 349.66 1151.83 350.594 1149.86 349.453L1136.59 341.781V329.965L1153.38 339.711ZM1101.25 295.762V287.984C1101.25 285.809 1102.81 284.875 1104.78 286.016L1118.04 293.688V305.504L1101.25 295.762ZM908.18 270.262C919.578 300.32 954.504 323.746 954.504 323.746C954.504 323.746 954.504 387.805 954.504 403.973C954.504 428.438 908.18 430.719 908.18 430.719C875.016 411.543 861.852 360.336 861.852 350.488C861.852 340.641 861.852 270.262 861.852 270.262C885.066 281.352 908.18 270.262 908.18 270.262ZM875.016 323.852L916.055 395.371L936.574 383.449V359.609L916.055 371.531L874.91 300.219L875.016 323.852Z" fill="#22DBDE"/>
<path d="M778.664 282.918C778.746 282.879 778.828 282.836 778.914 282.754L779.035 282.672C785.031 279.145 788.727 271.633 788.727 261.047C788.727 239.582 773.531 213.277 754.93 202.566C744.746 196.699 735.547 196.656 729.348 201.418L709.551 212.66L702.078 231.457C706.227 265.437 722.691 279.348 731.605 288.582L756.738 295.598L778.664 282.918ZM640.48 228.543L613.91 222.102C604.957 212.867 587.504 198.012 585.41 163.5L593.254 145.648L613.09 134.363C619.289 129.641 628.488 129.641 638.672 135.512C657.273 146.223 672.469 172.566 672.469 193.988C672.469 204.578 668.773 212.086 662.777 215.656L662.656 215.738C662.574 215.781 662.492 215.82 662.41 215.902L640.48 228.543Z" fill="#22DBDE"/>
<path d="M776.57 224.109L749.551 239.707L757.352 244.219L780.516 230.84C779.281 228.543 777.969 226.328 776.57 224.109ZM772.055 217.875L748.523 231.457L740.516 228.422L767.617 212.785C769.18 214.387 770.656 216.066 772.055 217.875ZM785.812 243.605L763.062 256.734L755.055 253.66L783.469 237.242C784.375 239.379 785.152 241.469 785.812 243.605ZM762.363 207.82L738.297 221.73L730.207 219.801L757.395 204.125C759.078 205.191 760.719 206.465 762.363 207.82ZM758.832 266.133L787.414 249.637C787.863 251.648 788.191 253.699 788.398 255.668L766.922 268.062L758.832 266.133ZM752.426 201.211L726.512 216.148L720.805 214.223L747.047 199.078C748.812 199.613 750.578 200.309 752.426 201.211ZM759.57 278.199L788.727 261.375C788.727 263.301 788.562 265.148 788.316 266.832L765.277 280.129L759.57 278.199ZM741.953 198.094L716.82 212.578H710.906L735.176 198.586C737.27 198.012 739.531 197.848 741.953 198.094ZM757.188 287.801L787.617 270.195C787.207 271.715 786.715 273.152 786.098 274.465L763.062 287.762H757.188V287.801ZM779.035 282.715L778.914 282.797C778.828 282.836 778.746 282.879 778.664 282.961L760.762 293.301H756.121L785.031 276.598C783.469 279.227 781.418 281.277 779.035 282.715ZM664.215 163.828L641.055 177.203L633.25 172.691L660.273 157.098C661.711 159.269 663.023 161.527 664.215 163.828ZM655.797 150.859L632.266 164.441L624.258 161.406L651.363 145.769C652.922 147.328 654.402 149.055 655.797 150.859ZM669.555 176.547L646.805 189.68L638.797 186.644L667.215 170.23C668.117 172.32 668.898 174.457 669.555 176.547ZM646.105 140.762L622 154.676L613.91 152.746L641.094 137.07C642.82 138.18 644.461 139.41 646.105 140.762ZM642.574 199.117L671.156 182.621C671.605 184.633 671.938 186.684 672.141 188.656L650.664 201.047L642.574 199.117ZM636.168 134.199L610.254 149.137L604.547 147.207L630.789 132.062C632.512 132.598 634.32 133.293 636.168 134.199ZM643.312 211.144L672.469 194.316C672.469 196.246 672.305 198.094 672.059 199.777L649.02 213.07L643.312 211.144ZM618.918 131.531C621.016 130.996 623.273 130.832 625.656 131.039L600.523 145.523H594.609L618.918 131.531ZM640.93 220.746L671.359 203.184C670.949 204.699 670.457 206.137 669.84 207.449L646.805 220.746H640.93ZM662.777 215.699L662.656 215.781C662.574 215.82 662.492 215.863 662.41 215.945L644.504 226.285H639.863L668.773 209.625C667.215 212.168 665.16 214.262 662.777 215.699Z" fill="#22DBDE"/>
<path d="M733.453 214.961C752.055 225.672 767.25 252.016 767.25 273.437C767.25 294.859 752.055 303.641 733.453 292.93C714.848 282.219 699.656 255.875 699.656 234.453C699.656 212.988 714.848 204.207 733.453 214.961ZM742.035 261.906C742.035 261.703 741.953 261.496 741.828 261.293C741.707 261.086 741.5 260.922 741.215 260.758L735.836 257.641V257.187L733.164 255.629V259.156L738.543 262.277C738.832 262.441 739.039 262.605 739.16 262.809C739.285 263.016 739.367 263.219 739.367 263.426C739.367 263.59 739.324 263.672 739.242 263.754L741.828 262.277L741.871 262.234C741.992 262.195 742.035 262.07 742.035 261.906ZM733.781 254.644L738.586 257.434C738.871 257.598 739.078 257.762 739.203 257.969C739.324 258.172 739.406 258.379 739.406 258.543C739.406 258.707 739.367 258.828 739.242 258.871L741.953 257.352C742.035 257.269 742.074 257.187 742.074 257.023C742.074 256.816 741.992 256.652 741.871 256.449C741.746 256.242 741.543 256.078 741.254 255.914L736.449 253.125L741.379 247.586L740.473 247.051L733.781 254.644ZM725.445 254.891C725.445 254.891 725.484 254.848 725.527 254.848C725.648 254.809 725.855 254.848 726.145 255.055L731.523 258.172V255.094L728.812 253.535C728.523 253.371 728.32 253.289 728.195 253.328C728.195 253.328 728.156 253.328 728.156 253.371C728.113 253.371 725.445 254.891 725.445 254.891ZM727.004 261.906L727.047 261.867L727.004 261.906ZM727.949 262.07L731.48 264.121V261.047L730.617 260.551C730.207 260.305 729.922 260.223 729.758 260.305C729.715 260.305 729.715 260.348 729.715 260.348L727.129 261.824C727.293 261.785 727.539 261.867 727.949 262.07ZM740.27 266.461C740.105 266.176 739.816 265.93 739.406 265.723L735.875 263.629V262.031L733.207 260.469V265.148L736.738 267.242C737.148 267.488 737.438 267.734 737.602 267.98C737.766 268.269 737.848 268.516 737.848 268.801C737.848 269.09 737.766 269.254 737.602 269.336L740.27 267.855C740.434 267.773 740.516 267.609 740.516 267.324C740.516 267.035 740.434 266.75 740.27 266.461ZM728.812 248.652C728.523 248.488 728.32 248.406 728.195 248.488L728.156 248.527L725.484 250.008C725.484 250.008 725.484 249.965 725.527 249.965C725.648 249.922 725.855 249.965 726.145 250.129L730.988 252.961L729.18 248.855L728.812 248.652ZM731.398 238.352C731.523 238.269 731.562 238.105 731.562 237.859C731.562 237.57 731.48 237.285 731.316 237.039C731.152 236.75 730.863 236.504 730.453 236.301L725.938 233.672C725.527 233.426 725.238 233.344 725.074 233.426L725.035 233.469L722.363 234.945C722.363 234.945 722.406 234.945 722.406 234.902C722.57 234.82 722.855 234.902 723.27 235.148L727.785 237.777C728.195 238.023 728.484 238.269 728.648 238.516C728.812 238.801 728.895 239.047 728.895 239.336C728.895 239.625 728.812 239.789 728.648 239.871C728.484 239.953 728.195 239.871 727.785 239.625L726.141 238.68L732.301 252.797L734.52 250.293L729.676 239.254L731.398 238.352ZM744.992 245.039C744.828 244.754 744.539 244.508 744.129 244.301L739.57 241.633C739.16 241.387 738.871 241.305 738.707 241.387C738.707 241.387 738.668 241.387 738.668 241.43L736 242.906C736 242.906 736 242.906 736.039 242.906C736.203 242.824 736.492 242.906 736.902 243.152L741.461 245.82C741.871 246.066 742.16 246.312 742.324 246.559C742.488 246.848 742.57 247.094 742.57 247.379C742.57 247.625 742.488 247.789 742.363 247.871L745.074 246.352C745.195 246.269 745.277 246.105 745.277 245.859C745.277 245.574 745.156 245.285 744.992 245.039ZM733.453 286.285C743.844 292.273 752.957 290.922 757.805 283.945C752.672 287.391 745.32 287.227 737.188 282.508C721.75 273.602 709.141 251.769 709.141 233.961C709.141 228.172 710.496 223.496 712.836 220.129C708.238 223.25 705.406 229.324 705.406 237.734C705.406 255.547 718.012 277.379 733.453 286.285ZM617.195 147.902C635.797 158.613 650.992 184.961 650.992 206.383C650.992 227.805 635.797 236.586 617.195 225.875C598.594 215.164 583.398 188.859 583.398 167.398C583.398 145.934 598.594 137.191 617.195 147.902ZM619.617 202.195C619.781 202.074 619.863 201.828 619.863 201.336V198.461C619 198.34 618.016 198.012 616.988 197.476V202.976C616.988 203.43 616.906 203.715 616.742 203.84C616.742 203.84 616.742 203.84 616.703 203.84L619.617 202.195C619.578 202.195 619.578 202.195 619.617 202.195ZM615.84 183.441C617.934 184.223 619.289 184.551 619.945 184.426C620.727 184.305 621.18 183.687 621.219 182.582C620.562 182.418 619.742 182.172 618.715 181.801C616.621 181.019 615.223 180.609 614.484 180.57C613.703 180.488 613.09 180.609 612.637 180.898L609.762 182.539C610.254 182.254 610.871 182.129 611.609 182.211C612.348 182.293 613.746 182.703 615.84 183.441ZM613.582 173.676C613.621 173.676 613.664 173.633 613.664 173.594C613.129 173.469 612.676 173.469 612.227 173.551C611.488 173.676 611.074 174.086 610.992 174.742C610.953 175.07 610.828 175.277 610.707 175.359L613.582 173.676ZM619 193.496C617.152 192.391 615.676 191.035 614.609 189.434C613.539 187.832 613.008 186.355 613.008 185.004C613.008 184.797 613.008 184.59 613.047 184.387C612.883 184.344 612.719 184.305 612.594 184.305C611.734 184.223 611.117 184.344 610.746 184.758C610.336 185.168 610.172 185.781 610.172 186.644C610.172 187.957 610.707 189.434 611.773 191.074C612.844 192.719 614.32 194.07 616.168 195.137C617.977 196.207 619.414 196.617 620.438 196.41C621.508 196.207 622.039 195.715 622.121 194.973C622.121 194.891 622.121 194.809 622.164 194.726C621.219 194.644 620.191 194.195 619 193.496ZM613.867 169.859C613.867 169.488 613.785 169.16 613.621 168.875C613.457 168.586 613.254 168.383 613.047 168.258C612.801 168.137 612.637 168.094 612.473 168.176H612.43L609.559 169.816C609.723 169.734 609.926 169.734 610.172 169.898C610.379 170.023 610.582 170.23 610.746 170.516C610.91 170.805 610.992 171.133 610.992 171.5C611.773 171.379 612.473 171.379 613.047 171.461C613.621 171.582 614.363 171.828 615.266 172.281V169.898C615.266 169.816 615.266 169.777 615.266 169.734C614.855 169.777 614.402 169.777 613.867 169.859ZM624.137 176.426C623.066 174.539 621.59 172.937 619.824 171.664V169.285C619.824 168.832 619.742 168.465 619.578 168.176C619.414 167.891 619.207 167.684 618.961 167.519C618.715 167.355 618.508 167.355 618.344 167.437L615.594 169.039C615.715 168.996 615.879 169.039 616.086 169.16C616.332 169.324 616.539 169.531 616.703 169.816C616.867 170.105 616.949 170.476 616.949 170.926V173.305C618.754 174.578 620.191 176.18 621.262 178.066C622.328 179.953 622.902 181.719 622.902 183.32C622.902 184.758 622.574 185.66 621.875 186.109C621.875 186.109 624.176 184.797 624.586 184.551C624.586 184.551 624.629 184.551 624.629 184.508H624.668C625.406 184.059 625.777 183.113 625.777 181.637C625.777 180.035 625.242 178.312 624.137 176.426ZM626.641 194.398C626.641 193.949 626.559 193.578 626.395 193.293C626.23 193.004 626.023 192.801 625.777 192.637C625.531 192.512 625.324 192.473 625.16 192.555L622.285 194.195C622.453 194.113 622.656 194.113 622.902 194.277C623.148 194.441 623.355 194.644 623.52 194.934C623.684 195.219 623.766 195.59 623.766 196.043V199.695C623.766 200.144 623.684 200.434 623.52 200.516L626.352 198.871H626.395C626.559 198.789 626.641 198.504 626.641 198.051V194.398ZM623.477 200.555C623.52 200.555 623.477 200.555 623.477 200.555V200.555ZM617.195 219.269C627.586 225.262 636.703 223.906 641.547 216.93C636.414 220.375 629.062 220.211 620.934 215.492C605.492 206.59 592.883 184.758 592.883 166.945C592.883 161.16 594.238 156.48 596.578 153.117C591.98 156.234 589.148 162.309 589.148 170.723C589.148 188.531 601.754 210.363 617.195 219.269Z" fill="#22DBDE"/>
<path d="M694.77 219.145L700.641 205.645L668.156 186.891L652.02 190.992L694.77 219.145ZM643.684 189.312L649.555 185.945L668.117 182.375L662.902 187.586L643.684 189.312ZM678.094 228.297L682.039 226L700.602 250.992L694.727 254.355L675.551 245.328L652.266 233.344L643.641 215.164L649.516 211.801L678.094 228.297Z" fill="#EAE5FF"/>
<path d="M694.77 227.762L700.641 224.398V205.645L694.77 209.008L662.285 190.254L668.156 186.891V182.418L662.285 185.781L643.723 189.352L662.285 214.344L666.883 211.676L694.77 227.762ZM676.207 229.406L694.77 254.398L676.207 257.969V252.715L643.723 233.961V215.207L676.207 233.961V229.406Z" fill="#024BD6"/>
<path d="M442.359 101.231V162.016C442.359 162.715 442.602 163.195 443.008 163.434L445.695 164.973L449.176 160.598L534.652 112.731C535.855 112.031 537.148 108.566 537.148 107.172V49.2774L539.285 46.5821L536.574 45.0196C536.164 44.754 535.613 44.7774 534.988 45.1368L444.543 97.4805C443.344 98.1524 442.359 99.8594 442.359 101.231Z" fill="#EAE5FF"/>
<path d="M447.234 99.0195L537.68 46.7031C538.879 46.0039 539.84 46.582 539.84 47.9531V108.738C539.84 110.109 538.856 111.816 537.68 112.488L447.234 164.805C446.031 165.504 445.074 164.926 445.074 163.555V102.797C445.047 101.398 446.031 99.7149 447.234 99.0195ZM494.113 134.258L529.086 114.027V107.652L494.113 127.883V134.258ZM455.465 108.738L490.438 88.4844V82.1094L455.465 102.34V108.738Z" fill="#024BD6"/>
<path d="M527.164 98.6562L527.188 104.574L525.918 105.32C525.82 105.367 525.773 105.418 525.723 105.488C525.676 105.562 525.676 105.609 525.676 105.684C525.676 105.73 525.699 105.777 525.723 105.801C525.773 105.824 525.82 105.801 525.918 105.754L528.82 104.07C528.918 104.023 528.965 103.973 529.012 103.902C529.062 103.828 529.062 103.781 529.062 103.711C529.062 103.637 529.035 103.613 529.012 103.59C528.965 103.566 528.918 103.59 528.82 103.637L527.547 104.383L527.523 99.043L528.723 98.7773C528.773 98.7539 528.82 98.7539 528.844 98.7305C528.895 98.707 528.941 98.6562 528.965 98.5859C529.012 98.5117 529.012 98.4648 529.012 98.418C529.012 98.3711 528.988 98.3203 528.965 98.2969C528.941 98.2734 528.895 98.2734 528.82 98.2969L527.164 98.6562ZM520.227 105.395V106.426C520.227 107.316 520.418 107.918 520.805 108.23C521.09 108.473 521.477 108.449 521.93 108.184C522.148 108.062 522.363 107.895 522.555 107.68C522.746 107.461 522.914 107.246 523.035 106.98C523.133 106.812 523.203 106.598 523.324 106.281C523.418 105.969 523.492 105.707 523.539 105.488C523.613 105.176 523.637 104.816 523.637 104.43V103.398C523.637 102.484 523.445 101.883 523.059 101.594C522.773 101.352 522.387 101.375 521.93 101.641C521.715 101.762 521.5 101.93 521.309 102.145C521.117 102.363 520.949 102.578 520.828 102.844C520.73 103.012 520.637 103.227 520.539 103.539C520.445 103.828 520.371 104.094 520.324 104.336C520.25 104.648 520.227 105.008 520.227 105.395ZM520.613 105.227C520.613 104.84 520.66 104.43 520.754 104.047C520.852 103.637 520.973 103.324 521.09 103.035C521.164 102.867 521.258 102.723 521.379 102.578C521.547 102.363 521.738 102.195 521.93 102.074C522.34 101.832 522.676 101.883 522.914 102.219C523.156 102.555 523.277 103.035 523.277 103.684V104.598C523.277 104.984 523.227 105.395 523.133 105.777C523.035 106.187 522.914 106.523 522.797 106.789C522.723 106.934 522.629 107.102 522.508 107.246C522.34 107.461 522.148 107.629 521.93 107.75C521.523 107.992 521.188 107.941 520.949 107.605C520.707 107.27 520.586 106.766 520.586 106.141L520.613 105.227ZM514.996 108.543C515.188 108.809 515.426 108.977 515.691 109C515.953 109.051 516.219 108.977 516.508 108.809C516.77 108.664 517.012 108.422 517.25 108.137C517.492 107.824 517.684 107.484 517.828 107.078C517.973 106.668 518.043 106.309 518.043 105.945C518.043 105.441 517.898 105.055 517.609 104.793C517.324 104.527 516.938 104.551 516.484 104.816C516.148 105.008 515.836 105.297 515.57 105.707C515.309 106.09 515.09 106.57 514.922 107.102C514.73 107.797 514.633 108.52 514.633 109.266C514.633 109.867 514.73 110.301 514.898 110.59C515.02 110.781 515.188 110.949 515.402 111.07C515.617 111.191 515.859 111.262 516.148 111.262C516.508 111.262 516.914 111.141 517.301 110.902C517.562 110.758 517.777 110.566 517.945 110.348C518.02 110.25 518.066 110.156 518.066 110.082C518.066 110.035 518.043 109.988 518.02 109.965C517.996 109.938 517.945 109.965 517.898 109.988C517.875 110.012 517.805 110.059 517.754 110.133C517.637 110.25 517.516 110.371 517.348 110.469C516.723 110.828 516.172 110.902 515.738 110.637C515.309 110.371 515.066 109.891 515.043 109.121C514.969 109 514.969 108.785 514.996 108.543ZM515.043 107.797C515.188 107.027 515.379 106.477 515.617 106.09C515.859 105.707 516.121 105.441 516.434 105.25C516.746 105.055 517.035 105.055 517.273 105.227C517.516 105.395 517.637 105.707 517.637 106.164C517.637 106.621 517.516 107.055 517.273 107.484C517.035 107.918 516.77 108.23 516.457 108.398C516.289 108.496 516.121 108.543 515.953 108.543C515.785 108.543 515.617 108.473 515.477 108.352C515.379 108.254 515.234 108.086 515.043 107.797ZM510.312 111.551C510 111.887 509.785 112.25 509.617 112.633C509.473 112.992 509.379 113.355 509.379 113.668C509.379 114.172 509.547 114.484 509.883 114.652C510.219 114.82 510.625 114.773 511.082 114.508C511.562 114.246 511.945 113.812 512.281 113.258C512.617 112.707 512.762 112.176 512.762 111.695C512.762 111.383 512.691 111.141 512.523 110.949C512.355 110.758 512.137 110.684 511.801 110.684C512.066 110.348 512.258 110.059 512.402 109.793C512.57 109.434 512.668 109.074 512.641 108.762C512.641 108.305 512.473 107.992 512.164 107.824C511.852 107.652 511.465 107.703 511.035 107.965C510.578 108.23 510.219 108.617 509.906 109.145C509.594 109.676 509.449 110.156 509.449 110.613C509.449 110.949 509.547 111.191 509.715 111.359C509.859 111.453 510.051 111.527 510.312 111.551ZM509.762 113.449C509.762 113.09 509.883 112.68 510.145 112.273C510.387 111.863 510.723 111.527 511.082 111.309C511.465 111.094 511.777 111.047 512.02 111.164C512.258 111.285 512.402 111.527 512.402 111.91C512.402 112.297 512.281 112.68 512.02 113.113C511.754 113.547 511.441 113.859 511.082 114.078C510.699 114.293 510.387 114.34 510.145 114.195C509.906 114.078 509.762 113.812 509.762 113.449ZM509.859 110.395C509.859 110.035 509.977 109.652 510.219 109.266C510.457 108.879 510.746 108.566 511.082 108.375C511.418 108.184 511.707 108.137 511.945 108.254C512.188 108.375 512.305 108.617 512.305 108.953C512.305 109.289 512.188 109.625 511.969 110.012C511.73 110.395 511.441 110.684 511.105 110.879C510.746 111.07 510.457 111.117 510.219 111.023C509.977 110.926 509.859 110.707 509.859 110.395ZM498.984 115.734V115.543L501.648 114.004V114.363C501.648 114.461 501.672 114.535 501.695 114.559C501.723 114.582 501.77 114.582 501.84 114.535C501.891 114.508 501.938 114.461 501.961 114.391C501.984 114.316 502.008 114.246 502.008 114.148V113.355L498.602 115.328V116L500.113 120.5C500.137 120.57 500.16 120.617 500.207 120.617C500.234 120.617 500.281 120.617 500.328 120.594C500.375 120.57 500.426 120.523 500.473 120.449C500.496 120.379 500.52 120.332 500.52 120.281C500.52 120.258 500.52 120.211 500.496 120.16L498.984 115.734ZM495.91 120.5C495.672 120.258 495.434 120.113 495.191 120.066C494.953 120.02 494.688 120.09 494.375 120.258C493.992 120.5 493.633 120.883 493.32 121.414C493.008 121.965 492.863 122.496 492.863 123.047C492.863 123.555 493.008 123.914 493.297 124.18C493.582 124.418 493.969 124.418 494.449 124.133C494.762 123.938 495.07 123.648 495.336 123.266C495.625 122.879 495.84 122.422 495.984 121.871C496.176 121.172 496.273 120.5 496.273 119.801C496.273 119.273 496.176 118.84 495.984 118.504C495.84 118.238 495.648 118.047 495.406 117.902C495.168 117.781 494.902 117.707 494.59 117.734C494.281 117.758 493.945 117.852 493.582 118.07C493.344 118.215 493.129 118.383 492.961 118.598C492.887 118.695 492.863 118.766 492.863 118.863C492.863 118.91 492.887 118.961 492.91 118.984C492.938 119.008 492.984 119.008 493.031 118.961C493.078 118.934 493.105 118.887 493.176 118.84C493.297 118.695 493.441 118.574 493.633 118.477C494.207 118.141 494.734 118.117 495.215 118.406C495.695 118.695 495.938 119.199 495.938 119.969C495.938 120.09 495.938 120.258 495.91 120.5ZM495.84 121.246C495.719 121.918 495.551 122.445 495.312 122.855C495.07 123.266 494.785 123.555 494.473 123.746C494.137 123.938 493.848 123.961 493.633 123.793C493.391 123.648 493.273 123.336 493.273 122.855C493.273 122.422 493.391 121.988 493.609 121.582C493.848 121.148 494.113 120.859 494.398 120.691C494.688 120.523 494.953 120.5 495.215 120.617C495.406 120.691 495.625 120.906 495.84 121.246ZM490.391 120.523L490.414 122.566C490.199 122.59 489.984 122.641 489.793 122.711C489.598 122.785 489.406 122.855 489.215 122.977C488.758 123.242 488.352 123.648 488.039 124.203C487.727 124.758 487.582 125.332 487.582 125.934C487.582 126.609 487.773 127.043 488.109 127.234C488.473 127.449 488.902 127.379 489.43 127.09C489.793 126.898 490.129 126.609 490.438 126.246C490.68 125.984 490.871 125.719 491.062 125.43C491.184 125.262 491.23 125.141 491.23 125.07C491.23 125.02 491.207 124.973 491.184 124.949C491.16 124.926 491.109 124.926 491.062 124.949C491.016 124.973 490.969 125.047 490.895 125.141C490.465 125.863 489.961 126.391 489.453 126.68C489.023 126.922 488.664 126.969 488.375 126.801C488.086 126.633 487.941 126.273 487.941 125.719C487.941 125.238 488.062 124.805 488.305 124.371C488.543 123.938 488.855 123.625 489.238 123.41C489.625 123.191 490.008 123.074 490.391 123.074C490.488 123.074 490.559 123.047 490.582 123.047C490.633 123.023 490.68 122.977 490.703 122.902C490.727 122.855 490.75 122.785 490.75 122.711L490.727 119.945L488.137 121.438C488.039 121.484 487.992 121.531 487.941 121.605C487.895 121.676 487.895 121.727 487.895 121.797C487.895 121.848 487.918 121.895 487.941 121.918C487.992 121.941 488.039 121.918 488.137 121.871L490.391 120.523ZM483.285 128.75L485.734 127.332V126.848L483.645 124.035L482.879 124.492L482.902 128.582L482.59 128.75C482.492 128.797 482.445 128.871 482.398 128.918C482.352 128.988 482.352 129.039 482.352 129.109C482.352 129.156 482.375 129.207 482.398 129.23C482.445 129.254 482.492 129.23 482.59 129.184L482.902 129.016V130.336L482.59 130.504C482.492 130.555 482.445 130.625 482.398 130.672C482.352 130.746 482.352 130.793 482.352 130.867C482.352 130.914 482.375 130.961 482.398 130.984C482.445 131.012 482.492 130.984 482.59 130.938L483.957 130.145C484.055 130.098 484.102 130.023 484.148 129.977C484.199 129.902 484.199 129.855 484.199 129.785C484.199 129.711 484.176 129.688 484.148 129.664C484.102 129.641 484.055 129.664 483.957 129.711L483.262 130.121L483.285 128.75ZM483.285 128.34L483.262 124.684L483.453 124.562L485.352 127.137L483.285 128.34ZM472.34 133.441C472.004 133.801 471.742 134.211 471.574 134.594C471.406 135.004 471.309 135.363 471.309 135.676C471.309 136.184 471.5 136.52 471.859 136.688C472.219 136.855 472.676 136.785 473.23 136.469C473.539 136.277 473.875 136.012 474.215 135.676C474.551 135.316 474.789 135.027 474.934 134.785C474.98 134.715 475.004 134.641 475.004 134.57C475.004 134.523 474.98 134.473 474.957 134.449C474.934 134.426 474.887 134.426 474.836 134.449C474.789 134.473 474.742 134.523 474.668 134.617C474.215 135.27 473.734 135.727 473.23 136.039C472.797 136.277 472.438 136.352 472.148 136.207C471.859 136.062 471.715 135.82 471.715 135.438C471.715 135.195 471.789 134.906 471.934 134.57C472.078 134.258 472.27 133.945 472.559 133.656C472.82 133.367 473.086 133.129 473.371 132.984C473.469 132.934 473.516 132.887 473.566 132.812C473.613 132.742 473.613 132.695 473.613 132.621C473.613 132.574 473.59 132.527 473.566 132.5C473.539 132.477 473.469 132.5 473.398 132.551L473.086 132.742C472.75 132.934 472.484 132.984 472.27 132.887C472.051 132.789 471.934 132.574 471.934 132.285C471.934 131.973 472.051 131.637 472.27 131.25C472.484 130.891 472.797 130.578 473.156 130.387C473.422 130.242 473.637 130.145 473.852 130.121C474.07 130.098 474.238 130.121 474.383 130.215C474.43 130.266 474.453 130.266 474.5 130.266C474.551 130.266 474.551 130.266 474.598 130.242C474.645 130.215 474.691 130.168 474.719 130.121C474.742 130.07 474.766 130 474.766 129.953C474.766 129.809 474.645 129.734 474.383 129.664C474.02 129.59 473.613 129.688 473.156 129.953C472.699 130.215 472.316 130.602 472.004 131.105C471.715 131.586 471.547 132.07 471.574 132.5C471.574 132.789 471.645 133.008 471.789 133.176C471.934 133.344 472.078 133.441 472.34 133.441ZM469.293 138.203L466.438 139.863V139.695C466.438 139.598 466.41 139.523 466.387 139.5C466.363 139.477 466.316 139.477 466.242 139.523C466.195 139.551 466.148 139.598 466.102 139.668C466.074 139.742 466.051 139.812 466.051 139.91V140.488L469.629 138.395V137.77C468.859 137.434 468.141 137.098 467.422 136.711C467.082 136.543 466.844 136.398 466.723 136.301C466.605 136.207 466.508 136.109 466.461 135.988C466.41 135.895 466.387 135.773 466.387 135.629C466.387 135.27 466.508 134.883 466.773 134.449C467.035 134.016 467.324 133.703 467.707 133.488C468.02 133.297 468.309 133.246 468.57 133.297C468.813 133.367 468.98 133.512 469.051 133.801C469.078 133.871 469.102 133.898 469.125 133.922C469.148 133.945 469.195 133.922 469.246 133.898C469.293 133.871 469.34 133.824 469.363 133.777C469.387 133.727 469.414 133.656 469.414 133.609C469.414 133.441 469.34 133.27 469.172 133.102C469.004 132.934 468.812 132.84 468.523 132.84C468.262 132.84 467.973 132.934 467.684 133.078C467.227 133.344 466.82 133.754 466.484 134.305C466.148 134.859 465.98 135.363 466.004 135.82C466.004 136.012 466.027 136.184 466.102 136.301C466.148 136.422 466.242 136.543 466.387 136.664C466.531 136.785 466.773 136.926 467.109 137.098C467.996 137.555 468.691 137.891 469.246 138.105L469.293 138.203ZM462.066 136.469L462.09 142.387L460.82 143.133C460.723 143.18 460.676 143.23 460.629 143.301C460.578 143.375 460.578 143.422 460.578 143.496C460.578 143.543 460.602 143.59 460.629 143.613C460.676 143.637 460.723 143.613 460.82 143.566L463.723 141.883C463.82 141.836 463.867 141.785 463.914 141.715C463.965 141.641 463.965 141.594 463.965 141.523C463.965 141.449 463.941 141.426 463.914 141.402C463.867 141.379 463.82 141.402 463.723 141.449L462.453 142.195L462.426 136.855L463.629 136.59C463.676 136.566 463.723 136.566 463.746 136.543C463.797 136.52 463.844 136.469 463.867 136.398C463.914 136.328 463.914 136.277 463.914 136.23C463.914 136.184 463.891 136.133 463.867 136.109C463.844 136.086 463.797 136.086 463.723 136.109L462.066 136.469ZM455.129 143.207V144.238C455.129 145.129 455.32 145.73 455.707 146.043C455.996 146.285 456.379 146.262 456.836 145.996C457.051 145.875 457.266 145.707 457.457 145.492C457.652 145.273 457.82 145.059 457.938 144.793C458.035 144.625 458.105 144.41 458.227 144.094C458.324 143.781 458.395 143.52 458.441 143.301C458.516 142.988 458.539 142.629 458.539 142.242V141.211C458.539 140.297 458.348 139.695 457.961 139.406C457.676 139.164 457.289 139.188 456.836 139.453C456.617 139.574 456.402 139.742 456.211 139.957C456.02 140.176 455.852 140.391 455.73 140.656C455.633 140.824 455.539 141.039 455.441 141.352C455.348 141.641 455.273 141.906 455.227 142.148C455.152 142.461 455.129 142.82 455.129 143.207ZM455.492 143.039C455.492 142.652 455.539 142.242 455.633 141.859C455.73 141.449 455.852 141.137 455.969 140.848C456.043 140.68 456.137 140.535 456.258 140.391C456.426 140.176 456.617 140.008 456.809 139.887C457.219 139.645 457.555 139.695 457.793 140.031C458.035 140.367 458.156 140.848 458.156 141.496V142.41C458.156 142.797 458.105 143.207 458.012 143.59C457.914 144 457.793 144.336 457.676 144.602C457.602 144.746 457.508 144.914 457.387 145.059C457.219 145.273 457.027 145.441 456.809 145.562C456.402 145.805 456.066 145.754 455.828 145.418C455.586 145.082 455.465 144.578 455.465 143.953L455.492 143.039Z" fill="white"/>
<path d="M509.137 74.8673C509.137 78.4766 511.684 79.9454 514.777 78.1407C517.898 76.336 520.418 71.9337 520.418 68.3243C520.418 64.7188 517.898 63.2501 514.801 65.0548C511.707 66.8594 509.137 71.2618 509.137 74.8673Z" fill="#22DBDE"/>
<path d="M461.586 119.246L456.738 122.039C456.043 122.445 455.465 123.434 455.465 124.25V127.113L461.586 123.578V119.246ZM462.211 123.191V118.887L467.684 115.711V129.422L462.211 132.598V123.191ZM474.453 120.426L468.332 123.961V120.379L474.453 116.844V120.426ZM468.332 124.707L474.453 121.172V124.035C474.453 124.852 473.875 125.84 473.18 126.246L468.332 129.039V124.707ZM455.465 127.859L461.586 124.301V127.883L455.465 131.418V127.859ZM461.586 128.629V132.934L456.738 135.727C456.043 136.133 455.465 135.797 455.465 134.981V132.164L461.586 128.629ZM468.332 119.656V115.352L473.18 112.563C473.875 112.152 474.453 112.488 474.453 113.309V116.145L468.332 119.656ZM523.445 60.004C526.562 58.1993 529.086 59.668 529.086 63.2735C529.086 66.8829 526.539 71.2852 523.445 73.0899C520.324 74.8946 517.805 73.4258 517.805 69.8165C517.805 66.211 520.348 61.8087 523.445 60.004Z" fill="#22DBDE"/>
</svg>
