<svg width="1440" height="810" viewBox="0 0 1440 810" fill="none" xmlns="http://www.w3.org/2000/svg">
<path d="M1032.09 295.648L1026.25 368.617L1029.99 487.359C1029.99 487.359 1324.95 677.066 1326.43 677.59C1327.91 678.113 1326.43 563.469 1326.95 499.828C1327.47 436.184 1291.65 445.078 1282.5 436.969L1032.09 295.648Z" fill="white"/>
<path d="M1003.15 471.316L1012.12 482.914L1022.67 468.266L1023.2 468.004V290.68C1023.2 286.93 1025.55 283.965 1028.6 282.746C1030.86 281.871 1040.1 278.82 1042.54 280.215L1318.93 436.793C1331.74 444.203 1333.75 464.258 1343.77 474.543L1353.97 677.414C1343.86 685.785 1331.83 699.648 1328.95 701.566C1325.73 703.742 1321.28 704.266 1317.36 702L1241.09 657.973C1240.92 658.148 1240.66 658.324 1240.4 658.496L1196.38 683.691C1192.89 685.699 1188.54 685.699 1185.05 683.691L1087.43 627.375C1086.12 626.676 1085.52 625.195 1085.52 624.059V614.469L1082.72 609.762L1131.45 613.945L1131.54 594.68L1096.32 574.367L1078.63 577.332L1077.76 563.73L1040.28 542.109C1032 537.316 1026.25 529.469 1024.07 520.402L1008.03 509.328L998.441 474.02L1003.15 471.316ZM1190.63 497.996L1191.07 497.734V488.93L1186.79 486.488L1190.63 497.996ZM1156.11 488.32L1177.38 480.996L1156.11 468.617V488.32ZM1156.11 467.57L1178.52 480.559L1179.39 480.297L1183.92 477.684L1186.36 485.18L1191.07 487.883V447.777L1156.11 427.465V467.57ZM1156.11 426.418L1191.15 446.734V405.844L1156.2 385.617V426.418H1156.11ZM1155.24 487.359V468.094L1149.23 464.605L1155.24 487.359ZM1120.29 455.887L1127.35 451.965L1120.29 447.867V455.887ZM1120.29 446.734L1128.31 451.355L1138.94 445.426L1143.48 442.809L1148.88 463.297L1155.24 466.961V426.855L1120.29 406.543V446.734ZM1120.29 405.582L1155.24 425.898V385.184L1120.29 364.957V405.582ZM1119.33 455.449V447.258L1110 441.852L1119.33 455.449ZM1084.38 448.914L1109.05 441.242L1084.38 426.941V448.914ZM1084.38 425.898L1119.33 446.211V406.105L1084.38 385.793V425.898ZM1084.38 384.746L1119.33 405.059V364.434L1084.38 344.207V384.746ZM1078.8 450.656L1083.42 449.176V426.418L1066.69 416.656L1078.8 450.656ZM1048.47 457.719L1057.01 483.262L1057.27 483.086L1059.11 453.445L1048.38 447.258V457.719H1048.47ZM1048.47 446.211L1059.19 452.488L1061.37 417.266L1064.51 415.523L1048.47 406.195V446.211ZM1048.47 405.059L1065.46 414.91L1065.99 414.648L1066.25 415.348L1083.51 425.375V385.27L1048.56 364.957V405.059H1048.47ZM1048.47 363.824L1083.42 384.137V343.684L1048.47 323.457V363.824ZM1034.09 472.887L1038.1 442.809L1042.63 440.195L1047.6 454.93V321.891L1227.67 425.898L1227.93 426.07V592.937L1187.93 569.832L1190.02 579.859L1320.85 655.445V484.57C1320.85 473.496 1314.92 463.211 1305.33 457.719L1040.89 304.887C1037.84 303.145 1034.09 305.324 1034.09 308.812V472.887ZM1212.25 542.371L1220.7 582.387L1216.17 585.004V585.09L1227.06 591.367V551.004L1212.25 542.371ZM1226.98 549.867V509.766L1202.22 495.379L1211.9 541.152L1226.98 549.867ZM1199.08 493.551L1192.02 489.453V497.297L1199.08 493.551ZM1200.04 493.027L1201.61 492.156L1202.05 494.16L1227.06 508.719V468.617L1192.11 448.301V488.406L1200.04 493.027ZM1226.98 467.57V426.594L1192.02 406.367V447.258L1226.98 467.57ZM1236.21 592.152C1236.3 593.109 1236.56 594.07 1237.17 595.027C1237.87 596.25 1238.83 597.207 1239.96 597.82C1240.92 598.34 1241.62 598.516 1242.23 598.34C1242.75 598.168 1243.1 597.645 1243.1 596.859L1241.79 595.988C1241.71 596.598 1241.53 596.945 1241.18 597.035C1240.83 597.121 1240.4 597.035 1239.88 596.773C1239.27 596.422 1238.74 595.902 1238.3 595.203C1237.87 594.504 1237.61 593.809 1237.52 593.023C1237.43 592.324 1237.61 591.891 1238.04 591.715C1238.39 591.543 1238.92 591.629 1239.61 591.977C1240.05 592.238 1240.4 592.5 1240.75 592.848C1241.09 593.199 1241.36 593.633 1241.53 593.984L1242.75 594.504L1241.45 588.664L1236.3 585.699L1236.39 586.922L1240.48 589.273L1241.18 592.324C1240.57 591.543 1239.88 590.93 1239.18 590.582C1238.3 590.059 1237.52 589.887 1237 590.148C1236.48 590.582 1236.21 591.191 1236.21 592.152ZM1246.76 546.383L1245.98 545.945L1246.59 556.234L1247.89 556.93L1247.37 548.91C1247.72 549.344 1248.16 549.867 1248.59 550.48C1249.11 551.09 1249.55 551.523 1249.98 551.875L1249.9 550.652C1249.2 549.957 1248.5 549.172 1247.98 548.387C1247.37 547.602 1246.93 546.906 1246.76 546.383ZM1236.91 541.848C1237.17 541.586 1237.52 541.5 1237.87 541.5C1238.3 541.5 1238.74 541.672 1239.27 542.023C1240.05 542.457 1240.66 542.98 1241.18 543.68C1241.71 544.375 1242.14 545.16 1242.4 546.031C1242.66 546.906 1242.93 547.949 1242.93 549.172C1243.01 551.09 1242.75 552.309 1242.14 552.746C1241.62 553.094 1240.83 553.008 1239.88 552.484C1239.09 552.047 1238.48 551.523 1237.96 550.828C1237.43 550.129 1237 549.344 1236.74 548.473C1236.48 547.602 1236.21 546.555 1236.21 545.336C1236.13 544.289 1236.21 543.59 1236.3 543.07C1236.48 542.547 1236.65 542.109 1236.91 541.848ZM1237.61 546.031C1237.7 547.687 1237.96 548.91 1238.39 549.695C1238.83 550.48 1239.35 551.004 1239.88 551.352C1240.48 551.699 1240.92 551.699 1241.27 551.352C1241.62 551.004 1241.79 550.043 1241.62 548.387C1241.53 546.73 1241.18 545.422 1240.75 544.551C1240.4 543.852 1239.88 543.332 1239.27 542.98C1238.66 542.633 1238.22 542.633 1237.87 542.98C1237.61 543.418 1237.43 544.375 1237.61 546.031ZM1247.81 516.129L1247.29 508.109C1247.63 508.543 1248.07 509.066 1248.5 509.68C1249.03 510.289 1249.46 510.723 1249.9 511.074L1249.81 509.852C1249.11 509.156 1248.42 508.371 1247.89 507.586C1247.37 506.801 1246.93 506.105 1246.67 505.582L1245.89 505.145L1246.5 515.434L1247.81 516.129ZM1238.3 509.156C1237.87 508.457 1237.61 507.762 1237.52 506.977C1237.43 506.277 1237.61 505.844 1238.04 505.668C1238.39 505.492 1238.92 505.582 1239.61 505.93C1240.05 506.191 1240.4 506.453 1240.75 506.887C1241.09 507.238 1241.36 507.672 1241.53 508.023L1242.75 508.543L1241.45 502.703L1236.3 499.738L1236.39 500.961L1240.48 503.312L1241.18 506.363C1240.57 505.582 1239.88 504.969 1239.18 504.621C1238.3 504.098 1237.52 503.926 1236.91 504.187C1236.3 504.445 1236.04 505.059 1236.13 506.016C1236.21 506.977 1236.48 507.934 1237.09 508.895C1237.79 510.113 1238.74 511.074 1239.88 511.684C1240.83 512.207 1241.53 512.379 1242.14 512.207C1242.66 512.031 1243.01 511.508 1243.01 510.723L1241.71 509.852C1241.62 510.461 1241.45 510.812 1241.09 510.898C1240.75 510.984 1240.31 510.898 1239.79 510.637C1239.35 510.375 1238.83 509.852 1238.3 509.156ZM1244.23 466.262C1244.23 466.699 1244.41 467.133 1244.58 467.57C1244.76 468.094 1245.11 468.617 1245.54 469.312C1245.98 470.012 1246.67 470.969 1247.63 472.277C1248.42 473.324 1248.94 474.02 1249.2 474.371C1249.46 474.719 1249.64 475.066 1249.81 475.328L1244.76 472.363L1244.84 473.586L1251.64 477.508C1251.64 477.246 1251.55 476.898 1251.47 476.551C1251.29 476.027 1250.95 475.414 1250.51 474.719C1250.07 474.02 1249.55 473.234 1248.77 472.191C1247.55 470.621 1246.76 469.488 1246.32 468.703C1245.89 467.918 1245.63 467.309 1245.63 466.871C1245.63 466.348 1245.71 466.086 1246.06 465.914C1246.41 465.738 1246.85 465.914 1247.46 466.176C1248.07 466.523 1248.59 466.961 1248.94 467.57C1249.29 468.18 1249.55 468.789 1249.55 469.398L1250.86 470.012C1250.68 468.965 1250.34 468.094 1249.72 467.219C1249.11 466.348 1248.33 465.652 1247.37 465.129C1246.41 464.52 1245.63 464.344 1245.11 464.605C1244.41 464.953 1244.14 465.391 1244.23 466.262ZM1236.91 460.508C1237.17 460.246 1237.52 460.16 1237.87 460.16C1238.3 460.16 1238.74 460.332 1239.27 460.684C1240.05 461.117 1240.66 461.641 1241.18 462.34C1241.71 463.035 1242.14 463.82 1242.4 464.691C1242.66 465.562 1242.93 466.609 1242.93 467.832C1243.01 469.75 1242.75 470.969 1242.14 471.406C1241.62 471.754 1240.83 471.668 1239.88 471.145C1239.09 470.707 1238.48 470.184 1237.96 469.488C1237.43 468.789 1237 468.004 1236.74 467.133C1236.48 466.262 1236.21 465.215 1236.21 463.996C1236.13 462.949 1236.21 462.25 1236.3 461.727C1236.48 461.117 1236.65 460.77 1236.91 460.508ZM1237.61 464.691C1237.7 466.348 1237.96 467.57 1238.39 468.355C1238.83 469.137 1239.35 469.66 1239.88 470.012C1240.48 470.359 1240.92 470.359 1241.27 470.012C1241.62 469.66 1241.79 468.703 1241.62 467.047C1241.53 465.391 1241.18 464.082 1240.75 463.211C1240.4 462.512 1239.88 461.988 1239.27 461.641C1238.66 461.293 1238.22 461.293 1237.87 461.641C1237.61 461.988 1237.43 462.949 1237.61 464.691Z" fill="#024BD6"/>
<path d="M1156.55 636.441L1153.85 640.363V650.039C1153.76 654.398 1156.64 658.844 1162.39 662.16C1166.92 664.773 1172.59 666.344 1178.52 666.867C1187.41 670.266 1199.17 667.824 1206.06 663.902C1211.81 660.676 1216.43 655.445 1216.43 651.086L1212.51 641.41V640.363L1209.11 635.48C1208.15 634.695 1203.01 629.902 1201.87 629.203C1190.45 622.578 1172.32 624.582 1160.91 631.211C1159.69 631.906 1157.51 635.656 1156.55 636.441ZM1214.43 669.57C1225.84 662.941 1242.66 662.941 1254.08 669.57C1255.3 670.266 1258.27 674.625 1259.23 675.41L1263.5 680.117V689.883C1263.5 694.242 1260.62 698.602 1254.95 701.914C1243.54 708.539 1224.8 708.539 1213.38 701.914C1207.62 698.602 1204.75 694.152 1204.84 689.797V680.117L1209.11 674.973C1210.07 674.191 1213.2 670.266 1214.43 669.57ZM986.586 579.684C987.547 578.898 993.125 574.543 994.344 573.844C1005.76 567.219 1021.89 569.398 1033.3 575.938C1034.52 576.633 1036.44 579.945 1037.31 580.645L1041.23 584.914V591.367H1041.85C1041.5 590.234 1041.23 589.102 1041.23 587.969V578.203L1045.07 572.363C1046.03 571.578 1051.78 567.391 1052.91 566.695C1060.15 562.512 1069.13 561.898 1077.76 563.645L1096.32 574.367L1099.98 578.203V587.879C1099.98 590.668 1098.94 593.461 1096.58 595.988V601.043C1096.67 605.402 1094.05 611.418 1085.52 611.07C1085.52 612.727 1085.6 613.512 1085.52 614.559C1074.01 619.875 1057.1 619.441 1046.46 613.25C1041.32 610.285 1038.54 606.535 1038.01 602.613C1036.7 604.094 1034.88 605.492 1032.7 606.797C1021.28 613.426 1002.54 613.426 991.117 606.797C985.367 603.484 982.578 599.125 982.578 594.766V585.004L986.586 579.684ZM1057.01 483.262L1052.48 469.66V432.434L1061.46 417.18L1074.27 453.184L1104.95 443.68L1115.23 458.676L1138.86 445.426L1150.97 491.109L1179.39 480.297L1186.1 500.699L1196.99 494.855L1216.08 585.004L1187.58 568.527L1177.55 520.312L1160.21 502.355L1156.72 492.852L1131.01 495.031L1123.17 478.207L1104.17 485.004L1090.39 464.082L1057.01 483.262Z" fill="#22DBDE"/>
<path d="M1328.95 701.566L1348.74 690.145C1351.88 688.312 1354.14 684.914 1354.14 680.727L1353.62 467.219C1353.62 452.488 1345.69 438.801 1332.88 431.477L1055.36 272.109C1052.57 270.539 1049.52 270.715 1046.99 272.02L1046.9 272.109C1046.81 272.109 1046.81 272.195 1046.73 272.195L1028.6 282.746C1030.86 281.871 1033.57 281.871 1036.01 283.266L1313.09 443.332C1325.9 450.742 1333.75 464.344 1333.75 479.164V692.672C1333.75 696.508 1331.83 699.648 1328.95 701.566ZM1087.52 614.383L1154.2 652.918C1153.93 651.957 1153.85 651 1153.85 650.129V640.449L1156.55 636.527C1157.51 635.742 1159.69 631.992 1160.82 631.297C1167.36 627.547 1175.99 625.281 1184.36 625.281L1165.27 614.297L1162.21 616.039L1131.54 594.766L1120.73 588.578L1087.52 607.758C1084.9 609.152 1084.9 612.902 1087.52 614.383ZM1203.96 662.246C1209.72 658.934 1212.51 654.574 1212.51 650.215V641.41L1230.03 651.523L1196.47 670.789C1192.98 672.793 1188.62 672.793 1185.14 670.789L1178.52 666.953C1187.49 667.738 1197.08 666.168 1203.96 662.246ZM1139.82 543.59L1135.28 546.207L1127 552.223L1117.85 523.016L1081.68 538.359L1073.48 533.652L1065.99 519.617H1049.17L1047.69 518.746L1027.2 465.738L1025.46 466.699V452.922L1038.01 442.809L1052.39 485.879L1085.77 466.609L1099.55 487.535L1118.55 480.734L1126.39 497.559L1152.11 495.469L1155.59 504.969L1173.11 522.93L1189.23 600.434L1153.93 580.035L1139.82 543.59Z" fill="#1157F5"/>
<path d="M991.207 573.234C1002.63 566.609 1021.36 566.609 1032.78 573.234C1037.93 576.199 1040.71 580.035 1041.23 583.871L1041.32 583.781V588.055C1041.32 592.414 1044.2 596.773 1049.86 600.086C1061.28 606.711 1080.02 606.711 1091.44 600.086C1092.66 599.387 1093.71 598.602 1094.66 597.82C1093.27 600 1091 602.004 1088.04 603.746C1076.63 610.371 1057.88 610.371 1046.46 603.746C1041.32 600.781 1038.54 596.945 1038.01 593.109C1036.7 594.594 1034.88 595.988 1032.7 597.297C1021.28 603.922 1002.54 603.922 991.117 597.297C979.699 590.668 979.789 579.859 991.207 573.234ZM1016.83 593.199V594.941C1016.83 595.117 1016.92 595.289 1017.18 595.379C1017.36 595.551 1017.62 595.551 1017.88 595.641C1018.14 595.641 1018.4 595.551 1018.75 595.379L1025.2 591.629C1025.46 591.453 1025.63 591.281 1025.63 591.105V589.363C1025.63 589.535 1025.55 589.711 1025.2 589.887L1018.75 593.633C1018.49 593.809 1018.14 593.895 1017.88 593.895C1017.62 593.895 1017.36 593.809 1017.18 593.633C1016.92 593.461 1016.83 593.371 1016.83 593.199ZM1009.6 577.242C1009.86 577.07 1010.03 576.895 1010.03 576.719V576.633C1010.03 576.633 1010.03 575.414 1010.03 575.152C1009.95 575.238 1009.86 575.414 1009.6 575.5L1008.9 575.938L1009.51 577.242H1009.6ZM999.574 581.34L998.352 582.039L1000.01 582.387V580.816C1000.01 580.992 999.836 581.168 999.574 581.34ZM1004.37 578.727C1004.37 578.898 1004.45 579.074 1004.71 579.16C1004.98 579.336 1005.15 579.422 1005.41 579.422C1005.68 579.422 1005.94 579.336 1006.29 579.16L1007.5 578.465L1010.38 584.566L1011.25 584.742L1007.5 576.719L1006.29 577.418C1006.02 577.594 1005.68 577.68 1005.41 577.68C1005.15 577.68 1004.89 577.594 1004.71 577.418C1004.45 577.242 1004.37 577.156 1004.37 576.98V578.727ZM1017.88 582.996C1017.88 583.086 1017.79 583.258 1017.62 583.348L1013.7 585.613L1015.09 586.484L1017.62 585.004C1017.79 584.914 1017.88 584.742 1017.88 584.652V582.996ZM1021.36 585.789L1017.44 588.055L1018.84 588.926L1021.36 587.445C1021.54 587.355 1021.63 587.184 1021.63 587.094V585.352C1021.71 585.527 1021.54 585.699 1021.36 585.789ZM1010.82 592.414C1010.82 592.5 1010.91 592.676 1011.08 592.762C1011.25 592.848 1011.43 592.938 1011.6 592.938C1011.78 592.938 1012.04 592.848 1012.21 592.762L1016.13 590.496L1018.4 591.977L1019.79 591.191L1016.13 588.84L1012.21 591.105C1012.04 591.191 1011.78 591.281 1011.6 591.281C1011.43 591.281 1011.25 591.191 1011.08 591.105C1010.9 591.02 1010.82 590.93 1010.82 590.758V592.414ZM1007.07 589.973C1007.07 590.059 1007.16 590.234 1007.33 590.32C1007.5 590.406 1007.68 590.496 1007.86 590.496C1008.03 590.496 1008.2 590.406 1008.46 590.32L1012.39 588.055L1013.78 588.926L1015.18 588.141L1012.39 586.312L1008.46 588.578C1008.29 588.664 1008.03 588.75 1007.86 588.75C1007.68 588.75 1007.5 588.664 1007.33 588.578C1007.16 588.488 1007.07 588.402 1007.07 588.23V589.973ZM994.344 584.48C994.344 584.652 994.43 584.828 994.692 584.914C994.953 585.09 995.129 585.176 995.391 585.176C995.652 585.176 995.914 585.09 996.262 584.914L996.957 584.48L1008.81 587.008L1010.99 585.789L997.047 582.824L996.348 583.258C996.086 583.434 995.738 583.52 995.477 583.52C995.215 583.52 994.953 583.434 994.781 583.258C994.52 583.086 994.43 582.996 994.43 582.824V584.48H994.344ZM987.024 586.398C987.457 583.086 989.899 579.859 994.258 577.332C1004.02 571.664 1019.97 571.664 1029.73 577.332C1034.09 579.859 1036.53 583.086 1036.96 586.398C1037.49 582.301 1035.14 578.117 1029.73 574.977C1019.97 569.309 1004.02 569.309 994.258 574.977C988.852 578.117 986.414 582.301 987.024 586.398ZM1091.44 590.496C1080.02 597.121 1061.28 597.121 1049.86 590.496C1038.45 583.871 1038.45 573.059 1049.86 566.52C1054.92 563.555 1061.54 561.988 1068.17 561.637L998.527 521.359V473.848L1007.5 485.441L1022.58 468.266L1043.33 522.145H1061.28L1072.44 542.895L1113.32 525.547L1122.47 554.75L1135.28 546.121L1161.43 613.773L1162.21 615.863L1099.89 579.859C1099.37 583.781 1096.58 587.617 1091.44 590.496ZM1068.34 570.531C1068.61 570.355 1068.78 570.184 1068.78 570.008V569.922C1068.78 569.922 1068.78 568.699 1068.78 568.438C1068.69 568.527 1068.61 568.699 1068.34 568.785L1067.64 569.223L1068.26 570.531H1068.34ZM1058.23 574.629L1057.01 575.324L1058.67 575.676V574.105C1058.67 574.281 1058.58 574.453 1058.23 574.629ZM1063.11 572.012C1063.11 572.188 1063.2 572.363 1063.46 572.449C1063.72 572.625 1063.9 572.711 1064.16 572.711C1064.42 572.711 1064.68 572.625 1065.03 572.449L1066.25 571.75L1069.13 577.855L1070 578.027L1066.25 570.008L1065.03 570.707C1064.77 570.879 1064.42 570.965 1064.16 570.965C1063.9 570.965 1063.64 570.879 1063.46 570.707C1063.2 570.531 1063.11 570.445 1063.11 570.27V572.012ZM1076.54 576.285C1076.54 576.371 1076.45 576.547 1076.27 576.633L1072.35 578.898L1073.75 579.773L1076.27 578.289C1076.45 578.203 1076.54 578.027 1076.54 577.941V576.285ZM1080.11 579.074L1076.19 581.34L1077.58 582.215L1080.11 580.73C1080.29 580.645 1080.37 580.469 1080.37 580.383V578.637C1080.37 578.898 1080.29 578.988 1080.11 579.074ZM1075.49 588.141C1075.49 588.316 1075.58 588.488 1075.84 588.578C1076.01 588.75 1076.27 588.75 1076.54 588.84C1076.8 588.84 1077.06 588.75 1077.41 588.578L1083.86 584.828C1084.12 584.652 1084.29 584.48 1084.29 584.305V582.562C1084.29 582.734 1084.21 582.91 1083.86 583.086L1077.41 586.832C1077.14 587.008 1076.8 587.094 1076.54 587.094C1076.27 587.094 1076.01 587.008 1075.84 586.832C1075.58 586.66 1075.49 586.57 1075.49 586.398V588.141ZM1069.56 585.699C1069.56 585.789 1069.65 585.961 1069.82 586.051C1070 586.137 1070.17 586.223 1070.35 586.223C1070.52 586.223 1070.79 586.137 1070.96 586.051L1074.88 583.781L1077.14 585.266L1078.54 584.48L1074.88 582.125L1070.96 584.395C1070.79 584.48 1070.52 584.566 1070.35 584.566C1070.17 584.566 1070 584.48 1069.82 584.395C1069.65 584.305 1069.56 584.219 1069.56 584.043V585.699ZM1065.73 583.258C1065.73 583.348 1065.82 583.52 1065.99 583.609C1066.16 583.695 1066.34 583.781 1066.51 583.781C1066.69 583.781 1066.86 583.695 1067.12 583.609L1071.05 581.34L1072.44 582.215L1073.84 581.43L1071.05 579.598L1067.12 581.863C1066.95 581.953 1066.69 582.039 1066.51 582.039C1066.34 582.039 1066.16 581.953 1065.99 581.863C1065.82 581.777 1065.73 581.691 1065.73 581.516V583.258ZM1053 577.766C1053 577.941 1053.09 578.117 1053.35 578.203C1053.61 578.379 1053.79 578.465 1054.05 578.465C1054.31 578.465 1054.57 578.379 1054.92 578.203L1055.62 577.766L1067.47 580.297L1069.65 579.074L1055.7 576.109L1055.01 576.547C1054.75 576.719 1054.4 576.809 1054.14 576.809C1053.88 576.809 1053.61 576.719 1053.44 576.547C1053.18 576.371 1053.09 576.285 1053.09 576.109V577.766H1053ZM1052.91 568.266C1047.51 571.402 1045.16 575.586 1045.68 579.684C1046.12 576.371 1048.56 573.145 1052.91 570.617C1059.54 566.781 1068.87 565.562 1077.32 566.957L1072.44 564.168C1065.46 563.816 1058.23 565.211 1052.91 568.266ZM1094.84 576.98C1095.28 577.855 1095.54 578.727 1095.63 579.684C1095.71 578.988 1095.71 578.203 1095.63 577.504L1094.84 576.98ZM1213.38 668.438C1224.8 661.809 1243.54 661.809 1254.95 668.438C1266.37 675.062 1266.37 685.871 1254.95 692.41C1243.54 698.949 1224.8 699.035 1213.38 692.41C1201.96 685.785 1201.96 675.062 1213.38 668.438ZM1249.9 680.207C1250.16 680.379 1250.51 680.465 1250.77 680.465C1251.03 680.465 1251.29 680.379 1251.47 680.207C1251.73 680.031 1251.82 679.945 1251.82 679.77V678.027C1251.82 678.199 1251.73 678.375 1251.47 678.461C1251.21 678.637 1251.03 678.723 1250.77 678.723C1250.51 678.723 1250.25 678.637 1249.9 678.461L1249.2 678.027L1235.25 680.988L1237.43 682.211L1249.29 679.684L1249.9 680.207ZM1238.66 673.754L1239.88 674.449C1240.14 674.625 1240.48 674.711 1240.75 674.711C1241.01 674.711 1241.27 674.625 1241.45 674.449C1241.71 674.277 1241.79 674.191 1241.79 674.016V672.273C1241.79 672.445 1241.71 672.621 1241.45 672.707C1241.18 672.883 1241.01 672.969 1240.75 672.969C1240.48 672.969 1240.22 672.883 1239.88 672.707L1238.66 672.012L1234.91 680.031L1235.78 679.855L1238.66 673.754ZM1228.54 678.547C1228.37 678.461 1228.28 678.289 1228.28 678.199V679.945C1228.28 680.031 1228.37 680.207 1228.54 680.293L1231.07 681.773L1232.46 680.902L1228.54 678.547ZM1224.8 680.988C1224.62 680.902 1224.54 680.727 1224.54 680.641V682.383C1224.54 682.473 1224.62 682.645 1224.8 682.734L1227.32 684.215L1228.72 683.344L1224.8 680.988ZM1237.26 671.137L1236.56 670.703C1236.3 670.527 1236.21 670.441 1236.13 670.355C1236.13 670.703 1236.13 671.836 1236.13 671.836V671.922C1236.13 672.098 1236.3 672.273 1236.56 672.445L1236.65 672.531L1237.26 671.137ZM1247.81 677.242L1246.59 676.543C1246.32 676.367 1246.15 676.195 1246.15 676.02V677.59L1247.81 677.242ZM1238.3 685.699C1238.48 685.699 1238.66 685.609 1238.83 685.523C1239 685.438 1239.09 685.348 1239.09 685.176V683.43C1239.09 683.52 1239 683.691 1238.83 683.781C1238.66 683.867 1238.48 683.953 1238.3 683.953C1238.13 683.953 1237.96 683.867 1237.7 683.781L1233.77 681.512L1230.98 683.344L1232.38 684.129L1233.77 683.258L1237.7 685.523C1237.96 685.609 1238.13 685.699 1238.3 685.699ZM1233.95 687.965C1234.12 688.051 1234.38 688.137 1234.56 688.137C1234.73 688.137 1234.91 688.051 1235.08 687.965C1235.25 687.879 1235.34 687.789 1235.34 687.617V685.871C1235.34 685.961 1235.25 686.133 1235.08 686.219C1234.91 686.309 1234.73 686.395 1234.56 686.395C1234.38 686.395 1234.12 686.309 1233.95 686.219L1230.03 683.953L1226.36 686.309L1227.76 687.094L1230.03 685.609L1233.95 687.965ZM1220.53 686.309C1220.53 686.48 1220.61 686.656 1220.96 686.832L1227.41 690.578C1227.67 690.754 1228.02 690.84 1228.28 690.84C1228.54 690.84 1228.8 690.754 1228.98 690.578C1229.24 690.406 1229.33 690.316 1229.33 690.145V688.398C1229.33 688.574 1229.24 688.75 1228.98 688.836C1228.8 689.012 1228.54 689.012 1228.28 689.098C1228.02 689.098 1227.76 689.012 1227.41 688.836L1220.96 685.086C1220.7 684.914 1220.53 684.738 1220.53 684.562V686.309ZM1209.2 681.602C1209.63 678.289 1212.07 675.062 1216.43 672.531C1226.19 666.867 1242.14 666.867 1251.9 672.531C1256.26 675.062 1258.7 678.289 1259.14 681.602C1259.66 677.504 1257.31 673.316 1251.9 670.18C1242.14 664.512 1226.19 664.512 1216.43 670.18C1211.02 673.316 1208.59 677.504 1209.2 681.602ZM1162.39 628.77C1173.81 622.141 1192.55 622.141 1203.96 628.77C1215.38 635.395 1215.38 646.203 1203.96 652.742C1192.55 659.367 1173.81 659.367 1162.39 652.742C1150.97 646.117 1150.97 635.305 1162.39 628.77ZM1198.91 640.449C1199.17 640.625 1199.52 640.711 1199.78 640.711C1200.04 640.711 1200.3 640.625 1200.48 640.449C1200.74 640.277 1200.83 640.188 1200.83 640.016V638.27C1200.83 638.445 1200.74 638.621 1200.48 638.707C1200.22 638.883 1200.04 638.969 1199.78 638.969C1199.52 638.969 1199.26 638.883 1198.91 638.707L1198.21 638.27L1184.27 641.234L1186.45 642.457L1198.3 639.926L1198.91 640.449ZM1187.66 634L1188.89 634.695C1189.15 634.871 1189.5 634.957 1189.76 634.957C1190.02 634.957 1190.28 634.871 1190.45 634.695C1190.71 634.523 1190.8 634.434 1190.8 634.262V632.516C1190.8 632.691 1190.71 632.867 1190.45 632.953C1190.2 633.129 1190.02 633.215 1189.76 633.215C1189.5 633.215 1189.23 633.129 1188.89 632.953L1187.66 632.254L1183.92 640.277L1184.79 640.102L1187.66 634ZM1173.46 642.629C1173.46 642.719 1173.55 642.891 1173.72 642.98L1176.25 644.461L1177.64 643.59L1173.72 641.32C1173.55 641.234 1173.46 641.062 1173.46 640.973V642.629ZM1177.29 640.188C1177.29 640.277 1177.38 640.449 1177.55 640.539L1180.08 642.02L1181.48 641.148L1177.55 638.883C1177.38 638.793 1177.29 638.621 1177.29 638.531V640.188ZM1186.27 631.469L1185.57 631.035C1185.31 630.859 1185.23 630.773 1185.14 630.688C1185.14 631.035 1185.14 632.168 1185.14 632.168V632.254C1185.14 632.43 1185.31 632.605 1185.57 632.777L1185.66 632.867L1186.27 631.469ZM1195.16 637.836L1196.82 637.484L1195.6 636.789C1195.34 636.613 1195.16 636.441 1195.16 636.266V637.836ZM1187.32 645.941C1187.49 645.941 1187.66 645.855 1187.84 645.77C1188.02 645.68 1188.1 645.594 1188.1 645.418V643.676C1188.1 643.762 1188.02 643.938 1187.84 644.023C1187.66 644.113 1187.49 644.199 1187.32 644.199C1187.14 644.199 1186.97 644.113 1186.71 644.023L1182.79 641.758L1180 643.59L1181.39 644.375L1182.79 643.5L1186.71 645.77C1186.97 645.941 1187.14 645.941 1187.32 645.941ZM1182.96 648.297C1183.13 648.383 1183.39 648.473 1183.57 648.473C1183.74 648.473 1183.92 648.383 1184.09 648.297C1184.27 648.211 1184.36 648.121 1184.36 647.949V646.203C1184.36 646.293 1184.27 646.465 1184.09 646.555C1183.92 646.641 1183.74 646.727 1183.57 646.727C1183.39 646.727 1183.13 646.641 1182.96 646.555L1179.04 644.285L1175.38 646.641L1176.77 647.426L1179.04 645.941L1182.96 648.297ZM1169.54 646.641C1169.54 646.816 1169.63 646.988 1169.97 647.164L1176.42 650.91C1176.68 651.086 1177.03 651.172 1177.29 651.172C1177.55 651.172 1177.82 651.086 1177.99 650.91C1178.25 650.738 1178.34 650.652 1178.34 650.477V648.734C1178.34 648.906 1178.25 649.082 1177.99 649.168C1177.82 649.344 1177.55 649.344 1177.29 649.43C1177.03 649.43 1176.77 649.344 1176.42 649.168L1169.97 645.418C1169.71 645.246 1169.54 645.07 1169.54 644.898V646.641ZM1158.21 641.934C1158.64 638.621 1161.08 635.395 1165.44 632.867C1175.2 627.199 1191.15 627.199 1200.91 632.867C1205.27 635.395 1207.71 638.621 1208.15 641.934C1208.67 637.836 1206.32 633.648 1200.91 630.512C1191.15 624.844 1175.2 624.844 1165.44 630.512C1160.04 633.562 1157.59 637.836 1158.21 641.934Z" fill="#22DBDE"/>
<path d="M1045.73 774.441L1045.72 772.879L1047.22 773.328L1047.23 774.895L1045.73 774.441Z" fill="#3B51AB" fill-opacity="0.749"/>
</svg>
