<svg width="1440" height="810" viewBox="0 0 1440 810" fill="none" xmlns="http://www.w3.org/2000/svg">
<g clip-path="url(#clip0)">
<path d="M1430.51 495.289V494.039H1174.98C1169.57 494.035 1164.98 491.836 1161.7 488.418C1158.42 485.004 1156.49 480.371 1156.49 475.562C1156.49 472.488 1157.28 469.336 1159.01 466.34L1437.32 -13.3711C1440.62 -19.0586 1446.71 -22.5625 1453.29 -22.5625H1704.92C1710.32 -22.5586 1714.91 -20.3555 1718.19 -16.9414C1721.47 -13.5273 1723.4 -8.89843 1723.4 -4.08984C1723.39 -1.04296 1722.63 2.07422 1720.93 5.03907L1446.52 484.75C1443.24 490.496 1437.12 494.039 1430.51 494.039V496.539C1438.02 496.539 1444.96 492.516 1448.7 485.992L1723.11 6.28125C1725.02 2.9375 1725.9 -0.624996 1725.9 -4.08984C1725.9 -9.5664 1723.71 -14.8008 1720 -18.6758C1716.29 -22.5508 1711.01 -25.0664 1704.92 -25.0625H1453.29C1445.82 -25.0625 1438.91 -21.0859 1435.16 -14.625L1156.85 465.086C1154.89 468.461 1153.99 472.059 1153.99 475.562C1153.99 481.043 1156.18 486.273 1159.89 490.148C1163.6 494.027 1168.88 496.543 1174.98 496.539H1430.51V495.289Z" fill="#22DBDE" fill-opacity="0.749"/>
<path d="M1320.18 775.477C1308.66 775.461 1299.31 765.938 1299.3 754.59C1299.3 752.547 1299.61 750.445 1300.25 748.344L1377.84 496.539H1380.46L1302.64 749.082C1302.07 750.945 1301.8 752.793 1301.8 754.59C1301.8 759.566 1303.86 764.16 1307.2 767.52C1310.54 770.875 1315.12 772.973 1320.18 772.973C1321.56 772.973 1322.98 772.816 1324.43 772.484L1443.77 744.957V747.527L1324.99 774.922C1323.36 775.297 1321.75 775.477 1320.18 775.477Z" fill="#1157F5" fill-opacity="0.749"/>
<path d="M1381.23 494.039H1378.61L1443.77 282.566V291.066L1381.23 494.039Z" fill="#024BD6" fill-opacity="0.749"/>
<path d="M1380.46 496.539H1377.84L1378.61 494.039H1381.23L1380.46 496.539Z" fill="#3B51AB" fill-opacity="0.749"/>
<path d="M214.656 744.539V730.113C214.656 729.258 215.516 728.723 216.199 729.152L241.227 744.863C241.543 745.062 241.738 745.426 241.738 745.824V760.027C241.738 760.883 240.887 761.418 240.203 760.992L215.172 745.504C214.855 745.305 214.656 744.937 214.656 744.539Z" fill="#22DBDE"/>
<path d="M231.738 762.488C231.637 762.488 231.539 762.473 231.437 762.441L203.832 753.438C203.48 753.32 203.211 753.012 203.125 752.621L200.133 738.566C199.977 737.844 200.496 737.203 201.129 737.203C201.227 737.203 201.332 737.219 201.434 737.254L214.656 741.66V744.539C214.656 744.938 214.855 745.305 215.172 745.504L231.566 755.648L232.734 761.125C232.887 761.844 232.367 762.488 231.738 762.488Z" fill="#1157F5"/>
<path d="M231.566 755.648L215.172 745.504C214.855 745.305 214.656 744.938 214.656 744.539V741.66L229.086 746.473C229.434 746.59 229.703 746.898 229.785 747.285L231.566 755.648Z" fill="#024BD6"/>
<path d="M1071.27 753.012C1071.27 759.434 1066.07 764.637 1059.64 764.637C1053.22 764.637 1048.02 759.434 1048.02 753.012C1048.02 746.59 1053.22 741.387 1059.64 741.387C1066.07 741.387 1071.27 746.59 1071.27 753.012ZM1057.52 759.145C1062.67 759.145 1065.49 754.871 1065.49 751.168C1065.49 751.047 1065.49 750.926 1065.48 750.809C1066.03 750.414 1066.51 749.922 1066.88 749.355C1066.38 749.578 1065.84 749.727 1065.27 749.797C1065.86 749.449 1066.3 748.902 1066.51 748.246C1065.96 748.566 1065.37 748.797 1064.73 748.926C1064.21 748.379 1063.49 748.043 1062.68 748.043C1061.14 748.043 1059.88 749.297 1059.88 750.844C1059.88 751.066 1059.9 751.281 1059.96 751.484C1057.62 751.367 1055.56 750.25 1054.18 748.555C1053.94 748.969 1053.8 749.449 1053.8 749.961C1053.8 750.93 1054.29 751.793 1055.05 752.293C1054.59 752.281 1054.16 752.152 1053.78 751.941C1053.78 751.953 1053.78 751.965 1053.78 751.977C1053.78 753.336 1054.75 754.465 1056.03 754.727C1055.8 754.789 1055.55 754.824 1055.29 754.824C1055.11 754.824 1054.94 754.809 1054.77 754.773C1055.12 755.891 1056.16 756.699 1057.38 756.723C1056.42 757.469 1055.21 757.918 1053.9 757.918C1053.67 757.918 1053.45 757.906 1053.23 757.879C1054.46 758.68 1055.93 759.145 1057.52 759.145Z" fill="#1D292F"/>
<path d="M1154.89 741.43C1148.55 741.43 1143.41 746.57 1143.41 752.91C1143.41 758.668 1147.65 763.418 1153.17 764.25V755.953H1150.33V752.938H1153.17V750.93C1153.17 747.605 1154.79 746.145 1157.55 746.145C1158.88 746.145 1159.58 746.242 1159.91 746.289V748.922H1158.03C1156.86 748.922 1156.45 750.035 1156.45 751.289V752.938H1159.88L1159.41 755.953H1156.45V764.277C1162.05 763.516 1166.37 758.723 1166.37 752.91C1166.37 746.57 1161.23 741.43 1154.89 741.43Z" fill="black"/>
<path d="M1122.5 750.473C1121.18 750.473 1120.11 751.547 1120.11 752.867C1120.11 754.187 1121.18 755.262 1122.5 755.262C1123.82 755.262 1124.89 754.187 1124.89 752.867C1124.89 751.547 1123.82 750.473 1122.5 750.473Z" fill="black"/>
<path d="M1125.95 749.113C1125.77 749.113 1125.63 749.254 1125.63 749.422C1125.63 749.594 1125.77 749.734 1125.95 749.734C1126.11 749.734 1126.25 749.594 1126.25 749.422C1126.25 749.254 1126.11 749.113 1125.95 749.113Z" fill="black"/>
<path d="M1122.5 741.387C1116.17 741.387 1111.02 746.539 1111.02 752.867C1111.02 759.195 1116.17 764.348 1122.5 764.348C1128.83 764.348 1133.98 759.195 1133.98 752.867C1133.98 746.539 1128.83 741.387 1122.5 741.387ZM1129.06 754.934C1129.06 757.41 1127.04 759.43 1124.57 759.43H1120.43C1117.96 759.43 1115.94 757.41 1115.94 754.934V750.801C1115.94 748.324 1117.96 746.309 1120.43 746.309H1124.57C1127.04 746.309 1129.06 748.324 1129.06 750.801V754.934Z" fill="black"/>
<path d="M1124.57 747.246H1120.43C1118.47 747.246 1116.88 748.84 1116.88 750.801V754.934C1116.88 756.895 1118.47 758.488 1120.43 758.488H1124.57C1126.53 758.488 1128.12 756.895 1128.12 754.934V750.801C1128.12 748.84 1126.53 747.246 1124.57 747.246ZM1122.5 756.203C1120.66 756.203 1119.17 754.707 1119.17 752.867C1119.17 751.031 1120.66 749.535 1122.5 749.535C1124.34 749.535 1125.84 751.031 1125.84 752.867C1125.84 754.707 1124.34 756.203 1122.5 756.203ZM1125.95 750.672C1125.25 750.672 1124.7 750.113 1124.7 749.422C1124.7 748.734 1125.25 748.176 1125.95 748.176C1126.63 748.176 1127.2 748.734 1127.2 749.422C1127.2 750.113 1126.63 750.672 1125.95 750.672Z" fill="black"/>
<path d="M1091.45 741.387C1085.12 741.387 1079.97 746.535 1079.97 752.867C1079.97 759.199 1085.12 764.348 1091.45 764.348C1097.78 764.348 1102.93 759.199 1102.93 752.867C1102.93 746.535 1097.78 741.387 1091.45 741.387ZM1087.96 757.859H1085.96V750.371H1087.96V757.859ZM1086.96 748.875C1086.41 748.875 1085.96 748.43 1085.96 747.875C1085.96 747.324 1086.41 746.879 1086.96 746.879C1087.51 746.879 1087.96 747.324 1087.96 747.875C1087.96 748.43 1087.51 748.875 1086.96 748.875ZM1097.44 757.859H1095.45V754.117C1095.45 753.156 1094.66 752.367 1093.7 752.367C1092.74 752.367 1091.95 753.156 1091.95 754.117V757.859H1089.95V750.371H1091.95V751.277C1092.54 750.719 1093.32 750.371 1094.2 750.371C1095.99 750.371 1097.44 751.824 1097.44 753.617V757.859Z" fill="black"/>
<path d="M948.363 750.609V748.711H945.965C945.766 749.281 945.578 749.918 945.426 750.609H948.363Z" fill="#100F0D"/>
<path d="M945.699 746.578C945.039 746.879 944.434 747.27 943.898 747.734H945.195C945.371 747.289 945.547 746.898 945.699 746.578Z" fill="#100F0D"/>
<path d="M942.594 751.195C942.594 750.871 942.871 750.609 943.211 750.609H944.336C944.352 750.539 944.367 750.469 944.383 750.398C944.516 749.793 944.672 749.227 944.844 748.711H942.973C942.168 749.734 941.648 750.973 941.535 752.316L942.594 752.32V751.195Z" fill="#100F0D"/>
<path d="M943.437 757.574C944.008 758.168 944.687 758.664 945.441 759.047C945.176 758.57 944.949 758.078 944.758 757.574H943.437Z" fill="#100F0D"/>
<path d="M944.148 755.156C944.133 755.035 944.121 754.918 944.105 754.797H943.211C942.871 754.797 942.594 754.535 942.594 754.215V753.293L941.527 753.289C941.602 754.5 942.004 755.629 942.652 756.598H944.445C944.316 756.129 944.219 755.648 944.148 755.156Z" fill="#100F0D"/>
<path d="M953.91 747.734C953.352 747.25 952.711 746.84 952.016 746.535C952.168 746.871 952.336 747.277 952.508 747.734H953.91Z" fill="#100F0D"/>
<path d="M948.363 745.906C947.945 745.934 947.539 745.996 947.144 746.086C947.039 746.27 946.703 746.863 946.34 747.734H948.363V745.906Z" fill="#100F0D"/>
<path d="M953.234 750.254C953.262 750.371 953.285 750.492 953.305 750.609H954.441C954.781 750.609 955.062 750.871 955.062 751.195V752.355L956.277 752.359C956.172 751 955.652 749.746 954.84 748.711H952.836C952.984 749.187 953.121 749.703 953.234 750.254Z" fill="#100F0D"/>
<path d="M950.656 746.086C950.246 745.988 949.824 745.93 949.394 745.902V747.734H951.41C951.102 746.949 950.809 746.371 950.656 746.086Z" fill="#100F0D"/>
<path d="M952.23 750.473C952.098 749.836 951.934 749.246 951.758 748.711H949.394V750.609H952.258C952.25 750.562 952.242 750.52 952.23 750.473Z" fill="#100F0D"/>
<path d="M955.062 753.332V754.215C955.062 754.535 954.781 754.797 954.441 754.797H953.484C953.477 754.867 953.469 754.938 953.457 755.008C953.387 755.551 953.277 756.082 953.133 756.598H955.156C955.797 755.641 956.199 754.527 956.281 753.336L955.062 753.332Z" fill="#100F0D"/>
<path d="M952.051 759.195C952.934 758.805 953.723 758.25 954.371 757.574H952.816C952.605 758.133 952.352 758.676 952.051 759.195Z" fill="#100F0D"/>
<path d="M947.051 759.641C947.477 759.742 947.914 759.812 948.363 759.844V757.574H945.894C946.191 758.293 946.578 758.984 947.051 759.641Z" fill="#100F0D"/>
<path d="M949.394 757.574V759.848C949.812 759.82 950.223 759.762 950.617 759.672L950.566 759.637C951.035 758.984 951.418 758.293 951.723 757.574H949.394Z" fill="#100F0D"/>
<path d="M948.906 760.836C944.262 760.836 940.484 757.266 940.484 752.875C940.484 748.484 944.262 744.91 948.906 744.91C953.551 744.91 957.328 748.484 957.328 752.875C957.328 757.266 953.551 760.836 948.906 760.836ZM948.934 741.395C942.461 741.395 937.211 746.531 937.211 752.867C937.211 759.203 942.461 764.34 948.934 764.34C955.41 764.34 960.66 759.203 960.66 752.867C960.66 746.531 955.41 741.395 948.934 741.395Z" fill="#100F0D"/>
<path d="M945.543 756.598H948.363V754.797H945.176C945.246 755.418 945.371 756.016 945.543 756.598Z" fill="#100F0D"/>
<path d="M949.394 756.598H952.074C952.25 756.016 952.379 755.418 952.453 754.797H949.394V756.598Z" fill="#100F0D"/>
<path d="M949.699 754.195L949.707 754.168H950L950.555 752.305L951.109 754.168H951.402L951.41 754.195L951.418 754.168H951.738L952.254 752.613L952.773 754.168H953.094L953.102 754.195L953.109 754.168H953.402L954.25 751.316H953.434L953.055 752.758L952.574 751.316H952.258L952.254 751.309V751.316H951.937L951.457 752.758L951.078 751.316H950.031L949.652 752.758L949.172 751.316H948.855L948.852 751.309V751.316H948.535L948.055 752.758L947.676 751.316H946.629L946.25 752.758L945.769 751.316H945.453V751.309L945.449 751.316H945.133L944.652 752.758L944.273 751.316H943.457L944.305 754.168H944.598L944.605 754.195L944.613 754.168H944.934L945.453 752.613L945.969 754.168H946.289L946.297 754.195L946.305 754.168H946.598L947.152 752.305L947.707 754.168H948L948.008 754.195L948.016 754.168H948.336L948.852 752.613L949.371 754.168H949.691L949.699 754.195Z" fill="#100F0D"/>
</g>
<defs>
<clipPath id="clip0">
<rect width="1440" height="810" fill="white"/>
</clipPath>
</defs>
</svg>
