<svg width="1440" height="810" viewBox="0 0 1440 810" fill="none" xmlns="http://www.w3.org/2000/svg">
<path d="M467.758 461.941V654.766L189.672 494.145L328.766 477.996L367.023 411.395L435.473 465.73L467.758 461.941Z" fill="#22DBDE"/>
<path d="M166.957 464.535C166.559 466.629 166.359 469.023 166.359 471.516C166.359 492.254 181.105 517.777 199.039 528.145C201.031 529.34 203.023 530.238 204.918 530.937L203.523 541.105L222.156 530.437H222.055C226.238 528.043 229.23 523.758 230.723 517.777C247.164 517.777 257.527 502.023 257.527 498.934C257.527 478.195 225.441 458.555 207.41 448.184C204.219 446.289 196.648 434.824 189.672 448.781C184.492 447.586 179.91 448.086 176.125 450.18L175.926 450.277C175.926 450.277 175.824 450.277 175.824 450.379L157.293 461.047C157.391 461.145 161.676 463.637 166.957 464.535Z" fill="#22DBDE"/>
<path d="M180.406 463.34C162.473 452.969 147.727 461.445 147.727 482.184C147.727 502.922 162.473 528.445 180.406 538.813C198.344 549.18 213.09 540.707 213.09 519.969C213.09 499.23 198.441 473.707 180.406 463.34Z" fill="#22DBDE"/>
<path d="M183.996 517.176L174.828 511.895L175.426 520.965L184.594 526.25L183.996 517.176ZM181.902 479.289L182.602 490.359L181.703 512.891L176.523 509.898L172.637 484.574L171.938 473.508L181.902 479.289ZM239.59 159.852C246.766 155.664 253.34 155.266 258.125 157.957L480.609 286.77C475.828 283.977 467.758 321.367 438.562 318.273C436.57 323.758 435.473 329.242 435.473 334.426V413.391L451.613 452.969L435.473 465.73L328.766 478.094L197.344 387.168L213.188 293.25V205.711C213.09 188.863 225.043 168.227 239.59 159.852Z" fill="white"/>
<path d="M358.355 311.297L361.645 313.191L360.547 295.641L357.062 293.648L350.586 301.125L349.887 289.461L346.598 287.566L347.695 305.113L351.281 307.207L357.758 299.93L358.355 311.297ZM306.246 278.293L315.113 283.48L314.219 269.023L317.805 271.117L318.902 288.465L306.445 281.188L306.246 278.293ZM282.633 267.426L286.418 269.621L278.449 248.086L274.664 245.891L268.684 259.352L272.57 261.645L273.867 258.555L280.941 262.641L282.633 267.426ZM279.645 259.051L274.762 256.262L276.754 251.176L279.645 259.051ZM304.055 271.516C303.957 269.719 303.559 268.027 302.961 266.531C302.461 265.434 301.863 264.238 301.164 263.141C300.469 262.043 299.672 261.047 298.773 260.25C297.68 259.152 296.383 258.156 294.891 257.359C292.297 255.863 290.207 255.465 288.812 256.16C287.316 256.859 286.719 258.652 286.918 261.445C287.117 264.238 288.016 266.93 289.707 269.422C291.402 271.914 293.492 273.906 296.086 275.402C298.676 276.898 300.766 277.398 302.262 276.699C303.559 276.102 304.254 274.305 304.055 271.516ZM299.273 273.012C298.375 273.508 297.281 273.309 295.887 272.512C294.488 271.715 293.293 270.52 292.297 268.922C291.301 267.328 290.805 265.633 290.605 263.539C290.504 261.543 290.805 260.25 291.699 259.852C292.496 259.352 293.691 259.551 295.188 260.449C296.684 261.344 297.879 262.543 298.875 264.039C299.871 265.531 300.367 267.328 300.469 269.32C300.469 271.215 300.168 272.512 299.273 273.012ZM339.824 295.543L336.734 290.957L332.352 296.34L327.77 293.648L334.145 287.066L327.07 276.398L331.852 279.191L339.625 291.156L339.125 283.379L342.715 285.473L343.809 303.02L340.223 300.926L339.824 295.543ZM262.605 244.797L256.129 252.074L252.543 249.98L251.449 232.434L254.734 234.328L255.434 245.992L261.91 238.516L265.398 240.508L266.492 258.055L263.203 256.16L262.605 244.797ZM377.586 322.461L381.371 324.656L373.402 303.121L369.617 300.926L363.637 314.387L367.523 316.68L368.816 313.59L375.891 317.676L377.586 322.461ZM374.598 314.086L369.715 311.297L371.707 306.211L374.598 314.086ZM247.164 374.305V369.918L401.398 459.051V465.434L249.953 377.895L247.164 374.305ZM461.879 288.562C461.977 288.562 461.977 288.562 461.879 288.562C476.523 280.188 488.379 287.066 488.379 303.918V347.09L438.562 318.375C443.047 306.012 451.914 294.445 461.879 288.562ZM247.164 339.41L401.398 428.543V434.926L247.164 345.691V339.41ZM247.164 308.805L401.398 398.035V404.414L247.062 315.285V308.805H247.164ZM391.434 330.539L397.512 334.027L396.418 316.48L389.344 312.391C387.949 311.594 386.852 310.996 386.254 310.699C385.559 310.398 384.961 310.297 384.461 310.297C383.961 310.398 383.562 310.598 383.164 310.996C382.867 311.395 382.668 311.992 382.766 312.691C382.867 313.488 383.066 314.387 383.562 315.383C384.062 316.281 384.66 317.18 385.457 317.977C384.359 317.676 383.562 317.676 383.066 318.074C382.566 318.473 382.27 319.172 382.367 320.168C382.469 320.965 382.668 321.863 383.066 322.859C383.465 323.859 384.062 324.754 384.762 325.551C385.457 326.352 386.254 327.148 387.25 327.746C387.648 328.246 389.145 329.141 391.434 330.539ZM393.23 321.367L390.836 319.969C389.441 319.172 388.547 318.672 388.246 318.375C387.648 317.977 387.152 317.477 386.754 316.879C386.355 316.281 386.156 315.781 386.156 315.184C386.156 314.684 386.254 314.285 386.555 314.086C386.852 313.887 387.25 313.988 387.848 314.285C388.246 314.484 389.242 314.984 390.938 315.98L393.031 317.18L393.23 321.367ZM393.727 328.941L390.438 327.047C389.145 326.25 388.348 325.754 387.949 325.551C387.449 325.152 386.953 324.656 386.652 324.059C386.254 323.457 386.055 322.859 386.055 322.262C386.055 321.766 386.156 321.367 386.355 321.164C386.555 320.965 386.953 320.867 387.449 320.965C387.949 321.066 388.945 321.566 390.637 322.562L393.527 324.258L393.727 328.941ZM247.164 278.293L401.398 367.426V373.809L247.062 284.676V278.293H247.164ZM435.473 465.73V413.391L467.855 461.941L435.473 465.73ZM213.09 293.148V331.035L263.902 395.641L284.824 422.262L372.605 472.91L363.438 474.008L293.992 433.926L328.664 477.996L467.758 654.766L230.625 517.777C231.223 515.184 231.621 512.391 231.621 509.301C231.621 488.562 216.875 463.039 198.941 452.672C195.75 450.777 192.562 449.582 189.672 448.883V301.324L213.09 293.148Z" fill="#024BD6"/>
<path d="M122.59 704.887V687.816C122.59 686.801 123.621 686.168 124.445 686.68L154.543 705.273C154.922 705.508 155.156 705.941 155.156 706.41V723.223C155.156 724.23 154.133 724.863 153.309 724.363L123.211 706.031C122.828 705.797 122.59 705.359 122.59 704.887Z" fill="white"/>
<path d="M143.129 726.133C143.012 726.133 142.891 726.113 142.77 726.074L109.57 715.418C109.149 715.281 108.824 714.914 108.723 714.453L105.121 697.82C104.938 696.969 105.563 696.207 106.32 696.207C106.442 696.207 106.567 696.227 106.692 696.266L122.59 701.484V704.887C122.59 705.359 122.828 705.797 123.211 706.031L142.926 718.039L144.328 724.52C144.512 725.371 143.891 726.133 143.129 726.133Z" fill="white"/>
<path d="M142.926 718.039L123.211 706.031C122.828 705.797 122.59 705.359 122.59 704.887V701.484L139.941 707.176C140.363 707.313 140.68 707.68 140.781 708.137L142.926 718.039Z" fill="#D5D7D7"/>
<path d="M1135.71 715.023C1135.71 722.688 1129.5 728.898 1121.84 728.898C1114.17 728.898 1107.96 722.688 1107.96 715.023C1107.96 707.355 1114.17 701.148 1121.84 701.148C1129.5 701.148 1135.71 707.355 1135.71 715.023ZM1119.3 722.344C1125.45 722.344 1128.82 717.242 1128.82 712.824C1128.82 712.68 1128.82 712.531 1128.81 712.395C1129.46 711.922 1130.03 711.332 1130.48 710.66C1129.89 710.922 1129.24 711.102 1128.56 711.188C1129.25 710.77 1129.78 710.117 1130.03 709.336C1129.39 709.715 1128.67 709.992 1127.91 710.145C1127.3 709.492 1126.43 709.09 1125.46 709.09C1123.62 709.09 1122.12 710.59 1122.12 712.434C1122.12 712.699 1122.15 712.957 1122.21 713.199C1119.43 713.059 1116.97 711.727 1115.32 709.703C1115.03 710.195 1114.87 710.77 1114.87 711.379C1114.87 712.539 1115.46 713.566 1116.36 714.164C1115.81 714.148 1115.3 713.996 1114.84 713.746C1114.84 713.762 1114.84 713.773 1114.84 713.789C1114.84 715.41 1116 716.758 1117.53 717.07C1117.25 717.145 1116.95 717.188 1116.65 717.188C1116.43 717.188 1116.23 717.168 1116.02 717.125C1116.44 718.457 1117.68 719.422 1119.14 719.449C1118 720.344 1116.55 720.879 1114.98 720.879C1114.71 720.879 1114.45 720.863 1114.19 720.828C1115.65 721.785 1117.41 722.344 1119.3 722.344Z" fill="#22DBDE"/>
<path d="M1234.66 701.199C1227 701.199 1220.79 707.414 1220.79 715.074C1220.79 722.031 1225.91 727.777 1232.59 728.781V718.754H1229.16V715.105H1232.59V712.68C1232.59 708.66 1234.55 706.898 1237.89 706.898C1239.48 706.898 1240.33 707.016 1240.73 707.07V710.254H1238.45C1237.04 710.254 1236.54 711.598 1236.54 713.113V715.105H1240.7L1240.13 718.754H1236.54V728.809C1243.31 727.891 1248.54 722.102 1248.54 715.074C1248.54 707.414 1242.33 701.199 1234.66 701.199Z" fill="#22DBDE"/>
<path d="M1196.36 712.129C1194.76 712.129 1193.46 713.426 1193.46 715.023C1193.46 716.617 1194.76 717.918 1196.36 717.918C1197.95 717.918 1199.25 716.617 1199.25 715.023C1199.25 713.426 1197.95 712.129 1196.36 712.129Z" fill="#22DBDE"/>
<path d="M1200.52 710.488C1200.31 710.488 1200.14 710.652 1200.14 710.859C1200.14 711.066 1200.31 711.234 1200.52 711.234C1200.72 711.234 1200.89 711.066 1200.89 710.859C1200.89 710.652 1200.72 710.488 1200.52 710.488Z" fill="#22DBDE"/>
<path d="M1196.36 701.148C1188.71 701.148 1182.48 707.371 1182.48 715.023C1182.48 722.672 1188.71 728.898 1196.36 728.898C1204 728.898 1210.23 722.672 1210.23 715.023C1210.23 707.371 1204 701.148 1196.36 701.148ZM1204.29 717.52C1204.29 720.516 1201.85 722.953 1198.85 722.953H1193.86C1190.86 722.953 1188.43 720.516 1188.43 717.52V712.527C1188.43 709.531 1190.86 707.094 1193.86 707.094H1198.85C1201.85 707.094 1204.29 709.531 1204.29 712.527V717.52Z" fill="#22DBDE"/>
<path d="M1198.85 708.23H1193.86C1191.49 708.23 1189.56 710.156 1189.56 712.527V717.52C1189.56 719.887 1191.49 721.816 1193.86 721.816H1198.85C1201.22 721.816 1203.15 719.887 1203.15 717.52V712.527C1203.15 710.156 1201.22 708.23 1198.85 708.23ZM1196.36 719.051C1194.13 719.051 1192.33 717.246 1192.33 715.023C1192.33 712.801 1194.13 710.992 1196.36 710.992C1198.58 710.992 1200.38 712.801 1200.38 715.023C1200.38 717.246 1198.58 719.051 1196.36 719.051ZM1200.52 712.371C1199.68 712.371 1199.01 711.691 1199.01 710.859C1199.01 710.027 1199.68 709.352 1200.52 709.352C1201.35 709.352 1202.03 710.027 1202.03 710.859C1202.03 711.691 1201.35 712.371 1200.52 712.371Z" fill="#22DBDE"/>
<path d="M1159.63 701.148C1151.98 701.148 1145.76 707.371 1145.76 715.023C1145.76 722.676 1151.98 728.898 1159.63 728.898C1167.29 728.898 1173.51 722.676 1173.51 715.023C1173.51 707.371 1167.29 701.148 1159.63 701.148ZM1155.41 721.055H1153V712.008H1155.41V721.055ZM1154.2 710.195C1153.54 710.195 1153 709.656 1153 708.988C1153 708.324 1153.54 707.785 1154.2 707.785C1154.87 707.785 1155.41 708.324 1155.41 708.988C1155.41 709.656 1154.87 710.195 1154.2 710.195ZM1166.87 721.055H1164.46V716.531C1164.46 715.371 1163.51 714.418 1162.35 714.418C1161.19 714.418 1160.23 715.371 1160.23 716.531V721.055H1157.82V712.008H1160.23V713.102C1160.94 712.426 1161.89 712.008 1162.95 712.008C1165.12 712.008 1166.87 713.762 1166.87 715.926V721.055Z" fill="#22DBDE"/>
<path d="M989.75 712.293V709.996H986.984C986.758 710.684 986.539 711.457 986.367 712.293H989.75Z" fill="#22DBDE"/>
<path d="M986.68 707.418C985.922 707.781 985.223 708.258 984.609 708.82H986.098C986.301 708.277 986.504 707.809 986.68 707.418Z" fill="#22DBDE"/>
<path d="M983.105 713C983.105 712.609 983.426 712.293 983.816 712.293H985.113C985.129 712.207 985.145 712.125 985.164 712.039C985.316 711.305 985.5 710.621 985.695 709.996H983.539C982.613 711.234 982.016 712.73 981.887 714.355L983.105 714.359V713Z" fill="#22DBDE"/>
<path d="M984.078 720.711C984.734 721.43 985.516 722.031 986.383 722.492C986.078 721.918 985.816 721.324 985.598 720.711H984.078Z" fill="#22DBDE"/>
<path d="M984.895 717.789C984.879 717.645 984.859 717.5 984.848 717.355H983.816C983.426 717.355 983.105 717.039 983.105 716.648V715.535L981.875 715.531C981.961 716.996 982.426 718.363 983.172 719.535H985.234C985.086 718.965 984.973 718.383 984.895 717.789Z" fill="#22DBDE"/>
<path d="M996.133 708.82C995.488 708.23 994.754 707.738 993.949 707.367C994.125 707.773 994.32 708.262 994.52 708.82H996.133Z" fill="#22DBDE"/>
<path d="M989.75 706.605C989.27 706.641 988.797 706.715 988.344 706.824C988.219 707.047 987.836 707.762 987.414 708.82H989.75V706.605Z" fill="#22DBDE"/>
<path d="M995.355 711.863C995.387 712.004 995.41 712.148 995.438 712.293H996.746C997.137 712.293 997.457 712.609 997.457 713V714.406L998.859 714.41C998.738 712.766 998.141 711.246 997.203 709.996H994.898C995.066 710.574 995.223 711.199 995.355 711.863Z" fill="#22DBDE"/>
<path d="M992.387 706.82C991.914 706.707 991.43 706.633 990.934 706.602V708.82H993.254C992.898 707.867 992.562 707.168 992.387 706.82Z" fill="#22DBDE"/>
<path d="M994.199 712.125C994.047 711.359 993.859 710.645 993.656 709.996H990.934V712.293H994.23C994.223 712.238 994.211 712.184 994.199 712.125Z" fill="#22DBDE"/>
<path d="M997.457 715.582V716.648C997.457 717.039 997.137 717.355 996.746 717.355H995.645C995.633 717.441 995.625 717.527 995.613 717.613C995.531 718.27 995.406 718.91 995.238 719.535H997.57C998.305 718.379 998.77 717.031 998.863 715.586L997.457 715.582Z" fill="#22DBDE"/>
<path d="M993.992 722.676C995.008 722.199 995.918 721.527 996.664 720.711H994.875C994.633 721.387 994.336 722.043 993.992 722.676Z" fill="#22DBDE"/>
<path d="M988.238 723.211C988.727 723.336 989.23 723.418 989.75 723.457V720.711H986.902C987.25 721.582 987.695 722.418 988.238 723.211Z" fill="#22DBDE"/>
<path d="M990.934 720.711V723.461C991.418 723.43 991.887 723.355 992.344 723.25L992.281 723.207C992.82 722.414 993.266 721.582 993.613 720.711H990.934Z" fill="#22DBDE"/>
<path d="M990.371 724.656C985.023 724.656 980.672 720.34 980.672 715.031C980.672 709.723 985.023 705.406 990.371 705.406C995.719 705.406 1000.07 709.723 1000.07 715.031C1000.07 720.34 995.719 724.656 990.371 724.656ZM990.406 701.152C982.949 701.152 976.906 707.363 976.906 715.023C976.906 722.684 982.949 728.895 990.406 728.895C997.863 728.895 1003.91 722.684 1003.91 715.023C1003.91 707.363 997.863 701.152 990.406 701.152Z" fill="#22DBDE"/>
<path d="M986.5 719.535H989.75V717.355H986.078C986.16 718.105 986.301 718.832 986.5 719.535Z" fill="#22DBDE"/>
<path d="M990.934 719.535H994.02C994.223 718.832 994.367 718.105 994.457 717.355H990.934V719.535Z" fill="#22DBDE"/>
<path d="M991.285 716.629L991.293 716.594H991.629L992.27 714.34L992.91 716.594H993.246L993.254 716.629L993.266 716.594H993.637L994.23 714.715L994.824 716.594H995.191L995.203 716.629L995.211 716.594H995.547L996.527 713.145H995.586L995.148 714.891L994.594 713.145H994.23V713.137L994.227 713.145H993.863L993.309 714.891L992.871 713.145H991.668L991.23 714.891L990.676 713.145H990.312V713.137L990.309 713.145H989.945L989.391 714.891L988.953 713.145H987.75L987.316 714.891L986.762 713.145H986.398L986.395 713.137L986.391 713.145H986.027L985.473 714.891L985.039 713.145H984.098L985.074 716.594H985.41L985.422 716.629L985.43 716.594H985.801L986.395 714.715L986.988 716.594H987.359L987.367 716.629L987.375 716.594H987.715L988.352 714.34L988.992 716.594H989.328L989.336 716.629L989.348 716.594H989.719L990.312 714.715L990.906 716.594H991.277L991.285 716.629Z" fill="#22DBDE"/>
</svg>
