<svg width="1440" height="810" viewBox="0 0 1440 810" fill="none" xmlns="http://www.w3.org/2000/svg">
<g clip-path="url(#clip0)">
<path d="M99.8867 290.613C100.922 286.574 100 281.5 95.3867 280.234C91.582 279.195 87.4297 282.195 84.3164 283.809C81.6641 285.191 78.7812 286.23 76.0156 287.613C68.9805 290.957 62.7539 296.145 58.4883 302.719C57.5625 304.102 56.7578 305.719 56.5273 307.332C56.2969 309.062 56.8711 310.906 58.3711 311.828C59.8711 312.75 61.9453 312.52 63.4453 311.598C65.0586 310.789 66.3281 309.406 67.7109 308.371C73.4766 303.871 81.2031 303.297 87.8906 300.414C90.4297 299.375 92.7344 297.992 95.1562 296.492C96.3086 295.801 97.4648 295.109 98.2695 293.957C99.1914 293.031 99.6523 291.879 99.8867 290.613ZM-0.785156 357.836C-0.785156 357.836 2.21094 360.145 5.67188 363.949L152.816 279.082C164.117 272.508 178.184 272.508 189.484 279.082L501.184 458.965C511.445 444.438 542.469 451.238 542.469 451.238V489.176C542.352 492.637 540.621 495.98 537.277 497.941L358.191 601.375C343.777 609.676 326.02 609.676 311.488 601.375L-27.6562 405.578C-31.8047 403.156 -33.9961 399.004 -34.1133 394.738V356.801L-0.785156 357.836Z" fill="#212F88"/>
<path d="M451.828 536.223C452.98 535.07 453.672 533.57 453.672 531.844V523.887C453.672 521.809 451.367 520.426 449.523 521.465L437.875 528.152L431.996 539.453C435.453 539.336 451.484 536.57 451.828 536.223ZM396.824 482.605C406.855 476.84 427.496 475.34 437.645 481.105C443.758 484.68 447.562 496.098 442.141 498.402C441.336 495.402 438.914 492.52 434.992 490.215C424.961 484.449 408.469 484.449 398.32 490.215C394.285 492.52 391.98 495.402 391.172 498.402C385.754 496.098 390.711 486.18 396.824 482.605ZM-0.0937505 361.758L297.883 538.875L487 432.215L188.102 259.477C178.301 253.828 164.23 252.098 154.43 257.746L-0.0937505 348.957C-5.05078 351.84 -5.05078 358.992 -0.0937505 361.758ZM356.117 476.031L442.141 426.332L453.559 432.906L367.531 482.605L356.117 476.031ZM134.594 394.621L245.875 330.277C255.332 330.738 264.785 330.508 274.129 329.125L147.742 402.117L134.594 394.621ZM124.445 356.801L183.375 322.785C188.562 324.168 193.867 324.742 199.172 325.32C200.785 325.551 202.516 325.664 204.129 325.898L137.477 364.297L124.445 356.801Z" fill="#024BD6"/>
<path d="M408.816 414.227L419.195 420.105L416.656 421.605C416.426 421.719 416.426 421.836 416.426 421.836C416.426 421.949 416.426 421.949 416.543 422.066C416.656 422.18 416.773 422.18 416.887 422.18C417.004 422.18 417.234 422.066 417.348 422.066L423.23 418.605C423.461 418.492 423.461 418.375 423.461 418.375C423.461 418.262 423.461 418.262 423.348 418.145C423.23 418.031 423.113 418.031 423 418.031C422.883 418.031 422.652 418.145 422.539 418.145L420 419.645L410.66 414.34L413.891 413.301C414.004 413.301 414.121 413.188 414.234 413.188C414.352 413.188 414.352 413.07 414.352 412.957C414.352 412.84 414.352 412.84 414.234 412.727C414.121 412.727 414.004 412.609 413.891 412.609C413.773 412.609 413.66 412.609 413.43 412.727L408.816 414.227ZM399.477 425.062L401.32 426.102C402.934 427.023 404.551 427.484 406.164 427.602C407.434 427.715 408.586 427.484 409.508 426.91C409.969 426.68 410.316 426.332 410.547 425.988C410.777 425.641 410.891 425.293 410.777 424.949C410.777 424.719 410.66 424.488 410.43 424.141C410.199 423.797 409.969 423.449 409.738 423.219C409.391 422.875 408.816 422.527 408.238 422.066L406.395 421.027C404.781 420.105 403.164 419.645 401.551 419.531C400.281 419.414 399.129 419.645 398.207 420.223C397.746 420.453 397.398 420.797 397.168 421.145C396.938 421.488 396.824 421.836 396.938 422.18C396.938 422.41 397.055 422.645 397.285 422.988C397.516 423.336 397.746 423.68 397.977 423.91C398.207 424.371 398.785 424.719 399.477 425.062ZM400.281 424.719C399.59 424.371 399.016 423.91 398.668 423.449C398.32 422.988 397.977 422.645 397.977 422.297C397.977 422.066 397.977 421.836 398.09 421.605C398.207 421.258 398.555 421.027 398.898 420.797C399.707 420.336 400.859 420.223 402.129 420.336C403.395 420.566 404.664 420.914 405.816 421.605L407.434 422.527C408.125 422.875 408.699 423.336 409.047 423.797C409.391 424.258 409.738 424.602 409.738 425.062C409.738 425.293 409.738 425.527 409.625 425.641C409.508 425.988 409.16 426.219 408.816 426.449C408.008 426.91 406.855 427.023 405.586 426.91C404.32 426.68 403.051 426.332 401.898 425.641L400.281 424.719ZM388.98 431.293C390.02 431.406 390.941 431.523 391.863 431.406C392.785 431.293 393.48 431.059 394.055 430.715C394.516 430.367 394.977 430.023 395.094 429.562C395.324 429.102 395.207 428.641 394.977 428.176C394.746 427.715 394.285 427.254 393.594 426.91C392.672 426.449 391.633 426.102 390.25 425.988C388.98 425.871 387.828 426.102 386.906 426.68C386.215 427.023 385.867 427.602 385.637 428.062C385.523 428.641 385.637 429.215 386.098 429.793C386.676 430.598 387.715 431.406 388.98 432.098C390.02 432.676 391.059 433.137 392.094 433.25C392.785 433.367 393.594 433.48 394.402 433.48C395.207 433.48 396.133 433.367 396.938 433.25C398.09 433.02 399.016 432.676 399.82 432.215C400.398 431.867 400.742 431.637 400.859 431.293C400.973 431.176 400.859 431.059 400.742 430.945C400.629 430.945 400.512 430.828 400.398 430.828C400.281 430.828 400.168 430.828 400.051 430.945C399.938 430.945 399.938 431.059 399.82 431.176C399.707 431.406 399.477 431.523 399.129 431.754C397.859 432.445 396.363 432.906 394.516 432.906C392.672 432.906 391.172 432.559 389.789 431.754C389.789 431.754 389.441 431.637 388.98 431.293ZM387.945 430.484C387.137 429.676 386.676 428.984 386.676 428.41C386.676 427.945 387.02 427.484 387.715 427.141C388.406 426.793 389.211 426.562 390.137 426.562C391.172 426.562 392.094 426.793 392.902 427.254C393.711 427.715 394.055 428.176 394.172 428.754C394.285 429.332 393.941 429.793 393.363 430.137C393.02 430.367 392.555 430.484 392.094 430.598C391.52 430.715 390.941 430.715 390.25 430.715C389.789 430.828 388.98 430.715 387.945 430.484ZM380.102 437.055C379.758 437.633 379.641 438.094 379.871 438.555C379.988 439.016 380.449 439.363 380.91 439.707C381.832 440.172 382.871 440.402 384.137 440.402C385.406 440.402 386.559 440.055 387.484 439.594C388.406 439.016 388.98 438.441 388.98 437.633C388.98 436.941 388.637 436.25 387.715 435.789C387.137 435.441 386.445 435.211 385.637 435.211C384.832 435.098 384.023 435.211 382.984 435.328C383.215 434.867 383.332 434.406 383.215 434.059C383.102 433.598 382.754 433.137 382.18 432.906C381.371 432.445 380.332 432.215 379.18 432.215C377.91 432.215 376.875 432.559 375.949 433.02C375.027 433.598 374.566 434.176 374.566 434.867C374.566 435.559 374.914 436.133 375.719 436.594C376.297 436.941 376.988 437.172 377.797 437.172C378.488 437.289 379.297 437.172 380.102 437.055ZM381.715 439.363C381.023 439.016 380.793 438.555 380.793 437.98C380.793 437.402 381.254 436.941 381.949 436.48C382.754 436.02 383.562 435.789 384.602 435.789C385.637 435.789 386.445 435.902 387.02 436.25C387.715 436.594 387.945 437.055 387.945 437.633C387.945 438.211 387.484 438.672 386.789 439.133C385.984 439.594 385.176 439.824 384.137 439.824C383.215 439.824 382.41 439.707 381.715 439.363ZM376.645 436.133C376.066 435.789 375.719 435.328 375.719 434.75C375.719 434.176 376.066 433.711 376.758 433.367C377.449 433.02 378.258 432.789 379.18 432.789C380.102 432.789 380.91 432.906 381.484 433.25C382.062 433.598 382.293 433.941 382.293 434.52C382.293 435.098 381.832 435.559 381.141 435.902C380.449 436.363 379.641 436.48 378.719 436.594C377.797 436.711 377.219 436.48 376.645 436.133ZM353.004 447.895L352.656 447.664L358.078 444.551L358.77 444.898C359 445.012 359.113 445.012 359.23 445.012C359.344 445.012 359.461 445.012 359.574 444.898C359.691 444.781 359.691 444.781 359.691 444.668C359.691 444.551 359.574 444.438 359.461 444.438L358.078 443.629L351.156 447.664L352.312 448.355L364.766 452.047C364.996 452.164 365.109 452.164 365.227 452.164C365.344 452.164 365.457 452.164 365.574 452.047C365.688 451.934 365.688 451.934 365.688 451.816C365.688 451.699 365.688 451.699 365.574 451.586C365.574 451.586 365.457 451.469 365.227 451.469L353.004 447.895ZM352.082 454.582C350.926 454.469 350.004 454.469 349.199 454.582C348.391 454.699 347.699 454.93 347.121 455.277C346.316 455.738 345.969 456.312 345.969 457.004C345.969 457.699 346.43 458.391 347.469 458.965C348.391 459.426 349.43 459.773 350.695 459.887C351.965 460.004 353.117 459.773 354.156 459.195C354.848 458.852 355.195 458.391 355.426 457.812C355.656 457.234 355.426 456.66 354.965 455.969C354.387 455.16 353.465 454.352 352.195 453.66C351.273 453.086 350.234 452.738 349.082 452.508C348.16 452.277 347.238 452.277 346.316 452.277C345.391 452.277 344.469 452.395 343.547 452.625C342.625 452.855 341.816 453.086 341.012 453.547C340.551 453.891 340.203 454.121 340.086 454.469C340.086 454.582 340.086 454.699 340.203 454.816C340.32 454.93 340.434 454.93 340.551 454.93C340.664 454.93 340.781 454.93 340.895 454.816C341.012 454.816 341.012 454.699 341.125 454.582C341.242 454.352 341.473 454.121 341.816 454.008C342.969 453.316 344.469 452.969 346.43 452.969C348.391 452.969 350.004 453.316 351.273 454.121C351.387 454.121 351.621 454.238 352.082 454.582ZM353.117 455.277C353.926 455.969 354.387 456.66 354.273 457.234C354.273 457.812 353.926 458.273 353.234 458.621C352.543 458.965 351.734 459.195 350.812 459.195C349.773 459.195 348.969 458.965 348.16 458.504C347.352 458.043 347.008 457.582 347.008 457.004C347.008 456.43 347.238 455.969 347.93 455.621C348.504 455.277 349.312 455.16 350.352 455.047C350.812 455.047 351.852 455.16 353.117 455.277ZM335.359 457.812L338.934 459.887C338.359 460.004 337.781 460.234 337.32 460.348C336.859 460.582 336.398 460.695 336.051 460.926C335.129 461.504 334.668 462.078 334.668 462.887C334.668 463.578 335.246 464.27 336.281 464.848C337.434 465.539 338.703 465.883 340.203 465.883C341.586 465.883 342.855 465.539 344.008 464.961C344.699 464.5 345.277 464.039 345.621 463.461C345.852 463.117 346.086 462.656 346.086 462.309C346.086 462.078 346.086 461.965 345.969 461.848C345.852 461.734 345.738 461.734 345.621 461.734C345.508 461.734 345.391 461.734 345.277 461.848C345.16 461.965 345.16 461.965 345.16 462.078C345.047 463.117 344.469 463.926 343.434 464.5C342.508 464.961 341.586 465.309 340.434 465.309C339.281 465.309 338.242 465.078 337.203 464.5C336.398 464.039 335.938 463.461 335.938 462.887C335.938 462.309 336.281 461.848 337.09 461.387C337.898 460.926 338.82 460.582 339.973 460.348C340.203 460.348 340.434 460.234 340.551 460.234C340.664 460.117 340.664 460.117 340.664 460.004C340.664 459.887 340.551 459.887 340.434 459.773L335.59 457.004L330.402 460.004C330.172 460.117 330.172 460.234 330.172 460.234C330.172 460.348 330.172 460.348 330.285 460.465C330.402 460.582 330.516 460.582 330.633 460.582C330.746 460.582 330.977 460.465 331.094 460.465L335.359 457.812ZM327.98 470.266L332.938 467.383L332.133 466.922L320.945 465.309L319.332 466.23L326.48 470.383L325.902 470.727C325.672 470.844 325.672 470.957 325.559 470.957C325.559 471.074 325.559 471.074 325.672 471.188C325.789 471.305 325.902 471.305 326.02 471.305C326.133 471.305 326.363 471.188 326.48 471.188L327.059 470.844L329.363 472.227L328.785 472.574C328.555 472.688 328.555 472.805 328.441 472.805C328.441 472.918 328.441 472.918 328.555 473.035C328.672 473.148 328.785 473.148 328.902 473.148C329.016 473.148 329.246 473.035 329.363 473.035L332.133 471.418C332.363 471.305 332.363 471.188 332.477 471.188C332.477 471.074 332.477 471.074 332.363 470.957C332.246 470.844 332.133 470.844 332.016 470.844C331.898 470.844 331.668 470.957 331.555 470.957L330.172 471.766L327.98 470.266ZM327.289 469.805L320.945 466.113L321.293 465.883L331.438 467.383L327.289 469.805ZM303.07 481.336C302.727 481.914 302.609 482.488 302.727 482.949C302.84 483.41 303.301 483.871 303.879 484.219C304.801 484.68 305.84 484.91 307.34 484.91C308.836 484.91 309.992 484.566 311.027 483.871C311.719 483.527 312.18 483.066 312.641 482.488C313.105 481.914 313.219 481.453 313.219 481.223C313.219 481.105 313.219 480.988 313.105 480.988C312.988 480.988 312.875 480.875 312.758 480.875C312.641 480.875 312.527 480.875 312.41 480.988C312.297 480.988 312.297 481.105 312.18 481.223C311.949 482.145 311.258 482.949 310.223 483.527C309.297 483.988 308.375 484.336 307.223 484.336C306.07 484.336 305.262 484.219 304.57 483.871C304.109 483.641 303.879 483.297 303.762 482.836C303.648 482.375 303.762 482.027 303.992 481.566C304.223 481.105 304.688 480.758 305.262 480.414C305.492 480.297 305.492 480.184 305.492 480.184C305.492 480.184 305.492 480.066 305.379 479.953C305.262 479.836 305.148 479.836 305.031 479.836C304.918 479.836 304.688 479.836 304.57 479.953L303.992 480.297C303.301 480.645 302.609 480.875 301.688 480.875C300.879 480.875 300.188 480.758 299.613 480.414C299.035 480.066 298.805 479.723 298.805 479.145C298.805 478.684 299.266 478.223 299.957 477.762C300.418 477.414 300.996 477.184 301.688 477.07C302.266 476.953 302.84 476.84 303.418 476.84C303.648 476.84 303.762 476.84 303.879 476.84C303.992 476.84 303.992 476.84 304.109 476.723C304.223 476.609 304.223 476.609 304.223 476.492C304.223 476.379 304.223 476.379 304.109 476.262C303.879 476.148 303.301 476.148 302.496 476.262C301.227 476.379 300.188 476.723 299.266 477.301C298.344 477.875 297.766 478.453 297.766 479.145C297.766 479.836 298.113 480.414 298.805 480.758C299.266 480.988 299.844 481.223 300.648 481.336C301.457 481.566 302.266 481.566 303.07 481.336ZM302.035 487.91L296.27 491.254L296.035 491.137C295.805 491.023 295.691 491.023 295.574 491.023C295.461 491.023 295.344 491.023 295.23 491.137C295.113 491.254 295.113 491.254 295.113 491.367C295.113 491.484 295.23 491.598 295.344 491.598L296.383 492.176L303.648 488.023L302.609 487.449C299.727 487.562 296.961 487.68 294.078 487.68C292.809 487.68 291.77 487.68 291.309 487.68C290.734 487.68 290.27 487.562 290.039 487.562C289.695 487.449 289.465 487.332 289.234 487.219C288.656 486.871 288.312 486.41 288.312 485.832C288.312 485.258 288.773 484.797 289.465 484.336C290.156 483.988 290.848 483.758 291.77 483.641C292.691 483.527 293.387 483.641 294.078 483.871C294.309 483.988 294.422 483.988 294.539 483.988C294.652 483.988 294.77 483.988 294.883 483.871C295 483.758 295 483.758 295 483.641C295 483.527 295 483.527 294.883 483.41C294.652 483.297 294.078 483.18 293.27 483.066C292.461 482.949 291.656 483.066 290.848 483.18C290.039 483.297 289.348 483.641 288.773 483.871C287.852 484.449 287.387 485.027 287.273 485.832C287.273 486.641 287.617 487.219 288.426 487.68C288.773 487.91 289.117 488.023 289.578 488.141C289.926 488.254 290.5 488.254 291.078 488.371C291.656 488.371 292.691 488.371 294.078 488.371C297.191 488.023 299.957 488.023 302.035 487.91ZM277.242 490.445L287.617 496.328L285.082 497.824C284.852 497.941 284.852 498.055 284.852 498.055C284.852 498.172 284.852 498.172 284.965 498.285C285.082 498.402 285.199 498.402 285.312 498.402C285.43 498.402 285.66 498.285 285.773 498.285L291.656 494.828C291.887 494.711 291.887 494.598 291.887 494.598C291.887 494.598 291.887 494.48 291.77 494.367C291.656 494.25 291.539 494.25 291.426 494.25C291.309 494.25 291.078 494.367 290.965 494.367L288.426 495.867L279.086 490.562L282.316 489.523C282.43 489.523 282.547 489.406 282.66 489.406C282.777 489.406 282.777 489.293 282.777 489.176C282.777 489.062 282.777 489.062 282.66 488.945C282.547 488.945 282.43 488.832 282.316 488.832C282.199 488.832 282.082 488.832 281.852 488.945L277.242 490.445ZM267.898 501.285L269.746 502.324C271.359 503.246 272.973 503.707 274.59 503.82C275.855 503.938 277.012 503.707 277.934 503.129C278.395 502.898 278.738 502.555 278.969 502.207C279.199 501.863 279.316 501.516 279.199 501.168C279.199 500.938 279.086 500.707 278.855 500.363C278.625 500.016 278.395 499.672 278.164 499.441C277.816 499.094 277.242 498.75 276.664 498.285L274.82 497.25C273.203 496.328 271.59 495.867 269.977 495.75C268.707 495.633 267.555 495.867 266.633 496.441C266.172 496.672 265.824 497.02 265.594 497.363C265.363 497.711 265.246 498.055 265.363 498.402C265.363 498.633 265.477 498.863 265.707 499.324C265.941 499.672 266.172 500.016 266.402 500.246C266.633 500.477 267.207 500.824 267.898 501.285ZM268.707 500.824C268.016 500.477 267.438 500.016 267.094 499.555C266.746 499.094 266.402 498.75 266.402 498.402C266.402 498.172 266.402 497.941 266.516 497.711C266.633 497.363 266.977 497.133 267.324 496.902C268.129 496.441 269.285 496.328 270.551 496.441C271.82 496.672 273.09 497.02 274.242 497.711L275.855 498.633C276.547 498.98 277.125 499.441 277.473 499.902C277.816 500.363 278.164 500.707 278.164 501.168C278.164 501.398 278.164 501.633 278.047 501.746C277.934 502.094 277.586 502.324 277.242 502.555C276.434 503.016 275.281 503.129 274.012 503.016C272.742 502.785 271.477 502.438 270.32 501.746L268.707 500.824ZM-27.6562 345.613L152.816 241.375C164.117 234.801 178.184 234.801 189.484 241.375L237.227 268.934C244.492 268.586 251.871 268.473 259.25 268.816C266.402 269.164 273.895 269.855 280.586 267.434C286.121 265.473 290.734 261.668 295.461 258.207C307.801 249.328 322.676 242.641 337.668 244.602C339.395 244.141 341.125 244.141 342.508 245.18C343.203 245.754 343.777 246.445 344.238 247.254C345.852 250.254 346.547 253.598 347.121 256.941C348.852 266.742 350.582 276.66 352.312 286.461C353.926 295.453 355.539 304.562 354.734 313.672C354.273 318.516 353.117 323.59 349.891 327.281C348.504 328.895 346.891 330.047 345.047 331.199L537.277 442.129C544.195 446.168 544.195 456.199 537.277 460.234L358.191 563.668C343.777 571.973 326.02 571.973 311.488 563.668L-27.6562 367.871C-36.3047 362.91 -36.3047 350.574 -27.6562 345.613ZM95.1562 285.883C92.3906 284.27 89.0469 284.27 86.3945 285.883L65.4062 297.992C63.4453 299.145 63.4453 302.027 65.4062 303.18H65.5195C68.8633 305.141 72.9023 305.141 76.2461 303.18L95.2734 292.227C97.6953 290.844 97.6953 287.266 95.1562 285.883ZM398.32 506.59C408.355 512.355 424.844 512.355 434.992 506.59C445.023 500.824 445.023 491.254 434.992 485.488C424.961 479.723 408.469 479.723 398.32 485.488C388.176 491.254 388.176 500.824 398.32 506.59ZM5.32422 360.836L302.84 532.648L475.816 432.789L307.105 335.352C299.035 333.852 290.965 331.547 282.891 329.703C280.355 329.125 277.703 328.664 275.164 329.012C250.027 332.93 224.543 328.086 199.285 325.203C190.406 324.168 181.184 323.129 173.34 318.633C165.5 314.137 159.504 305.488 160.887 296.609C161.926 290.496 166.309 285.422 171.609 282.078C176.914 278.852 183.027 277.234 189.023 275.852C192.715 275.043 196.402 274.238 200.094 273.547L183.027 263.629C173.227 257.977 161.117 257.977 151.316 263.629L5.21094 347.922C0.367188 350.918 0.367188 358.07 5.32422 360.836ZM425.652 538.875V546.719C425.652 548.91 427.957 550.176 429.918 549.141L450.676 537.148C451.137 536.918 451.484 536.57 451.828 536.34L437.992 528.383L428.766 533.688C426.805 534.727 425.652 536.684 425.652 538.875Z" fill="white"/>
<path d="M233.652 463.348L263.52 480.527L275.973 473.379L246.106 456.199L233.652 463.348ZM278.164 459.656L266.402 466.461L258.215 461.734L269.977 454.93L278.164 459.656ZM223.617 469.227L232.496 464.156L241.609 469.461L228.578 476.953L223.734 474.188C221.774 473.035 221.774 470.266 223.617 469.227ZM262.25 481.336L253.602 486.293C250.832 487.91 247.375 487.91 244.606 486.293L239.992 483.641L253.024 476.148L262.25 481.336ZM279.895 460.582L284.734 463.348C286.695 464.5 286.695 467.152 284.734 468.305L277.242 472.574L268.129 467.27L279.895 460.582ZM247.375 455.391L255.445 450.777C257.754 449.512 260.52 449.512 262.824 450.777L268.246 453.891L256.484 460.695L247.375 455.391ZM251.524 475.109L238.496 482.605L230.309 477.875L243.336 470.383L251.524 475.109ZM60.6759 330.508C71.172 324.398 88.3517 324.398 98.8478 330.508C109.34 336.621 109.34 346.539 98.8478 352.535C93.5431 355.531 86.6251 357.031 79.7032 357.031C69.211 364.297 55.836 360.027 50.6446 357.031C45.3399 354.031 46.6095 345.5 52.7188 341.465C52.836 337.543 55.3712 333.508 60.6759 330.508ZM152.817 343.539C278.164 409.035 342.969 413.301 390.711 385.742C400.512 380.094 407.547 349.652 408.008 332.238C408.816 306.871 401.899 278.273 393.594 273.547C368.688 259.133 266.977 200.324 266.977 200.324C266.977 200.324 214.738 230.418 140.246 224.77C140.246 224.77 143.129 259.363 99.422 298.797C99.422 298.684 134.594 333.969 152.817 343.539ZM176.453 308.715L203.668 293.031H312.758V261.438L339.973 245.754V308.715L335.938 316.211H181.875L176.453 308.715Z" fill="#22DBDE"/>
<path d="M176.453 319.207H339.973V308.715H176.453V319.207ZM33.6954 346.074C38.9962 343.078 45.918 341.578 52.836 341.578C52.836 345.613 55.4883 349.535 60.6758 352.648C65.9805 355.648 72.9024 357.145 79.8204 357.145C79.8204 361.184 77.168 365.102 71.9766 368.215C61.4844 374.328 44.3008 374.328 33.8087 368.215C23.1993 361.988 23.1993 352.074 33.6954 346.074ZM99.4219 298.684C99.4219 298.684 206.898 360.719 224.773 370.984C263.633 393.355 345.969 398.543 393.711 370.984C403.512 365.332 407.547 349.535 408.125 332.125C408.125 332.125 408.125 332.125 408.238 332.125C408.816 332.699 408.238 349.652 408.238 349.652C407.895 367.641 403.856 384.359 393.824 390.125C346.086 417.684 263.633 412.496 224.887 390.125C207.012 379.863 99.5391 317.824 99.5391 317.824L99.4219 298.684Z" fill="#22DBDE"/>
<path d="M405.488 814.273L406.406 814.266L405.234 627.465C405.211 623.516 406.801 620.148 409.281 617.734C411.762 615.324 415.141 613.891 418.652 613.871C420.902 613.859 423.211 614.418 425.406 615.672L777.32 816.93C781.492 819.312 784.082 823.742 784.113 828.555L785.266 1012.5C785.289 1016.45 783.699 1019.82 781.219 1022.23C778.738 1024.64 775.363 1026.07 771.848 1026.1C769.621 1026.11 767.34 1025.56 765.164 1024.34L413.266 825.934C409.055 823.559 406.434 819.105 406.406 814.266L405.488 814.273L404.574 814.277C404.609 819.773 407.582 824.828 412.371 827.527L764.266 1025.93C766.719 1027.32 769.324 1027.94 771.859 1027.93C775.863 1027.9 779.68 1026.28 782.492 1023.54C785.309 1020.81 787.121 1016.95 787.094 1012.49L785.941 828.543C785.906 823.078 782.969 818.051 778.226 815.34L426.312 614.082C423.84 612.668 421.203 612.023 418.641 612.043C414.637 612.066 410.824 613.687 408.008 616.422C405.191 619.152 403.375 623.019 403.406 627.477L404.574 814.277L405.488 814.273Z" fill="#22DBDE" fill-opacity="0.749"/>
<path d="M200.187 734.902C200.141 726.48 207.062 719.605 215.355 719.547C216.852 719.535 218.387 719.75 219.926 720.215L404.336 775.777L404.348 777.695L219.398 721.965C218.031 721.555 216.68 721.367 215.367 721.375C211.73 721.398 208.379 722.922 205.941 725.379C203.504 727.832 201.992 731.195 202.016 734.891C202.023 735.902 202.141 736.941 202.395 737.996L223.059 825.113L221.18 825.125L200.613 738.418C200.332 737.23 200.191 736.055 200.187 734.902Z" fill="#1157F5" fill-opacity="0.749"/>
<path d="M406.18 778.246L406.168 776.332L561.039 822.996L554.828 823.035L406.18 778.246Z" fill="#024BD6" fill-opacity="0.749"/>
<path d="M404.348 777.695L404.336 775.777L406.168 776.332L406.18 778.246L404.348 777.695Z" fill="#3B51AB" fill-opacity="0.749"/>
</g>
<defs>
<clipPath id="clip0">
<rect width="1440" height="810" fill="white"/>
</clipPath>
</defs>
</svg>
