<svg width="1440" height="810" viewBox="0 0 1440 810" fill="none" xmlns="http://www.w3.org/2000/svg">
<path d="M142.403 146.527V85.6992C142.403 82.082 146.016 79.8242 148.903 81.6406L254.321 147.895C255.653 148.734 256.477 150.281 256.477 151.953V211.855C256.477 215.457 252.887 217.715 250 215.926L144.582 150.602C143.235 149.766 142.403 148.211 142.403 146.527Z" fill="#22DBDE"/>
<path d="M214.344 222.23C213.93 222.23 213.508 222.164 213.078 222.023L96.8086 184.055C95.3203 183.57 94.1875 182.258 93.8399 180.617L81.2227 121.344C80.5742 118.305 82.7617 115.594 85.4219 115.594C85.8438 115.594 86.2774 115.66 86.711 115.805L142.402 134.398V146.527C142.402 148.211 143.234 149.766 144.582 150.602L213.629 193.387L218.547 216.477C219.191 219.52 217.008 222.23 214.344 222.23Z" fill="#1157F5"/>
<path d="M213.629 193.387L144.582 150.602C143.235 149.766 142.403 148.211 142.403 146.527V134.398L203.176 154.68C204.653 155.176 205.77 156.48 206.121 158.113L213.629 193.387Z" fill="#024BD6"/>
<path d="M1312.43 330.816L1273.68 369.559" stroke="#024BD6" stroke-width="1.59984" stroke-miterlimit="10" stroke-linecap="round" stroke-linejoin="round"/>
<path d="M1273.68 343.73H1299.51V369.559H1273.68V343.73Z" stroke="#024BD6" stroke-width="1.59984" stroke-miterlimit="10" stroke-linecap="round" stroke-linejoin="round"/>
<path d="M1286.6 330.816H1312.42V356.645H1286.6V330.816Z" stroke="#024BD6" stroke-width="1.59984" stroke-miterlimit="10" stroke-linecap="round" stroke-linejoin="round"/>
<path d="M1279.18 336.293H1306.96V364.078H1279.18V336.293Z" stroke="#024BD6" stroke-width="1.59984" stroke-miterlimit="10" stroke-linecap="round" stroke-linejoin="round"/>
<path d="M850.77 356.496H849.969V342.543H863.242C865.168 342.543 866.735 343.762 866.735 345.684V352.66C866.735 354.582 865.168 356.496 863.242 356.496H859.555L856.227 369.789C856.133 370.176 855.781 370.449 855.383 370.449H848.399C848.383 370.449 848.371 370.449 848.364 370.449C847.879 370.449 847.489 369.887 847.489 369.402C847.489 369.246 847.531 369.184 847.606 369.055L850.77 356.496ZM858.348 350.914C858.348 351.398 858.563 351.789 859.047 351.789C859.531 351.789 859.746 351.398 859.746 350.914V347.426C859.746 346.949 859.531 346.555 859.047 346.555C858.563 346.555 858.348 346.949 858.348 347.426V350.914ZM862.539 350.914C862.539 351.398 862.754 351.789 863.239 351.789C863.723 351.789 863.938 351.398 863.938 350.914V347.426C863.938 346.949 863.723 346.555 863.239 346.555C862.754 346.555 862.539 346.949 862.539 347.426V350.914Z" fill="#1157F5"/>
<path d="M830.406 343.938V335.613C830.406 334.082 831.125 332.672 832.5 332.008C833.856 331.359 835.301 331.555 836.469 332.492L847.176 341.254V357.094L836.379 365.852C835.676 366.414 834.879 366.731 833.969 366.731C833.371 366.731 832.992 366.594 832.453 366.336C831.078 365.672 830.406 364.262 830.406 362.734V354.402C827.614 354.402 825.168 352.055 825.168 349.172C825.168 346.285 827.614 343.938 830.406 343.938Z" fill="#1157F5"/>
<path d="M382.492 329.934H413.992C416.477 329.934 418.492 331.949 418.492 334.434V365.934C418.492 368.422 416.477 370.434 413.992 370.434H382.492C380.004 370.434 377.992 368.422 377.992 365.934V334.434C377.992 331.949 380.004 329.934 382.492 329.934ZM404.992 361.434H409.492V345.684H404.992V361.434ZM395.992 361.434H400.492V338.934H395.992V361.434ZM386.992 361.434H391.492V352.434H386.992V361.434Z" fill="#1157F5"/>
</svg>
