<svg width="1440" height="810" viewBox="0 0 1440 810" fill="none" xmlns="http://www.w3.org/2000/svg">
<path d="M320.758 305.941V498.766L42.6719 338.145L181.766 321.996L220.023 255.395L288.473 309.73L320.758 305.941Z" fill="#22DBDE"/>
<path d="M19.957 308.535C19.5586 310.629 19.3594 313.023 19.3594 315.516C19.3594 336.254 34.1055 361.777 52.0391 372.145C54.0312 373.34 56.0234 374.238 57.918 374.937L56.5234 385.105L75.156 374.437H75.055C79.238 372.043 82.23 367.758 83.723 361.777C100.164 361.777 110.527 346.023 110.527 342.934C110.527 322.195 78.441 302.555 60.41 292.184C57.2188 290.289 49.6484 278.824 42.6719 292.781C37.4922 291.586 32.9102 292.086 29.125 294.18L28.9258 294.277C28.9258 294.277 28.8242 294.277 28.8242 294.379L10.293 305.047C10.3906 305.145 14.6758 307.637 19.957 308.535Z" fill="#22DBDE"/>
<path d="M33.4062 307.34C15.4727 296.969 0.726562 305.445 0.726562 326.184C0.726562 346.922 15.4727 372.445 33.4062 382.813C51.3438 393.18 66.09 384.707 66.09 363.969C66.09 343.23 51.4414 317.707 33.4062 307.34Z" fill="#22DBDE"/>
<path d="M36.9961 361.176L27.8281 355.895L28.4258 364.965L37.5938 370.25L36.9961 361.176ZM34.9023 323.289L35.6016 334.359L34.7031 356.891L29.5234 353.898L25.6367 328.574L24.9375 317.508L34.9023 323.289ZM92.59 3.85161C99.766 -0.335894 106.34 -0.734331 111.125 1.95708L333.609 130.77C328.828 127.977 320.758 165.367 291.562 162.273C289.57 167.758 288.473 173.242 288.473 178.426V257.391L304.613 296.969L288.473 309.73L181.766 322.094L50.3438 231.168L66.188 137.25V49.7109C66.09 32.8633 78.043 12.2266 92.59 3.85161Z" fill="white"/>
<path d="M211.355 155.297L214.645 157.191L213.547 139.641L210.062 137.648L203.586 145.125L202.887 133.461L199.598 131.566L200.695 149.113L204.281 151.207L210.758 143.93L211.355 155.297ZM159.246 122.293L168.113 127.48L167.219 113.023L170.805 115.117L171.902 132.465L159.445 125.188L159.246 122.293ZM135.633 111.426L139.418 113.621L131.449 92.0859L127.664 89.8906L121.684 103.352L125.57 105.645L126.867 102.555L133.941 106.641L135.633 111.426ZM132.645 103.051L127.762 100.262L129.754 95.1758L132.645 103.051ZM157.055 115.516C156.957 113.719 156.559 112.027 155.961 110.531C155.461 109.434 154.863 108.238 154.164 107.141C153.469 106.043 152.672 105.047 151.773 104.25C150.68 103.152 149.383 102.156 147.891 101.359C145.297 99.8633 143.207 99.4648 141.812 100.16C140.316 100.859 139.719 102.652 139.918 105.445C140.117 108.238 141.016 110.93 142.707 113.422C144.402 115.914 146.492 117.906 149.086 119.402C151.676 120.898 153.766 121.398 155.262 120.699C156.559 120.102 157.254 118.305 157.055 115.516ZM152.273 117.012C151.375 117.508 150.281 117.309 148.887 116.512C147.488 115.715 146.293 114.52 145.297 112.922C144.301 111.328 143.805 109.633 143.605 107.539C143.504 105.543 143.805 104.25 144.699 103.852C145.496 103.352 146.691 103.551 148.188 104.449C149.684 105.344 150.879 106.543 151.875 108.039C152.871 109.531 153.367 111.328 153.469 113.32C153.469 115.215 153.168 116.512 152.273 117.012ZM192.824 139.543L189.734 134.957L185.352 140.34L180.77 137.648L187.145 131.066L180.07 120.398L184.852 123.191L192.625 135.156L192.125 127.379L195.715 129.473L196.809 147.02L193.223 144.926L192.824 139.543ZM115.605 88.7969L109.129 96.0742L105.543 93.9805L104.449 76.4336L107.734 78.3281L108.434 89.9922L114.91 82.5156L118.398 84.5078L119.492 102.055L116.203 100.16L115.605 88.7969ZM230.586 166.461L234.371 168.656L226.402 147.121L222.617 144.926L216.637 158.387L220.523 160.68L221.816 157.59L228.891 161.676L230.586 166.461ZM227.598 158.086L222.715 155.297L224.707 150.211L227.598 158.086ZM100.164 218.305V213.918L254.398 303.051V309.434L102.953 221.895L100.164 218.305ZM314.879 132.562C314.977 132.562 314.977 132.562 314.879 132.562C329.523 124.188 341.379 131.066 341.379 147.918V191.09L291.562 162.375C296.047 150.012 304.914 138.445 314.879 132.562ZM100.164 183.41L254.398 272.543V278.926L100.164 189.691V183.41ZM100.164 152.805L254.398 242.035V248.414L100.062 159.285V152.805H100.164ZM244.434 174.539L250.512 178.027L249.418 160.48L242.344 156.391C240.949 155.594 239.852 154.996 239.254 154.699C238.559 154.398 237.961 154.297 237.461 154.297C236.961 154.398 236.562 154.598 236.164 154.996C235.867 155.395 235.668 155.992 235.766 156.691C235.867 157.488 236.066 158.387 236.562 159.383C237.062 160.281 237.66 161.18 238.457 161.977C237.359 161.676 236.562 161.676 236.066 162.074C235.566 162.473 235.27 163.172 235.367 164.168C235.469 164.965 235.668 165.863 236.066 166.859C236.465 167.859 237.062 168.754 237.762 169.551C238.457 170.352 239.254 171.148 240.25 171.746C240.648 172.246 242.145 173.141 244.434 174.539ZM246.23 165.367L243.836 163.969C242.441 163.172 241.547 162.672 241.246 162.375C240.648 161.977 240.152 161.477 239.754 160.879C239.355 160.281 239.156 159.781 239.156 159.184C239.156 158.684 239.254 158.285 239.555 158.086C239.852 157.887 240.25 157.988 240.848 158.285C241.246 158.484 242.242 158.984 243.938 159.98L246.031 161.18L246.23 165.367ZM246.727 172.941L243.438 171.047C242.145 170.25 241.348 169.754 240.949 169.551C240.449 169.152 239.953 168.656 239.652 168.059C239.254 167.457 239.055 166.859 239.055 166.262C239.055 165.766 239.156 165.367 239.355 165.164C239.555 164.965 239.953 164.867 240.449 164.965C240.949 165.066 241.945 165.566 243.637 166.562L246.527 168.258L246.727 172.941ZM100.164 122.293L254.398 211.426V217.809L100.062 128.676V122.293H100.164ZM288.473 309.73V257.391L320.855 305.941L288.473 309.73ZM66.09 137.148V175.035L116.902 239.641L137.824 266.262L225.605 316.91L216.438 318.008L146.992 277.926L181.664 321.996L320.758 498.766L83.625 361.777C84.223 359.184 84.621 356.391 84.621 353.301C84.621 332.562 69.875 307.039 51.9414 296.672C48.75 294.777 45.5625 293.582 42.6719 292.883V145.324L66.09 137.148Z" fill="#024BD6"/>
</svg>
