<svg width="287" height="456" viewBox="0 0 287 776" fill="none" xmlns="http://www.w3.org/2000/svg">
<path d="M277.508 495.289V494.039H21.9766C16.5703 494.035 11.9766 491.836 8.69531 488.418C5.42188 485.004 3.49219 480.371 3.49219 475.562C3.49219 472.488 4.27734 469.336 6.01172 466.34L284.324 -13.3711C287.625 -19.0586 293.707 -22.5625 300.289 -22.5625H551.918C557.316 -22.5586 561.91 -20.3555 565.191 -16.9414C568.469 -13.5273 570.398 -8.89843 570.398 -4.08984C570.395 -1.04296 569.629 2.07422 567.934 5.03907L293.523 484.75C290.238 490.496 284.125 494.039 277.508 494.039V496.539C285.023 496.539 291.965 492.516 295.699 485.992L570.105 6.28125C572.02 2.9375 572.902 -0.624996 572.898 -4.08984C572.898 -9.5664 570.711 -14.8008 566.996 -18.6758C563.285 -22.5508 558.012 -25.0664 551.918 -25.0625H300.289C292.816 -25.0625 285.906 -21.0859 282.16 -14.625L3.84766 465.086C1.89063 468.461 0.988281 472.059 0.988281 475.562C0.992188 481.043 3.17578 486.273 6.89062 490.148C10.6016 494.027 15.875 496.543 21.9766 496.539H277.508V495.289Z" fill="#22DBDE" fill-opacity="0.749"/>
<path d="M167.18 775.477C155.656 775.461 146.309 765.938 146.301 754.59C146.301 752.547 146.605 750.445 147.254 748.344L224.844 496.539H227.461L149.645 749.082C149.07 750.945 148.805 752.793 148.805 754.59C148.805 759.566 150.863 764.16 154.199 767.52C157.535 770.875 162.121 772.973 167.18 772.973C168.562 772.973 169.984 772.816 171.43 772.484L290.773 744.957V747.527L171.992 774.922C170.363 775.297 168.754 775.477 167.18 775.477Z" fill="#1157F5" fill-opacity="0.749"/>
<path d="M228.23 494.039H225.613L290.773 282.566V291.066L228.23 494.039Z" fill="#024BD6" fill-opacity="0.749"/>
<path d="M227.461 496.539H224.844L225.613 494.039H228.23L227.461 496.539Z" fill="#3B51AB" fill-opacity="0.749"/>
</svg>
