<svg width="657" height="419" viewBox="0 0 657 419" fill="none" xmlns="http://www.w3.org/2000/svg">
<path d="M609.977 145.34L485.941 168.387L529.734 247.215C534.98 247.477 540.223 246.168 544.945 243.551L653.113 181.09C655.211 179.91 656.262 177.945 656.262 175.852V152.934C656.262 152.934 637.512 148.875 631.348 157.648L609.977 145.34ZM224.633 272.094L323.625 329.188C329.785 320.414 348.535 324.473 348.535 324.473V347.387C348.535 349.484 347.484 351.449 345.387 352.625L237.352 414.957C232.762 417.574 227.648 418.883 222.664 418.754L184.641 366.637L222.664 272.094H224.633Z" fill="#212F88"/>
<path d="M312.215 125.438L516.887 243.418C520.949 245.773 525.406 246.953 529.867 247.086V191.562L616.008 141.805L439.398 39.9297C433.496 36.5234 426.156 36.5234 420.254 39.9297L332.145 90.7383C329.129 92.4375 329.129 96.7617 332.145 98.4609L333.852 99.5078L332.277 100.426C330.18 98.1992 328.344 96.7617 328.344 96.7617L308.281 96.1055V119.02C308.414 121.508 309.727 123.996 312.215 125.438ZM602.633 196.801V201.648C602.633 202.562 602.242 203.48 601.586 204.133C594.242 205.445 593.195 199.422 593.195 199.422L600.145 195.363C601.324 194.707 602.633 195.492 602.633 196.801ZM386.426 57.2148L375.02 63.7617C373.055 64.9414 370.562 64.9414 368.594 63.7617C367.414 63.1055 367.414 61.2734 368.594 60.6172L381.312 53.2852C383.02 52.3711 384.984 52.3711 386.688 53.2852C387.871 54.2031 387.871 56.2969 386.426 57.2148ZM569.199 176.504C575.23 172.969 585.195 172.969 591.359 176.504C593.719 177.945 595.16 179.648 595.684 181.352C595.16 183.184 593.719 184.887 591.359 186.328C585.328 189.863 575.363 189.863 569.199 186.328C566.84 184.887 565.398 183.184 564.875 181.352C565.398 179.648 566.84 177.816 569.199 176.504ZM0.6875 267.645V290.559C0.6875 293.047 2 295.664 4.62109 297.105L209.16 414.957C213.355 417.312 217.945 418.621 222.535 418.754V383.527C233.68 384.707 242.332 381.957 254 377.375C264.621 373.184 258.59 366.77 254.789 360.09C255.312 360.484 256.098 360.484 256.754 360.613C259.902 360.875 262.918 361.137 266.062 361.531C270.262 361.922 274.457 362.316 278.652 361.922C282.977 361.398 286.387 359.695 288.223 355.637C290.059 351.449 292.285 342.676 286.781 340.055C283.238 338.484 278.652 339.531 275.109 340.188C272.094 340.578 269.211 341.234 266.195 341.891C275.637 338.879 291.105 336.258 315.363 334.555C338.309 332.852 305.531 303 305.531 303L156.059 218.016C156.059 218.016 131.148 197.195 100.203 209.242C70.3125 220.895 24.2891 252.848 19.4375 268.43L0.6875 267.645ZM261.605 345.164C267.637 341.625 277.602 341.625 283.766 345.164C287.438 347.258 288.879 350.27 288.09 353.02C287.566 351.188 286.125 349.484 283.766 348.043C277.734 344.508 267.77 344.508 261.605 348.043C259.246 349.484 257.805 351.188 257.281 353.02C256.492 350.27 257.934 347.258 261.605 345.164ZM292.551 366.898C293.598 366.246 295.039 367.031 295.039 368.34V373.184C295.039 374.102 294.648 375.02 293.992 375.672C293.859 375.805 287.305 377.637 285.207 376.328C283.238 375.148 285.602 370.957 285.602 370.957L292.551 366.898Z" fill="#1157F5"/>
<path d="M312.215 89.2969L421.043 26.5742C427.859 22.6445 436.383 22.6445 443.199 26.5742L652.98 147.566C657.18 150.055 657.18 156.078 652.98 158.434L544.945 220.766C536.289 225.742 525.539 225.742 516.754 220.766L312.086 102.785C307.102 99.7734 307.102 92.3086 312.215 89.2969ZM386.426 53.2852C384.723 52.3711 382.754 52.3711 381.051 53.2852L368.332 60.6172C367.152 61.2734 367.152 63.1055 368.332 63.7617C370.301 64.9414 372.793 64.9414 374.758 63.7617L386.164 57.2148C387.871 56.2969 387.871 54.2031 386.426 53.2852ZM569.199 186.328C575.23 189.863 585.195 189.863 591.359 186.328C597.391 182.789 597.391 177.027 591.359 173.625C585.328 170.09 575.363 170.09 569.199 173.625C563.168 177.16 563.168 182.789 569.199 186.328ZM332.145 98.4609L511.641 202.039L616.008 141.805L439.398 39.9297C433.496 36.5234 426.156 36.5234 420.254 39.9297L332.145 90.7383C329.129 92.5703 329.129 96.7617 332.145 98.4609ZM601.586 204.133L593.195 199.289L587.555 202.562C586.375 203.219 585.723 204.398 585.723 205.707V210.422C585.723 211.73 587.164 212.516 588.211 211.859L600.801 204.66C601.062 204.527 601.324 204.398 601.586 204.133ZM293.859 375.805L285.469 370.957L279.832 374.23C278.652 374.887 277.996 376.066 277.996 377.375V382.09C277.996 383.398 279.438 384.184 280.488 383.527L293.074 376.328C293.469 376.066 293.73 375.934 293.859 375.805ZM4.62109 260.832L113.445 198.109C120.266 194.184 128.789 194.184 135.605 198.109L345.387 319.105C349.582 321.594 349.582 327.617 345.387 329.973L237.352 392.301C228.695 397.277 217.945 397.277 209.16 392.301L4.62109 274.32C-0.621094 271.309 -0.621094 263.844 4.62109 260.832ZM78.7031 224.824C76.9961 223.906 75.0312 223.906 73.3242 224.824L60.6094 232.156C59.4297 232.812 59.4297 234.645 60.6094 235.301C62.5742 236.477 65.0664 236.477 67.0312 235.301L78.4414 228.754C80.1445 227.836 80.1445 225.742 78.7031 224.824ZM261.605 357.863C267.637 361.398 277.602 361.398 283.766 357.863C289.797 354.328 289.797 348.566 283.766 345.164C277.734 341.625 267.77 341.625 261.605 345.164C255.445 348.699 255.445 354.461 261.605 357.863ZM24.4219 270.133L204.047 373.578L308.414 313.344L131.805 211.469C125.902 208.062 118.562 208.062 112.66 211.469L24.5508 262.273C21.5352 264.109 21.5352 268.297 24.4219 270.133Z" fill="white"/>
<path d="M348.273 83.7969L496.301 169.172L585.066 117.973L571.035 109.855L585.066 101.734L571.035 93.75L585.066 85.6289L437.039 0.382812L348.273 51.582L362.301 59.7031L348.273 67.8203L362.301 75.9414L348.273 83.7969ZM129.441 204.66L238.004 267.25V244.336L276.945 216.051L406.488 178.469V202.301L346.961 236.871V256.383L239.449 268.035L277.473 290.035L188.707 341.234L40.6797 255.859L129.441 204.66Z" fill="#22DBDE"/>
<path d="M387.871 65.9883C398.488 57.4766 398.621 45.8242 388 37.3125L415.273 21.5977C428.645 26.1797 445.559 26.0508 458.801 21.4648L548.484 73.0586C540.484 80.7852 540.484 90.6055 548.484 98.332L518.195 115.746C504.824 111.164 487.777 111.164 474.406 115.746L387.871 65.9883ZM493.809 47.5234C481.09 40.1914 456.965 42.1562 439.922 51.9766C423.008 61.668 419.598 75.6758 432.188 83.0117C444.902 90.3438 469.027 88.3789 486.074 78.5586C503.117 68.7383 506.527 54.7266 493.809 47.5234ZM452.902 80.7852C453.426 80.7852 453.82 80.6523 454.215 80.3906C454.605 80.1289 454.738 79.8672 454.867 79.6055C454.867 79.3438 454.605 79.082 454.082 78.6914L449.492 76.0703L455.918 71.8789L462.867 75.8086C463.262 76.0703 463.652 76.0703 463.914 76.0703C464.309 76.0703 464.57 75.9414 464.832 75.8086C465.094 75.6758 465.227 75.4141 465.227 75.2852C465.227 75.0234 465.094 74.8906 464.703 74.6289L457.754 70.7031L462.605 67.5586L469.555 71.4883C469.945 71.75 470.34 71.75 470.602 71.75C470.863 71.75 471.258 71.6172 471.52 71.4883C471.781 71.3555 471.914 71.0938 471.914 70.9648C471.914 70.7031 471.781 70.5703 471.391 70.3086L465.094 66.7734L489.484 61.5352L490.664 62.1914C491.188 62.4531 491.711 62.582 492.105 62.582C492.5 62.582 493.023 62.4531 493.418 62.1914C493.809 61.9297 493.941 61.668 494.07 61.4062C494.07 61.1445 493.809 60.8828 493.285 60.4883L487.516 57.082C486.992 56.8203 486.469 56.6914 486.074 56.6914C485.68 56.6914 485.156 56.8203 484.762 57.082C484.371 57.3438 484.238 57.6055 484.105 57.8711C484.105 58.1328 484.371 58.3945 484.895 58.7852L486.992 59.9648L464.57 64.8086L471.125 50.9297L473.227 52.1094C473.75 52.3711 474.273 52.5 474.668 52.5C475.059 52.5 475.586 52.3711 475.977 52.1094C476.371 51.8477 476.504 51.582 476.633 51.3203C476.633 51.0586 476.371 50.7969 475.848 50.4062L469.945 47C469.422 46.7383 468.898 46.6094 468.504 46.6094C468.109 46.6094 467.586 46.7383 467.195 47C466.801 47.2617 466.668 47.5234 466.539 47.7852C466.539 48.0469 466.801 48.3086 467.324 48.7031L468.637 49.4883L461.555 64.6797L455.395 61.1445C455 60.8828 454.738 60.8828 454.344 60.8828C453.949 60.8828 453.688 61.0117 453.426 61.1445C453.164 61.2734 453.031 61.5352 453.031 61.668C453.031 61.9297 453.164 62.0586 453.559 62.3203L460.508 66.25L455.656 69.3906L448.707 65.4648C448.312 65.2031 448.051 65.2031 447.656 65.2031C447.395 65.2031 447 65.332 446.738 65.4648C446.477 65.5938 446.348 65.8555 446.348 65.9883C446.348 66.25 446.477 66.3789 446.871 66.6406L453.82 70.5703L447.395 74.7617L442.805 72.1406C442.281 71.8789 441.758 71.75 441.363 71.75C440.969 71.75 440.445 71.8789 440.055 72.1406C439.66 72.4023 439.527 72.6641 439.527 72.9297C439.527 73.1914 439.789 73.4531 440.316 73.8438L451.59 80.3906C451.984 80.7852 452.379 80.9141 452.902 80.7852ZM346.961 232.551L330.047 222.859L406.488 178.469L353.648 147.961L276.945 192.219L260.559 182.789L238.004 244.336L346.961 232.551ZM131.672 277.332C131.672 277.594 131.934 277.855 132.457 278.25L143.734 284.797C144.258 285.059 144.785 285.191 145.176 285.191C145.703 285.191 146.094 285.059 146.488 284.797C146.883 284.535 147.012 284.273 147.145 284.012C147.145 283.75 146.883 283.488 146.355 283.094L141.77 280.477L148.191 276.285L155.141 280.215C155.535 280.477 155.93 280.477 156.191 280.477C156.582 280.477 156.848 280.344 157.109 280.215C157.371 280.082 157.5 279.82 157.5 279.691C157.5 279.43 157.371 279.297 156.977 279.035L150.027 275.105L154.879 271.965L161.828 275.891C162.223 276.156 162.613 276.156 162.879 276.156C163.141 276.156 163.531 276.023 163.797 275.891C164.059 275.762 164.188 275.5 164.188 275.367C164.188 275.105 164.059 274.977 163.664 274.715L157.371 271.18L181.758 265.941L182.938 266.594C183.461 266.855 183.988 266.988 184.379 266.988C184.773 266.988 185.297 266.855 185.691 266.594C186.086 266.332 186.215 266.07 186.348 265.809C186.348 265.547 186.086 265.285 185.559 264.895L179.789 261.488C179.266 261.227 178.742 261.098 178.348 261.098C177.957 261.098 177.43 261.227 177.039 261.488C176.645 261.75 176.512 262.012 176.383 262.273C176.383 262.535 176.645 262.797 177.168 263.191L179.266 264.371L156.848 269.215L163.402 255.336L165.5 256.512C166.023 256.773 166.547 256.906 166.941 256.906C167.336 256.906 167.859 256.773 168.254 256.512C168.645 256.25 168.777 255.988 168.91 255.727C168.91 255.465 168.645 255.203 168.121 254.809L162.223 251.406C161.695 251.145 161.172 251.012 160.781 251.012C160.387 251.012 159.863 251.145 159.469 251.406C159.074 251.668 158.945 251.93 158.812 252.191C158.812 252.453 159.074 252.715 159.598 253.109L160.91 253.895L153.832 269.082L147.668 265.547C147.273 265.285 147.012 265.285 146.617 265.285C146.227 265.285 145.965 265.418 145.703 265.547C145.438 265.68 145.309 265.941 145.309 266.07C145.309 266.332 145.438 266.465 145.832 266.727L152.781 270.656L147.93 273.797L140.98 269.867C140.586 269.605 140.324 269.605 139.934 269.605C139.672 269.605 139.277 269.738 139.016 269.867C138.754 270 138.621 270.262 138.621 270.395C138.621 270.656 138.754 270.785 139.145 271.047L146.094 274.977L139.672 279.168L135.082 276.547C134.555 276.285 134.031 276.156 133.641 276.156C133.246 276.156 132.723 276.285 132.328 276.547C131.934 276.809 131.672 277.07 131.672 277.332ZM80.4062 241.586L107.68 225.871C121.051 230.453 137.965 230.324 151.207 225.742L240.758 277.332C232.762 285.059 232.762 294.879 240.758 302.605L210.473 320.02C197.098 315.438 180.055 315.438 166.68 320.02L80.2734 270.133C90.8945 261.75 90.8945 250.098 80.4062 241.586ZM124.594 287.152C137.309 294.488 161.434 292.523 178.48 282.703C195.395 273.012 198.801 259 186.215 251.668C173.496 244.336 149.371 246.301 132.328 256.121C115.414 265.941 112.004 279.82 124.594 287.152ZM518.195 131.984L548.484 114.438C546.781 112.734 545.336 110.902 544.418 109.07L509.02 129.496C512.164 130.152 515.312 130.938 518.195 131.984ZM392.719 77.1172C391.539 78.8203 389.836 80.5234 388 82.0938L474.406 131.984C477.289 130.938 480.438 130.152 483.715 129.629L392.719 77.1172ZM544.418 125.305L509.02 145.734C512.164 146.258 515.312 147.043 518.195 148.09L548.484 130.543C546.781 128.973 545.469 127.141 544.418 125.305ZM387.871 98.1992L474.273 148.09C477.156 147.043 480.305 146.258 483.582 145.734L392.719 93.3555C391.41 95.0586 389.836 96.7617 387.871 98.1992Z" fill="#EAE5FF"/>
</svg>
