<svg width="1440" height="810" viewBox="0 0 1440 810" fill="none" xmlns="http://www.w3.org/2000/svg">
<g clip-path="url(#clip0)">
<path d="M1430.51 495.289V494.039H1174.98C1169.57 494.035 1164.98 491.836 1161.7 488.418C1158.42 485.004 1156.49 480.371 1156.49 475.562C1156.49 472.488 1157.28 469.336 1159.01 466.34L1437.32 -13.3711C1440.62 -19.0586 1446.71 -22.5625 1453.29 -22.5625H1704.92C1710.32 -22.5586 1714.91 -20.3555 1718.19 -16.9414C1721.47 -13.5273 1723.4 -8.89843 1723.4 -4.08984C1723.39 -1.04296 1722.63 2.07422 1720.93 5.03907L1446.52 484.75C1443.24 490.496 1437.12 494.039 1430.51 494.039V496.539C1438.02 496.539 1444.96 492.516 1448.7 485.992L1723.11 6.28125C1725.02 2.9375 1725.9 -0.624996 1725.9 -4.08984C1725.9 -9.5664 1723.71 -14.8008 1720 -18.6758C1716.29 -22.5508 1711.01 -25.0664 1704.92 -25.0625H1453.29C1445.82 -25.0625 1438.91 -21.0859 1435.16 -14.625L1156.85 465.086C1154.89 468.461 1153.99 472.059 1153.99 475.562C1153.99 481.043 1156.18 486.273 1159.89 490.148C1163.6 494.027 1168.88 496.543 1174.98 496.539H1430.51V495.289Z" fill="#22DBDE" fill-opacity="0.749"/>
<path d="M1320.18 775.477C1308.66 775.461 1299.31 765.938 1299.3 754.59C1299.3 752.547 1299.61 750.445 1300.25 748.344L1377.84 496.539H1380.46L1302.64 749.082C1302.07 750.945 1301.8 752.793 1301.8 754.59C1301.8 759.566 1303.86 764.16 1307.2 767.52C1310.54 770.875 1315.12 772.973 1320.18 772.973C1321.56 772.973 1322.98 772.816 1324.43 772.484L1443.77 744.957V747.527L1324.99 774.922C1323.36 775.297 1321.75 775.477 1320.18 775.477Z" fill="#1157F5" fill-opacity="0.749"/>
<path d="M1381.23 494.039H1378.61L1443.77 282.566V291.066L1381.23 494.039Z" fill="#024BD6" fill-opacity="0.749"/>
<path d="M1380.46 496.539H1377.84L1378.61 494.039H1381.23L1380.46 496.539Z" fill="#3B51AB" fill-opacity="0.749"/>
</g>

</svg>