<svg width="154" height="70" viewBox="0 0 154 70" fill="none" xmlns="http://www.w3.org/2000/svg">
<path d="M121.414 29.9922L118.238 28.7344C103.309 62.0547 43.9376 41.7969 40.3634 51.7109C39.7696 58.4102 72.7891 52.9844 96.3946 54.1211C103.594 54.4648 107.199 59.8594 104.145 68.6484L110.164 68.6641C117.109 47.1836 139.274 58.1445 140.199 51.0547C138.68 46.3945 114.727 51.0547 121.414 29.9922Z" fill="white"/>
<path d="M105.848 64.9766C106.801 61.8242 106.484 58.6719 104.898 56.7812C103.309 54.8906 101.082 53.6289 98.2266 53.3125L42.9688 52.6836C42.6523 52.6836 42.3359 52.3672 42.0195 52.3672C41.6992 52.0547 41.6992 51.7383 42.0195 51.4219C42.3359 50.793 42.6523 50.4766 43.2891 50.4766L98.8633 49.8477C105.531 49.5312 112.523 44.1758 115.059 37.8711L118.238 29.6797C118.238 29.3633 118.555 29.0469 118.238 28.7344C114.738 12.6602 100.133 0.6875 82.9844 0.6875C67.1094 0.6875 53.4492 10.7695 48.6875 24.9531C45.5117 22.7461 41.6992 21.4844 37.2539 21.8008C29.6328 22.4297 23.5977 28.7344 22.6445 36.2969C22.3281 38.1875 22.6445 40.0781 22.9648 41.9688C10.5781 42.2852 0.414062 52.3672 0.414062 64.9766C0.414062 66.2344 0.414062 67.1836 0.734375 68.4414C0.734375 69.0703 1.36719 69.3828 1.6875 69.3828H103.621C104.266 69.3828 104.902 69.0703 104.902 68.4414L105.852 64.9766H105.848Z" fill="#F4811F"/>
<path d="M123.313 29.6797H121.731C121.414 29.6797 121.098 29.9922 120.774 30.3086L118.555 37.8711C117.598 41.0234 117.914 44.1758 119.504 46.0664C121.098 47.957 123.313 49.2188 126.172 49.5312L137.93 50.1641C138.246 50.1641 138.563 50.4766 138.879 50.4766C139.195 50.793 139.195 51.1094 138.879 51.4219C138.563 52.0547 138.246 52.3672 137.606 52.3672L125.539 53C118.871 53.3125 111.883 58.6719 109.34 64.9766L108.707 67.8125C108.391 68.125 108.707 68.7539 109.34 68.7539H151.262C151.895 68.7539 152.219 68.4414 152.219 67.8125C152.852 65.2891 153.484 62.4531 153.484 59.6172C153.484 43.2305 139.828 29.6797 123.313 29.6797Z" fill="#FAAD3F"/>
</svg>
