<svg width="1366" height="550" viewBox="0 0 1366 550" fill="none" xmlns="http://www.w3.org/2000/svg">
<g clip-path="url(#clip0)">
<rect width="1366" height="550" fill="white"/>
<rect width="1440" height="700" fill="#22DBDE"/>
<rect x="1247.03" y="-122.286" width="1478.13" height="770.731" transform="rotate(154.942 1247.03 -122.286)" fill="#1157F5"/>
<g clip-path="url(#clip1)">
<path d="M538.307 111.041L428.641 123.829L462.24 195.158C466.806 195.696 471.461 194.863 475.738 192.859L573.868 144.762C575.77 143.857 576.803 142.205 576.927 140.38L578.276 120.392C578.276 120.392 562.142 115.747 556.243 123.035L538.307 111.041ZM194.361 198.87L277.439 254.498C283.335 247.209 299.468 251.854 299.468 251.854L298.119 271.838C297.996 273.667 296.962 275.319 295.062 276.221L197.055 324.213C192.893 326.225 188.351 327.065 184.006 326.659L153.873 278.965L192.641 198.754L194.361 198.87Z" fill="#212F88"/>
<path d="M279.472 76.1309L451.246 191.089C454.654 193.382 458.477 194.674 462.364 195.053L465.633 146.63L543.781 108.313L395.563 9.05474C390.61 5.73612 384.201 5.30342 378.847 7.9262L298.918 47.0434C296.184 48.3475 295.93 52.1187 298.463 53.7784L299.892 54.7921L298.463 55.5C296.763 53.4344 295.244 52.0725 295.244 52.0725L277.764 50.3175L276.415 70.3017C276.384 72.4794 277.385 74.7266 279.472 76.1309ZM528.864 155.488L528.579 159.715C528.525 160.512 528.13 161.29 527.518 161.821C521.028 162.532 520.469 157.218 520.469 157.218L526.776 154.087C527.845 153.585 528.941 154.347 528.864 155.488ZM348.29 21.0067L337.945 26.044C336.16 26.957 333.983 26.8101 332.334 25.6652C331.342 25.0234 331.45 23.4256 332.519 22.9228L344.056 17.2782C345.601 16.5817 347.316 16.6974 348.75 17.5951C349.729 18.4654 349.606 20.2914 348.29 21.0067ZM500.865 135.816C506.339 133.088 515.041 133.676 520.215 137.122C522.191 138.518 523.349 140.088 523.706 141.605C523.141 143.172 521.782 144.572 519.636 145.69C514.162 148.417 505.461 147.83 500.286 144.384C498.311 142.988 497.152 141.417 496.803 139.789C497.361 138.334 498.728 136.821 500.865 135.816ZM-0.927231 181.788L-2.27634 201.772C-2.42282 203.942 -1.43083 206.301 0.773074 207.713L172.438 322.551C175.963 324.852 179.894 326.265 183.894 326.651L185.968 295.929C195.63 297.615 203.347 295.727 213.805 292.419C223.326 289.39 218.438 283.44 215.512 277.39C215.945 277.765 216.632 277.811 217.197 277.962C219.93 278.376 222.549 278.783 225.271 279.312C228.915 279.9 232.555 280.491 236.241 280.395C240.049 280.193 243.127 278.909 244.969 275.478C246.819 271.934 249.279 264.414 244.627 261.803C241.626 260.224 237.56 260.867 234.427 261.231C231.772 261.394 229.216 261.796 226.543 262.191C234.965 260.121 248.626 258.747 269.909 258.692C290.046 258.559 263.181 230.592 263.181 230.592L137.666 147.665C137.666 147.665 117.139 128.038 89.4086 136.72C62.622 145.121 20.553 170.275 15.3991 183.578L-0.927231 181.788ZM222.343 264.775C227.818 262.044 236.52 262.632 241.694 266.081C244.777 268.124 245.858 270.836 245.007 273.188C244.657 271.559 243.499 269.988 241.524 268.592C236.465 265.154 227.764 264.566 222.173 267.286C220.028 268.403 218.67 269.805 218.104 271.371C217.577 268.927 219.014 266.385 222.343 264.775ZM248.085 285.554C249.038 285.047 250.25 285.817 250.173 286.958L249.887 291.183C249.833 291.983 249.438 292.761 248.827 293.291C248.703 293.399 242.872 294.61 241.117 293.345C239.467 292.2 241.778 288.684 241.778 288.684L248.085 285.554Z" fill="#1157F5"/>
<path d="M281.6 44.6115L380.322 -3.67486C386.505 -6.70023 393.948 -6.19774 399.668 -2.36876L575.726 115.517C579.247 117.936 578.892 123.188 575.086 124.996L477.08 172.988C469.228 176.817 459.842 176.184 452.463 171.326L280.693 56.3671C276.518 53.4469 276.958 46.9367 281.6 44.6115ZM348.521 17.5797C347.088 16.6821 345.369 16.566 343.828 17.2628L332.29 22.9074C331.221 23.4102 331.113 25.008 332.105 25.6498C333.755 26.7947 335.931 26.9416 337.716 26.0286L348.061 20.9913C349.606 20.2914 349.729 18.4654 348.521 17.5797ZM500.286 144.384C505.344 147.822 514.046 148.409 519.636 145.69C525.112 142.959 525.451 137.934 520.384 134.611C515.326 131.173 506.625 130.585 501.034 133.305C495.56 136.032 495.228 140.942 500.286 144.384ZM298.463 53.7785L449.101 154.692L543.781 108.313L395.563 9.05478C390.61 5.73615 384.201 5.30346 378.846 7.92624L298.918 47.0434C296.177 48.4634 295.93 52.1188 298.463 53.7785ZM527.518 161.821L520.476 157.102L515.359 159.624C514.29 160.127 513.651 161.117 513.574 162.258L513.296 166.371C513.219 167.511 514.431 168.282 515.384 167.77L526.802 162.234C527.037 162.134 527.274 162.037 527.518 161.821ZM248.703 293.399L241.662 288.676L236.547 291.199C235.478 291.702 234.836 292.692 234.759 293.833L234.481 297.945C234.404 299.086 235.617 299.856 236.572 299.345L247.986 293.809C248.347 293.604 248.582 293.504 248.703 293.399ZM2.90861 176.078L101.627 127.791C107.814 124.77 115.256 125.273 120.977 129.098L297.035 246.987C300.552 249.405 300.197 254.658 296.395 256.466L198.389 304.454C190.537 308.284 181.15 307.65 173.772 302.793L2.11447 187.841C-2.28574 184.906 -1.84622 178.396 2.90861 176.078ZM69.7173 149.042C68.2807 148.141 66.565 148.025 65.0204 148.725L53.4861 154.37C52.4174 154.872 52.3094 156.471 53.3009 157.113C54.9474 158.254 57.1236 158.401 58.9085 157.491L69.2573 152.454C70.7985 151.754 70.9218 149.928 69.7173 149.042ZM221.595 275.85C226.654 279.289 235.355 279.876 240.946 277.156C246.42 274.429 246.759 269.404 241.693 266.081C236.635 262.639 227.934 262.052 222.342 264.775C216.755 267.495 216.416 272.52 221.595 275.85ZM19.6511 185.357L170.41 286.162L265.09 239.784L116.872 140.525C111.918 137.206 105.509 136.773 100.155 139.397L20.2264 178.51C17.4851 179.933 17.2385 183.586 19.6511 185.357Z" fill="white"/>
<path d="M313.41 41.9405L437.641 125.124L518.166 85.7051L506.392 77.7981L519.122 71.5427L507.34 63.7526L520.07 57.4971L395.831 -25.5739L315.306 13.8452L327.077 21.7547L314.35 28.0069L326.121 35.9165L313.41 41.9405ZM115.209 134.448L206.321 195.433L207.67 175.45L243.339 153.077L358.669 127.938L357.266 148.722L303.251 175.362L302.103 192.379L207.537 196.203L239.444 217.631L158.919 257.05L34.6878 173.867L115.209 134.448Z" fill="#22DBDE"/>
<path d="M349.035 28.7435C358.807 21.9462 359.609 11.7917 350.836 3.74236L375.576 -8.3551C386.983 -3.57076 401.76 -2.6861 413.593 -5.90503L488.867 44.3778C481.426 50.6447 480.848 59.2092 487.379 66.4193L459.905 79.8208C448.499 75.0366 433.614 74.0316 421.668 77.2395L349.035 28.7435ZM442.628 18.8849C431.953 11.7408 410.771 12.0321 395.311 19.592C379.971 27.047 376.169 39.0625 386.731 46.2025C397.401 53.3464 418.582 53.055 434.046 45.4954C449.506 37.9356 453.309 25.9167 442.628 18.8849ZM404.949 45.4818C405.407 45.5127 405.759 45.42 406.119 45.215C406.475 45.0098 406.606 44.7894 406.734 44.5688C406.75 44.3405 406.537 44.0968 406.103 43.7253L402.249 41.1688L408.107 37.8922L413.944 41.729C414.273 41.9805 414.614 42.0035 414.843 42.019C415.187 42.0423 415.423 41.9452 415.66 41.8449C415.896 41.7445 416.028 41.5241 416.035 41.4117C416.051 41.1834 415.942 41.0597 415.616 40.8084L409.78 36.975L414.201 34.5186L420.038 38.3555C420.363 38.6067 420.708 38.63 420.937 38.6454C421.165 38.6608 421.517 38.5683 421.754 38.4713C421.99 38.3709 422.121 38.1505 422.129 38.038C422.144 37.8097 422.036 37.6861 421.711 37.4348L416.42 33.9805L438.026 30.85L439.018 31.4918C439.46 31.7509 439.909 31.8942 440.253 31.9174C440.598 31.9407 441.062 31.8591 441.423 31.6542C441.779 31.449 441.91 31.2285 442.038 31.0078C442.054 30.7796 441.841 30.5359 441.407 30.161L436.57 26.8502C436.128 26.5911 435.679 26.4478 435.334 26.4246C434.99 26.4013 434.524 26.4829 434.165 26.6879C433.808 26.8931 433.677 27.1135 433.545 27.3373C433.529 27.5656 433.746 27.8095 434.181 28.1811L435.943 29.3335L416.078 32.2361L422.619 20.5184L424.385 21.6712C424.827 21.9302 425.276 22.0735 425.621 22.0968C425.962 22.1198 426.43 22.0385 426.787 21.8333C427.146 21.6283 427.278 21.4044 427.406 21.1838C427.421 20.9555 427.208 20.7119 426.774 20.3403L421.82 17.0217C421.379 16.7626 420.929 16.6193 420.585 16.5961C420.24 16.5728 419.776 16.6544 419.419 16.8596C419.06 17.0646 418.928 17.285 418.8 17.5057C418.785 17.7339 418.998 17.9776 419.431 18.3525L420.532 19.1147L413.453 31.9459L408.282 28.4997C407.953 28.2482 407.724 28.2327 407.38 28.2095C407.035 28.1862 406.8 28.2832 406.563 28.3836C406.327 28.4806 406.195 28.7011 406.187 28.8169C406.172 29.0451 406.281 29.1654 406.61 29.4169L412.447 33.2537L408.025 35.7067L402.188 31.8732C401.859 31.6217 401.631 31.6063 401.286 31.5831C401.058 31.5677 400.705 31.6568 400.469 31.7572C400.233 31.8543 400.105 32.0749 400.097 32.1907C400.082 32.419 400.187 32.539 400.516 32.7905L406.352 36.6273L400.495 39.9039L396.641 37.3474C396.199 37.0883 395.75 36.9451 395.405 36.9218C395.061 36.8985 394.596 36.9801 394.24 37.1853C393.88 37.3903 393.748 37.6107 393.733 37.8424C393.717 38.0706 393.931 38.3143 394.368 38.6861L403.827 45.0603C404.148 45.4277 404.485 45.5634 404.949 45.4818ZM303.506 171.595L289.307 162.145L358.669 127.938L314.325 98.2162L244.742 132.293L230.989 123.103L207.67 175.45L303.506 171.595ZM112.878 197.958C112.863 198.186 113.076 198.429 113.51 198.805L122.971 205.179C123.413 205.439 123.866 205.585 124.207 205.608C124.667 205.639 125.017 205.547 125.376 205.342C125.736 205.136 125.864 204.915 125.996 204.696C126.011 204.467 125.798 204.223 125.36 203.849L121.511 201.296L127.364 198.019L133.202 201.856C133.53 202.107 133.875 202.131 134.103 202.146C134.445 202.169 134.685 202.069 134.92 201.972C135.157 201.871 135.285 201.65 135.292 201.538C135.308 201.31 135.203 201.186 134.874 200.935L129.037 197.098L133.459 194.645L139.295 198.479C139.625 198.733 139.965 198.756 140.198 198.772C140.426 198.787 140.775 198.694 141.015 198.595C141.251 198.498 141.379 198.277 141.387 198.161C141.402 197.932 141.297 197.813 140.968 197.561L135.681 194.107L157.284 190.976L158.276 191.615C158.717 191.874 159.17 192.021 159.511 192.044C159.855 192.067 160.321 191.982 160.68 191.777C161.04 191.572 161.168 191.351 161.3 191.132C161.315 190.903 161.102 190.659 160.665 190.288L155.827 186.976C155.386 186.718 154.936 186.575 154.592 186.551C154.25 186.528 153.782 186.61 153.426 186.814C153.066 187.02 152.935 187.24 152.807 187.46C152.791 187.689 153.005 187.933 153.438 188.307L155.201 189.46L135.34 192.363L141.88 180.645L143.643 181.794C144.084 182.053 144.534 182.2 144.878 182.223C145.223 182.246 145.687 182.161 146.048 181.957C146.404 181.751 146.535 181.531 146.667 181.311C146.682 181.082 146.466 180.838 146.032 180.464L141.082 177.148C140.636 176.889 140.187 176.743 139.846 176.72C139.502 176.696 139.036 176.781 138.677 176.986C138.317 177.191 138.189 177.412 138.057 177.632C138.042 177.86 138.255 178.104 138.689 178.479L139.789 179.242L132.714 192.069L127.54 188.623C127.21 188.371 126.982 188.356 126.638 188.332C126.297 188.309 126.06 188.41 125.824 188.507C125.585 188.607 125.457 188.827 125.449 188.94C125.434 189.168 125.539 189.292 125.867 189.544L131.704 193.38L127.283 195.833L121.446 191.996C121.117 191.744 120.888 191.729 120.548 191.706C120.319 191.691 119.966 191.783 119.731 191.88C119.494 191.981 119.362 192.202 119.355 192.318C119.339 192.545 119.448 192.666 119.774 192.917L125.61 196.754L119.756 200.031L115.902 197.474C115.457 197.215 115.007 197.071 114.667 197.048C114.322 197.025 113.858 197.107 113.497 197.312C113.138 197.517 112.894 197.729 112.878 197.958ZM70.2174 163.761L94.9582 151.663C106.364 156.448 121.141 157.332 132.974 154.117L208.132 204.388C200.695 210.656 200.117 219.22 206.644 226.43L179.174 239.832C167.765 235.048 152.883 234.043 140.934 237.251L68.4207 188.649C78.1886 181.965 78.8747 171.803 70.2174 163.761ZM106.12 206.105C116.79 213.252 137.972 212.961 153.435 205.401C168.776 197.947 172.575 185.927 162.016 178.791C151.342 171.647 130.16 171.938 114.7 179.498C99.3524 187.065 95.5576 198.968 106.12 206.105ZM458.949 93.9823L486.43 80.4657C485.044 78.8792 483.89 77.1963 483.196 75.5444L451.084 91.2716C453.79 92.0291 456.493 92.9001 458.949 93.9823ZM352.613 38.7351C351.483 40.1508 349.895 41.5357 348.2 42.7971L420.712 91.401C423.291 90.6587 426.087 90.1588 428.979 89.8959L352.613 38.7351ZM482.24 89.7033L450.128 105.433C452.842 106.075 455.545 106.946 458.001 108.029L485.482 94.5112C484.087 93.0415 483.05 91.3665 482.24 89.7033ZM347.139 56.8353L419.648 105.44C422.227 104.696 425.023 104.197 427.915 103.934L351.657 52.8968C350.414 54.305 348.939 55.6975 347.139 56.8353Z" fill="#EAE5FF"/>
</g>
</g>
<defs>
<clipPath id="clip0">
<rect width="1366" height="550" fill="white"/>
</clipPath>
<clipPath id="clip1">
<rect width="575" height="611" fill="white" transform="translate(14.2305 -51.6713) rotate(3.86218)"/>
</clipPath>
</defs>
</svg>
