<svg width="248" height="492" viewBox="0 0 248 492" fill="none" xmlns="http://www.w3.org/2000/svg">
<path d="M59.332 15.9961C51.957 18.4531 46.2539 25.3281 46.2539 34.2656V336.687C46.2539 348.281 52.4492 358.984 62.4766 364.781L203.355 445.91C207.484 448.27 212.004 447.973 215.641 445.91C219.184 443.848 231.469 431.668 231.469 426.953L235.109 127.086C235.109 112.547 233.535 94.2773 220.953 87.0117L179.957 63.9297L168.652 60.5898L131.586 55.3828C118.711 53.6172 112.223 38.7851 119.691 28.0781L91.1836 7.15623C86.0703 4.30858 64.2461 14.3281 59.332 15.9961Z" fill="#EAE5FF"/>
<path d="M184.086 274.809V175.215C184.086 142.996 161.18 103.316 133.258 87.207C105.34 71.0976 82.4336 84.2617 82.4336 116.574V128.949C85.9727 131.016 89.8047 133.176 93.7383 135.434V125.613C93.7383 102.234 110.352 92.6093 130.605 104.297C150.855 115.984 167.473 144.668 167.473 168.141V193.285L125.492 169.027C125.395 169.027 125.395 168.926 125.297 168.926L115.27 163.133C115.07 163.035 114.973 162.937 114.777 162.836L96.6875 152.426C96.4922 152.328 96.1953 152.133 96 152.031L93.6406 150.656C89.7071 148.398 85.875 146.141 82.336 144.176V215.977C82.336 232.281 90.9844 247.309 105.145 255.363L161.375 287.773C171.5 293.668 184.086 286.398 184.086 274.809ZM9.78127 378.039C12.4375 376.566 14.7969 376.371 16.5664 377.352L38.7852 390.219V355.644C38.7852 351.227 39.9649 346.512 41.8321 341.894C45.2735 333.742 51.2696 326.082 58.1524 322.152L64.3438 318.617L67.5899 303.98L76.8281 311.348L78.5977 310.367L73.2891 299.07L66.8008 288.758L77.125 282.766C78.7969 281.785 80.9571 281.684 82.8281 282.766L177.793 337.574C180.84 339.34 182.707 342.582 182.707 346.117V370.871C182.707 372.344 181.922 373.523 180.84 374.211L170.617 380.102L143.484 366.844L139.551 369.102C132.77 373.031 126.672 380.691 123.23 388.844C121.266 393.461 120.184 398.176 120.184 402.598V473.219C120.184 479.406 115.859 486.871 110.551 490.012C105.242 493.156 100.914 490.602 100.914 484.414L29.2461 443.062C20.1055 440.707 19.6133 425.285 19.6133 425.285L17.4492 418.605L13.8125 424.402L10.7656 414.676L7.12893 420.473L4.08205 410.75L0.441428 416.543V395.031C0.14846 388.648 4.47268 381.184 9.78127 378.039Z" fill="white"/>
<path d="M19.5156 425.188V437.367C19.5156 440.508 20.6953 442.672 22.4648 443.652L103.668 490.504C101.898 489.523 100.816 487.359 100.816 484.316V460.25L113.891 467.816V463.395L100.816 455.832V448.762L113.891 456.324V451.902L100.816 444.34V437.27L113.891 444.832V440.41L100.816 432.848V430.59C100.816 424.5 96.4922 421.945 91.1836 424.992C85.875 428.035 81.5469 435.598 81.5469 441.785V463.691L78.5 453.965L74.8633 459.762L71.8164 450.035L68.1797 455.832L65.1289 446.109L61.4922 451.902L58.4453 442.18L54.8086 447.973L51.7617 438.25L48.125 444.047L45.0742 434.32L41.4375 440.117L38.3906 430.391L34.7539 436.188L31.707 426.465L28.0664 432.258L25.0195 422.535L21.3828 428.328L19.5156 425.188ZM55.8906 361.246L113.891 394.738V399.156L55.793 365.664V361.246H55.8906ZM41.1445 352.797L48.2227 356.824V361.246L41.1445 357.219V352.797ZM41.1445 364.191L48.2227 368.219V372.637L41.1445 368.609V364.191ZM41.1445 375.684L48.2227 379.711V384.129L41.1445 380.102V375.684ZM41.1445 387.078L48.2227 391.105V395.523L41.1445 391.496V387.078ZM64.8359 377.941L113.891 406.23V410.648L64.8359 382.363V377.941ZM61.4922 387.371L113.891 417.625V422.043L61.4922 391.793V387.371ZM66.8008 401.91L113.992 429.117V433.535L66.8008 406.328V401.91ZM66.8008 288.758C68.4727 287.773 70.6367 287.676 72.5039 288.758L167.473 343.566C170.52 345.332 172.387 348.574 172.387 352.109V376.863C172.387 378.238 171.699 379.414 170.617 380.102C169.438 380.789 167.961 380.988 166.586 380.203L143.484 366.844L154.492 360.559L160.984 364.289V358.004L78.5977 310.367L76.9297 309.383V311.348L64.4414 318.52C64.1484 317.734 64.0508 316.848 64.0508 315.965V293.668C63.9492 291.508 65.1289 289.738 66.8008 288.758Z" fill="#22DBDE"/>
<path d="M215.445 446.008C215.543 446.008 215.543 446.008 215.445 446.008V446.008ZM215.742 445.91C219.281 443.848 221.836 440.02 221.836 435.305V125.711C221.836 111.172 214.07 97.7148 201.484 90.4492L168.453 71.3945L163.441 86.125L103.57 51.5508L97.7695 30.5351L75.2578 17.5664C68.8672 13.8359 61.6914 14.3281 56.0859 17.5664L81.6484 2.83593C87.25 -0.503915 94.625 -1.09376 101.113 2.73827L227.242 75.5195C239.828 82.7851 247.594 96.2422 247.594 110.781V420.473C247.594 425.285 244.84 429.215 241.105 431.277L215.742 445.91ZM76.8281 311.348V309.383L78.5 310.367L76.8281 311.348ZM159.801 357.316L160.883 358.004V364.289L154.395 360.559L159.801 357.316Z" fill="#1157F5"/>
<path d="M123.625 365.371L132.18 360.457L124.902 356.332L123.918 356.922L129.816 360.262L127.164 361.734L121.559 358.594L120.578 359.184L126.18 362.324L123.23 363.996L117.039 360.559L116.055 361.145L123.625 365.371ZM117.43 358.984L118.512 358.395L114.68 356.234L113.598 356.824L117.43 358.984ZM109.566 357.512L118.121 352.602L113.695 350.047C112.812 349.555 112.023 349.164 111.434 349.066C110.844 348.867 110.156 348.867 109.469 348.867C108.781 348.867 108.191 349.066 107.797 349.359C107.207 349.754 106.914 350.145 106.914 350.637C106.914 351.129 107.402 351.719 108.289 352.305C107.797 352.207 107.402 352.109 107.012 352.109C106.324 352.109 105.535 352.109 104.75 352.109L100.621 352.504L102.293 353.484L105.438 353.191C106.324 353.094 107.012 353.094 107.602 353.094C108.094 353.094 108.582 353.094 108.879 353.191C109.172 353.289 109.469 353.289 109.664 353.387C109.863 353.484 110.059 353.582 110.453 353.781L112.023 354.664L108.191 356.824L109.566 357.512ZM113.008 353.977L110.156 352.406C109.566 352.109 109.172 351.719 108.879 351.52C108.684 351.227 108.582 351.031 108.582 350.734C108.684 350.539 108.781 350.344 109.074 350.145C109.469 349.949 109.961 349.852 110.551 349.852C111.141 349.852 111.828 350.145 112.613 350.539L115.762 352.305L113.008 353.977ZM96.5898 347.887L95.2148 347.199C94.8203 347.691 94.625 348.18 94.8203 348.672C95.0156 349.164 95.5078 349.656 96.3945 350.145C97.4727 350.734 98.5547 351.031 99.7344 351.129C100.914 351.129 101.996 350.832 102.98 350.344C104.062 349.754 104.555 349.066 104.453 348.379C104.355 347.691 103.863 347.102 102.883 346.512C101.898 345.922 100.816 345.629 99.6367 345.629C98.457 345.629 97.375 345.922 96.293 346.512C96.1953 346.512 96.0977 346.609 96 346.707L101.406 349.754C100.719 350.145 99.9336 350.344 99.1445 350.242C98.3594 350.242 97.6719 350.047 97.082 349.656C96.5898 349.359 96.293 349.164 96.1953 348.867C96.1953 348.574 96.293 348.281 96.5898 347.887ZM102.293 349.164L98.2617 346.906C98.8516 346.609 99.3438 346.512 99.9336 346.512C100.719 346.512 101.406 346.707 102.094 347.004C102.684 347.297 102.98 347.691 103.078 348.082C103.078 348.477 102.781 348.867 102.293 349.164ZM89.2148 343.465L87.8398 342.879C87.25 343.367 87.0547 343.859 87.1523 344.449C87.25 345.039 87.7422 345.527 88.5273 345.922C89.5117 346.512 90.5938 346.805 91.7734 346.805C92.9531 346.805 94.0352 346.512 95.1133 345.922C95.8047 345.527 96.1953 345.137 96.4922 344.645C96.6875 344.254 96.6875 343.762 96.3945 343.367C96.0977 342.879 95.7031 342.484 95.0156 342.191C94.2305 341.699 93.4453 341.504 92.5586 341.402C91.6758 341.305 90.8867 341.402 90.1016 341.699L91.1836 342.484C91.6758 342.289 92.2656 342.289 92.7539 342.289C93.2461 342.289 93.7383 342.484 94.1328 342.68C94.7227 343.074 95.1133 343.465 95.1133 343.859C95.1133 344.254 94.7227 344.742 93.9336 345.234C93.1484 345.727 92.2656 345.922 91.5742 345.922C90.7891 345.922 90.1016 345.727 89.5117 345.43C89.0195 345.137 88.7266 344.84 88.7266 344.547C88.7266 344.254 88.8242 343.762 89.2148 343.465ZM81.7461 339.539L80.3672 338.852C79.9766 339.34 79.7773 339.832 79.9766 340.324C80.1719 340.816 80.6641 341.305 81.5469 341.797C82.6289 342.387 83.7109 342.68 84.8906 342.777C86.0703 342.777 87.1523 342.484 88.1367 341.992C89.2148 341.402 89.707 340.715 89.6094 340.027C89.5117 339.34 89.0195 338.754 88.0352 338.164C87.0547 337.574 85.9727 337.277 84.793 337.277C83.6133 337.277 82.5312 337.574 81.4492 338.164C81.3516 338.164 81.2539 338.262 81.1562 338.359L86.5625 341.402C85.875 341.797 85.0859 341.992 84.3008 341.895C83.5156 341.797 82.8281 341.699 82.2383 341.305C81.7461 341.012 81.4492 340.816 81.3516 340.52C81.4492 340.227 81.4492 339.93 81.7461 339.539ZM87.4453 340.816L83.418 338.555C84.0078 338.262 84.4961 338.164 85.0859 338.164C85.875 338.164 86.5625 338.359 87.25 338.652C87.8398 338.949 88.1367 339.34 88.2344 339.734C88.2344 340.129 88.0352 340.52 87.4453 340.816ZM84.3008 334.824L85.4805 334.137L84.2031 333.449L83.0234 334.137L84.3008 334.824ZM76.9297 339.047L83.1211 335.512L81.8438 334.824L75.6484 338.359L76.9297 339.047ZM71.4219 338.652L79.9766 333.742L78.8945 333.152L78.1094 333.645C78.207 333.352 78.1094 333.055 77.9102 332.762C77.7148 332.465 77.418 332.172 76.9297 331.977C76.3398 331.582 75.6484 331.387 74.8633 331.289C74.0781 331.187 73.3867 331.187 72.6016 331.387C71.8164 331.582 71.2266 331.777 70.6367 332.172C70.0469 332.562 69.5547 332.957 69.3594 333.352C69.1602 333.742 69.1602 334.234 69.3594 334.727C69.5547 335.215 70.0469 335.512 70.5391 335.902C70.9297 336.102 71.4219 336.297 71.9141 336.395C72.4063 336.492 72.7969 336.492 73.2891 336.492L70.2422 338.262L71.4219 338.652ZM75.75 334.922C74.9609 335.414 74.1758 335.609 73.3867 335.609C72.6016 335.609 72.0117 335.512 71.4219 335.117C70.832 334.824 70.6367 334.43 70.6367 333.937C70.6367 333.449 71.0273 333.055 71.9141 332.562C72.6992 332.074 73.4883 331.875 74.2734 331.875C75.0586 331.875 75.75 331.977 76.2383 332.27C76.7305 332.562 77.0273 332.957 77.0273 333.449C76.9297 334.039 76.5352 334.43 75.75 334.922ZM64.2461 330.895L63.1641 331.285C63.4609 331.484 63.7539 331.68 64.0508 331.875C64.5391 332.172 64.9336 332.27 65.2305 332.367C65.6211 332.465 65.918 332.465 66.2109 332.367C66.5078 332.27 67 332.074 67.5898 331.777L71.1289 329.715L72.0117 330.207L72.7969 329.715L71.9141 329.223L73.4883 328.34L72.8984 327.262L70.7344 328.535L69.457 327.848L68.668 328.34L69.9492 329.027L66.3086 331.09C66.0156 331.285 65.8203 331.387 65.6211 331.387C65.5234 331.387 65.3281 331.387 65.2305 331.387C65.0312 331.387 64.9336 331.285 64.7383 331.187C64.5391 331.09 64.4414 330.992 64.2461 330.895ZM153.512 253.789V232.379C153.512 217.254 142.207 198.883 128.344 191.32C121.559 187.687 115.367 187.098 110.746 189.848C106.422 192.402 104.062 197.609 104.062 204.484V224.816C104.062 225.305 103.668 225.699 103.176 225.699C102.684 225.699 102.293 225.305 102.293 224.816V204.484C102.293 197.02 104.945 191.223 109.863 188.375C115.07 185.332 121.855 185.82 129.227 189.75C143.582 197.609 155.281 216.664 155.281 232.379V253.789C155.281 254.281 154.887 254.676 154.395 254.676C153.902 254.676 153.512 254.281 153.512 253.789ZM150.66 204.285C151.055 203.895 151.742 203.895 152.035 204.387C157.641 213.52 161.082 223.734 161.082 233.066V239.352C161.082 239.844 160.688 240.234 160.195 240.234C159.703 240.234 159.312 239.844 159.312 239.352V233.066C159.312 224.129 155.969 214.109 150.562 205.27C150.363 204.973 150.363 204.582 150.66 204.285ZM107.602 181.105C113.695 177.473 121.758 178.062 130.309 182.777C137.879 186.902 144.762 193.582 150.07 201.437C150.266 201.734 150.266 202.223 149.973 202.422C149.578 202.812 148.988 202.812 148.695 202.324C143.484 194.758 136.797 188.18 129.523 184.25C121.461 179.828 113.992 179.242 108.484 182.578C103.273 185.625 100.422 191.812 100.422 200.062V204.484C100.422 204.973 100.031 205.367 99.5391 205.367C99.0469 205.367 98.6523 204.973 98.6523 204.484V200.062C98.7539 191.223 101.898 184.445 107.602 181.105ZM115.957 202.617C119.301 200.652 123.723 200.949 128.441 203.5C134.145 206.645 139.156 212.539 142.105 218.922C142.305 219.316 142.105 219.805 141.715 220.004C141.32 220.199 140.73 220.004 140.535 219.609C137.684 213.52 132.965 207.922 127.559 204.973C123.43 202.715 119.594 202.422 116.742 204.09C116.055 204.484 115.562 204.973 114.973 205.562C114.68 205.957 114.09 205.957 113.793 205.66C113.5 205.367 113.402 204.875 113.695 204.484C114.383 203.699 115.172 203.109 115.957 202.617ZM112.711 213.027V223.832C112.711 229.234 115.66 235.621 119.789 240.137C120.086 240.434 120.086 240.824 119.891 241.121C119.594 241.609 118.906 241.609 118.512 241.219C113.992 236.309 110.941 229.629 110.941 223.832V213.027C110.941 211.062 111.238 209.199 111.828 207.625C112.023 207.035 112.711 206.937 113.203 207.332C113.5 207.527 113.5 207.922 113.402 208.215C113.008 209.59 112.711 211.262 112.711 213.027ZM115.762 215.977C115.762 212.637 116.941 210.082 119.199 208.707C120.379 208.02 121.758 207.727 123.23 207.824C123.625 207.824 124.02 208.215 124.02 208.707C124.02 209.199 123.625 209.59 123.133 209.492C121.953 209.395 120.969 209.59 120.086 210.082C118.414 211.062 117.531 213.125 117.531 215.879V225.207C117.531 229.629 120.969 235.227 125 237.387C126.77 238.371 128.441 238.566 129.621 237.977C129.621 237.977 129.719 237.977 129.719 237.879C130.113 237.582 130.605 237.781 130.898 238.172C131.195 238.566 130.996 239.059 130.605 239.352C130.508 239.449 130.309 239.547 130.309 239.547C128.637 240.336 126.477 240.137 124.215 238.859C119.594 236.309 115.859 230.219 115.859 225.207V215.977H115.762ZM148.203 237.094C147.809 237.094 147.414 236.699 147.414 236.309V230.609C147.414 218.727 138.566 204.187 127.559 198.195C122.25 195.348 117.332 194.957 113.793 197.02C110.453 198.984 108.582 203.109 108.582 208.414V223.047C108.582 224.52 108.781 225.992 108.977 227.566C109.074 227.957 108.879 228.254 108.582 228.449C108.094 228.742 107.504 228.449 107.402 227.859C107.109 226.191 106.914 224.617 106.914 223.047V208.414C106.914 202.422 109.074 197.805 113.008 195.547C117.137 193.09 122.641 193.484 128.441 196.625C139.848 202.812 149.184 218.039 149.184 230.512V236.207C149.086 236.797 148.695 237.191 148.203 237.094ZM108.582 230.414C109.074 230.117 109.664 230.414 109.762 230.906C112.418 239.449 118.809 247.996 126.277 252.023C130.996 254.578 135.324 254.969 138.566 253.102C141.516 251.336 143.188 247.699 143.188 242.887V230.512C143.188 227.957 142.695 225.305 141.812 222.652C141.715 222.262 141.812 221.867 142.207 221.672C142.695 221.477 143.188 221.672 143.387 222.164C144.367 225.012 144.957 227.859 144.957 230.609V242.984C144.957 248.387 142.992 252.512 139.453 254.676C135.719 256.934 130.801 256.539 125.492 253.691C117.629 249.469 110.941 240.531 108.191 231.496C108.094 231.004 108.289 230.609 108.582 230.414ZM127.066 210.77C126.77 210.574 126.477 210.477 126.18 210.375C125.887 210.277 125.688 209.984 125.688 209.59C125.688 209 126.277 208.609 126.867 208.805C127.164 208.902 127.559 209.102 127.852 209.297C133.848 212.539 138.766 220.395 139.156 227.074C139.156 227.469 138.961 227.762 138.668 227.859L137.488 228.352V227.762C137.387 221.477 132.77 213.914 127.066 210.77ZM135.027 246.816C132.277 248.488 128.539 248.191 124.707 246.129C123.527 245.441 122.348 244.656 121.266 243.773C120.969 243.477 120.871 243.086 121.07 242.691C121.363 242.297 121.953 242.199 122.348 242.496C123.328 243.379 124.41 244.066 125.59 244.656C128.934 246.426 132.078 246.719 134.242 245.441C136.309 244.164 137.488 241.609 137.488 238.27V230.805C137.488 230.512 137.684 230.117 137.977 230.02C138.566 229.824 139.156 230.219 139.156 230.805V238.27C139.156 242.199 137.684 245.246 135.027 246.816ZM147.414 248.289V239.648C147.414 239.156 147.809 238.762 148.301 238.859C148.695 238.859 149.086 239.254 149.086 239.648V248.289C149.086 254.086 147.121 258.504 143.484 260.961C143.09 261.254 142.5 261.059 142.305 260.664C142.105 260.273 142.207 259.781 142.598 259.586C145.645 257.426 147.414 253.496 147.414 248.289ZM131.488 236.109C131.391 235.914 131.293 235.719 131.391 235.422C131.488 234.934 131.586 234.441 131.586 233.852V226.094C131.586 225.602 131.98 225.207 132.473 225.207C132.965 225.207 133.359 225.602 133.359 226.094V233.852C133.359 234.539 133.258 235.227 133.16 235.816C132.867 236.602 131.883 236.699 131.488 236.109Z" fill="#024BD6"/>
</svg>
