<svg width="1440" height="810" viewBox="0 0 1440 810" fill="none" xmlns="http://www.w3.org/2000/svg">
<g clip-path="url(#clip0)">
<rect width="1440" height="810" fill="white"/>
<rect width="1440" height="805" fill="#1157F5"/>
<g clip-path="url(#clip1)">
<path d="M642.041 1046.04L645.082 1046.04L645.082 424.084C645.092 410.926 650.442 399.745 658.757 391.758C667.063 383.791 678.335 379.094 690.035 379.094C697.513 379.094 705.182 381.005 712.471 385.227L1879.56 1062.63C1893.39 1070.66 1901.92 1085.46 1901.92 1101.48L1901.92 1713.94C1901.91 1727.07 1896.55 1738.26 1888.24 1746.24C1879.94 1754.22 1868.67 1758.92 1856.98 1758.92C1849.56 1758.91 1841.98 1757.04 1834.77 1752.92L667.681 1085.02C653.702 1077.02 645.082 1062.14 645.082 1046.04L639 1046.04C639 1064.33 648.787 1081.22 664.66 1090.31L1831.74 1758.2C1839.88 1762.86 1848.55 1765.01 1856.98 1765C1870.3 1765 1883.03 1759.68 1892.46 1750.63C1901.89 1741.6 1908.01 1728.77 1908 1713.94L1908 1101.48C1908 1083.29 1898.33 1066.48 1882.61 1057.36L715.522 379.96C707.311 375.196 698.557 373 690.035 373C676.7 373.009 663.976 378.324 654.549 387.366C645.111 396.398 638.99 409.233 639 424.084L639 1046.04L642.041 1046.04Z" fill="#22DBDE" fill-opacity="0.749"/>
<path d="M417.159 1164.75L419.667 1164.08L282.276 651.331C279.378 640.481 281.32 630.081 286.414 621.659C291.504 613.255 299.762 606.892 309.411 604.307C315.579 602.654 322.326 602.535 329.27 604.404L1441.43 904.958C1454.62 908.524 1464.92 918.844 1468.46 932.052L1603.75 1436.97C1606.65 1447.8 1604.7 1458.21 1599.61 1466.63C1594.52 1475.04 1586.27 1481.4 1576.62 1483.98C1570.51 1485.62 1563.84 1485.75 1556.98 1483.95L446.916 1191.22C433.621 1187.72 423.225 1177.36 419.667 1164.08L414.651 1165.42C418.691 1180.5 430.496 1192.27 445.594 1196.26L1555.66 1488.97C1563.4 1491.02 1571.02 1490.87 1577.97 1489C1588.96 1486.06 1598.28 1478.85 1604.06 1469.32C1609.84 1459.79 1612.05 1447.85 1608.77 1435.63L1473.48 930.707C1469.46 915.712 1457.76 903.984 1442.79 899.941L330.622 599.388C322.798 597.275 315.094 597.399 308.065 599.282C297.07 602.237 287.75 609.43 281.972 618.968C276.184 628.5 273.972 640.434 277.26 652.675L414.651 1165.42L417.159 1164.75Z" fill="#22DBDE" fill-opacity="0.749"/>
</g>
</g>
<defs>
<clipPath id="clip0">
<rect width="1440" height="810" fill="white"/>
</clipPath>
<clipPath id="clip1">
<rect width="766" height="2071" fill="white" transform="translate(2073 233) rotate(90)"/>
</clipPath>
</defs>
</svg>
