<svg width="788" height="610" viewBox="0 0 788 610" fill="none" xmlns="http://www.w3.org/2000/svg">
<path d="M99.8867 90.6133C100.922 86.5742 100 81.5 95.3867 80.2344C91.582 79.1953 87.4297 82.1953 84.3164 83.8086C81.6641 85.1914 78.7812 86.2305 76.0156 87.6133C68.9805 90.957 62.7539 96.1445 58.4883 102.719C57.5625 104.102 56.7578 105.719 56.5273 107.332C56.2969 109.062 56.8711 110.906 58.3711 111.828C59.8711 112.75 61.9453 112.52 63.4453 111.598C65.0586 110.789 66.3281 109.406 67.7109 108.371C73.4766 103.871 81.2031 103.297 87.8906 100.414C90.4297 99.375 92.7344 97.9922 95.1562 96.4922C96.3086 95.8008 97.4648 95.1094 98.2695 93.957C99.1914 93.0312 99.6523 91.8789 99.8867 90.6133ZM-0.785156 157.836C-0.785156 157.836 2.21094 160.145 5.67188 163.949L152.816 79.082C164.117 72.5078 178.184 72.5078 189.484 79.082L501.184 258.965C511.445 244.438 542.469 251.238 542.469 251.238V289.176C542.352 292.637 540.621 295.98 537.277 297.941L358.191 401.375C343.777 409.676 326.02 409.676 311.488 401.375L-27.6562 205.578C-31.8047 203.156 -33.9961 199.004 -34.1133 194.738V156.801L-0.785156 157.836Z" fill="#212F88"/>
<path d="M451.828 336.223C452.98 335.07 453.672 333.57 453.672 331.844V323.887C453.672 321.809 451.367 320.426 449.523 321.465L437.875 328.152L431.996 339.453C435.453 339.336 451.484 336.57 451.828 336.223ZM396.824 282.605C406.855 276.84 427.496 275.34 437.645 281.105C443.758 284.68 447.562 296.098 442.141 298.402C441.336 295.402 438.914 292.52 434.992 290.215C424.961 284.449 408.469 284.449 398.32 290.215C394.285 292.52 391.98 295.402 391.172 298.402C385.754 296.098 390.711 286.18 396.824 282.605ZM-0.0937505 161.758L297.883 338.875L487 232.215L188.102 59.4766C178.301 53.8281 164.23 52.0977 154.43 57.7461L-0.0937505 148.957C-5.05078 151.84 -5.05078 158.992 -0.0937505 161.758ZM356.117 276.031L442.141 226.332L453.559 232.906L367.531 282.605L356.117 276.031ZM134.594 194.621L245.875 130.277C255.332 130.738 264.785 130.508 274.129 129.125L147.742 202.117L134.594 194.621ZM124.445 156.801L183.375 122.785C188.562 124.168 193.867 124.742 199.172 125.32C200.785 125.551 202.516 125.664 204.129 125.898L137.477 164.297L124.445 156.801Z" fill="#024BD6"/>
<path d="M408.816 214.227L419.195 220.105L416.656 221.605C416.426 221.719 416.426 221.836 416.426 221.836C416.426 221.949 416.426 221.949 416.543 222.066C416.656 222.18 416.773 222.18 416.887 222.18C417.004 222.18 417.234 222.066 417.348 222.066L423.23 218.605C423.461 218.492 423.461 218.375 423.461 218.375C423.461 218.262 423.461 218.262 423.348 218.145C423.23 218.031 423.113 218.031 423 218.031C422.883 218.031 422.652 218.145 422.539 218.145L420 219.645L410.66 214.34L413.891 213.301C414.004 213.301 414.121 213.188 414.234 213.188C414.352 213.188 414.352 213.07 414.352 212.957C414.352 212.84 414.352 212.84 414.234 212.727C414.121 212.727 414.004 212.609 413.891 212.609C413.773 212.609 413.66 212.609 413.43 212.727L408.816 214.227ZM399.477 225.062L401.32 226.102C402.934 227.023 404.551 227.484 406.164 227.602C407.434 227.715 408.586 227.484 409.508 226.91C409.969 226.68 410.316 226.332 410.547 225.988C410.777 225.641 410.891 225.293 410.777 224.949C410.777 224.719 410.66 224.488 410.43 224.141C410.199 223.797 409.969 223.449 409.738 223.219C409.391 222.875 408.816 222.527 408.238 222.066L406.395 221.027C404.781 220.105 403.164 219.645 401.551 219.531C400.281 219.414 399.129 219.645 398.207 220.223C397.746 220.453 397.398 220.797 397.168 221.145C396.938 221.488 396.824 221.836 396.938 222.18C396.938 222.41 397.055 222.645 397.285 222.988C397.516 223.336 397.746 223.68 397.977 223.91C398.207 224.371 398.785 224.719 399.477 225.062ZM400.281 224.719C399.59 224.371 399.016 223.91 398.668 223.449C398.32 222.988 397.977 222.645 397.977 222.297C397.977 222.066 397.977 221.836 398.09 221.605C398.207 221.258 398.555 221.027 398.898 220.797C399.707 220.336 400.859 220.223 402.129 220.336C403.395 220.566 404.664 220.914 405.816 221.605L407.434 222.527C408.125 222.875 408.699 223.336 409.047 223.797C409.391 224.258 409.738 224.602 409.738 225.062C409.738 225.293 409.738 225.527 409.625 225.641C409.508 225.988 409.16 226.219 408.816 226.449C408.008 226.91 406.855 227.023 405.586 226.91C404.32 226.68 403.051 226.332 401.898 225.641L400.281 224.719ZM388.98 231.293C390.02 231.406 390.941 231.523 391.863 231.406C392.785 231.293 393.48 231.059 394.055 230.715C394.516 230.367 394.977 230.023 395.094 229.562C395.324 229.102 395.207 228.641 394.977 228.176C394.746 227.715 394.285 227.254 393.594 226.91C392.672 226.449 391.633 226.102 390.25 225.988C388.98 225.871 387.828 226.102 386.906 226.68C386.215 227.023 385.867 227.602 385.637 228.062C385.523 228.641 385.637 229.215 386.098 229.793C386.676 230.598 387.715 231.406 388.98 232.098C390.02 232.676 391.059 233.137 392.094 233.25C392.785 233.367 393.594 233.48 394.402 233.48C395.207 233.48 396.133 233.367 396.938 233.25C398.09 233.02 399.016 232.676 399.82 232.215C400.398 231.867 400.742 231.637 400.859 231.293C400.973 231.176 400.859 231.059 400.742 230.945C400.629 230.945 400.512 230.828 400.398 230.828C400.281 230.828 400.168 230.828 400.051 230.945C399.938 230.945 399.938 231.059 399.82 231.176C399.707 231.406 399.477 231.523 399.129 231.754C397.859 232.445 396.363 232.906 394.516 232.906C392.672 232.906 391.172 232.559 389.789 231.754C389.789 231.754 389.441 231.637 388.98 231.293ZM387.945 230.484C387.137 229.676 386.676 228.984 386.676 228.41C386.676 227.945 387.02 227.484 387.715 227.141C388.406 226.793 389.211 226.562 390.137 226.562C391.172 226.562 392.094 226.793 392.902 227.254C393.711 227.715 394.055 228.176 394.172 228.754C394.285 229.332 393.941 229.793 393.363 230.137C393.02 230.367 392.555 230.484 392.094 230.598C391.52 230.715 390.941 230.715 390.25 230.715C389.789 230.828 388.98 230.715 387.945 230.484ZM380.102 237.055C379.758 237.633 379.641 238.094 379.871 238.555C379.988 239.016 380.449 239.363 380.91 239.707C381.832 240.172 382.871 240.402 384.137 240.402C385.406 240.402 386.559 240.055 387.484 239.594C388.406 239.016 388.98 238.441 388.98 237.633C388.98 236.941 388.637 236.25 387.715 235.789C387.137 235.441 386.445 235.211 385.637 235.211C384.832 235.098 384.023 235.211 382.984 235.328C383.215 234.867 383.332 234.406 383.215 234.059C383.102 233.598 382.754 233.137 382.18 232.906C381.371 232.445 380.332 232.215 379.18 232.215C377.91 232.215 376.875 232.559 375.949 233.02C375.027 233.598 374.566 234.176 374.566 234.867C374.566 235.559 374.914 236.133 375.719 236.594C376.297 236.941 376.988 237.172 377.797 237.172C378.488 237.289 379.297 237.172 380.102 237.055ZM381.715 239.363C381.023 239.016 380.793 238.555 380.793 237.98C380.793 237.402 381.254 236.941 381.949 236.48C382.754 236.02 383.562 235.789 384.602 235.789C385.637 235.789 386.445 235.902 387.02 236.25C387.715 236.594 387.945 237.055 387.945 237.633C387.945 238.211 387.484 238.672 386.789 239.133C385.984 239.594 385.176 239.824 384.137 239.824C383.215 239.824 382.41 239.707 381.715 239.363ZM376.645 236.133C376.066 235.789 375.719 235.328 375.719 234.75C375.719 234.176 376.066 233.711 376.758 233.367C377.449 233.02 378.258 232.789 379.18 232.789C380.102 232.789 380.91 232.906 381.484 233.25C382.062 233.598 382.293 233.941 382.293 234.52C382.293 235.098 381.832 235.559 381.141 235.902C380.449 236.363 379.641 236.48 378.719 236.594C377.797 236.711 377.219 236.48 376.645 236.133ZM353.004 247.895L352.656 247.664L358.078 244.551L358.77 244.898C359 245.012 359.113 245.012 359.23 245.012C359.344 245.012 359.461 245.012 359.574 244.898C359.691 244.781 359.691 244.781 359.691 244.668C359.691 244.551 359.574 244.438 359.461 244.438L358.078 243.629L351.156 247.664L352.312 248.355L364.766 252.047C364.996 252.164 365.109 252.164 365.227 252.164C365.344 252.164 365.457 252.164 365.574 252.047C365.688 251.934 365.688 251.934 365.688 251.816C365.688 251.699 365.688 251.699 365.574 251.586C365.574 251.586 365.457 251.469 365.227 251.469L353.004 247.895ZM352.082 254.582C350.926 254.469 350.004 254.469 349.199 254.582C348.391 254.699 347.699 254.93 347.121 255.277C346.316 255.738 345.969 256.312 345.969 257.004C345.969 257.699 346.43 258.391 347.469 258.965C348.391 259.426 349.43 259.773 350.695 259.887C351.965 260.004 353.117 259.773 354.156 259.195C354.848 258.852 355.195 258.391 355.426 257.812C355.656 257.234 355.426 256.66 354.965 255.969C354.387 255.16 353.465 254.352 352.195 253.66C351.273 253.086 350.234 252.738 349.082 252.508C348.16 252.277 347.238 252.277 346.316 252.277C345.391 252.277 344.469 252.395 343.547 252.625C342.625 252.855 341.816 253.086 341.012 253.547C340.551 253.891 340.203 254.121 340.086 254.469C340.086 254.582 340.086 254.699 340.203 254.816C340.32 254.93 340.434 254.93 340.551 254.93C340.664 254.93 340.781 254.93 340.895 254.816C341.012 254.816 341.012 254.699 341.125 254.582C341.242 254.352 341.473 254.121 341.816 254.008C342.969 253.316 344.469 252.969 346.43 252.969C348.391 252.969 350.004 253.316 351.273 254.121C351.387 254.121 351.621 254.238 352.082 254.582ZM353.117 255.277C353.926 255.969 354.387 256.66 354.273 257.234C354.273 257.812 353.926 258.273 353.234 258.621C352.543 258.965 351.734 259.195 350.812 259.195C349.773 259.195 348.969 258.965 348.16 258.504C347.352 258.043 347.008 257.582 347.008 257.004C347.008 256.43 347.238 255.969 347.93 255.621C348.504 255.277 349.312 255.16 350.352 255.047C350.812 255.047 351.852 255.16 353.117 255.277ZM335.359 257.812L338.934 259.887C338.359 260.004 337.781 260.234 337.32 260.348C336.859 260.582 336.398 260.695 336.051 260.926C335.129 261.504 334.668 262.078 334.668 262.887C334.668 263.578 335.246 264.27 336.281 264.848C337.434 265.539 338.703 265.883 340.203 265.883C341.586 265.883 342.855 265.539 344.008 264.961C344.699 264.5 345.277 264.039 345.621 263.461C345.852 263.117 346.086 262.656 346.086 262.309C346.086 262.078 346.086 261.965 345.969 261.848C345.852 261.734 345.738 261.734 345.621 261.734C345.508 261.734 345.391 261.734 345.277 261.848C345.16 261.965 345.16 261.965 345.16 262.078C345.047 263.117 344.469 263.926 343.434 264.5C342.508 264.961 341.586 265.309 340.434 265.309C339.281 265.309 338.242 265.078 337.203 264.5C336.398 264.039 335.938 263.461 335.938 262.887C335.938 262.309 336.281 261.848 337.09 261.387C337.898 260.926 338.82 260.582 339.973 260.348C340.203 260.348 340.434 260.234 340.551 260.234C340.664 260.117 340.664 260.117 340.664 260.004C340.664 259.887 340.551 259.887 340.434 259.773L335.59 257.004L330.402 260.004C330.172 260.117 330.172 260.234 330.172 260.234C330.172 260.348 330.172 260.348 330.285 260.465C330.402 260.582 330.516 260.582 330.633 260.582C330.746 260.582 330.977 260.465 331.094 260.465L335.359 257.812ZM327.98 270.266L332.938 267.383L332.133 266.922L320.945 265.309L319.332 266.23L326.48 270.383L325.902 270.727C325.672 270.844 325.672 270.957 325.559 270.957C325.559 271.074 325.559 271.074 325.672 271.188C325.789 271.305 325.902 271.305 326.02 271.305C326.133 271.305 326.363 271.188 326.48 271.188L327.059 270.844L329.363 272.227L328.785 272.574C328.555 272.688 328.555 272.805 328.441 272.805C328.441 272.918 328.441 272.918 328.555 273.035C328.672 273.148 328.785 273.148 328.902 273.148C329.016 273.148 329.246 273.035 329.363 273.035L332.133 271.418C332.363 271.305 332.363 271.188 332.477 271.188C332.477 271.074 332.477 271.074 332.363 270.957C332.246 270.844 332.133 270.844 332.016 270.844C331.898 270.844 331.668 270.957 331.555 270.957L330.172 271.766L327.98 270.266ZM327.289 269.805L320.945 266.113L321.293 265.883L331.438 267.383L327.289 269.805ZM303.07 281.336C302.727 281.914 302.609 282.488 302.727 282.949C302.84 283.41 303.301 283.871 303.879 284.219C304.801 284.68 305.84 284.91 307.34 284.91C308.836 284.91 309.992 284.566 311.027 283.871C311.719 283.527 312.18 283.066 312.641 282.488C313.105 281.914 313.219 281.453 313.219 281.223C313.219 281.105 313.219 280.988 313.105 280.988C312.988 280.988 312.875 280.875 312.758 280.875C312.641 280.875 312.527 280.875 312.41 280.988C312.297 280.988 312.297 281.105 312.18 281.223C311.949 282.145 311.258 282.949 310.223 283.527C309.297 283.988 308.375 284.336 307.223 284.336C306.07 284.336 305.262 284.219 304.57 283.871C304.109 283.641 303.879 283.297 303.762 282.836C303.648 282.375 303.762 282.027 303.992 281.566C304.223 281.105 304.688 280.758 305.262 280.414C305.492 280.297 305.492 280.184 305.492 280.184C305.492 280.184 305.492 280.066 305.379 279.953C305.262 279.836 305.148 279.836 305.031 279.836C304.918 279.836 304.688 279.836 304.57 279.953L303.992 280.297C303.301 280.645 302.609 280.875 301.688 280.875C300.879 280.875 300.188 280.758 299.613 280.414C299.035 280.066 298.805 279.723 298.805 279.145C298.805 278.684 299.266 278.223 299.957 277.762C300.418 277.414 300.996 277.184 301.688 277.07C302.266 276.953 302.84 276.84 303.418 276.84C303.648 276.84 303.762 276.84 303.879 276.84C303.992 276.84 303.992 276.84 304.109 276.723C304.223 276.609 304.223 276.609 304.223 276.492C304.223 276.379 304.223 276.379 304.109 276.262C303.879 276.148 303.301 276.148 302.496 276.262C301.227 276.379 300.188 276.723 299.266 277.301C298.344 277.875 297.766 278.453 297.766 279.145C297.766 279.836 298.113 280.414 298.805 280.758C299.266 280.988 299.844 281.223 300.648 281.336C301.457 281.566 302.266 281.566 303.07 281.336ZM302.035 287.91L296.27 291.254L296.035 291.137C295.805 291.023 295.691 291.023 295.574 291.023C295.461 291.023 295.344 291.023 295.23 291.137C295.113 291.254 295.113 291.254 295.113 291.367C295.113 291.484 295.23 291.598 295.344 291.598L296.383 292.176L303.648 288.023L302.609 287.449C299.727 287.562 296.961 287.68 294.078 287.68C292.809 287.68 291.77 287.68 291.309 287.68C290.734 287.68 290.27 287.562 290.039 287.562C289.695 287.449 289.465 287.332 289.234 287.219C288.656 286.871 288.312 286.41 288.312 285.832C288.312 285.258 288.773 284.797 289.465 284.336C290.156 283.988 290.848 283.758 291.77 283.641C292.691 283.527 293.387 283.641 294.078 283.871C294.309 283.988 294.422 283.988 294.539 283.988C294.652 283.988 294.77 283.988 294.883 283.871C295 283.758 295 283.758 295 283.641C295 283.527 295 283.527 294.883 283.41C294.652 283.297 294.078 283.18 293.27 283.066C292.461 282.949 291.656 283.066 290.848 283.18C290.039 283.297 289.348 283.641 288.773 283.871C287.852 284.449 287.387 285.027 287.273 285.832C287.273 286.641 287.617 287.219 288.426 287.68C288.773 287.91 289.117 288.023 289.578 288.141C289.926 288.254 290.5 288.254 291.078 288.371C291.656 288.371 292.691 288.371 294.078 288.371C297.191 288.023 299.957 288.023 302.035 287.91ZM277.242 290.445L287.617 296.328L285.082 297.824C284.852 297.941 284.852 298.055 284.852 298.055C284.852 298.172 284.852 298.172 284.965 298.285C285.082 298.402 285.199 298.402 285.312 298.402C285.43 298.402 285.66 298.285 285.773 298.285L291.656 294.828C291.887 294.711 291.887 294.598 291.887 294.598C291.887 294.598 291.887 294.48 291.77 294.367C291.656 294.25 291.539 294.25 291.426 294.25C291.309 294.25 291.078 294.367 290.965 294.367L288.426 295.867L279.086 290.562L282.316 289.523C282.43 289.523 282.547 289.406 282.66 289.406C282.777 289.406 282.777 289.293 282.777 289.176C282.777 289.062 282.777 289.062 282.66 288.945C282.547 288.945 282.43 288.832 282.316 288.832C282.199 288.832 282.082 288.832 281.852 288.945L277.242 290.445ZM267.898 301.285L269.746 302.324C271.359 303.246 272.973 303.707 274.59 303.82C275.855 303.938 277.012 303.707 277.934 303.129C278.395 302.898 278.738 302.555 278.969 302.207C279.199 301.863 279.316 301.516 279.199 301.168C279.199 300.938 279.086 300.707 278.855 300.363C278.625 300.016 278.395 299.672 278.164 299.441C277.816 299.094 277.242 298.75 276.664 298.285L274.82 297.25C273.203 296.328 271.59 295.867 269.977 295.75C268.707 295.633 267.555 295.867 266.633 296.441C266.172 296.672 265.824 297.02 265.594 297.363C265.363 297.711 265.246 298.055 265.363 298.402C265.363 298.633 265.477 298.863 265.707 299.324C265.941 299.672 266.172 300.016 266.402 300.246C266.633 300.477 267.207 300.824 267.898 301.285ZM268.707 300.824C268.016 300.477 267.438 300.016 267.094 299.555C266.746 299.094 266.402 298.75 266.402 298.402C266.402 298.172 266.402 297.941 266.516 297.711C266.633 297.363 266.977 297.133 267.324 296.902C268.129 296.441 269.285 296.328 270.551 296.441C271.82 296.672 273.09 297.02 274.242 297.711L275.855 298.633C276.547 298.98 277.125 299.441 277.473 299.902C277.816 300.363 278.164 300.707 278.164 301.168C278.164 301.398 278.164 301.633 278.047 301.746C277.934 302.094 277.586 302.324 277.242 302.555C276.434 303.016 275.281 303.129 274.012 303.016C272.742 302.785 271.477 302.438 270.32 301.746L268.707 300.824ZM-27.6562 145.613L152.816 41.375C164.117 34.8008 178.184 34.8008 189.484 41.375L237.227 68.9336C244.492 68.5859 251.871 68.4727 259.25 68.8164C266.402 69.1641 273.895 69.8555 280.586 67.4336C286.121 65.4727 290.734 61.668 295.461 58.207C307.801 49.3281 322.676 42.6406 337.668 44.6016C339.395 44.1406 341.125 44.1406 342.508 45.1797C343.203 45.7539 343.777 46.4453 344.238 47.2539C345.852 50.2539 346.547 53.5977 347.121 56.9414C348.852 66.7422 350.582 76.6602 352.312 86.4609C353.926 95.4531 355.539 104.562 354.734 113.672C354.273 118.516 353.117 123.59 349.891 127.281C348.504 128.895 346.891 130.047 345.047 131.199L537.277 242.129C544.195 246.168 544.195 256.199 537.277 260.234L358.191 363.668C343.777 371.973 326.02 371.973 311.488 363.668L-27.6562 167.871C-36.3047 162.91 -36.3047 150.574 -27.6562 145.613ZM95.1562 85.8828C92.3906 84.2695 89.0469 84.2695 86.3945 85.8828L65.4062 97.9922C63.4453 99.1445 63.4453 102.027 65.4062 103.18H65.5195C68.8633 105.141 72.9023 105.141 76.2461 103.18L95.2734 92.2266C97.6953 90.8438 97.6953 87.2656 95.1562 85.8828ZM398.32 306.59C408.355 312.355 424.844 312.355 434.992 306.59C445.023 300.824 445.023 291.254 434.992 285.488C424.961 279.723 408.469 279.723 398.32 285.488C388.176 291.254 388.176 300.824 398.32 306.59ZM5.32422 160.836L302.84 332.648L475.816 232.789L307.105 135.352C299.035 133.852 290.965 131.547 282.891 129.703C280.355 129.125 277.703 128.664 275.164 129.012C250.027 132.93 224.543 128.086 199.285 125.203C190.406 124.168 181.184 123.129 173.34 118.633C165.5 114.137 159.504 105.488 160.887 96.6094C161.926 90.4961 166.309 85.4219 171.609 82.0781C176.914 78.8516 183.027 77.2344 189.023 75.8516C192.715 75.043 196.402 74.2383 200.094 73.5469L183.027 63.6289C173.227 57.9766 161.117 57.9766 151.316 63.6289L5.21094 147.922C0.367188 150.918 0.367188 158.07 5.32422 160.836ZM425.652 338.875V346.719C425.652 348.91 427.957 350.176 429.918 349.141L450.676 337.148C451.137 336.918 451.484 336.57 451.828 336.34L437.992 328.383L428.766 333.688C426.805 334.727 425.652 336.684 425.652 338.875Z" fill="white"/>
<path d="M233.652 263.348L263.52 280.527L275.973 273.379L246.106 256.199L233.652 263.348ZM278.164 259.656L266.402 266.461L258.215 261.734L269.977 254.93L278.164 259.656ZM223.617 269.227L232.496 264.156L241.609 269.461L228.578 276.953L223.734 274.188C221.774 273.035 221.774 270.266 223.617 269.227ZM262.25 281.336L253.602 286.293C250.832 287.91 247.375 287.91 244.606 286.293L239.992 283.641L253.024 276.148L262.25 281.336ZM279.895 260.582L284.734 263.348C286.695 264.5 286.695 267.152 284.734 268.305L277.242 272.574L268.129 267.27L279.895 260.582ZM247.375 255.391L255.445 250.777C257.754 249.512 260.52 249.512 262.824 250.777L268.246 253.891L256.484 260.695L247.375 255.391ZM251.524 275.109L238.496 282.605L230.309 277.875L243.336 270.383L251.524 275.109ZM60.6759 130.508C71.172 124.398 88.3517 124.398 98.8478 130.508C109.34 136.621 109.34 146.539 98.8478 152.535C93.5431 155.531 86.6251 157.031 79.7032 157.031C69.211 164.297 55.836 160.027 50.6446 157.031C45.3399 154.031 46.6095 145.5 52.7188 141.465C52.836 137.543 55.3712 133.508 60.6759 130.508ZM152.817 143.539C278.164 209.035 342.969 213.301 390.711 185.742C400.512 180.094 407.547 149.652 408.008 132.238C408.816 106.871 401.899 78.2734 393.594 73.5469C368.688 59.1328 266.977 0.324219 266.977 0.324219C266.977 0.324219 214.738 30.418 140.246 24.7695C140.246 24.7695 143.129 59.3633 99.422 98.7969C99.422 98.6836 134.594 133.969 152.817 143.539ZM176.453 108.715L203.668 93.0312H312.758V61.4375L339.973 45.7539V108.715L335.938 116.211H181.875L176.453 108.715Z" fill="#22DBDE"/>
<path d="M176.453 119.207H339.973V108.715H176.453V119.207ZM33.6954 146.074C38.9962 143.078 45.918 141.578 52.836 141.578C52.836 145.613 55.4883 149.535 60.6758 152.648C65.9805 155.648 72.9024 157.145 79.8204 157.145C79.8204 161.184 77.168 165.102 71.9766 168.215C61.4844 174.328 44.3008 174.328 33.8087 168.215C23.1993 161.988 23.1993 152.074 33.6954 146.074ZM99.4219 98.6836C99.4219 98.6836 206.898 160.719 224.773 170.984C263.633 193.355 345.969 198.543 393.711 170.984C403.512 165.332 407.547 149.535 408.125 132.125C408.125 132.125 408.125 132.125 408.238 132.125C408.816 132.699 408.238 149.652 408.238 149.652C407.895 167.641 403.856 184.359 393.824 190.125C346.086 217.684 263.633 212.496 224.887 190.125C207.012 179.863 99.5391 117.824 99.5391 117.824L99.4219 98.6836Z" fill="#22DBDE"/>
<path d="M405.488 614.273L406.406 614.266L405.234 427.465C405.211 423.516 406.801 420.148 409.281 417.734C411.762 415.324 415.141 413.891 418.652 413.871C420.902 413.859 423.211 414.418 425.406 415.672L777.32 616.93C781.492 619.312 784.082 623.742 784.113 628.555L785.266 812.504C785.289 816.449 783.699 819.816 781.219 822.23C778.738 824.641 775.363 826.074 771.848 826.098C769.621 826.109 767.34 825.562 765.164 824.336L413.266 625.934C409.055 623.559 406.434 619.105 406.406 614.266L405.488 614.273L404.574 614.277C404.609 619.773 407.582 624.828 412.371 627.527L764.266 825.93C766.719 827.316 769.324 827.941 771.859 827.926C775.863 827.898 779.68 826.277 782.492 823.543C785.309 820.812 787.121 816.945 787.094 812.492L785.941 628.543C785.906 623.078 782.969 618.051 778.226 615.34L426.312 414.082C423.84 412.668 421.203 412.023 418.641 412.043C414.637 412.066 410.824 413.687 408.008 416.422C405.191 419.152 403.375 423.019 403.406 427.477L404.574 614.277L405.488 614.273Z" fill="#22DBDE" fill-opacity="0.749"/>
<path d="M200.187 534.902C200.141 526.48 207.062 519.605 215.355 519.547C216.852 519.535 218.387 519.75 219.926 520.215L404.336 575.777L404.348 577.695L219.398 521.965C218.031 521.555 216.68 521.367 215.367 521.375C211.73 521.398 208.379 522.922 205.941 525.379C203.504 527.832 201.992 531.195 202.016 534.891C202.023 535.902 202.141 536.941 202.395 537.996L223.059 625.113L221.18 625.125L200.613 538.418C200.332 537.23 200.191 536.055 200.187 534.902Z" fill="#1157F5" fill-opacity="0.749"/>
<path d="M406.18 578.246L406.168 576.332L561.039 622.996L554.828 623.035L406.18 578.246Z" fill="#024BD6" fill-opacity="0.749"/>
<path d="M404.348 577.695L404.336 575.777L406.168 576.332L406.18 578.246L404.348 577.695Z" fill="#3B51AB" fill-opacity="0.749"/>
</svg>
