<svg width="1440" height="810" viewBox="0 0 1440 810" fill="none" xmlns="http://www.w3.org/2000/svg">
<g clip-path="url(#clip0)">
<rect width="1440" height="810" fill="white"/>
<rect width="1440" height="810" fill="#22DBDE"/>
<rect x="1427.45" y="-294.916" width="1957.17" height="1020.52" transform="rotate(142.406 1427.45 -294.916)" fill="#1157F5"/>
<path d="M623.874 141.39L473.749 186.897L538.693 278.251C545.212 277.854 551.512 275.517 556.989 271.635L682.092 179.624C684.523 177.878 685.552 175.306 685.264 172.721L682.118 144.413C682.118 144.413 658.388 141.974 651.975 153.658L623.874 141.39ZM165.051 350.893L295.229 407.818C301.637 396.134 325.367 398.572 325.367 398.572L328.513 426.876C328.801 429.466 327.771 432.037 325.341 433.778L200.385 525.612C195.072 529.475 188.931 531.795 182.754 532.32L128.608 473.167L162.618 351.163L165.051 350.893Z" fill="#212F88"/>
<path d="M253.153 157.711L522.295 275.325C527.638 277.676 533.308 278.522 538.84 278.073L531.216 209.489L630.842 136.196L398.592 34.6186C390.83 31.2218 381.759 32.2301 374.933 37.2483L273.019 112.111C269.525 114.625 270.119 119.966 274.08 121.65L276.333 122.709L274.513 124.059C271.615 121.597 269.149 120.074 269.149 120.074L244.264 122.018L247.41 150.323C247.916 153.378 249.88 156.271 253.153 157.711ZM621.863 205.965L622.529 211.952C622.654 213.081 622.297 214.268 621.576 215.165C612.68 217.794 610.559 210.499 610.559 210.499L618.591 204.53C619.958 203.558 621.683 204.348 621.863 205.965ZM335.5 63.246L322.302 72.8997C320.036 74.6268 316.955 74.9693 314.361 73.7824C312.812 73.134 312.561 70.8709 313.929 69.8983L328.64 59.0947C330.625 57.7309 333.052 57.4611 335.284 58.3562C336.872 59.3275 337.159 61.9137 335.5 63.246ZM577.757 185.486C584.725 180.291 597.04 178.922 605.143 182.442C608.258 183.898 610.273 185.804 611.154 187.836C610.758 190.171 609.211 192.473 606.492 194.577C599.524 199.772 587.209 201.141 579.106 197.621C575.993 196.165 573.977 194.26 573.079 192.069C573.491 189.892 575.022 187.431 577.757 185.486ZM-112.322 376.161L-109.176 404.464C-108.834 407.538 -106.853 410.59 -103.416 412.01L165.544 529.485C171.051 531.817 176.904 532.804 182.594 532.338L177.758 488.825C191.693 488.751 202.008 484.166 215.799 476.903C228.349 470.268 220.015 463.173 214.401 455.444C215.101 455.859 216.073 455.751 216.901 455.82C220.828 455.712 224.591 455.621 228.53 455.676C233.775 455.582 239.013 455.492 244.143 454.429C249.416 453.188 253.397 450.616 255.109 445.351C256.803 439.926 258.349 428.783 251.187 426.302C246.593 424.848 241.069 426.771 236.781 428.07C233.108 428.966 229.635 430.172 225.998 431.398C237.254 426.38 256.01 421.018 285.755 415.582C313.879 410.326 269.272 377.956 269.272 377.956L72.8792 293.515C72.8792 293.515 39.2344 271.219 2.64518 290.35C-32.6956 308.85 -85.1857 354.641 -89.0421 374.555L-112.322 376.161ZM220.775 436.071C227.744 430.871 240.059 429.502 248.163 433.027C252.988 435.109 255.183 438.632 254.585 442.137C253.686 439.946 251.671 438.039 248.558 436.583C240.618 433.045 228.304 434.414 221.17 439.627C218.453 441.731 216.906 444.034 216.51 446.369C215.157 443.081 216.526 439.162 220.775 436.071ZM262.004 458.666C263.208 457.717 265.097 458.489 265.276 460.106L265.941 466.089C266.067 467.223 265.71 468.411 264.989 469.306C264.843 469.489 256.995 472.652 254.222 471.323C251.627 470.136 253.973 464.635 253.973 464.635L262.004 458.666Z" fill="#1157F5"/>
<path d="M248.191 113.069L374.074 20.6431C381.958 14.8527 392.492 13.6818 401.456 17.5995L677.324 138.233C682.857 140.73 683.684 148.17 678.817 151.657L553.86 243.491C543.846 250.827 530.561 252.303 519.02 247.364L249.884 129.747C243.311 126.711 242.286 117.491 248.191 113.069ZM334.96 58.3921C332.73 57.497 330.297 57.7674 328.318 59.1305L313.605 69.9343C312.237 70.9069 312.489 73.1699 314.037 73.8184C316.633 75.0051 319.712 74.6628 321.979 72.9357L335.176 63.282C337.16 61.9137 336.872 59.3274 334.96 58.3921ZM579.106 197.621C587.045 201.159 599.36 199.79 606.492 194.577C613.461 189.377 612.67 182.26 604.748 178.886C596.81 175.348 584.494 176.717 577.362 181.93C570.394 187.125 571.167 194.078 579.106 197.621ZM274.08 121.65L510.13 224.934L630.842 136.196L398.592 34.6185C390.83 31.2218 381.759 32.2301 374.933 37.2483L273.019 112.111C269.544 114.788 270.119 119.966 274.08 121.65ZM621.576 215.165L610.541 210.334L604.02 215.152C602.652 216.126 602.008 217.671 602.188 219.288L602.835 225.112C603.015 226.728 604.904 227.501 606.107 226.546L620.678 215.924C620.983 215.724 621.289 215.528 621.576 215.165ZM264.843 469.489L253.809 464.653L247.292 469.47C245.924 470.444 245.275 471.99 245.455 473.607L246.102 479.431C246.281 481.047 248.171 481.819 249.379 480.864L263.945 470.242C264.397 469.865 264.701 469.666 264.843 469.489ZM-108.396 367.205L17.4819 274.779C25.3727 268.994 35.9058 267.823 44.8682 271.735L320.739 392.374C326.265 394.872 327.092 402.312 322.231 405.798L197.274 497.627C187.259 504.963 173.973 506.439 162.433 501.5L-106.544 383.865C-113.436 380.866 -114.461 371.645 -108.396 367.205ZM-21.786 312.551C-24.0216 311.651 -26.45 311.921 -28.4336 313.29L-43.1407 324.093C-44.5077 325.065 -44.256 327.329 -42.7089 327.978C-40.119 329.16 -37.0393 328.818 -34.7723 327.095L-21.5702 317.441C-19.5903 316.073 -19.8778 313.487 -21.786 312.551ZM222.519 451.757C230.459 455.295 242.774 453.926 249.906 448.713C256.874 443.518 256.083 436.401 248.163 433.027C240.222 429.484 227.908 430.853 220.775 436.071C213.648 441.284 214.439 448.401 222.519 451.757ZM-82.6482 375.973L153.544 479.075L274.255 390.337L42.0063 288.76C34.2433 285.362 25.1722 286.371 18.346 291.39L-83.568 366.247C-87.0428 368.929 -86.4678 374.102 -82.6482 375.973Z" fill="white"/>
<path d="M291.998 101.322L486.66 186.444L589.33 111.008L570.875 102.908L587.101 90.9498L568.664 83.0153L584.889 71.0567L390.247 -13.9062L287.575 61.5294L306.026 69.6337L289.805 81.5871L308.256 89.6909L291.998 101.322ZM38.1497 280.674L180.91 343.073L177.764 314.769L222.006 274.482L376.941 210.265L380.213 239.703L311.394 290.581L314.072 314.682L182.804 343.844L232.816 365.795L130.145 441.231L-64.516 356.109L38.1497 280.674Z" fill="#22DBDE"/>
<path d="M338.49 73.8847C350.442 61.9125 349.007 47.501 334.712 38.4462L366.26 15.2887C383.415 19.1115 404.3 16.6288 420.035 9.1451L537.954 60.5553C529.128 71.1975 530.476 83.3273 541.424 91.7728L506.382 117.444C489.228 113.621 468.161 115.962 452.266 123.459L338.49 73.8847ZM466.878 36.524C450.152 29.2146 420.607 34.9556 400.893 49.4271C381.321 63.7215 379.03 81.4928 395.596 88.8248C412.315 96.1349 441.86 90.3937 461.58 75.9222C481.294 61.4503 483.584 43.6744 466.878 36.524ZM420.89 83.2285C421.537 83.1566 422.006 82.9382 422.458 82.5615C422.904 82.1843 423.033 81.8424 423.156 81.5011C423.12 81.1787 422.761 80.891 422.061 80.4799L416.028 77.8729L423.394 71.8134L432.522 75.7132C433.046 75.9814 433.528 75.9278 433.852 75.8918C434.34 75.8375 434.645 75.6423 434.95 75.4433C435.256 75.243 435.384 74.9011 435.366 74.7418C435.33 74.4182 435.148 74.2734 434.629 74.0035L425.502 70.1086L431.065 65.5582L440.194 69.4572C440.712 69.7272 441.2 69.6729 441.524 69.637C441.846 69.6011 442.316 69.3826 442.622 69.1872C442.927 68.9871 443.055 68.6464 443.037 68.4871C443.001 68.1635 442.819 68.0174 442.301 67.7486L434.033 64.2464L463.457 54.4257L465.005 55.0741C465.688 55.3254 466.352 55.4128 466.839 55.3587C467.328 55.3044 467.956 55.0733 468.409 54.6958C468.856 54.3189 468.983 53.9775 469.106 53.6364C469.071 53.3131 468.712 53.0257 468.01 52.6104L460.413 49.1954C459.729 48.9441 459.065 48.8567 458.577 48.911C458.09 48.9651 457.461 49.1963 457.01 49.5737C456.562 49.9508 456.434 50.2923 456.306 50.6387C456.342 50.9619 456.706 51.2486 457.408 51.6592L460.161 52.8282L433.116 61.8915L439.312 43.8476L442.071 45.016C442.754 45.2674 443.418 45.3548 443.906 45.3006C444.389 45.2468 445.023 45.0152 445.47 44.6383C445.921 44.2609 446.049 43.9144 446.172 43.5734C446.136 43.2502 445.777 42.9629 445.077 42.5522L437.314 39.1557C436.631 38.9043 435.966 38.817 435.479 38.8711C434.991 38.9254 434.362 39.1565 433.915 39.5334C433.464 39.9108 433.336 40.2523 433.212 40.5934C433.248 40.9167 433.608 41.204 434.308 41.6194L436.039 42.4089L429.372 62.1464L421.274 58.6259C420.75 58.3569 420.426 58.3929 419.939 58.447C419.451 58.5012 419.146 58.6963 418.841 58.8964C418.535 59.0916 418.406 59.4332 418.425 59.5972C418.46 59.9205 418.642 60.0614 419.167 60.3304L428.294 64.2299L422.729 68.7757L413.602 64.8811C413.078 64.6121 412.755 64.6479 412.267 64.7022C411.945 64.7381 411.474 64.9515 411.169 65.1516C410.864 65.3468 410.74 65.6877 410.759 65.8518C410.794 66.175 410.972 66.3165 411.494 66.5857L420.622 70.4847L413.257 76.5453L407.225 73.9384C406.541 73.6867 405.877 73.5992 405.389 73.6535C404.902 73.7076 404.272 73.9389 403.826 74.3161C403.374 74.6928 403.245 75.0347 403.282 75.3632C403.318 75.6856 403.678 75.9733 404.382 76.3839L419.214 82.9221C419.755 83.3546 420.261 83.4597 420.89 83.2285ZM310.8 285.245L288.567 275.597L376.941 210.265L307.45 179.84L218.734 245.044L197.188 235.647L177.764 314.769L310.8 285.245ZM50.8846 370.133C50.9206 370.457 51.2802 370.743 51.9808 371.159L66.8163 377.697C67.4999 377.949 68.1693 378.039 68.6525 377.986C69.3038 377.913 69.7689 377.696 70.2199 377.319C70.672 376.941 70.7955 376.599 70.924 376.259C70.888 375.935 70.5283 375.647 69.8217 375.233L63.796 372.631L71.1558 366.571L80.2845 370.47C80.8074 370.74 81.2956 370.685 81.6181 370.65C82.1013 370.596 82.4118 370.395 82.7167 370.2C83.0222 370 83.1456 369.658 83.1279 369.499C83.0921 369.177 82.9144 369.03 82.3915 368.76L73.2628 364.861L78.828 360.316L87.9549 364.211C88.4795 364.484 88.9615 364.43 89.2902 364.394C89.614 364.358 90.0777 364.14 90.3883 363.94C90.6944 363.745 90.8179 363.403 90.7996 363.239C90.7636 362.916 90.5866 362.775 90.0625 362.506L81.8 359.004L111.219 349.182L112.767 349.827C113.449 350.078 114.119 350.169 114.602 350.116C115.089 350.062 115.718 349.825 116.169 349.449C116.622 349.071 116.745 348.73 116.874 348.389C116.838 348.065 116.478 347.778 115.773 347.368L108.174 343.953C107.492 343.702 106.827 343.615 106.34 343.669C105.857 343.722 105.223 343.954 104.776 344.33C104.325 344.708 104.197 345.05 104.073 345.39C104.109 345.714 104.469 346.001 105.169 346.416L107.924 347.586L80.8838 356.648L87.078 338.605L89.8323 339.769C90.5144 340.02 91.1803 340.112 91.6672 340.058C92.1554 340.003 92.7835 339.767 93.2358 339.391C93.683 339.013 93.8102 338.672 93.9387 338.331C93.9027 338.007 93.5393 337.72 92.8376 337.305L85.0814 333.912C84.393 333.662 83.7284 333.57 83.2452 333.624C82.7582 333.678 82.1289 333.914 81.6778 334.29C81.2256 334.668 81.1022 335.01 80.9737 335.35C81.0096 335.674 81.3694 335.962 82.0711 336.376L83.8004 337.167L77.1383 356.898L69.0351 353.379C68.511 353.109 68.1885 353.145 67.7003 353.199C67.2183 353.253 66.9128 353.453 66.6067 353.649C66.2975 353.849 66.1739 354.189 66.1916 354.349C66.2276 354.672 66.4053 354.819 66.9281 355.088L76.0555 358.987L70.4916 363.533L61.3629 359.634C60.84 359.364 60.5163 359.4 60.0343 359.454C59.7105 359.49 59.2406 359.708 58.9357 359.903C58.6302 360.104 58.5018 360.445 58.5201 360.61C58.5559 360.932 58.738 361.073 59.2572 361.343L68.3846 365.243L61.0235 371.302L54.9911 368.695C54.3038 368.444 53.6385 368.356 53.1565 368.41C52.6684 368.464 52.0397 368.695 51.5876 369.073C51.1366 369.451 50.8486 369.809 50.8846 370.133ZM-17.3801 333.021L14.1687 309.863C31.3223 313.686 52.2077 311.204 67.9436 303.725L185.698 355.148C176.877 365.791 178.225 377.921 189.168 386.366L154.132 412.037C136.973 408.215 115.91 410.556 100.01 418.053L-13.625 368.301C-1.64886 356.487 -3.24867 342.095 -17.3801 333.021ZM43.4856 383.235C60.2066 390.55 89.7516 384.809 109.47 370.337C129.043 356.043 131.329 338.268 114.768 330.94C98.0423 323.631 68.4973 329.372 48.7831 343.843C29.2283 358.296 26.9196 375.908 43.4856 383.235ZM508.611 137.501L543.635 111.667C541.296 109.796 539.259 107.732 537.873 105.595L496.931 135.688C500.907 136.067 504.905 136.605 508.611 137.501ZM346.009 86.965C344.785 89.2307 342.914 91.5682 340.861 93.761L454.495 143.516C457.914 141.828 461.698 140.425 465.676 139.329L346.009 86.965ZM540.102 125.649L499.16 155.746C503.118 155.961 507.116 156.498 510.823 157.395L545.846 131.56C543.526 129.855 541.653 127.772 540.102 125.649ZM342.912 113.672L456.542 163.429C459.961 161.74 463.745 160.337 467.723 159.24L348.239 107.022C346.855 109.307 345.144 111.627 342.912 113.672Z" fill="#EAE5FF"/>
</g>
<defs>
<clipPath id="clip0">
<rect width="1440" height="810" fill="white"/>
</clipPath>
</defs>
</svg>
