<svg width="1440" height="810" viewBox="0 0 1440 810" fill="none" xmlns="http://www.w3.org/2000/svg">
<g clip-path="url(#clip0)">
<rect width="1440" height="810" fill="white"/>
<rect width="1440" height="805" fill="#1157F5"/>
<path d="M695.451 814.45L698.902 814.45L698.902 108.947C698.913 94.0207 704.984 81.3379 714.42 72.2785C723.845 63.2408 736.635 57.913 749.912 57.913C758.398 57.913 767.1 60.0808 775.371 64.8693L2099.72 833.269C2115.42 842.383 2125.1 859.175 2125.1 877.347L2125.1 1572.08C2125.09 1586.98 2119.01 1599.66 2109.58 1608.72C2100.15 1617.77 2087.38 1623.1 2074.1 1623.1C2065.69 1623.09 2057.08 1620.97 2048.9 1616.29L724.546 858.667C708.683 849.597 698.902 832.719 698.902 814.45L692 814.45C692 835.199 703.106 854.365 721.117 864.674L2045.47 1622.29C2054.7 1627.58 2064.53 1630.01 2074.1 1630C2089.22 1630 2103.67 1623.96 2114.37 1613.71C2125.07 1603.46 2132.01 1588.9 2132 1572.08L2132 877.347C2132 856.715 2121.02 837.637 2103.18 827.294L778.833 58.8945C769.516 53.4913 759.583 50.9999 749.912 50.9999C734.78 51.0107 720.342 57.0395 709.644 67.2959C698.935 77.5416 691.989 92.1011 692 108.947L692 814.45L695.451 814.45Z" fill="#22DBDE" fill-opacity="0.749"/>
<path d="M165.662 1009.17L168.549 1008.78L90.6663 418.481C89.0277 405.991 92.7071 394.708 99.6024 386.087C106.491 377.484 116.605 371.614 127.713 370.149C134.814 369.212 142.334 370.065 149.784 373.159L1342.72 869.887C1356.86 875.78 1366.81 888.762 1368.82 903.967L1445.51 1485.26C1447.15 1497.73 1443.46 1509.01 1436.57 1517.63C1429.68 1526.24 1419.58 1532.11 1408.47 1533.58C1401.43 1534.5 1394 1533.68 1386.63 1530.67L194.888 1042.95C180.614 1037.11 170.566 1024.07 168.549 1008.78L162.774 1009.55C165.065 1026.91 176.474 1041.72 192.682 1048.36L1384.43 1536.06C1392.73 1539.46 1401.23 1540.42 1409.23 1539.35C1421.88 1537.68 1433.31 1531.03 1441.13 1521.27C1448.95 1511.52 1453.15 1498.57 1451.29 1484.49L1374.59 903.205C1372.31 885.942 1361.02 871.191 1344.96 864.506L152.021 367.777C143.628 364.285 135.042 363.297 126.95 364.365C114.291 366.044 102.875 372.682 95.0562 382.445C87.227 392.2 83.0225 405.149 84.8914 419.243L162.774 1009.55L165.662 1009.17Z" fill="#22DBDE" fill-opacity="0.749"/>
</g>
<defs>
<clipPath id="clip0">
<rect width="1440" height="810" fill="white"/>
</clipPath>
</defs>
</svg>
