<svg width="1440" height="810" viewBox="0 0 1440 810" fill="none" xmlns="http://www.w3.org/2000/svg">
<g clip-path="url(#clip0)">
<rect width="1440" height="810" fill="white"/>
<rect x="-68.7359" y="-132.423" width="1957.17" height="1020.52" transform="rotate(30 -68.7359 -132.423)" fill="#1157F5"/>
<g clip-path="url(#clip1)">
<path d="M612.277 1047.81L614.553 1047.81L614.553 582.24C614.561 572.39 618.566 564.02 624.791 558.042C631.009 552.078 639.447 548.562 648.206 548.562C653.804 548.562 659.545 549.993 665.002 553.152L1538.71 1060.23C1549.06 1066.24 1555.45 1077.32 1555.45 1089.32L1555.45 1547.78C1555.44 1557.61 1551.43 1565.98 1545.21 1571.96C1538.99 1577.93 1530.56 1581.45 1521.8 1581.45C1516.25 1581.44 1510.58 1580.04 1505.18 1576.96L631.472 1076.99C621.006 1071 614.553 1059.87 614.553 1047.81L610 1047.81C610 1061.5 617.327 1074.15 629.209 1080.95L1502.91 1580.91C1509 1584.4 1515.49 1586.01 1521.8 1586C1531.78 1586 1541.31 1582.02 1548.37 1575.25C1555.43 1568.49 1560.01 1558.88 1560 1547.78L1560 1089.32C1560 1075.7 1552.76 1063.11 1540.99 1056.29L667.286 549.21C661.139 545.644 654.586 544 648.206 544C638.223 544.007 628.698 547.986 621.64 554.754C614.575 561.515 609.993 571.123 610 582.24L610 1047.81L612.277 1047.81Z" fill="#22DBDE" fill-opacity="0.749"/>
<path d="M298.169 1105.1L300.253 1104.54L186.002 678.149C183.591 669.126 185.203 660.478 189.433 653.476C193.66 646.489 200.52 641.2 208.536 639.052C213.66 637.679 219.265 637.582 225.034 639.138L1149.09 889.286C1160.04 892.253 1168.6 900.837 1171.55 911.82L1284.05 1331.7C1286.46 1340.71 1284.84 1349.36 1280.62 1356.36C1276.39 1363.35 1269.54 1368.64 1261.52 1370.79C1256.44 1372.14 1250.9 1372.26 1245.21 1370.75L322.897 1127.11C311.851 1124.2 303.212 1115.58 300.253 1104.54L296.086 1105.66C299.446 1118.2 309.256 1127.98 321.8 1131.3L1244.11 1374.93C1250.53 1376.63 1256.87 1376.51 1262.64 1374.96C1271.77 1372.51 1279.52 1366.52 1284.32 1358.6C1289.12 1350.67 1290.95 1340.75 1288.22 1330.58L1175.71 910.704C1172.37 898.234 1162.65 888.48 1150.21 885.115L226.157 634.967C219.656 633.208 213.256 633.31 207.417 634.874C198.282 637.329 190.541 643.308 185.743 651.238C180.936 659.163 179.1 669.086 181.835 679.265L296.086 1105.66L298.169 1105.1Z" fill="#22DBDE" fill-opacity="0.749"/>
</g>
<path d="M921.362 589.926L1047.56 662.989C1052.36 665.681 1076.96 664.865 1081.77 662.169L1127.34 623.646C1130.5 621.891 1130.5 617.324 1127.34 615.567L994.126 538.757C989.196 535.946 983.227 535.946 978.309 538.757L920.073 572.363C918.315 573.417 917.498 575.174 917.498 576.93C917.498 578.687 919.605 588.871 921.362 589.926ZM864.887 118.287C865.007 118.287 865.007 118.168 865.121 118.168L865.241 118.053C868.522 116.297 872.739 116.063 876.489 118.168L1077.9 233.739V185.028C1077.9 182.919 1078.6 181.396 1079.89 180.695C1081.07 179.993 1089.26 177.416 1091.03 178.47L1367.19 336.893C1370.93 339.002 1375.62 347.43 1375.62 351.764L1376.43 537.12C1376.43 539.224 1371.28 546.368 1369.99 547.07C1368.83 547.771 1367.06 547.657 1365.19 546.602L1280.83 498.011L1281.3 671.303C1281.3 676.924 1278.25 681.606 1273.92 684.069L1246.85 699.755L1218.85 661L883.166 468.384C868.756 460.071 859.848 444.852 859.848 428.225L859.146 162.665L838.173 133.625L864.887 118.287Z" fill="#EAE5FF"/>
<path d="M1357.45 478.926L1264.08 425.767V444.031L1357.45 497.19V478.926ZM1357.45 524.588L1288.79 485.483V467.215L1357.45 506.324V524.588ZM818.372 314.296L832.9 305.863V143.342C832.9 134.447 842.51 128.94 850.243 133.391L1077.9 264.65V228.585L1371.99 395.907V354.574C1371.99 350.361 1368.94 345.091 1365.31 342.982L1084.69 181.162C1082.93 180.108 1081.29 179.993 1080.13 180.581L1088.21 175.894C1089.37 175.074 1091.14 175.192 1093.13 176.247L1373.62 338.181C1377.26 340.29 1380.3 345.56 1380.3 349.773V537.821C1380.3 539.93 1379.49 541.449 1378.31 542.155L1369.99 546.956C1371.17 546.25 1371.99 544.727 1371.99 542.622V438.762L1078.01 271.44V373.076C1078.01 377.29 1081.07 382.558 1084.69 384.668L1253.76 482.204V687.347C1253.76 698.701 1241.47 705.73 1231.62 700.109L1128.28 640.507C1128.05 640.741 1127.69 640.979 1127.34 641.213L1067.7 675.283C1062.9 677.979 1057.04 677.979 1052.36 675.283L920.192 598.94C918.434 597.891 917.613 596.014 917.613 594.493V576.93C917.613 578.687 918.549 580.442 920.192 581.497L1052.36 657.84C1057.15 660.532 1062.9 660.646 1067.7 657.84L1113.16 631.726L856.218 483.488C841.808 475.176 833.02 459.837 833.02 443.21V341.579L818.372 314.296ZM1079.65 180.814C1079.78 180.814 1079.65 180.814 1079.65 180.814V180.814Z" fill="#024BD6"/>
<path d="M938.938 465.458L1236.19 636.995V472.135L1084.58 384.668C1080.83 382.558 1077.9 377.29 1077.9 373.076V290.176L856.92 162.546C852.817 160.203 847.783 163.132 847.783 167.815V306.803C870.16 312.539 889.963 303.057 889.963 303.057C902.849 337.012 942.335 363.474 942.335 363.474C942.335 363.474 942.335 435.837 942.335 454.101C942.335 458.667 941.045 462.299 938.938 465.458Z" fill="#1157F5"/>
<path d="M956.396 423.305C956.396 442.394 970.691 465.812 988.258 475.294L1076.49 526.229C1095.47 535.831 1111.06 527.986 1111.06 508.901C1111.06 489.812 1095.47 466.394 1076.49 456.792L988.258 405.862C970.691 396.375 956.396 404.22 956.396 423.305ZM995.991 365.231C995.29 365.231 994.702 364.644 994.702 363.942V332.794C994.702 321.32 998.806 312.539 1006.19 308.092C1014.05 303.405 1024.58 304.226 1035.72 310.197C1057.74 322.141 1075.56 351.414 1075.56 375.415V408.201C1075.56 408.902 1074.97 409.489 1074.27 409.489C1073.56 409.489 1072.97 408.902 1072.97 408.201V375.415C1072.97 352.35 1055.75 324.132 1034.43 312.539C1024.12 306.917 1014.51 306.097 1007.48 310.315C1000.8 314.296 997.167 322.256 997.167 332.678V363.822C997.291 364.644 996.703 365.231 995.991 365.231ZM1065.71 329.514C1057.74 317.928 1047.56 307.854 1036.31 301.768C1023.99 295.092 1012.63 294.157 1004.09 299.192C996.228 303.873 991.774 313.361 991.774 325.887V332.56C991.774 333.266 991.197 333.848 990.485 333.848C989.784 333.848 989.196 333.266 989.196 332.56V325.887C989.196 312.421 994.001 302.116 1002.8 296.967C1012.04 291.465 1024.36 292.4 1037.47 299.54C1048.96 305.863 1059.51 316.051 1067.7 328.111C1068.05 328.579 1067.94 329.281 1067.59 329.634C1067.11 330.22 1066.18 330.102 1065.71 329.514ZM1015.56 329.868C1020.72 326.824 1027.4 327.291 1034.66 331.275C1043.34 336.072 1051.07 345.091 1055.64 354.927C1055.88 355.509 1055.64 356.215 1055.05 356.564C1054.35 356.917 1053.64 356.683 1053.29 355.977C1048.96 346.614 1041.69 338.067 1033.38 333.614C1027.05 330.22 1021.19 329.634 1016.85 332.211C1015.92 332.794 1014.97 333.5 1014.16 334.435C1013.68 335.021 1012.87 335.021 1012.28 334.554C1011.82 334.081 1011.69 333.266 1012.17 332.794C1013.22 331.509 1014.4 330.569 1015.56 329.868ZM1021.54 387.241C1021.89 387.713 1022.01 388.296 1021.65 388.763C1021.19 389.469 1020.14 389.584 1019.66 388.997C1012.76 381.504 1008.07 371.201 1008.07 362.301V345.793C1008.07 342.748 1008.53 339.937 1009.35 337.595C1009.7 336.778 1010.76 336.544 1011.46 337.127C1011.82 337.479 1011.93 338.067 1011.82 338.534C1011.12 340.639 1010.64 343.102 1010.64 345.793V362.301C1010.76 370.614 1015.21 380.216 1021.54 387.241ZM1015.33 364.528V350.241C1015.33 345.091 1017.2 341.226 1020.6 339.116C1022.37 338.067 1024.47 337.595 1026.81 337.713C1027.51 337.713 1027.99 338.301 1027.99 339.002V339.116C1027.99 339.822 1027.28 340.405 1026.58 340.405C1024.82 340.29 1023.29 340.639 1021.89 341.345C1019.31 342.868 1017.91 346.027 1017.91 350.241V364.528C1017.91 371.201 1023.18 379.748 1029.27 383.146C1031.97 384.549 1034.43 384.902 1036.31 384.081C1036.31 384.081 1036.42 384.081 1036.53 383.962C1037.12 383.613 1037.95 383.729 1038.3 384.315C1038.65 384.902 1038.53 385.718 1037.82 386.072C1037.6 386.19 1037.36 386.305 1037.36 386.305C1034.78 387.475 1031.5 387.125 1027.99 385.25C1021.07 381.623 1015.33 372.255 1015.33 364.528ZM1002.44 368.509C1001.97 366.051 1001.73 363.588 1001.73 361.132V338.768C1001.73 329.634 1005.02 322.609 1010.99 318.977C1017.32 315.231 1025.76 315.818 1034.66 320.734C1052.12 330.22 1066.3 353.519 1066.3 372.609V381.389C1066.3 382.091 1065.6 382.678 1064.89 382.678C1064.19 382.558 1063.72 382.091 1063.72 381.389V372.609C1063.72 354.459 1050.13 332.211 1033.38 323.077C1025.28 318.629 1017.79 318.042 1012.28 321.32C1007.13 324.366 1004.31 330.569 1004.31 338.882V361.25C1004.31 363.474 1004.55 365.813 1005.02 368.156C1005.14 368.743 1004.9 369.211 1004.44 369.564C1003.61 369.798 1002.67 369.444 1002.44 368.509ZM1051.65 409.255C1045.9 412.653 1038.3 412.067 1030.33 407.733C1018.38 401.176 1008.07 387.475 1003.85 373.778C1003.61 373.19 1003.96 372.609 1004.44 372.255C1005.14 371.903 1006.08 372.255 1006.31 373.076C1010.29 386.19 1020.14 399.185 1031.5 405.509C1038.76 409.489 1045.44 409.956 1050.25 407.031C1054.81 404.34 1057.39 398.718 1057.39 391.459V372.604C1057.39 368.743 1056.58 364.644 1055.29 360.664C1055.05 360.076 1055.29 359.375 1055.88 359.141C1056.58 358.788 1057.39 359.141 1057.63 359.843C1059.14 364.176 1059.97 368.509 1059.97 372.723V391.574C1059.97 399.773 1057.04 406.095 1051.65 409.255ZM1032.55 342.28C1032.09 342.046 1031.61 341.813 1031.26 341.579C1030.8 341.345 1030.56 340.873 1030.56 340.405C1030.56 339.47 1031.5 338.882 1032.44 339.236C1032.9 339.47 1033.49 339.704 1033.96 339.937C1043.1 344.972 1050.71 356.917 1051.18 367.102C1051.18 367.688 1050.83 368.156 1050.36 368.275L1048.61 368.977V368.156C1048.48 358.788 1041.34 347.081 1032.55 342.28ZM1051.07 384.315C1051.07 390.405 1048.84 395.206 1044.85 397.549C1040.64 400.121 1035.02 399.653 1029.04 396.493C1027.17 395.44 1025.41 394.27 1023.66 392.863C1023.18 392.514 1023.07 391.808 1023.42 391.225C1023.77 390.519 1024.71 390.405 1025.28 390.872C1026.81 392.16 1028.57 393.331 1030.21 394.27C1035.24 396.961 1040.05 397.429 1043.45 395.44C1046.62 393.564 1048.37 389.584 1048.37 384.435V372.957C1048.37 372.489 1048.72 372.021 1049.19 371.787C1050.01 371.435 1050.95 372.021 1050.95 372.957V384.315H1051.07ZM1065.12 385.25C1065.83 385.37 1066.3 385.838 1066.3 386.539V399.773C1066.3 408.669 1063.25 415.459 1057.74 419.091C1057.15 419.444 1056.22 419.324 1055.88 418.623C1055.51 418.037 1055.75 417.335 1056.22 416.982C1061.02 413.822 1063.72 407.733 1063.72 399.773V386.539C1063.72 385.718 1064.42 385.136 1065.12 385.25ZM1040.75 364.528C1041.46 364.528 1042.05 365.111 1042.05 365.813V377.757C1042.05 378.813 1041.93 379.868 1041.69 380.803C1041.46 381.857 1039.94 382.091 1039.35 381.155C1039.12 380.803 1039.12 380.449 1039.23 380.216C1039.35 379.514 1039.46 378.694 1039.46 377.757V365.932C1039.46 365.111 1040.05 364.528 1040.75 364.528ZM1083.29 387.359C1082.58 387.359 1082 386.773 1082 386.072V382.558C1082.82 383.38 1083.63 384.196 1084.58 384.669V386.072C1084.58 386.773 1083.99 387.359 1083.29 387.359ZM1068.75 332.326C1069.34 331.743 1070.39 331.743 1070.75 332.56C1073.45 337.012 1075.9 341.694 1077.9 346.495V353.639C1075.56 346.847 1072.39 340.171 1068.53 333.848C1068.29 333.38 1068.29 332.794 1068.75 332.326ZM824.465 350.942C825.053 345.793 825.989 339.822 830.326 336.893C834.075 334.435 839.229 335.021 843.093 337.361C846.962 339.704 849.775 343.216 852.583 346.847C862.308 359.375 872.386 371.554 880.587 385.136C884.804 392.042 887.617 399.305 896.052 400.121C904.258 400.942 909.292 403.4 911.991 412.067C916.911 427.757 909.292 444.967 898.164 457.026C892.537 463.116 885.277 468.618 876.957 468.856C868.756 469.09 861.257 464.056 856.099 457.613C851.064 451.175 848.017 443.444 844.616 435.951C835.947 416.514 824.933 397.429 823.295 376.236C822.707 367.922 823.529 359.375 824.465 350.942Z" fill="#22DBDE"/>
<path d="M1096.29 513.702L1095.01 493.796L1087.39 489.344C1086.1 488.523 1085.04 488.056 1084.34 487.707C1083.41 487.239 1082.58 487.12 1081.88 487.239C1081.29 487.354 1080.7 487.588 1080.36 488.175C1080 488.762 1079.89 489.578 1079.89 490.518C1080 492.155 1080.59 493.912 1081.77 495.787C1082.93 497.543 1084.92 499.299 1087.74 500.936L1092.89 503.981L1093.37 512.06L1096.29 513.702ZM1093.02 501.757L1087.86 498.713C1086.1 497.657 1084.92 496.722 1084.11 495.667C1083.29 494.613 1082.93 493.563 1082.82 492.389C1082.82 491.568 1082.93 490.986 1083.29 490.632C1083.63 490.284 1084.22 490.165 1084.92 490.398C1085.4 490.518 1086.22 490.986 1087.39 491.687L1092.54 494.613L1093.02 501.757ZM1081.88 505.389L1072.86 481.03L1069.93 479.394L1062.9 494.498L1065.95 496.254L1067.94 491.568L1076.37 496.488L1078.95 503.747L1081.88 505.389ZM1075.56 493.796L1068.75 489.812L1070.52 485.483C1071.11 484.195 1071.46 483.021 1071.68 482.204C1072.04 483.608 1072.51 485.13 1072.97 486.653L1075.56 493.796ZM1057.28 491.1L1056.69 482.672L1063.72 475.648L1060.43 473.773L1056.8 477.518C1056.1 478.22 1055.51 478.926 1054.93 479.743C1054.23 478.34 1053.41 476.697 1052.47 474.942L1048.26 466.861L1045.09 465.106L1053.88 481.264L1054.46 489.697L1057.28 491.1ZM1036.89 479.394L1035.61 459.488L1032.9 457.847L1023.29 467.334L1022.37 451.643L1019.78 450.12L1021.07 470.026L1023.77 471.662L1033.38 462.18L1034.32 477.871L1036.89 479.394ZM1016.74 458.315C1016.5 455.037 1015.45 451.877 1013.57 448.951C1011.69 446.021 1009.24 443.797 1006.43 442.155C1004.55 441.106 1002.91 440.519 1001.51 440.519C1000.09 440.519 999.043 441.106 998.342 442.155C997.642 443.329 997.404 444.852 997.517 446.842C997.642 448.831 998.218 450.942 999.043 452.931C999.869 454.921 1001.27 456.912 1002.8 458.549C1004.31 460.19 1005.95 461.593 1007.71 462.648C1009.59 463.702 1011.23 464.289 1012.76 464.289C1014.16 464.289 1015.21 463.702 1015.92 462.533C1016.5 461.479 1016.85 460.071 1016.74 458.315ZM1013.92 456.792C1014.05 459.136 1013.57 460.658 1012.28 461.359C1011.12 461.946 1009.47 461.713 1007.48 460.543C1005.49 459.37 1003.72 457.732 1002.44 455.623C1001.03 453.514 1000.33 451.175 1000.09 448.598C999.982 446.956 1000.22 445.673 1000.68 444.852C1001.16 443.916 1001.86 443.444 1002.91 443.444C1003.96 443.444 1005.14 443.797 1006.43 444.498C1008.3 445.553 1009.94 447.19 1011.46 449.185C1012.98 451.29 1013.81 453.748 1013.92 456.792ZM991.073 452.812L995.177 435.951L992.486 434.315L990.259 445.553C990.022 446.722 989.784 447.896 989.671 449.185C988.97 446.722 988.62 445.319 988.495 444.967L983.815 429.28L980.649 427.405L978.422 435.837C977.834 437.942 977.484 439.932 977.246 441.922C976.896 440.519 976.432 438.882 975.957 437.006L971.977 422.37L969.283 420.847L976.082 443.916L978.66 445.439L981.938 432.673C982.176 431.618 982.413 430.917 982.413 430.683C982.639 431.738 982.876 432.558 983.114 433.375L988.382 451.056L991.073 452.812ZM1128.98 352.699L1143.98 361.365C1146.21 362.653 1147.96 365.699 1147.96 368.156V376.937L1128.98 365.932V352.699ZM1126.99 367.22V394.032L1110 384.201V341.694L1126.99 351.53V367.22ZM1089.02 345.326L1108.01 356.331V367.454L1089.02 356.449V345.326ZM1108.01 383.027L1093.02 374.365C1090.79 373.076 1089.02 370.032 1089.02 367.569V358.788L1108.01 369.798V383.027ZM1147.96 390.405L1128.98 379.4V368.389L1147.96 379.4V390.405ZM1147.96 392.748V401.528C1147.96 403.986 1146.21 405.041 1143.98 403.752L1128.98 395.086V381.738L1147.96 392.748ZM1089.02 343.101V334.315C1089.02 331.858 1090.79 330.803 1093.02 332.092L1108.01 340.759V354.106L1089.02 343.101ZM870.748 314.296C883.634 348.25 923.12 374.713 923.12 374.713C923.12 374.713 923.12 447.076 923.12 465.34C923.12 492.976 870.748 495.553 870.748 495.553C833.254 473.891 818.372 416.046 818.372 404.922C818.372 393.798 818.372 314.296 818.372 314.296C844.616 326.824 870.748 314.296 870.748 314.296ZM833.254 374.833L879.651 455.623L902.849 442.155V415.225L879.651 428.692L833.134 348.136L833.254 374.833Z" fill="#22DBDE"/>
<path d="M724.323 328.593C724.416 328.548 724.508 328.5 724.606 328.407L724.742 328.315C731.521 324.33 735.7 315.845 735.7 303.886C735.7 279.639 718.52 249.924 697.49 237.825C685.977 231.197 675.577 231.148 668.569 236.528L646.187 249.227L637.738 270.461C642.429 308.845 661.042 324.56 671.12 334.991L699.534 342.916L724.323 328.593ZM568.098 267.169L538.059 259.893C527.938 249.461 508.206 232.68 505.839 193.694L514.707 173.528L537.132 160.78C544.141 155.446 554.541 155.446 566.054 162.078C587.084 174.178 604.264 203.936 604.264 228.135C604.264 240.097 600.085 248.579 593.306 252.611L593.17 252.704C593.077 252.753 592.984 252.797 592.891 252.889L568.098 267.169Z" fill="#22DBDE"/>
<path d="M721.956 262.16L691.409 279.78L700.228 284.877L726.417 269.764C725.02 267.169 723.537 264.667 721.956 262.16ZM716.851 255.118L690.247 270.461L681.194 267.032L711.834 249.368C713.601 251.178 715.269 253.075 716.851 255.118ZM732.404 284.183L706.684 299.014L697.632 295.542L729.755 276.996C730.779 279.41 731.658 281.771 732.404 284.183ZM705.894 243.76L678.686 259.473L669.54 257.294L700.277 239.586C702.18 240.79 704.035 242.229 705.894 243.76ZM701.902 309.632L734.215 290.997C734.723 293.269 735.094 295.586 735.328 297.81L711.048 311.811L701.902 309.632ZM694.659 236.294L665.362 253.167L658.91 250.993L688.578 233.884C690.574 234.489 692.57 235.275 694.659 236.294ZM702.736 323.262L735.7 304.257C735.7 306.433 735.513 308.519 735.235 310.421L709.188 325.442L702.736 323.262ZM682.819 232.773L654.405 249.134H647.719L675.157 233.329C677.525 232.68 680.081 232.495 682.819 232.773ZM700.043 334.109L734.445 314.22C733.981 315.937 733.425 317.561 732.727 319.044L706.684 334.064H700.043V334.109ZM724.742 328.363L724.606 328.456C724.508 328.5 724.416 328.549 724.323 328.641L704.084 340.322H698.837L731.521 321.453C729.755 324.423 727.436 326.739 724.742 328.363ZM594.932 194.065L568.748 209.174L559.924 204.077L590.475 186.463C592.101 188.915 593.584 191.466 594.932 194.065ZM585.415 179.415L558.812 194.757L549.758 191.329L580.402 173.665C582.165 175.426 583.838 177.377 585.415 179.415ZM600.969 208.433L575.249 223.268L566.195 219.839L598.324 201.297C599.343 203.658 600.226 206.072 600.969 208.433ZM574.458 168.009L547.206 183.727L538.059 181.546L568.792 163.838C570.744 165.092 572.599 166.482 574.458 168.009ZM570.466 233.928L602.779 215.294C603.287 217.567 603.663 219.884 603.893 222.111L579.612 236.109L570.466 233.928ZM563.223 160.595L533.926 177.47L527.474 175.289L557.142 158.181C559.09 158.787 561.134 159.572 563.223 160.595ZM571.3 247.515L604.264 228.505C604.264 230.685 604.078 232.773 603.8 234.674L577.753 249.69L571.3 247.515ZM543.721 157.581C546.093 156.977 548.645 156.792 551.339 157.026L522.925 173.387H516.239L543.721 157.581ZM568.607 258.361L603.009 238.523C602.545 240.234 601.989 241.858 601.291 243.341L575.249 258.361H568.607ZM593.306 252.66L593.169 252.753C593.077 252.797 592.984 252.845 592.891 252.938L572.648 264.618H567.401L600.085 245.799C598.324 248.671 596 251.037 593.306 252.66Z" fill="#22DBDE"/>
<path d="M673.209 251.826C694.24 263.926 711.419 293.685 711.419 317.883C711.419 342.082 694.24 352.002 673.209 339.902C652.175 327.803 635 298.044 635 273.845C635 249.598 652.175 239.678 673.209 251.826ZM682.912 304.857C682.912 304.627 682.819 304.394 682.678 304.164C682.541 303.931 682.307 303.745 681.985 303.56L675.904 300.039V299.526L672.883 297.766V301.75L678.964 305.276C679.291 305.461 679.525 305.646 679.661 305.877C679.803 306.111 679.896 306.34 679.896 306.574C679.896 306.759 679.847 306.852 679.754 306.944L682.678 305.276L682.726 305.227C682.863 305.183 682.912 305.042 682.912 304.857ZM673.58 296.653L679.013 299.805C679.335 299.99 679.569 300.176 679.71 300.409C679.847 300.639 679.94 300.873 679.94 301.058C679.94 301.243 679.896 301.38 679.754 301.428L682.819 299.712C682.912 299.619 682.956 299.526 682.956 299.341C682.956 299.107 682.863 298.922 682.726 298.692C682.585 298.459 682.356 298.273 682.029 298.088L676.597 294.938L682.17 288.68L681.146 288.076L673.58 296.653ZM664.156 296.932C664.156 296.932 664.2 296.884 664.249 296.884C664.385 296.84 664.62 296.884 664.947 297.118L671.027 300.639V297.162L667.963 295.401C667.636 295.215 667.406 295.123 667.265 295.167C667.265 295.167 667.221 295.167 667.221 295.215C667.172 295.215 664.156 296.932 664.156 296.932ZM665.919 304.857L665.967 304.813L665.919 304.857ZM666.987 305.042L670.979 307.359V303.886L670.003 303.326C669.54 303.048 669.217 302.956 669.032 303.048C668.983 303.048 668.983 303.097 668.983 303.097L666.06 304.764C666.245 304.72 666.523 304.813 666.987 305.042ZM680.916 310.002C680.73 309.68 680.403 309.402 679.94 309.169L675.948 306.803V304.998L672.931 303.234V308.519L676.923 310.885C677.387 311.162 677.715 311.44 677.9 311.718C678.086 312.045 678.178 312.324 678.178 312.646C678.178 312.972 678.086 313.157 677.9 313.25L680.916 311.577C681.102 311.484 681.195 311.299 681.195 310.977C681.195 310.651 681.102 310.329 680.916 310.002ZM667.963 289.885C667.636 289.699 667.406 289.607 667.265 289.699L667.221 289.743L664.2 291.416C664.2 291.416 664.2 291.368 664.249 291.368C664.385 291.319 664.62 291.368 664.947 291.553L670.423 294.752L668.379 290.114L667.963 289.885ZM670.886 278.25C671.027 278.156 671.072 277.97 671.072 277.693C671.072 277.366 670.979 277.044 670.793 276.766C670.608 276.44 670.281 276.162 669.818 275.933L664.713 272.963C664.249 272.685 663.922 272.592 663.736 272.685L663.692 272.734L660.672 274.401C660.672 274.401 660.72 274.401 660.72 274.352C660.906 274.26 661.228 274.352 661.697 274.63L666.801 277.6C667.265 277.878 667.592 278.156 667.777 278.435C667.963 278.757 668.056 279.035 668.056 279.361C668.056 279.688 667.963 279.873 667.777 279.965C667.592 280.058 667.265 279.965 666.801 279.688L664.943 278.62L671.907 294.567L674.416 291.738L668.939 279.268L670.886 278.25ZM686.255 285.803C686.07 285.481 685.743 285.203 685.279 284.97L680.125 281.956C679.662 281.678 679.335 281.585 679.149 281.678C679.149 281.678 679.105 281.678 679.105 281.726L676.089 283.394C676.089 283.394 676.089 283.394 676.133 283.394C676.318 283.301 676.645 283.394 677.109 283.672L682.263 286.686C682.726 286.963 683.053 287.241 683.239 287.52C683.424 287.847 683.517 288.125 683.517 288.447C683.517 288.725 683.424 288.91 683.283 289.002L686.348 287.287C686.484 287.193 686.577 287.008 686.577 286.73C686.577 286.408 686.44 286.081 686.255 285.803ZM673.209 332.396C684.957 339.16 695.26 337.634 700.741 329.753C694.938 333.645 686.626 333.46 677.432 328.129C659.979 318.069 645.723 293.406 645.723 273.289C645.723 266.75 647.255 261.468 649.901 257.664C644.702 261.19 641.501 268.051 641.501 277.551C641.501 297.673 655.753 322.336 673.209 332.396ZM541.773 176.074C562.804 188.174 579.983 217.937 579.983 242.136C579.983 266.335 562.804 276.255 541.773 264.155C520.744 252.056 503.564 222.341 503.564 198.098C503.564 173.851 520.744 163.975 541.773 176.074ZM544.512 237.405C544.697 237.269 544.79 236.991 544.79 236.435V233.187C543.814 233.051 542.701 232.68 541.539 232.075V238.288C541.539 238.801 541.447 239.122 541.261 239.264C541.261 239.264 541.261 239.264 541.217 239.264L544.512 237.405C544.467 237.405 544.467 237.405 544.512 237.405ZM540.241 216.22C542.609 217.104 544.141 217.474 544.882 217.333C545.766 217.196 546.279 216.498 546.323 215.25C545.58 215.065 544.653 214.787 543.492 214.368C541.124 213.484 539.544 213.021 538.708 212.977C537.825 212.885 537.132 213.021 536.62 213.348L533.37 215.201C533.926 214.88 534.624 214.738 535.458 214.831C536.294 214.924 537.874 215.387 540.241 216.22ZM537.689 205.19C537.733 205.19 537.781 205.141 537.781 205.097C537.176 204.956 536.664 204.956 536.157 205.048C535.321 205.19 534.853 205.653 534.761 206.394C534.716 206.764 534.575 206.998 534.438 207.091L537.689 205.19ZM543.814 227.579C541.725 226.331 540.056 224.799 538.85 222.99C537.64 221.181 537.04 219.512 537.04 217.986C537.04 217.752 537.04 217.518 537.084 217.289C536.898 217.24 536.713 217.196 536.572 217.196C535.599 217.104 534.902 217.24 534.482 217.708C534.019 218.171 533.833 218.864 533.833 219.839C533.833 221.322 534.438 222.99 535.643 224.843C536.854 226.701 538.523 228.227 540.612 229.433C542.657 230.641 544.282 231.104 545.44 230.871C546.649 230.641 547.25 230.085 547.342 229.247C547.342 229.155 547.342 229.062 547.391 228.968C546.323 228.876 545.16 228.368 543.814 227.579ZM538.011 200.878C538.011 200.459 537.918 200.088 537.733 199.766C537.547 199.44 537.318 199.21 537.084 199.069C536.806 198.933 536.62 198.884 536.435 198.977H536.386L533.14 200.829C533.326 200.737 533.555 200.737 533.833 200.922C534.067 201.063 534.297 201.297 534.482 201.62C534.668 201.946 534.761 202.317 534.761 202.731C535.643 202.595 536.435 202.595 537.084 202.687C537.733 202.824 538.572 203.102 539.592 203.614V200.922C539.592 200.829 539.592 200.785 539.592 200.737C539.128 200.785 538.616 200.785 538.011 200.878ZM549.622 208.296C548.411 206.164 546.742 204.355 544.746 202.917V200.229C544.746 199.718 544.653 199.303 544.467 198.977C544.282 198.655 544.048 198.421 543.77 198.234C543.492 198.049 543.258 198.049 543.072 198.142L539.963 199.951C540.1 199.903 540.286 199.951 540.52 200.088C540.798 200.273 541.032 200.507 541.217 200.829C541.403 201.156 541.495 201.575 541.495 202.083V204.77C543.536 206.208 545.161 208.018 546.371 210.149C547.577 212.28 548.225 214.275 548.225 216.084C548.225 217.708 547.855 218.727 547.064 219.234C547.064 219.234 549.666 217.752 550.129 217.474C550.129 217.474 550.178 217.474 550.178 217.426H550.222C551.056 216.918 551.476 215.85 551.476 214.183C551.476 212.373 550.871 210.427 549.622 208.296ZM552.453 228.598C552.453 228.091 552.36 227.671 552.174 227.349C551.988 227.023 551.754 226.794 551.476 226.608C551.198 226.467 550.964 226.423 550.778 226.516L547.528 228.368C547.718 228.276 547.947 228.276 548.225 228.461C548.504 228.646 548.738 228.876 548.924 229.203C549.11 229.525 549.202 229.944 549.202 230.456V234.581C549.202 235.089 549.11 235.416 548.924 235.509L552.126 233.651H552.174C552.36 233.558 552.453 233.236 552.453 232.724V228.598ZM548.875 235.553C548.924 235.553 548.875 235.553 548.875 235.553V235.553ZM541.773 256.693C553.521 263.463 563.828 261.931 569.305 254.051C563.501 257.942 555.19 257.757 546.001 252.426C528.542 242.37 514.287 217.708 514.287 197.586C514.287 191.051 515.819 185.764 518.465 181.965C513.266 185.487 510.065 192.349 510.065 201.854C510.065 221.97 524.316 246.632 541.773 256.693Z" fill="#22DBDE"/>
<path d="M629.476 256.553L636.114 241.303L599.387 220.118L581.145 224.75L629.476 256.553ZM571.721 222.852L578.358 219.049L599.343 215.016L593.447 220.903L571.721 222.852ZM610.623 266.891L615.083 264.296L636.069 292.528L629.427 296.327L607.748 286.13L581.423 272.592L571.672 252.056L578.314 248.257L610.623 266.891Z" fill="#EAE5FF"/>
<path d="M629.476 266.287L636.114 262.487V241.303L629.476 245.102L592.75 223.917L599.387 220.118V215.065L592.75 218.864L571.765 222.898L592.75 251.129L597.948 248.115L629.476 266.287ZM608.49 268.144L629.476 296.375L608.49 300.409V294.474L571.765 273.289V252.104L608.49 273.289V268.144Z" fill="#024BD6"/>
<path d="M344.111 123.354V192.018C344.111 192.808 344.386 193.35 344.845 193.62L347.883 195.358L351.818 190.416L448.454 136.344C449.814 135.554 451.276 131.639 451.276 130.065V64.6652L453.692 61.6205L450.627 59.8555C450.163 59.5555 449.54 59.5819 448.834 59.9879L346.581 119.117C345.225 119.876 344.111 121.804 344.111 123.354Z" fill="#EAE5FF"/>
<path d="M349.623 120.855L451.877 61.7572C453.233 60.9674 454.319 61.6204 454.319 63.1692V131.834C454.319 133.382 453.207 135.311 451.877 136.07L349.623 195.169C348.263 195.958 347.181 195.305 347.181 193.757V125.123C347.15 123.542 348.263 121.641 349.623 120.855ZM402.622 160.662L442.161 137.808V130.607L402.622 153.46V160.662ZM358.929 131.834L398.467 108.955V101.753L358.929 124.606V131.834Z" fill="#024BD6"/>
<path d="M439.988 120.445L440.015 127.13L438.58 127.973C438.469 128.026 438.416 128.083 438.359 128.162C438.306 128.246 438.306 128.299 438.306 128.384C438.306 128.436 438.332 128.489 438.359 128.516C438.416 128.542 438.469 128.516 438.58 128.463L441.86 126.561C441.971 126.507 442.024 126.451 442.078 126.371C442.134 126.287 442.134 126.234 442.134 126.155C442.134 126.071 442.104 126.044 442.078 126.018C442.024 125.991 441.971 126.018 441.86 126.071L440.421 126.914L440.394 120.882L441.751 120.582C441.807 120.555 441.86 120.555 441.888 120.529C441.945 120.502 441.997 120.445 442.024 120.366C442.078 120.282 442.078 120.229 442.078 120.176C442.078 120.123 442.05 120.066 442.024 120.039C441.997 120.013 441.945 120.013 441.86 120.039L439.988 120.445ZM432.146 128.057V129.222C432.146 130.227 432.362 130.907 432.799 131.26C433.121 131.534 433.559 131.507 434.071 131.208C434.317 131.07 434.56 130.881 434.778 130.639C434.993 130.391 435.183 130.148 435.32 129.848C435.431 129.658 435.51 129.416 435.647 129.058C435.753 128.706 435.837 128.41 435.89 128.162C435.974 127.81 436.001 127.403 436.001 126.967V125.801C436.001 124.769 435.784 124.09 435.347 123.764C435.024 123.49 434.588 123.516 434.071 123.817C433.828 123.953 433.585 124.143 433.369 124.386C433.152 124.632 432.962 124.875 432.825 125.176C432.714 125.365 432.609 125.608 432.498 125.961C432.392 126.287 432.308 126.588 432.255 126.861C432.172 127.213 432.146 127.62 432.146 128.057ZM432.582 127.868C432.582 127.43 432.635 126.967 432.741 126.535C432.852 126.071 432.989 125.718 433.121 125.391C433.205 125.202 433.311 125.039 433.448 124.875C433.638 124.632 433.854 124.442 434.071 124.306C434.534 124.032 434.914 124.09 435.183 124.47C435.457 124.849 435.594 125.391 435.594 126.125V127.157C435.594 127.593 435.537 128.057 435.431 128.489C435.32 128.952 435.183 129.332 435.051 129.632C434.967 129.796 434.861 129.986 434.724 130.148C434.534 130.391 434.317 130.581 434.071 130.718C433.611 130.991 433.232 130.933 432.962 130.554C432.688 130.175 432.551 129.606 432.551 128.9L432.582 127.868ZM426.232 131.613C426.449 131.914 426.718 132.104 427.017 132.13C427.314 132.187 427.614 132.104 427.941 131.914C428.237 131.75 428.511 131.477 428.78 131.155C429.054 130.801 429.271 130.417 429.433 129.958C429.597 129.495 429.677 129.09 429.677 128.679C429.677 128.109 429.513 127.673 429.186 127.377C428.864 127.077 428.427 127.104 427.914 127.403C427.534 127.62 427.181 127.947 426.881 128.41C426.586 128.842 426.338 129.385 426.148 129.986C425.931 130.771 425.821 131.587 425.821 132.43C425.821 133.109 425.931 133.599 426.121 133.926C426.259 134.141 426.449 134.331 426.691 134.468C426.934 134.605 427.207 134.685 427.534 134.685C427.941 134.685 428.4 134.548 428.838 134.278C429.133 134.116 429.376 133.899 429.566 133.652C429.65 133.542 429.702 133.435 429.702 133.352C429.702 133.299 429.676 133.246 429.65 133.22C429.623 133.189 429.566 133.22 429.513 133.246C429.487 133.273 429.407 133.326 429.35 133.409C429.217 133.542 429.081 133.678 428.891 133.789C428.184 134.195 427.561 134.278 427.071 133.979C426.585 133.678 426.311 133.136 426.285 132.266C426.201 132.13 426.201 131.887 426.232 131.613ZM426.285 130.771C426.449 129.901 426.665 129.28 426.934 128.842C427.207 128.41 427.504 128.109 427.857 127.894C428.21 127.673 428.537 127.673 428.806 127.868C429.081 128.057 429.217 128.41 429.217 128.926C429.217 129.442 429.081 129.932 428.806 130.417C428.537 130.907 428.237 131.26 427.883 131.45C427.693 131.56 427.504 131.613 427.314 131.613C427.124 131.613 426.934 131.534 426.775 131.398C426.665 131.287 426.501 131.097 426.285 130.771ZM420.936 135.011C420.583 135.391 420.34 135.801 420.15 136.234C419.988 136.639 419.881 137.049 419.881 137.403C419.881 137.972 420.071 138.325 420.451 138.514C420.831 138.704 421.29 138.651 421.807 138.352C422.349 138.056 422.782 137.565 423.162 136.94C423.542 136.317 423.706 135.717 423.706 135.174C423.706 134.822 423.626 134.548 423.436 134.331C423.246 134.116 422.999 134.032 422.62 134.032C422.919 133.652 423.136 133.326 423.299 133.025C423.489 132.62 423.6 132.213 423.569 131.861C423.569 131.345 423.379 130.991 423.03 130.801C422.677 130.607 422.24 130.664 421.754 130.96C421.237 131.26 420.831 131.697 420.477 132.293C420.124 132.893 419.96 133.435 419.96 133.952C419.96 134.331 420.071 134.605 420.261 134.794C420.424 134.901 420.641 134.984 420.936 135.011ZM420.314 137.155C420.314 136.75 420.451 136.287 420.747 135.827C421.021 135.364 421.401 134.984 421.807 134.738C422.24 134.495 422.592 134.442 422.867 134.574C423.136 134.711 423.299 134.984 423.299 135.417C423.299 135.854 423.162 136.287 422.867 136.776C422.566 137.266 422.213 137.618 421.807 137.866C421.374 138.109 421.021 138.162 420.747 137.998C420.477 137.866 420.314 137.565 420.314 137.155ZM420.424 133.705C420.424 133.299 420.557 132.866 420.831 132.43C421.1 131.993 421.427 131.639 421.807 131.424C422.187 131.208 422.513 131.155 422.782 131.287C423.057 131.424 423.189 131.697 423.189 132.077C423.189 132.456 423.057 132.836 422.809 133.273C422.539 133.705 422.213 134.032 421.833 134.252C421.427 134.468 421.1 134.521 420.831 134.415C420.557 134.305 420.424 134.058 420.424 133.705ZM408.129 139.737V139.521L411.141 137.782V138.188C411.141 138.299 411.168 138.382 411.194 138.409C411.226 138.435 411.279 138.435 411.358 138.382C411.416 138.352 411.469 138.299 411.495 138.219C411.521 138.135 411.548 138.056 411.548 137.945V137.049L407.697 139.278V140.037L409.406 145.12C409.433 145.199 409.459 145.253 409.512 145.253C409.542 145.253 409.596 145.253 409.649 145.227C409.702 145.199 409.759 145.146 409.813 145.063C409.839 144.984 409.866 144.931 409.866 144.873C409.866 144.847 409.866 144.794 409.839 144.736L408.129 139.737ZM404.654 145.12C404.385 144.847 404.116 144.683 403.841 144.63C403.572 144.578 403.272 144.657 402.918 144.847C402.485 145.12 402.08 145.553 401.726 146.153C401.373 146.775 401.209 147.375 401.209 147.998C401.209 148.571 401.373 148.977 401.7 149.277C402.022 149.546 402.459 149.546 403.002 149.224C403.356 149.004 403.704 148.676 404.005 148.245C404.332 147.808 404.575 147.292 404.738 146.669C404.955 145.879 405.064 145.12 405.064 144.331C405.064 143.734 404.955 143.245 404.738 142.866C404.575 142.565 404.358 142.349 404.084 142.186C403.815 142.049 403.514 141.965 403.162 141.996C402.812 142.023 402.432 142.129 402.022 142.375C401.753 142.539 401.51 142.729 401.32 142.972C401.236 143.081 401.209 143.162 401.209 143.271C401.209 143.324 401.236 143.382 401.262 143.408C401.294 143.435 401.346 143.435 401.399 143.382C401.452 143.351 401.483 143.298 401.563 143.245C401.7 143.081 401.862 142.945 402.08 142.835C402.728 142.456 403.324 142.428 403.868 142.755C404.411 143.081 404.685 143.651 404.685 144.521C404.685 144.657 404.686 144.847 404.654 145.12ZM404.575 145.963C404.438 146.722 404.248 147.317 403.978 147.781C403.704 148.245 403.382 148.571 403.029 148.787C402.649 149.004 402.323 149.03 402.08 148.84C401.806 148.676 401.673 148.324 401.673 147.781C401.673 147.292 401.806 146.801 402.052 146.343C402.323 145.852 402.622 145.526 402.944 145.336C403.272 145.146 403.572 145.12 403.868 145.253C404.084 145.336 404.332 145.579 404.575 145.963ZM398.414 145.146L398.44 147.454C398.197 147.481 397.954 147.539 397.738 147.618C397.518 147.702 397.301 147.781 397.085 147.918C396.568 148.218 396.109 148.676 395.755 149.303C395.402 149.93 395.239 150.579 395.239 151.259C395.239 152.021 395.455 152.512 395.834 152.727C396.246 152.97 396.731 152.891 397.328 152.565C397.738 152.348 398.118 152.021 398.467 151.611C398.741 151.315 398.957 151.016 399.173 150.689C399.311 150.5 399.363 150.363 399.363 150.283C399.363 150.226 399.337 150.173 399.311 150.146C399.284 150.12 399.226 150.12 399.173 150.146C399.121 150.173 399.068 150.257 398.984 150.363C398.498 151.179 397.928 151.775 397.354 152.101C396.868 152.375 396.462 152.428 396.135 152.238C395.808 152.048 395.644 151.642 395.644 151.016C395.644 150.473 395.781 149.983 396.056 149.493C396.325 149.004 396.678 148.65 397.111 148.408C397.548 148.16 397.981 148.028 398.414 148.028C398.524 148.028 398.604 147.998 398.63 147.998C398.688 147.97 398.741 147.918 398.767 147.834C398.794 147.781 398.82 147.702 398.82 147.618L398.794 144.493L395.866 146.18C395.755 146.232 395.702 146.285 395.644 146.369C395.592 146.449 395.592 146.506 395.592 146.585C395.592 146.643 395.618 146.696 395.644 146.722C395.702 146.748 395.755 146.722 395.866 146.669L398.414 145.146ZM390.381 154.44L393.149 152.838V152.291L390.788 149.114L389.922 149.63L389.948 154.25L389.595 154.44C389.484 154.493 389.431 154.576 389.378 154.63C389.326 154.709 389.326 154.766 389.326 154.845C389.326 154.898 389.352 154.956 389.378 154.982C389.431 155.009 389.484 154.982 389.595 154.93L389.948 154.74V156.231L389.595 156.421C389.484 156.479 389.431 156.558 389.378 156.611C389.326 156.695 389.326 156.748 389.326 156.831C389.326 156.884 389.352 156.937 389.378 156.963C389.431 156.995 389.484 156.963 389.595 156.911L391.14 156.016C391.251 155.963 391.304 155.878 391.356 155.826C391.414 155.741 391.414 155.688 391.414 155.609C391.414 155.525 391.388 155.499 391.356 155.472C391.304 155.446 391.251 155.472 391.14 155.525L390.355 155.989L390.381 154.44ZM390.381 153.977L390.355 149.847L390.57 149.709L392.717 152.618L390.381 153.977ZM378.007 159.739C377.627 160.146 377.331 160.609 377.141 161.041C376.951 161.505 376.841 161.91 376.841 162.264C376.841 162.837 377.057 163.217 377.463 163.407C377.87 163.595 378.386 163.516 379.013 163.159C379.362 162.943 379.742 162.643 380.126 162.264C380.506 161.857 380.775 161.531 380.939 161.257C380.991 161.178 381.018 161.094 381.018 161.014C381.018 160.961 380.991 160.905 380.965 160.878C380.939 160.852 380.886 160.852 380.828 160.878C380.775 160.905 380.722 160.961 380.639 161.067C380.126 161.805 379.583 162.321 379.013 162.674C378.523 162.943 378.117 163.027 377.79 162.863C377.463 162.7 377.3 162.426 377.3 161.995C377.3 161.72 377.384 161.394 377.548 161.014C377.71 160.662 377.927 160.308 378.254 159.982C378.549 159.655 378.85 159.386 379.172 159.223C379.283 159.166 379.336 159.113 379.393 159.028C379.446 158.949 379.446 158.896 379.446 158.813C379.446 158.76 379.42 158.706 379.393 158.676C379.362 158.65 379.283 158.676 379.203 158.734L378.85 158.949C378.47 159.166 378.169 159.223 377.927 159.113C377.68 159.002 377.548 158.76 377.548 158.433C377.548 158.081 377.68 157.701 377.927 157.264C378.169 156.858 378.523 156.505 378.929 156.289C379.23 156.125 379.473 156.016 379.716 155.989C379.962 155.963 380.152 155.989 380.316 156.095C380.369 156.152 380.395 156.152 380.449 156.152C380.506 156.152 380.506 156.152 380.559 156.125C380.613 156.095 380.665 156.042 380.696 155.989C380.722 155.931 380.749 155.852 380.749 155.799C380.749 155.636 380.613 155.551 380.316 155.472C379.906 155.389 379.446 155.499 378.929 155.799C378.412 156.095 377.979 156.532 377.627 157.1C377.3 157.643 377.11 158.19 377.141 158.676C377.141 159.002 377.221 159.25 377.384 159.44C377.548 159.629 377.71 159.739 378.007 159.739ZM374.562 165.118L371.334 166.993V166.804C371.334 166.694 371.302 166.609 371.276 166.583C371.249 166.557 371.196 166.557 371.112 166.609C371.059 166.641 371.006 166.694 370.954 166.773C370.923 166.857 370.897 166.936 370.897 167.046V167.699L374.942 165.335V164.629C374.071 164.25 373.259 163.87 372.447 163.433C372.062 163.243 371.793 163.079 371.656 162.97C371.523 162.863 371.413 162.753 371.36 162.616C371.302 162.511 371.276 162.373 371.276 162.211C371.276 161.805 371.413 161.368 371.713 160.878C372.009 160.388 372.336 160.035 372.769 159.792C373.123 159.576 373.449 159.519 373.744 159.576C374.019 159.655 374.208 159.819 374.288 160.146C374.319 160.225 374.346 160.255 374.372 160.282C374.398 160.308 374.451 160.282 374.509 160.255C374.562 160.225 374.615 160.172 374.641 160.118C374.668 160.062 374.699 159.982 374.699 159.929C374.699 159.739 374.615 159.546 374.425 159.356C374.235 159.166 374.018 159.06 373.691 159.06C373.396 159.06 373.069 159.166 372.743 159.329C372.226 159.629 371.766 160.092 371.386 160.715C371.006 161.341 370.816 161.91 370.843 162.426C370.843 162.643 370.869 162.837 370.954 162.97C371.006 163.106 371.112 163.243 371.276 163.38C371.439 163.516 371.713 163.676 372.093 163.87C373.095 164.386 373.881 164.766 374.509 165.007L374.562 165.118ZM366.391 163.159L366.418 169.845L364.983 170.687C364.873 170.74 364.82 170.797 364.767 170.877C364.709 170.961 364.709 171.014 364.709 171.097C364.709 171.15 364.736 171.204 364.767 171.23C364.82 171.257 364.873 171.229 364.983 171.176L368.265 169.275C368.374 169.222 368.427 169.165 368.481 169.085C368.538 169.002 368.538 168.949 368.538 168.869C368.538 168.785 368.511 168.759 368.481 168.732C368.427 168.706 368.374 168.732 368.265 168.785L366.829 169.628L366.798 163.595L368.158 163.296C368.211 163.269 368.265 163.269 368.291 163.243C368.348 163.217 368.401 163.159 368.427 163.079C368.481 163 368.481 162.943 368.481 162.889C368.481 162.837 368.455 162.78 368.427 162.753C368.401 162.727 368.348 162.727 368.265 162.753L366.391 163.159ZM358.549 170.771V171.936C358.549 172.942 358.765 173.621 359.202 173.975C359.529 174.248 359.962 174.222 360.478 173.921C360.722 173.785 360.965 173.595 361.181 173.352C361.401 173.105 361.591 172.863 361.724 172.562C361.834 172.373 361.913 172.13 362.051 171.773C362.161 171.419 362.241 171.124 362.293 170.877C362.378 170.523 362.404 170.118 362.404 169.681V168.516C362.404 167.484 362.188 166.804 361.75 166.477C361.428 166.204 360.991 166.231 360.478 166.53C360.231 166.667 359.988 166.857 359.772 167.1C359.556 167.347 359.366 167.59 359.228 167.889C359.118 168.079 359.012 168.322 358.901 168.675C358.796 169.002 358.711 169.301 358.659 169.575C358.575 169.928 358.549 170.334 358.549 170.771ZM358.959 170.581C358.959 170.144 359.012 169.681 359.118 169.248C359.228 168.785 359.366 168.433 359.498 168.106C359.582 167.916 359.688 167.753 359.825 167.59C360.015 167.347 360.231 167.157 360.448 167.02C360.911 166.747 361.291 166.804 361.56 167.183C361.834 167.563 361.971 168.106 361.971 168.838V169.871C361.971 170.308 361.913 170.771 361.808 171.204C361.697 171.667 361.56 172.046 361.428 172.347C361.344 172.509 361.238 172.699 361.101 172.863C360.911 173.105 360.694 173.294 360.448 173.431C359.988 173.706 359.608 173.648 359.339 173.268C359.065 172.889 358.928 172.32 358.928 171.614L358.959 170.581Z" fill="white"/>
<path d="M419.608 93.5723C419.608 97.6495 422.487 99.3087 425.984 97.2701C429.512 95.2314 432.362 90.2584 432.362 86.1812C432.362 82.1083 429.513 80.4492 426.011 82.4878C422.513 84.5264 419.608 89.4994 419.608 93.5723Z" fill="#22DBDE"/>
<path d="M365.849 143.704L360.368 146.859C359.582 147.317 358.928 148.435 358.928 149.356V152.591L365.849 148.597V143.704ZM366.555 148.16V143.298L372.743 139.711V155.199L366.555 158.787V148.16ZM380.395 145.037L373.475 149.03V144.984L380.395 140.99V145.037ZM373.475 149.873L380.395 145.879V149.114C380.395 150.037 379.742 151.153 378.956 151.611L373.475 154.766V149.873ZM358.928 153.433L365.849 149.414V153.46L358.928 157.454V153.433ZM365.849 154.303V159.166L360.368 162.321C359.582 162.78 358.928 162.4 358.928 161.479V158.296L365.849 154.303ZM373.475 144.167V139.305L378.956 136.154C379.742 135.69 380.395 136.07 380.395 136.997V140.201L373.475 144.167ZM435.784 76.7823C439.308 74.7437 442.161 76.4027 442.161 80.4756C442.161 84.5529 439.282 89.5259 435.784 91.5645C432.255 93.6032 429.407 91.944 429.407 87.8668C429.407 83.7939 432.282 78.8209 435.784 76.7823Z" fill="#22DBDE"/>
</g>
<defs>
<clipPath id="clip0">
<rect width="1440" height="810" fill="white"/>
</clipPath>
<clipPath id="clip1">
<rect width="1440" height="810" fill="white" transform="translate(0 214)"/>
</clipPath>
</defs>
</svg>
