<svg width="917" height="570" viewBox="0 0 917 570" fill="none" xmlns="http://www.w3.org/2000/svg">
<path d="M510.949 470.262L622.566 534.941C626.816 537.324 648.578 536.602 652.828 534.215L693.141 500.113C695.941 498.559 695.941 494.516 693.141 492.961L575.309 424.965C570.953 422.477 565.668 422.477 561.316 424.965L509.809 454.715C508.254 455.648 507.531 457.203 507.531 458.758C507.531 460.313 509.395 469.328 510.949 470.262ZM460.996 52.7462C461.102 52.7462 461.102 52.6407 461.203 52.6407L461.309 52.5391C464.211 50.9844 467.941 50.7774 471.258 52.6407L649.406 154.949V111.828C649.406 109.961 650.031 108.613 651.168 107.992C652.207 107.371 659.461 105.09 661.016 106.023L905.285 246.266C908.602 248.133 912.75 255.594 912.75 259.43L913.473 423.516C913.473 425.379 908.914 431.703 907.773 432.324C906.738 432.945 905.184 432.844 903.523 431.91L828.906 388.895L829.32 542.301C829.32 547.277 826.625 551.422 822.793 553.602L798.852 567.488L774.082 533.18L477.164 362.668C464.418 355.309 456.539 341.836 456.539 327.117L455.918 92.0313L437.367 66.3243L460.996 52.7462Z" fill="#EAE5FF"/>
<path d="M896.684 372L814.086 324.941V341.109L896.684 388.168V372ZM896.684 412.422L835.953 377.805V361.633L896.684 396.254V412.422ZM419.852 226.262L432.703 218.797V74.9258C432.703 67.0508 441.203 62.1758 448.043 66.1172L649.406 182.313V150.387L909.535 298.508V261.918C909.535 258.188 906.84 253.523 903.629 251.656L655.418 108.406C653.863 107.473 652.414 107.371 651.375 107.891L658.527 103.742C659.562 103.016 661.117 103.121 662.879 104.055L910.984 247.406C914.199 249.273 916.895 253.938 916.895 257.668V424.137C916.895 426.004 916.168 427.348 915.133 427.973L907.773 432.223C908.809 431.598 909.535 430.25 909.535 428.387V336.445L649.512 188.324V278.297C649.512 282.027 652.207 286.691 655.418 288.559L804.965 374.902V556.504C804.965 566.555 794.086 572.777 785.379 567.801L693.973 515.039C693.766 515.246 693.453 515.457 693.141 515.664L640.391 545.824C636.141 548.211 630.961 548.211 626.816 545.824L509.914 478.242C508.359 477.313 507.633 475.652 507.633 474.305V458.758C507.633 460.313 508.461 461.867 509.914 462.801L626.816 530.383C631.062 532.766 636.141 532.867 640.391 530.383L680.602 507.266L453.328 376.039C440.582 368.68 432.809 355.102 432.809 340.383V250.414L419.852 226.262ZM650.961 108.098C651.066 108.098 650.961 108.098 650.961 108.098V108.098Z" fill="#024BD6"/>
<path d="M526.496 360.078L789.422 511.93V365.988L655.316 288.559C652 286.691 649.406 282.027 649.406 278.297V204.91L453.949 91.9259C450.32 89.8516 445.867 92.4454 445.867 96.5899V219.629C465.66 224.707 483.176 216.313 483.176 216.313C494.574 246.371 529.5 269.797 529.5 269.797C529.5 269.797 529.5 333.856 529.5 350.024C529.5 354.066 528.359 357.281 526.496 360.078Z" fill="#1157F5"/>
<path d="M541.937 322.762C541.937 339.66 554.582 360.391 570.125 368.785L648.164 413.875C664.953 422.375 678.738 415.43 678.738 398.535C678.738 381.637 664.953 360.906 648.164 352.406L570.125 307.32C554.582 298.922 541.937 305.867 541.937 322.762ZM576.965 271.352C576.344 271.352 575.824 270.832 575.824 270.211V242.637C575.824 232.48 579.453 224.707 585.98 220.77C592.926 216.621 602.254 217.348 612.098 222.633C631.582 233.207 647.336 259.121 647.336 280.367V309.391C647.336 310.012 646.816 310.531 646.195 310.531C645.574 310.531 645.055 310.012 645.055 309.391V280.367C645.055 259.949 629.82 234.969 610.957 224.707C601.84 219.73 593.34 219.004 587.121 222.738C581.215 226.262 578.004 233.309 578.004 242.535V270.105C578.105 270.832 577.586 271.352 576.965 271.352ZM638.629 239.734C631.582 229.477 622.566 220.559 612.617 215.172C601.734 209.262 591.683 208.434 584.117 212.891C577.172 217.035 573.234 225.434 573.234 236.523V242.43C573.234 243.055 572.719 243.57 572.094 243.57C571.473 243.57 570.953 243.055 570.953 242.43V236.523C570.953 224.602 575.203 215.48 582.976 210.922C591.164 206.051 602.047 206.879 613.652 213.199C623.808 218.797 633.137 227.816 640.391 238.492C640.703 238.906 640.598 239.527 640.289 239.84C639.875 240.359 639.043 240.254 638.629 239.734ZM594.273 240.047C598.832 237.352 604.742 237.766 611.164 241.293C618.836 245.539 625.676 253.523 629.719 262.23C629.926 262.746 629.719 263.371 629.199 263.68C628.578 263.992 627.953 263.785 627.644 263.16C623.808 254.871 617.383 247.305 610.027 243.363C604.43 240.359 599.246 239.84 595.414 242.121C594.586 242.637 593.754 243.262 593.031 244.09C592.613 244.609 591.891 244.609 591.371 244.195C590.957 243.777 590.851 243.055 591.269 242.637C592.199 241.5 593.238 240.668 594.273 240.047ZM599.558 290.836C599.871 291.254 599.973 291.77 599.664 292.184C599.246 292.809 598.316 292.91 597.902 292.391C591.785 285.758 587.641 276.637 587.641 268.758V254.145C587.641 251.449 588.055 248.961 588.781 246.887C589.09 246.164 590.023 245.957 590.644 246.473C590.957 246.785 591.058 247.305 590.957 247.719C590.336 249.582 589.922 251.762 589.922 254.145V268.758C590.023 276.117 593.961 284.617 599.558 290.836ZM594.066 270.73V258.082C594.066 253.523 595.723 250.102 598.73 248.234C600.285 247.305 602.148 246.887 604.223 246.992C604.844 246.992 605.258 247.512 605.258 248.133V248.234C605.258 248.859 604.637 249.375 604.016 249.375C602.461 249.273 601.113 249.582 599.871 250.207C597.59 251.555 596.348 254.352 596.348 258.082V270.73C596.348 276.637 601.008 284.203 606.398 287.211C608.781 288.453 610.957 288.766 612.617 288.039C612.617 288.039 612.719 288.039 612.824 287.934C613.344 287.625 614.066 287.727 614.379 288.246C614.691 288.766 614.586 289.488 613.965 289.801C613.758 289.906 613.551 290.008 613.551 290.008C611.269 291.043 608.367 290.734 605.258 289.074C599.144 285.863 594.066 277.57 594.066 270.73ZM582.664 274.254C582.25 272.078 582.043 269.898 582.043 267.723V247.926C582.043 239.84 584.945 233.621 590.23 230.406C595.828 227.09 603.289 227.609 611.164 231.961C626.609 240.359 639.148 260.984 639.148 277.883V285.656C639.148 286.277 638.527 286.797 637.902 286.797C637.281 286.691 636.867 286.277 636.867 285.656V277.883C636.867 261.816 624.848 242.121 610.027 234.035C602.875 230.098 596.242 229.578 591.371 232.48C586.812 235.176 584.324 240.668 584.324 248.027V267.828C584.324 269.797 584.531 271.867 584.945 273.941C585.051 274.461 584.844 274.875 584.43 275.188C583.703 275.395 582.875 275.082 582.664 274.254ZM626.191 310.324C621.113 313.332 614.379 312.813 607.332 308.977C596.762 303.172 587.641 291.043 583.91 278.918C583.703 278.398 584.012 277.883 584.43 277.57C585.051 277.258 585.879 277.57 586.086 278.297C589.609 289.906 598.316 301.41 608.367 307.008C614.793 310.531 620.699 310.945 624.949 308.355C628.992 305.973 631.269 300.996 631.269 294.57V277.879C631.269 274.461 630.547 270.832 629.406 267.309C629.199 266.789 629.406 266.168 629.926 265.961C630.547 265.648 631.269 265.961 631.48 266.582C632.824 270.418 633.551 274.254 633.551 277.984V294.672C633.551 301.93 630.961 307.527 626.191 310.324ZM609.301 251.035C608.887 250.828 608.473 250.621 608.16 250.414C607.746 250.207 607.539 249.789 607.539 249.375C607.539 248.547 608.367 248.027 609.195 248.34C609.613 248.547 610.129 248.754 610.543 248.961C618.629 253.418 625.363 263.992 625.777 273.008C625.777 273.527 625.469 273.941 625.055 274.047L623.5 274.668V273.941C623.394 265.648 617.074 255.285 609.301 251.035ZM625.676 288.246C625.676 293.637 623.707 297.887 620.183 299.961C616.453 302.238 611.476 301.824 606.191 299.027C604.535 298.094 602.98 297.059 601.426 295.813C601.008 295.504 600.906 294.879 601.219 294.363C601.527 293.738 602.355 293.637 602.875 294.051C604.223 295.191 605.777 296.227 607.226 297.059C611.683 299.441 615.933 299.855 618.937 298.094C621.738 296.434 623.293 292.91 623.293 288.352V278.191C623.293 277.777 623.601 277.363 624.016 277.156C624.742 276.844 625.57 277.363 625.57 278.191V288.246H625.676ZM638.113 289.074C638.734 289.18 639.148 289.594 639.148 290.215V301.93C639.148 309.805 636.453 315.816 631.582 319.031C631.062 319.344 630.234 319.238 629.926 318.617C629.613 318.098 629.82 317.477 630.234 317.164C634.484 314.367 636.867 308.977 636.867 301.93V290.215C636.867 289.488 637.488 288.973 638.113 289.074ZM616.555 270.73C617.176 270.73 617.695 271.246 617.695 271.867V282.441C617.695 283.375 617.59 284.309 617.383 285.137C617.176 286.07 615.828 286.277 615.312 285.449C615.105 285.137 615.105 284.824 615.207 284.617C615.312 283.996 615.414 283.27 615.414 282.441V271.973C615.414 271.246 615.933 270.73 616.555 270.73ZM654.176 290.941C653.555 290.941 653.035 290.422 653.035 289.801V286.691C653.762 287.418 654.484 288.141 655.316 288.559V289.801C655.316 290.422 654.797 290.941 654.176 290.941ZM641.324 242.223C641.844 241.707 642.773 241.707 643.086 242.43C645.469 246.371 647.644 250.516 649.406 254.766V261.09C647.336 255.078 644.535 249.168 641.117 243.57C640.91 243.156 640.91 242.637 641.324 242.223ZM425.242 258.703C425.762 254.145 426.59 248.859 430.426 246.266C433.742 244.09 438.301 244.609 441.719 246.68C445.141 248.754 447.629 251.863 450.113 255.078C458.715 266.168 467.629 276.949 474.883 288.973C478.613 295.086 481.101 301.516 488.562 302.238C495.82 302.965 500.273 305.141 502.66 312.813C507.012 326.703 500.273 341.938 490.43 352.613C485.453 358.004 479.031 362.875 471.672 363.086C464.418 363.293 457.785 358.836 453.223 353.133C448.769 347.434 446.074 340.59 443.066 333.957C435.398 316.75 425.656 299.855 424.207 281.094C423.687 273.734 424.414 266.168 425.242 258.703Z" fill="#22DBDE"/>
<path d="M665.68 402.785L664.539 385.164L657.801 381.223C656.664 380.496 655.73 380.082 655.109 379.773C654.277 379.359 653.555 379.254 652.93 379.359C652.414 379.461 651.895 379.668 651.586 380.188C651.273 380.707 651.168 381.43 651.168 382.262C651.273 383.711 651.793 385.266 652.828 386.926C653.863 388.481 655.625 390.035 658.113 391.484L662.672 394.18L663.086 401.332L665.68 402.785ZM662.777 392.211L658.219 389.516C656.664 388.582 655.625 387.754 654.902 386.82C654.176 385.887 653.863 384.957 653.762 383.918C653.762 383.191 653.863 382.676 654.176 382.363C654.484 382.055 655.004 381.949 655.625 382.156C656.039 382.262 656.766 382.676 657.801 383.297L662.363 385.887L662.777 392.211ZM652.93 395.426L644.953 373.863L642.359 372.414L636.141 385.785L638.836 387.34L640.598 383.191L648.062 387.547L650.34 393.973L652.93 395.426ZM647.336 385.164L641.324 381.637L642.879 377.805C643.398 376.664 643.707 375.625 643.914 374.902C644.227 376.145 644.641 377.492 645.055 378.84L647.336 385.164ZM631.168 382.777L630.648 375.316L636.867 369.098L633.965 367.438L630.754 370.754C630.133 371.375 629.613 372 629.094 372.723C628.473 371.481 627.746 370.027 626.918 368.473L623.188 361.32L620.391 359.766L628.164 374.07L628.68 381.535L631.168 382.777ZM613.137 372.414L611.996 354.793L609.613 353.34L601.113 361.738L600.285 347.848L598.004 346.5L599.145 364.121L601.527 365.57L610.027 357.176L610.855 371.066L613.137 372.414ZM595.309 353.754C595.102 350.852 594.168 348.055 592.512 345.465C590.852 342.871 588.676 340.902 586.191 339.449C584.531 338.52 583.082 338 581.836 338C580.594 338 579.66 338.52 579.039 339.449C578.418 340.488 578.211 341.836 578.312 343.598C578.418 345.359 578.934 347.227 579.66 348.988C580.387 350.75 581.629 352.512 582.977 353.961C584.324 355.414 585.773 356.656 587.328 357.59C588.988 358.523 590.438 359.043 591.785 359.043C593.031 359.043 593.961 358.523 594.586 357.488C595.102 356.555 595.414 355.309 595.309 353.754ZM592.824 352.406C592.926 354.481 592.512 355.828 591.371 356.449C590.336 356.969 588.883 356.762 587.121 355.727C585.359 354.688 583.805 353.238 582.664 351.371C581.422 349.504 580.801 347.434 580.594 345.152C580.488 343.699 580.695 342.563 581.113 341.836C581.527 341.008 582.148 340.59 583.082 340.59C584.012 340.59 585.051 340.902 586.191 341.523C587.848 342.457 589.297 343.906 590.645 345.672C591.992 347.535 592.719 349.711 592.824 352.406ZM572.613 348.883L576.242 333.957L573.855 332.508L571.887 342.457C571.68 343.492 571.473 344.531 571.371 345.672C570.746 343.492 570.438 342.25 570.332 341.938L566.188 328.051L563.391 326.391L561.422 333.856C560.902 335.719 560.59 337.481 560.383 339.242C560.074 338 559.66 336.551 559.242 334.891L555.719 321.934L553.336 320.586L559.348 341.008L561.629 342.356L564.531 331.055C564.738 330.121 564.945 329.5 564.945 329.293C565.152 330.227 565.359 330.953 565.566 331.676L570.23 347.328L572.613 348.883ZM694.594 260.258L707.859 267.93C709.828 269.07 711.383 271.766 711.383 273.941V281.715L694.594 271.973V260.258ZM692.832 273.113V296.848L677.805 288.145V250.516L692.832 259.223V273.113ZM659.254 253.731L676.043 263.473V273.32L659.254 263.578V253.731ZM676.043 287.106L662.777 279.438C660.809 278.297 659.254 275.602 659.254 273.422V265.648L676.043 275.395V287.106ZM711.383 293.637L694.594 283.895V274.148L711.383 283.895V293.637ZM711.383 295.711V303.484C711.383 305.66 709.828 306.594 707.859 305.453L694.594 297.781V285.965L711.383 295.711ZM659.254 251.762V243.984C659.254 241.809 660.809 240.875 662.777 242.016L676.043 249.688V261.504L659.254 251.762ZM466.18 226.262C477.578 256.32 512.504 279.746 512.504 279.746C512.504 279.746 512.504 343.805 512.504 359.973C512.504 384.438 466.18 386.719 466.18 386.719C433.016 367.543 419.852 316.336 419.852 306.488C419.852 296.641 419.852 226.262 419.852 226.262C443.066 237.352 466.18 226.262 466.18 226.262ZM433.016 279.852L474.055 351.371L494.574 339.449V315.609L474.055 327.531L432.91 256.219L433.016 279.852Z" fill="#22DBDE"/>
<path d="M336.664 238.918C336.746 238.879 336.828 238.836 336.914 238.754L337.035 238.672C343.031 235.145 346.727 227.633 346.727 217.047C346.727 195.582 331.531 169.277 312.93 158.566C302.746 152.699 293.547 152.656 287.348 157.418L267.551 168.66L260.078 187.457C264.227 221.437 280.691 235.348 289.605 244.582L314.738 251.598L336.664 238.918ZM198.48 184.543L171.91 178.102C162.957 168.867 145.504 154.012 143.41 119.5L151.254 101.648L171.09 90.3633C177.289 85.6406 186.488 85.6406 196.672 91.5117C215.273 102.223 230.469 128.566 230.469 149.988C230.469 160.578 226.773 168.086 220.777 171.656L220.656 171.738C220.574 171.781 220.492 171.82 220.41 171.902L198.48 184.543Z" fill="#22DBDE"/>
<path d="M334.57 180.109L307.551 195.707L315.352 200.219L338.516 186.84C337.281 184.543 335.969 182.328 334.57 180.109ZM330.055 173.875L306.523 187.457L298.516 184.422L325.617 168.785C327.18 170.387 328.656 172.066 330.055 173.875ZM343.812 199.605L321.062 212.734L313.055 209.66L341.469 193.242C342.375 195.379 343.152 197.469 343.812 199.605ZM320.363 163.82L296.297 177.73L288.207 175.801L315.395 160.125C317.078 161.191 318.719 162.465 320.363 163.82ZM316.832 222.133L345.414 205.637C345.863 207.648 346.191 209.699 346.398 211.668L324.922 224.062L316.832 222.133ZM310.426 157.211L284.512 172.148L278.805 170.223L305.047 155.078C306.812 155.613 308.578 156.309 310.426 157.211ZM317.57 234.199L346.727 217.375C346.727 219.301 346.562 221.148 346.316 222.832L323.277 236.129L317.57 234.199ZM299.953 154.094L274.82 168.578H268.906L293.176 154.586C295.27 154.012 297.531 153.848 299.953 154.094ZM315.188 243.801L345.617 226.195C345.207 227.715 344.715 229.152 344.098 230.465L321.062 243.762H315.188V243.801ZM337.035 238.715L336.914 238.797C336.828 238.836 336.746 238.879 336.664 238.961L318.762 249.301H314.121L343.031 232.598C341.469 235.227 339.418 237.277 337.035 238.715ZM222.215 119.828L199.055 133.203L191.25 128.691L218.273 113.098C219.711 115.269 221.023 117.527 222.215 119.828ZM213.797 106.859L190.266 120.441L182.258 117.406L209.363 101.769C210.922 103.328 212.402 105.055 213.797 106.859ZM227.555 132.547L204.805 145.68L196.797 142.644L225.215 126.23C226.117 128.32 226.898 130.457 227.555 132.547ZM204.105 96.7617L180 110.676L171.91 108.746L199.094 93.0703C200.82 94.1796 202.461 95.4101 204.105 96.7617ZM200.574 155.117L229.156 138.621C229.605 140.633 229.938 142.684 230.141 144.656L208.664 157.047L200.574 155.117ZM194.168 90.1992L168.254 105.137L162.547 103.207L188.789 88.0625C190.512 88.5976 192.32 89.2929 194.168 90.1992ZM201.312 167.144L230.469 150.316C230.469 152.246 230.305 154.094 230.059 155.777L207.02 169.07L201.312 167.144ZM176.918 87.5312C179.016 86.9961 181.273 86.832 183.656 87.039L158.523 101.523H152.609L176.918 87.5312ZM198.93 176.746L229.359 159.184C228.949 160.699 228.457 162.137 227.84 163.449L204.805 176.746H198.93ZM220.777 171.699L220.656 171.781C220.574 171.82 220.492 171.863 220.41 171.945L202.504 182.285H197.863L226.773 165.625C225.215 168.168 223.16 170.262 220.777 171.699Z" fill="#22DBDE"/>
<path d="M291.453 170.961C310.055 181.672 325.25 208.016 325.25 229.437C325.25 250.859 310.055 259.641 291.453 248.93C272.848 238.219 257.656 211.875 257.656 190.453C257.656 168.988 272.848 160.207 291.453 170.961ZM300.035 217.906C300.035 217.703 299.953 217.496 299.828 217.293C299.707 217.086 299.5 216.922 299.215 216.758L293.836 213.641V213.187L291.164 211.629V215.156L296.543 218.277C296.832 218.441 297.039 218.605 297.16 218.809C297.285 219.016 297.367 219.219 297.367 219.426C297.367 219.59 297.324 219.672 297.242 219.754L299.828 218.277L299.871 218.234C299.992 218.195 300.035 218.07 300.035 217.906ZM291.781 210.644L296.586 213.434C296.871 213.598 297.078 213.762 297.203 213.969C297.324 214.172 297.406 214.379 297.406 214.543C297.406 214.707 297.367 214.828 297.242 214.871L299.953 213.352C300.035 213.269 300.074 213.187 300.074 213.023C300.074 212.816 299.992 212.652 299.871 212.449C299.746 212.242 299.543 212.078 299.254 211.914L294.449 209.125L299.379 203.586L298.473 203.051L291.781 210.644ZM283.445 210.891C283.445 210.891 283.484 210.848 283.527 210.848C283.648 210.809 283.855 210.848 284.145 211.055L289.523 214.172V211.094L286.812 209.535C286.523 209.371 286.32 209.289 286.195 209.328C286.195 209.328 286.156 209.328 286.156 209.371C286.113 209.371 283.445 210.891 283.445 210.891ZM285.004 217.906L285.047 217.867L285.004 217.906ZM285.949 218.07L289.48 220.121V217.047L288.617 216.551C288.207 216.305 287.922 216.223 287.758 216.305C287.715 216.305 287.715 216.348 287.715 216.348L285.129 217.824C285.293 217.785 285.539 217.867 285.949 218.07ZM298.27 222.461C298.105 222.176 297.816 221.93 297.406 221.723L293.875 219.629V218.031L291.207 216.469V221.148L294.738 223.242C295.148 223.488 295.438 223.734 295.602 223.98C295.766 224.269 295.848 224.516 295.848 224.801C295.848 225.09 295.766 225.254 295.602 225.336L298.27 223.855C298.434 223.773 298.516 223.609 298.516 223.324C298.516 223.035 298.434 222.75 298.27 222.461ZM286.812 204.652C286.523 204.488 286.32 204.406 286.195 204.488L286.156 204.527L283.484 206.008C283.484 206.008 283.484 205.965 283.527 205.965C283.648 205.922 283.855 205.965 284.145 206.129L288.988 208.961L287.18 204.855L286.812 204.652ZM289.398 194.352C289.523 194.269 289.562 194.105 289.562 193.859C289.562 193.57 289.48 193.285 289.316 193.039C289.152 192.75 288.863 192.504 288.453 192.301L283.938 189.672C283.527 189.426 283.238 189.344 283.074 189.426L283.035 189.469L280.363 190.945C280.363 190.945 280.406 190.945 280.406 190.902C280.57 190.82 280.855 190.902 281.27 191.148L285.785 193.777C286.195 194.023 286.484 194.269 286.648 194.516C286.812 194.801 286.895 195.047 286.895 195.336C286.895 195.625 286.812 195.789 286.648 195.871C286.484 195.953 286.195 195.871 285.785 195.625L284.141 194.68L290.301 208.797L292.52 206.293L287.676 195.254L289.398 194.352ZM302.992 201.039C302.828 200.754 302.539 200.508 302.129 200.301L297.57 197.633C297.16 197.387 296.871 197.305 296.707 197.387C296.707 197.387 296.668 197.387 296.668 197.43L294 198.906C294 198.906 294 198.906 294.039 198.906C294.203 198.824 294.492 198.906 294.902 199.152L299.461 201.82C299.871 202.066 300.16 202.312 300.324 202.559C300.488 202.848 300.57 203.094 300.57 203.379C300.57 203.625 300.488 203.789 300.363 203.871L303.074 202.352C303.195 202.269 303.277 202.105 303.277 201.859C303.277 201.574 303.156 201.285 302.992 201.039ZM291.453 242.285C301.844 248.273 310.957 246.922 315.805 239.945C310.672 243.391 303.32 243.227 295.188 238.508C279.75 229.602 267.141 207.769 267.141 189.961C267.141 184.172 268.496 179.496 270.836 176.129C266.238 179.25 263.406 185.324 263.406 193.734C263.406 211.547 276.012 233.379 291.453 242.285ZM175.195 103.902C193.797 114.613 208.992 140.961 208.992 162.383C208.992 183.805 193.797 192.586 175.195 181.875C156.594 171.164 141.398 144.859 141.398 123.398C141.398 101.934 156.594 93.1913 175.195 103.902ZM177.617 158.195C177.781 158.074 177.863 157.828 177.863 157.336V154.461C177 154.34 176.016 154.012 174.988 153.476V158.976C174.988 159.43 174.906 159.715 174.742 159.84C174.742 159.84 174.742 159.84 174.703 159.84L177.617 158.195C177.578 158.195 177.578 158.195 177.617 158.195ZM173.84 139.441C175.934 140.223 177.289 140.551 177.945 140.426C178.727 140.305 179.18 139.687 179.219 138.582C178.562 138.418 177.742 138.172 176.715 137.801C174.621 137.019 173.223 136.609 172.484 136.57C171.703 136.488 171.09 136.609 170.637 136.898L167.762 138.539C168.254 138.254 168.871 138.129 169.609 138.211C170.348 138.293 171.746 138.703 173.84 139.441ZM171.582 129.676C171.621 129.676 171.664 129.633 171.664 129.594C171.129 129.469 170.676 129.469 170.227 129.551C169.488 129.676 169.074 130.086 168.992 130.742C168.953 131.07 168.828 131.277 168.707 131.359L171.582 129.676ZM177 149.496C175.152 148.391 173.676 147.035 172.609 145.434C171.539 143.832 171.008 142.355 171.008 141.004C171.008 140.797 171.008 140.59 171.047 140.387C170.883 140.344 170.719 140.305 170.594 140.305C169.734 140.223 169.117 140.344 168.746 140.758C168.336 141.168 168.172 141.781 168.172 142.644C168.172 143.957 168.707 145.434 169.773 147.074C170.844 148.719 172.32 150.07 174.168 151.137C175.977 152.207 177.414 152.617 178.438 152.41C179.508 152.207 180.039 151.715 180.121 150.973C180.121 150.891 180.121 150.809 180.164 150.726C179.219 150.644 178.191 150.195 177 149.496ZM171.867 125.859C171.867 125.488 171.785 125.16 171.621 124.875C171.457 124.586 171.254 124.383 171.047 124.258C170.801 124.137 170.637 124.094 170.473 124.176H170.43L167.559 125.816C167.723 125.734 167.926 125.734 168.172 125.898C168.379 126.023 168.582 126.23 168.746 126.516C168.91 126.805 168.992 127.133 168.992 127.5C169.773 127.379 170.473 127.379 171.047 127.461C171.621 127.582 172.363 127.828 173.266 128.281V125.898C173.266 125.816 173.266 125.777 173.266 125.734C172.855 125.777 172.402 125.777 171.867 125.859ZM182.137 132.426C181.066 130.539 179.59 128.937 177.824 127.664V125.285C177.824 124.832 177.742 124.465 177.578 124.176C177.414 123.891 177.207 123.684 176.961 123.519C176.715 123.355 176.508 123.355 176.344 123.437L173.594 125.039C173.715 124.996 173.879 125.039 174.086 125.16C174.332 125.324 174.539 125.531 174.703 125.816C174.867 126.105 174.949 126.476 174.949 126.926V129.305C176.754 130.578 178.191 132.18 179.262 134.066C180.328 135.953 180.902 137.719 180.902 139.32C180.902 140.758 180.574 141.66 179.875 142.109C179.875 142.109 182.176 140.797 182.586 140.551C182.586 140.551 182.629 140.551 182.629 140.508H182.668C183.406 140.059 183.777 139.113 183.777 137.637C183.777 136.035 183.242 134.312 182.137 132.426ZM184.641 150.398C184.641 149.949 184.559 149.578 184.395 149.293C184.23 149.004 184.023 148.801 183.777 148.637C183.531 148.512 183.324 148.473 183.16 148.555L180.285 150.195C180.453 150.113 180.656 150.113 180.902 150.277C181.148 150.441 181.355 150.644 181.52 150.934C181.684 151.219 181.766 151.59 181.766 152.043V155.695C181.766 156.144 181.684 156.434 181.52 156.516L184.352 154.871H184.395C184.559 154.789 184.641 154.504 184.641 154.051V150.398ZM181.477 156.555C181.52 156.555 181.477 156.555 181.477 156.555V156.555ZM175.195 175.269C185.586 181.262 194.703 179.906 199.547 172.93C194.414 176.375 187.062 176.211 178.934 171.492C163.492 162.59 150.883 140.758 150.883 122.945C150.883 117.16 152.238 112.48 154.578 109.117C149.98 112.234 147.148 118.309 147.148 126.723C147.148 144.531 159.754 166.363 175.195 175.269Z" fill="#22DBDE"/>
<path d="M252.77 175.145L258.641 161.645L226.156 142.891L210.02 146.992L252.77 175.145ZM201.684 145.312L207.555 141.945L226.117 138.375L220.902 143.586L201.684 145.312ZM236.094 184.297L240.039 182L258.602 206.992L252.727 210.355L233.551 201.328L210.266 189.344L201.641 171.164L207.516 167.801L236.094 184.297Z" fill="#EAE5FF"/>
<path d="M252.77 183.762L258.641 180.398V161.645L252.77 165.008L220.285 146.254L226.156 142.891V138.418L220.285 141.781L201.723 145.352L220.285 170.344L224.883 167.676L252.77 183.762ZM234.207 185.406L252.77 210.398L234.207 213.969V208.715L201.723 189.961V171.207L234.207 189.961V185.406Z" fill="#024BD6"/>
<path d="M0.359375 57.2305V118.016C0.359375 118.715 0.601562 119.195 1.00781 119.434L3.69531 120.973L7.17578 116.598L92.6523 68.7305C93.8555 68.0313 95.1484 64.5665 95.1484 63.1719V5.27739L97.2852 2.58208L94.5742 1.01958C94.1641 0.753951 93.6133 0.777389 92.9883 1.13676L2.54297 53.4805C1.34375 54.1524 0.359375 55.8594 0.359375 57.2305Z" fill="#EAE5FF"/>
<path d="M5.23444 55.0195L95.6798 2.70313C96.879 2.00392 97.8399 2.58204 97.8399 3.95313V64.7383C97.8399 66.1094 96.8555 67.8164 95.6798 68.4883L5.23444 120.805C4.03132 121.504 3.07429 120.926 3.07429 119.555V58.7969C3.04694 57.3984 4.03132 55.7149 5.23444 55.0195ZM52.1133 90.2578L87.086 70.0274V63.6524L52.1133 83.8828V90.2578ZM13.4649 64.7383L48.4376 44.4844V38.1094L13.4649 58.3399V64.7383Z" fill="#024BD6"/>
<path d="M85.1641 54.6562L85.1875 60.5742L83.918 61.3203C83.8203 61.3672 83.7734 61.418 83.7227 61.4883C83.6758 61.5625 83.6758 61.6094 83.6758 61.6836C83.6758 61.7305 83.6992 61.7773 83.7227 61.8008C83.7734 61.8242 83.8203 61.8008 83.918 61.7539L86.8203 60.0703C86.918 60.0234 86.9648 59.9727 87.0117 59.9023C87.0625 59.8281 87.0625 59.7812 87.0625 59.7109C87.0625 59.6367 87.0352 59.6133 87.0117 59.5898C86.9648 59.5664 86.918 59.5898 86.8203 59.6367L85.5469 60.3828L85.5234 55.043L86.7227 54.7773C86.7734 54.7539 86.8203 54.7539 86.8438 54.7305C86.8945 54.707 86.9414 54.6562 86.9648 54.5859C87.0117 54.5117 87.0117 54.4648 87.0117 54.418C87.0117 54.3711 86.9883 54.3203 86.9648 54.2969C86.9414 54.2734 86.8945 54.2734 86.8203 54.2969L85.1641 54.6562ZM78.2266 61.3945V62.4258C78.2266 63.3164 78.418 63.918 78.8047 64.2305C79.0898 64.4727 79.4766 64.4492 79.9297 64.1836C80.1484 64.0625 80.3633 63.8945 80.5547 63.6797C80.7461 63.4609 80.9141 63.2461 81.0352 62.9805C81.1328 62.8125 81.2031 62.5977 81.3242 62.2812C81.418 61.9688 81.4922 61.707 81.5391 61.4883C81.6133 61.1758 81.6367 60.8164 81.6367 60.4297V59.3984C81.6367 58.4844 81.4453 57.8828 81.0586 57.5937C80.7734 57.3516 80.3867 57.375 79.9297 57.6406C79.7148 57.7617 79.5 57.9297 79.3086 58.1445C79.1172 58.3633 78.9492 58.5781 78.8281 58.8437C78.7305 59.0117 78.6367 59.2266 78.5391 59.5391C78.4453 59.8281 78.3711 60.0937 78.3242 60.3359C78.25 60.6484 78.2266 61.0078 78.2266 61.3945ZM78.6133 61.2266C78.6133 60.8398 78.6602 60.4297 78.7539 60.0469C78.8516 59.6367 78.9727 59.3242 79.0898 59.0352C79.1641 58.8672 79.2578 58.7227 79.3789 58.5781C79.5469 58.3633 79.7383 58.1953 79.9297 58.0742C80.3398 57.832 80.6758 57.8828 80.9141 58.2187C81.1562 58.5547 81.2773 59.0352 81.2773 59.6836V60.5977C81.2773 60.9844 81.2266 61.3945 81.1328 61.7773C81.0352 62.1875 80.9141 62.5234 80.7969 62.7891C80.7227 62.9336 80.6289 63.1016 80.5078 63.2461C80.3398 63.4609 80.1484 63.6289 79.9297 63.75C79.5234 63.9922 79.1875 63.9414 78.9492 63.6055C78.707 63.2695 78.5859 62.7656 78.5859 62.1406L78.6133 61.2266ZM72.9961 64.543C73.1875 64.8086 73.4258 64.9766 73.6914 65C73.9531 65.0508 74.2188 64.9766 74.5078 64.8086C74.7695 64.6641 75.0117 64.4219 75.25 64.1367C75.4922 63.8242 75.6836 63.4844 75.8281 63.0781C75.9727 62.668 76.043 62.3086 76.043 61.9453C76.043 61.4414 75.8984 61.0547 75.6094 60.793C75.3242 60.5273 74.9375 60.5508 74.4844 60.8164C74.1484 61.0078 73.8359 61.2969 73.5703 61.707C73.3086 62.0898 73.0898 62.5703 72.9219 63.1016C72.7305 63.7969 72.6328 64.5195 72.6328 65.2656C72.6328 65.8672 72.7305 66.3008 72.8984 66.5898C73.0195 66.7812 73.1875 66.9492 73.4023 67.0703C73.6172 67.1914 73.8594 67.2617 74.1484 67.2617C74.5078 67.2617 74.9141 67.1406 75.3008 66.9023C75.5625 66.7578 75.7773 66.5664 75.9453 66.3477C76.0195 66.25 76.0664 66.1562 76.0664 66.082C76.0664 66.0352 76.043 65.9883 76.0195 65.9648C75.9961 65.9375 75.9453 65.9648 75.8984 65.9883C75.875 66.0117 75.8047 66.0586 75.7539 66.1328C75.6367 66.25 75.5156 66.3711 75.3477 66.4688C74.7227 66.8281 74.1719 66.9023 73.7383 66.6367C73.3086 66.3711 73.0664 65.8906 73.043 65.1211C72.9688 65 72.9688 64.7852 72.9961 64.543ZM73.043 63.7969C73.1875 63.0273 73.3789 62.4766 73.6172 62.0898C73.8594 61.707 74.1211 61.4414 74.4336 61.25C74.7461 61.0547 75.0352 61.0547 75.2734 61.2266C75.5156 61.3945 75.6367 61.707 75.6367 62.1641C75.6367 62.6211 75.5156 63.0547 75.2734 63.4844C75.0352 63.918 74.7695 64.2305 74.457 64.3984C74.2891 64.4961 74.1211 64.543 73.9531 64.543C73.7852 64.543 73.6172 64.4727 73.4766 64.3516C73.3789 64.2539 73.2344 64.0859 73.043 63.7969ZM68.3125 67.5508C68 67.8867 67.7852 68.25 67.6172 68.6328C67.4727 68.9922 67.3789 69.3555 67.3789 69.668C67.3789 70.1719 67.5469 70.4844 67.8828 70.6523C68.2188 70.8203 68.625 70.7734 69.082 70.5078C69.5625 70.2461 69.9453 69.8125 70.2812 69.2578C70.6172 68.707 70.7617 68.1758 70.7617 67.6953C70.7617 67.3828 70.6914 67.1406 70.5234 66.9492C70.3555 66.7578 70.1367 66.6836 69.8008 66.6836C70.0664 66.3477 70.2578 66.0586 70.4023 65.793C70.5703 65.4336 70.668 65.0742 70.6406 64.7617C70.6406 64.3047 70.4727 63.9922 70.1641 63.8242C69.8516 63.6523 69.4648 63.7031 69.0352 63.9648C68.5781 64.2305 68.2188 64.6172 67.9062 65.1445C67.5938 65.6758 67.4492 66.1562 67.4492 66.6133C67.4492 66.9492 67.5469 67.1914 67.7148 67.3594C67.8594 67.4531 68.0508 67.5273 68.3125 67.5508ZM67.7617 69.4492C67.7617 69.0898 67.8828 68.6797 68.1445 68.2734C68.3867 67.8633 68.7227 67.5273 69.082 67.3086C69.4648 67.0938 69.7773 67.0469 70.0195 67.1641C70.2578 67.2852 70.4023 67.5273 70.4023 67.9102C70.4023 68.2969 70.2812 68.6797 70.0195 69.1133C69.7539 69.5469 69.4414 69.8594 69.082 70.0781C68.6992 70.293 68.3867 70.3398 68.1445 70.1953C67.9062 70.0781 67.7617 69.8125 67.7617 69.4492ZM67.8594 66.3945C67.8594 66.0352 67.9766 65.6523 68.2188 65.2656C68.457 64.8789 68.7461 64.5664 69.082 64.375C69.418 64.1836 69.707 64.1367 69.9453 64.2539C70.1875 64.375 70.3047 64.6172 70.3047 64.9531C70.3047 65.2891 70.1875 65.625 69.9688 66.0117C69.7305 66.3945 69.4414 66.6836 69.1055 66.8789C68.7461 67.0703 68.457 67.1172 68.2188 67.0234C67.9766 66.9258 67.8594 66.707 67.8594 66.3945ZM56.9844 71.7344V71.543L59.6484 70.0039V70.3633C59.6484 70.4609 59.6719 70.5352 59.6953 70.5586C59.7227 70.582 59.7695 70.582 59.8398 70.5352C59.8906 70.5078 59.9375 70.4609 59.9609 70.3906C59.9844 70.3164 60.0078 70.2461 60.0078 70.1484V69.3555L56.6016 71.3281V72L58.1133 76.5C58.1367 76.5703 58.1602 76.6172 58.207 76.6172C58.2344 76.6172 58.2812 76.6172 58.3281 76.5938C58.375 76.5703 58.4258 76.5234 58.4727 76.4492C58.4961 76.3789 58.5195 76.332 58.5195 76.2812C58.5195 76.2578 58.5195 76.2109 58.4961 76.1602L56.9844 71.7344ZM53.9102 76.5C53.6719 76.2578 53.4336 76.1133 53.1914 76.0664C52.9531 76.0195 52.6875 76.0898 52.375 76.2578C51.9922 76.5 51.6328 76.8828 51.3203 77.4141C51.0078 77.9648 50.8633 78.4961 50.8633 79.0469C50.8633 79.5547 51.0078 79.9141 51.2969 80.1797C51.582 80.418 51.9688 80.418 52.4492 80.1328C52.7617 79.9375 53.0703 79.6484 53.3359 79.2656C53.625 78.8789 53.8398 78.4219 53.9844 77.8711C54.1758 77.1719 54.2734 76.5 54.2734 75.8008C54.2734 75.2734 54.1758 74.8398 53.9844 74.5039C53.8398 74.2383 53.6484 74.0469 53.4062 73.9023C53.168 73.7812 52.9023 73.707 52.5898 73.7344C52.2812 73.7578 51.9453 73.8516 51.582 74.0703C51.3438 74.2148 51.1289 74.3828 50.9609 74.5977C50.8867 74.6953 50.8633 74.7656 50.8633 74.8633C50.8633 74.9102 50.8867 74.9609 50.9102 74.9844C50.9375 75.0078 50.9844 75.0078 51.0312 74.9609C51.0781 74.9336 51.1055 74.8867 51.1758 74.8398C51.2969 74.6953 51.4414 74.5742 51.6328 74.4766C52.207 74.1406 52.7344 74.1172 53.2148 74.4062C53.6953 74.6953 53.9375 75.1992 53.9375 75.9688C53.9375 76.0898 53.9375 76.2578 53.9102 76.5ZM53.8398 77.2461C53.7188 77.918 53.5508 78.4453 53.3125 78.8555C53.0703 79.2656 52.7852 79.5547 52.4727 79.7461C52.1367 79.9375 51.8477 79.9609 51.6328 79.793C51.3906 79.6484 51.2734 79.3359 51.2734 78.8555C51.2734 78.4219 51.3906 77.9883 51.6094 77.582C51.8477 77.1484 52.1133 76.8594 52.3984 76.6914C52.6875 76.5234 52.9531 76.5 53.2148 76.6172C53.4062 76.6914 53.625 76.9062 53.8398 77.2461ZM48.3906 76.5234L48.4141 78.5664C48.1992 78.5898 47.9844 78.6406 47.793 78.7109C47.5977 78.7852 47.4062 78.8555 47.2148 78.9766C46.7578 79.2422 46.3516 79.6484 46.0391 80.2031C45.7266 80.7578 45.582 81.332 45.582 81.9336C45.582 82.6094 45.7734 83.043 46.1094 83.2344C46.4727 83.4492 46.9023 83.3789 47.4297 83.0898C47.793 82.8984 48.1289 82.6094 48.4375 82.2461C48.6797 81.9844 48.8711 81.7188 49.0625 81.4297C49.1836 81.2617 49.2305 81.1406 49.2305 81.0703C49.2305 81.0195 49.207 80.9727 49.1836 80.9492C49.1602 80.9258 49.1094 80.9258 49.0625 80.9492C49.0156 80.9727 48.9688 81.0469 48.8945 81.1406C48.4648 81.8633 47.9609 82.3906 47.4531 82.6797C47.0234 82.9219 46.6641 82.9688 46.375 82.8008C46.0859 82.6328 45.9414 82.2734 45.9414 81.7188C45.9414 81.2383 46.0625 80.8047 46.3047 80.3711C46.543 79.9375 46.8555 79.625 47.2383 79.4102C47.625 79.1914 48.0078 79.0742 48.3906 79.0742C48.4883 79.0742 48.5586 79.0469 48.582 79.0469C48.6328 79.0234 48.6797 78.9766 48.7031 78.9023C48.7266 78.8555 48.75 78.7852 48.75 78.7109L48.7266 75.9453L46.1367 77.4375C46.0391 77.4844 45.9922 77.5312 45.9414 77.6055C45.8945 77.6758 45.8945 77.7266 45.8945 77.7969C45.8945 77.8477 45.918 77.8945 45.9414 77.918C45.9922 77.9414 46.0391 77.918 46.1367 77.8711L48.3906 76.5234ZM41.2852 84.75L43.7344 83.332V82.8477L41.6445 80.0352L40.8789 80.4922L40.9023 84.582L40.5898 84.75C40.4922 84.7969 40.4453 84.8711 40.3984 84.918C40.3516 84.9883 40.3516 85.0391 40.3516 85.1094C40.3516 85.1562 40.375 85.207 40.3984 85.2305C40.4453 85.2539 40.4922 85.2305 40.5898 85.1836L40.9023 85.0156V86.3359L40.5898 86.5039C40.4922 86.5547 40.4453 86.625 40.3984 86.6719C40.3516 86.7461 40.3516 86.793 40.3516 86.8672C40.3516 86.9141 40.375 86.9609 40.3984 86.9844C40.4453 87.0117 40.4922 86.9844 40.5898 86.9375L41.957 86.1445C42.0547 86.0977 42.1016 86.0234 42.1484 85.9766C42.1992 85.9023 42.1992 85.8555 42.1992 85.7852C42.1992 85.7109 42.1758 85.6875 42.1484 85.6641C42.1016 85.6406 42.0547 85.6641 41.957 85.7109L41.2617 86.1211L41.2852 84.75ZM41.2852 84.3398L41.2617 80.6836L41.4531 80.5625L43.3516 83.1367L41.2852 84.3398ZM30.3398 89.4414C30.0039 89.8008 29.7422 90.2109 29.5742 90.5938C29.4062 91.0039 29.3086 91.3633 29.3086 91.6758C29.3086 92.1836 29.5 92.5195 29.8594 92.6875C30.2188 92.8555 30.6758 92.7852 31.2305 92.4688C31.5391 92.2773 31.875 92.0117 32.2148 91.6758C32.5508 91.3164 32.7891 91.0273 32.9336 90.7852C32.9805 90.7148 33.0039 90.6406 33.0039 90.5703C33.0039 90.5234 32.9805 90.4727 32.957 90.4492C32.9336 90.4258 32.8867 90.4258 32.8359 90.4492C32.7891 90.4727 32.7422 90.5234 32.668 90.6172C32.2148 91.2695 31.7344 91.7266 31.2305 92.0391C30.7969 92.2773 30.4375 92.3516 30.1484 92.207C29.8594 92.0625 29.7148 91.8203 29.7148 91.4375C29.7148 91.1953 29.7891 90.9062 29.9336 90.5703C30.0781 90.2578 30.2695 89.9453 30.5586 89.6562C30.8203 89.3672 31.0859 89.1289 31.3711 88.9844C31.4688 88.9336 31.5156 88.8867 31.5664 88.8125C31.6133 88.7422 31.6133 88.6953 31.6133 88.6211C31.6133 88.5742 31.5898 88.5273 31.5664 88.5C31.5391 88.4766 31.4688 88.5 31.3984 88.5508L31.0859 88.7422C30.75 88.9336 30.4844 88.9844 30.2695 88.8867C30.0508 88.7891 29.9336 88.5742 29.9336 88.2852C29.9336 87.9727 30.0508 87.6367 30.2695 87.25C30.4844 86.8906 30.7969 86.5781 31.1562 86.3867C31.4219 86.2422 31.6367 86.1445 31.8516 86.1211C32.0703 86.0977 32.2383 86.1211 32.3828 86.2148C32.4297 86.2656 32.4531 86.2656 32.5 86.2656C32.5508 86.2656 32.5508 86.2656 32.5977 86.2422C32.6445 86.2148 32.6914 86.168 32.7188 86.1211C32.7422 86.0703 32.7656 86 32.7656 85.9531C32.7656 85.8086 32.6445 85.7344 32.3828 85.6641C32.0195 85.5898 31.6133 85.6875 31.1562 85.9531C30.6992 86.2148 30.3164 86.6016 30.0039 87.1055C29.7148 87.5859 29.5469 88.0703 29.5742 88.5C29.5742 88.7891 29.6445 89.0078 29.7891 89.1758C29.9336 89.3438 30.0781 89.4414 30.3398 89.4414ZM27.293 94.2031L24.4375 95.8633V95.6953C24.4375 95.5977 24.4102 95.5234 24.3867 95.5C24.3633 95.4766 24.3164 95.4766 24.2422 95.5234C24.1953 95.5508 24.1484 95.5977 24.1016 95.668C24.0742 95.7422 24.0508 95.8125 24.0508 95.9102V96.4883L27.6289 94.3945V93.7695C26.8594 93.4336 26.1406 93.0977 25.4219 92.7109C25.082 92.543 24.8438 92.3984 24.7227 92.3008C24.6055 92.207 24.5078 92.1094 24.4609 91.9883C24.4102 91.8945 24.3867 91.7734 24.3867 91.6289C24.3867 91.2695 24.5078 90.8828 24.7734 90.4492C25.0352 90.0156 25.3242 89.7031 25.707 89.4883C26.0195 89.2969 26.3086 89.2461 26.5703 89.2969C26.8125 89.3672 26.9805 89.5117 27.0508 89.8008C27.0781 89.8711 27.1016 89.8984 27.125 89.9219C27.1484 89.9453 27.1953 89.9219 27.2461 89.8984C27.293 89.8711 27.3398 89.8242 27.3633 89.7773C27.3867 89.7266 27.4141 89.6562 27.4141 89.6094C27.4141 89.4414 27.3398 89.2695 27.1719 89.1016C27.0039 88.9336 26.8125 88.8398 26.5234 88.8398C26.2617 88.8398 25.9727 88.9336 25.6836 89.0781C25.2266 89.3438 24.8203 89.7539 24.4844 90.3047C24.1484 90.8594 23.9805 91.3633 24.0039 91.8203C24.0039 92.0117 24.0273 92.1836 24.1016 92.3008C24.1484 92.4219 24.2422 92.543 24.3867 92.6641C24.5312 92.7852 24.7734 92.9258 25.1094 93.0977C25.9961 93.5547 26.6914 93.8906 27.2461 94.1055L27.293 94.2031ZM20.0664 92.4688L20.0898 98.3867L18.8203 99.1328C18.7227 99.1797 18.6758 99.2305 18.6289 99.3008C18.5781 99.375 18.5781 99.4219 18.5781 99.4961C18.5781 99.543 18.6016 99.5898 18.6289 99.6133C18.6758 99.6367 18.7227 99.6133 18.8203 99.5664L21.7227 97.8828C21.8203 97.8359 21.8672 97.7852 21.9141 97.7148C21.9648 97.6406 21.9648 97.5938 21.9648 97.5234C21.9648 97.4492 21.9414 97.4258 21.9141 97.4023C21.8672 97.3789 21.8203 97.4023 21.7227 97.4492L20.4531 98.1953L20.4258 92.8555L21.6289 92.5898C21.6758 92.5664 21.7227 92.5664 21.7461 92.543C21.7969 92.5195 21.8437 92.4688 21.8672 92.3984C21.9141 92.3281 21.9141 92.2773 21.9141 92.2305C21.9141 92.1836 21.8906 92.1328 21.8672 92.1094C21.8437 92.0859 21.7969 92.0859 21.7227 92.1094L20.0664 92.4688ZM13.1289 99.207V100.238C13.1289 101.129 13.3203 101.73 13.707 102.043C13.9961 102.285 14.3789 102.262 14.8359 101.996C15.0508 101.875 15.2656 101.707 15.457 101.492C15.6523 101.273 15.8203 101.059 15.9375 100.793C16.0352 100.625 16.1055 100.41 16.2266 100.094C16.3242 99.7812 16.3945 99.5195 16.4414 99.3008C16.5156 98.9883 16.5391 98.6289 16.5391 98.2422V97.2109C16.5391 96.2969 16.3477 95.6953 15.9609 95.4062C15.6758 95.1641 15.2891 95.1875 14.8359 95.4531C14.6172 95.5742 14.4023 95.7422 14.2109 95.957C14.0195 96.1758 13.8516 96.3906 13.7305 96.6562C13.6328 96.8242 13.5391 97.0391 13.4414 97.3516C13.3477 97.6406 13.2734 97.9062 13.2266 98.1484C13.1523 98.4609 13.1289 98.8203 13.1289 99.207ZM13.4922 99.0391C13.4922 98.6523 13.5391 98.2422 13.6328 97.8594C13.7305 97.4492 13.8516 97.1367 13.9688 96.8477C14.043 96.6797 14.1367 96.5352 14.2578 96.3906C14.4258 96.1758 14.6172 96.0078 14.8086 95.8867C15.2187 95.6445 15.5547 95.6953 15.793 96.0312C16.0352 96.3672 16.1562 96.8477 16.1562 97.4961V98.4102C16.1562 98.7969 16.1055 99.207 16.0117 99.5898C15.9141 100 15.793 100.336 15.6758 100.602C15.6016 100.746 15.5078 100.914 15.3867 101.059C15.2187 101.273 15.0273 101.441 14.8086 101.562C14.4023 101.805 14.0664 101.754 13.8281 101.418C13.5859 101.082 13.4648 100.578 13.4648 99.9531L13.4922 99.0391Z" fill="white"/>
<path d="M67.1367 30.8673C67.1367 34.4766 69.6836 35.9454 72.7773 34.1407C75.8984 32.336 78.418 27.9337 78.418 24.3243C78.418 20.7188 75.8984 19.2501 72.8008 21.0548C69.707 22.8594 67.1367 27.2618 67.1367 30.8673Z" fill="#22DBDE"/>
<path d="M19.5859 75.2462L14.7383 78.0391C14.043 78.4454 13.4648 79.4337 13.4648 80.2501V83.1133L19.5859 79.5782V75.2462ZM20.2109 79.1915V74.8868L25.6836 71.711V85.4219L20.2109 88.5977V79.1915ZM32.4531 76.4258L26.332 79.961V76.379L32.4531 72.8438V76.4258ZM26.332 80.7071L32.4531 77.1719V80.0352C32.4531 80.8516 31.875 81.8399 31.1797 82.2462L26.332 85.0391V80.7071ZM13.4648 83.8594L19.5859 80.3008V83.8829L13.4648 87.418V83.8594ZM19.5859 84.629V88.9337L14.7383 91.7266C14.043 92.1329 13.4648 91.7969 13.4648 90.9805V88.1641L19.5859 84.629ZM26.332 75.6563V71.3516L31.1797 68.5626C31.875 68.1524 32.4531 68.4883 32.4531 69.3087V72.1446L26.332 75.6563ZM81.4453 16.004C84.5625 14.1993 87.0859 15.668 87.0859 19.2735C87.0859 22.8829 84.5391 27.2852 81.4453 29.0899C78.3242 30.8946 75.8047 29.4258 75.8047 25.8165C75.8047 22.211 78.3477 17.8087 81.4453 16.004Z" fill="#22DBDE"/>
</svg>
