<svg width="373" height="505" viewBox="0 0 373 505" fill="none" xmlns="http://www.w3.org/2000/svg">
<path d="M50.0859 25.6484L44.2461 98.6172L47.9922 217.359C47.9922 217.359 342.945 407.066 344.426 407.59C345.906 408.113 344.426 293.469 344.949 229.828C345.473 166.184 309.648 175.078 300.496 166.969L50.0859 25.6484Z" fill="white"/>
<path d="M21.1484 201.316L30.125 212.914L40.6719 198.266L41.1953 198.004V20.6797C41.1953 16.9297 43.5469 13.9648 46.5977 12.7461C48.8633 11.8711 58.1016 8.82029 60.543 10.2148L336.93 166.793C349.742 174.203 351.746 194.258 361.77 204.543L371.969 407.414C361.859 415.785 349.828 429.648 346.953 431.566C343.727 433.742 339.281 434.266 335.359 432L259.094 387.973C258.922 388.148 258.66 388.324 258.398 388.496L214.383 413.691C210.895 415.699 206.539 415.699 203.051 413.691L105.43 357.375C104.125 356.676 103.516 355.195 103.516 354.059V344.469L100.723 339.762L149.449 343.945L149.535 324.68L114.32 304.367L96.6289 307.332L95.7578 293.73L58.2773 272.109C49.9961 267.316 44.2461 259.469 42.0664 250.402L26.0273 239.328L16.4414 204.02L21.1484 201.316ZM208.629 227.996L209.066 227.734V218.93L204.793 216.488L208.629 227.996ZM174.113 218.32L195.383 210.996L174.113 198.617V218.32ZM174.113 197.57L196.516 210.559L197.387 210.297L201.918 207.684L204.359 215.18L209.066 217.883V177.777L174.113 157.465V197.57ZM174.113 156.418L209.152 176.734V135.844L174.199 115.617V156.418H174.113ZM173.242 217.359V198.094L167.227 194.605L173.242 217.359ZM138.289 185.887L145.352 181.965L138.289 177.867V185.887ZM138.289 176.734L146.309 181.355L156.941 175.426L161.477 172.809L166.879 193.297L173.242 196.961V156.855L138.289 136.543V176.734ZM138.289 135.582L173.242 155.898V115.184L138.289 94.957V135.582ZM137.332 185.449V177.258L128.004 171.852L137.332 185.449ZM102.379 178.914L127.047 171.242L102.379 156.941V178.914ZM102.379 155.898L137.332 176.211V136.105L102.379 115.793V155.898ZM102.379 114.746L137.332 135.059V94.4336L102.379 74.207V114.746ZM96.8008 180.656L101.422 179.176V156.418L84.6875 146.656L96.8008 180.656ZM66.4688 187.719L75.0117 213.262L75.2734 213.086L77.1055 183.445L66.3828 177.258V187.719H66.4688ZM66.4688 176.211L77.1914 182.488L79.3711 147.266L82.5078 145.523L66.4688 136.195V176.211ZM66.4688 135.059L83.4648 144.91L83.9883 144.648L84.25 145.348L101.508 155.375V115.27L66.5586 94.957V135.059H66.4688ZM66.4688 93.8242L101.422 114.137V73.6836L66.4688 53.457V93.8242ZM52.0898 202.887L56.0977 172.809L60.6289 170.195L65.5977 184.93V51.8906L245.672 155.898L245.934 156.07V322.937L205.926 299.832L208.02 309.859L338.848 385.445V214.57C338.848 203.496 332.922 193.211 323.332 187.719L58.8867 34.8867C55.8359 33.1445 52.0898 35.3242 52.0898 38.8125V202.887ZM230.246 272.371L238.699 312.387L234.168 315.004V315.09L245.062 321.367V281.004L230.246 272.371ZM244.977 279.867V239.766L220.223 225.379L229.898 271.152L244.977 279.867ZM217.082 223.551L210.023 219.453V227.297L217.082 223.551ZM218.043 223.027L219.613 222.156L220.047 224.16L245.062 238.719V198.617L210.109 178.301V218.406L218.043 223.027ZM244.977 197.57V156.594L210.023 136.367V177.258L244.977 197.57ZM254.215 322.152C254.301 323.109 254.562 324.07 255.172 325.027C255.871 326.25 256.828 327.207 257.961 327.82C258.922 328.34 259.617 328.516 260.227 328.34C260.75 328.168 261.102 327.645 261.102 326.859L259.793 325.988C259.707 326.598 259.531 326.945 259.184 327.035C258.832 327.121 258.398 327.035 257.875 326.773C257.266 326.422 256.742 325.902 256.305 325.203C255.871 324.504 255.609 323.809 255.523 323.023C255.434 322.324 255.609 321.891 256.043 321.715C256.395 321.543 256.918 321.629 257.613 321.977C258.051 322.238 258.398 322.5 258.746 322.848C259.094 323.199 259.355 323.633 259.531 323.984L260.75 324.504L259.445 318.664L254.301 315.699L254.387 316.922L258.484 319.273L259.184 322.324C258.574 321.543 257.875 320.93 257.18 320.582C256.305 320.059 255.523 319.887 255 320.148C254.477 320.582 254.215 321.191 254.215 322.152ZM264.762 276.383L263.977 275.945L264.586 286.234L265.895 286.93L265.371 278.91C265.719 279.344 266.156 279.867 266.59 280.48C267.113 281.09 267.551 281.523 267.984 281.875L267.898 280.652C267.203 279.957 266.504 279.172 265.98 278.387C265.371 277.602 264.934 276.906 264.762 276.383ZM254.91 271.848C255.172 271.586 255.523 271.5 255.871 271.5C256.305 271.5 256.742 271.672 257.266 272.023C258.051 272.457 258.66 272.98 259.184 273.68C259.707 274.375 260.141 275.16 260.402 276.031C260.664 276.906 260.926 277.949 260.926 279.172C261.012 281.09 260.75 282.309 260.141 282.746C259.617 283.094 258.832 283.008 257.875 282.484C257.09 282.047 256.48 281.523 255.957 280.828C255.434 280.129 255 279.344 254.738 278.473C254.477 277.602 254.215 276.555 254.215 275.336C254.129 274.289 254.215 273.59 254.301 273.07C254.477 272.547 254.648 272.109 254.91 271.848ZM255.609 276.031C255.695 277.687 255.957 278.91 256.395 279.695C256.828 280.48 257.352 281.004 257.875 281.352C258.484 281.699 258.922 281.699 259.27 281.352C259.617 281.004 259.793 280.043 259.617 278.387C259.531 276.73 259.184 275.422 258.746 274.551C258.398 273.852 257.875 273.332 257.266 272.98C256.656 272.633 256.219 272.633 255.871 272.98C255.609 273.418 255.434 274.375 255.609 276.031ZM265.809 246.129L265.285 238.109C265.633 238.543 266.066 239.066 266.504 239.68C267.027 240.289 267.461 240.723 267.898 241.074L267.812 239.852C267.113 239.156 266.418 238.371 265.895 237.586C265.371 236.801 264.934 236.105 264.672 235.582L263.891 235.145L264.5 245.434L265.809 246.129ZM256.305 239.156C255.871 238.457 255.609 237.762 255.523 236.977C255.434 236.277 255.609 235.844 256.043 235.668C256.395 235.492 256.918 235.582 257.613 235.93C258.051 236.191 258.398 236.453 258.746 236.887C259.094 237.238 259.355 237.672 259.531 238.023L260.75 238.543L259.445 232.703L254.301 229.738L254.387 230.961L258.484 233.312L259.184 236.363C258.574 235.582 257.875 234.969 257.18 234.621C256.305 234.098 255.523 233.926 254.91 234.187C254.301 234.445 254.039 235.059 254.129 236.016C254.215 236.977 254.477 237.934 255.086 238.895C255.785 240.113 256.742 241.074 257.875 241.684C258.832 242.207 259.531 242.379 260.141 242.207C260.664 242.031 261.012 241.508 261.012 240.723L259.707 239.852C259.617 240.461 259.445 240.812 259.094 240.898C258.746 240.984 258.312 240.898 257.789 240.637C257.352 240.375 256.828 239.852 256.305 239.156ZM262.234 196.262C262.234 196.699 262.406 197.133 262.582 197.57C262.758 198.094 263.105 198.617 263.539 199.312C263.977 200.012 264.672 200.969 265.633 202.277C266.418 203.324 266.941 204.02 267.203 204.371C267.461 204.719 267.637 205.066 267.812 205.328L262.758 202.363L262.844 203.586L269.641 207.508C269.641 207.246 269.555 206.898 269.469 206.551C269.293 206.027 268.945 205.414 268.508 204.719C268.074 204.02 267.551 203.234 266.766 202.191C265.547 200.621 264.762 199.488 264.324 198.703C263.891 197.918 263.629 197.309 263.629 196.871C263.629 196.348 263.715 196.086 264.062 195.914C264.41 195.738 264.848 195.914 265.457 196.176C266.066 196.523 266.59 196.961 266.941 197.57C267.289 198.18 267.551 198.789 267.551 199.398L268.855 200.012C268.684 198.965 268.336 198.094 267.723 197.219C267.113 196.348 266.328 195.652 265.371 195.129C264.41 194.52 263.629 194.344 263.105 194.605C262.406 194.953 262.145 195.391 262.234 196.262ZM254.91 190.508C255.172 190.246 255.523 190.16 255.871 190.16C256.305 190.16 256.742 190.332 257.266 190.684C258.051 191.117 258.66 191.641 259.184 192.34C259.707 193.035 260.141 193.82 260.402 194.691C260.664 195.562 260.926 196.609 260.926 197.832C261.012 199.75 260.75 200.969 260.141 201.406C259.617 201.754 258.832 201.668 257.875 201.145C257.09 200.707 256.48 200.184 255.957 199.488C255.434 198.789 255 198.004 254.738 197.133C254.477 196.262 254.215 195.215 254.215 193.996C254.129 192.949 254.215 192.25 254.301 191.727C254.477 191.117 254.648 190.77 254.91 190.508ZM255.609 194.691C255.695 196.348 255.957 197.57 256.395 198.355C256.828 199.137 257.352 199.66 257.875 200.012C258.484 200.359 258.922 200.359 259.27 200.012C259.617 199.66 259.793 198.703 259.617 197.047C259.531 195.391 259.184 194.082 258.746 193.211C258.398 192.512 257.875 191.988 257.266 191.641C256.656 191.293 256.219 191.293 255.871 191.641C255.609 191.988 255.434 192.949 255.609 194.691Z" fill="#024BD6"/>
<path d="M174.551 366.441L171.848 370.363V380.039C171.762 384.398 174.637 388.844 180.391 392.16C184.922 394.773 190.586 396.344 196.516 396.867C205.406 400.266 217.172 397.824 224.059 393.902C229.809 390.676 234.43 385.445 234.43 381.086L230.508 371.41V370.363L227.105 365.48C226.148 364.695 221.008 359.902 219.871 359.203C208.453 352.578 190.324 354.582 178.906 361.211C177.688 361.906 175.508 365.656 174.551 366.441ZM232.426 399.57C243.844 392.941 260.664 392.941 272.082 399.57C273.301 400.266 276.266 404.625 277.227 405.41L281.496 410.117V419.883C281.496 424.242 278.621 428.602 272.953 431.914C261.535 438.539 242.797 438.539 231.379 431.914C225.625 428.602 222.75 424.152 222.836 419.797V410.117L227.105 404.973C228.066 404.191 231.203 400.266 232.426 399.57ZM4.58594 309.684C5.54687 308.898 11.125 304.543 12.3438 303.844C23.7617 297.219 39.8867 299.398 51.3047 305.938C52.5234 306.633 54.4414 309.945 55.3125 310.645L59.2344 314.914V321.367H59.8477C59.4961 320.234 59.2344 319.102 59.2344 317.969V308.203L63.0703 302.363C64.0312 301.578 69.7812 297.391 70.9141 296.695C78.1484 292.512 87.1289 291.898 95.7578 293.645L114.32 304.367L117.98 308.203V317.879C117.98 320.668 116.938 323.461 114.582 325.988V331.043C114.672 335.402 112.055 341.418 103.516 341.07C103.516 342.727 103.602 343.512 103.516 344.559C92.0078 349.875 75.0977 349.441 64.4648 343.25C59.3242 340.285 56.5352 336.535 56.0117 332.613C54.7031 334.094 52.875 335.492 50.6953 336.797C39.2773 343.426 20.5352 343.426 9.11719 336.797C3.36719 333.484 0.578125 329.125 0.578125 324.766V315.004L4.58594 309.684ZM75.0117 213.262L70.4805 199.66V162.434L79.457 147.18L92.2695 183.184L122.949 173.68L133.234 188.676L156.855 175.426L168.973 221.109L197.387 210.297L204.098 230.699L214.992 224.855L234.082 315.004L205.578 298.527L195.555 250.312L178.211 232.355L174.723 222.852L149.012 225.031L141.168 208.207L122.168 215.004L108.395 194.082L75.0117 213.262Z" fill="#22DBDE"/>
<path d="M346.953 431.566L366.738 420.145C369.875 418.312 372.141 414.914 372.141 410.727L371.621 197.219C371.621 182.488 363.688 168.801 350.875 161.477L73.3555 2.10937C70.5664 0.539058 67.5156 0.714841 64.9883 2.01953L64.9023 2.10937C64.8125 2.10937 64.8125 2.19531 64.7266 2.19531L46.5977 12.7461C48.8633 11.8711 51.5664 11.8711 54.0078 13.2656L331.09 173.332C343.902 180.742 351.746 194.344 351.746 209.164V422.672C351.746 426.508 349.828 429.648 346.953 431.566ZM105.52 344.383L172.195 382.918C171.934 381.957 171.848 381 171.848 380.129V370.449L174.551 366.527C175.508 365.742 177.688 361.992 178.82 361.297C185.359 357.547 193.988 355.281 202.355 355.281L183.266 344.297L180.215 346.039L149.535 324.766L138.727 318.578L105.52 337.758C102.902 339.152 102.902 342.902 105.52 344.383ZM221.965 392.246C227.719 388.934 230.508 384.574 230.508 380.215V371.41L248.027 381.523L214.469 400.789C210.984 402.793 206.625 402.793 203.137 400.789L196.516 396.953C205.492 397.738 215.078 396.168 221.965 392.246ZM157.816 273.59L153.281 276.207L145.004 282.223L135.852 253.016L99.6797 268.359L91.4844 263.652L83.9883 249.617H67.168L65.6875 248.746L45.2031 195.738L43.4609 196.699V182.922L56.0117 172.809L70.3945 215.879L103.773 196.609L117.547 217.535L136.547 210.734L144.391 227.559L170.105 225.469L173.59 234.969L191.109 252.93L207.234 330.434L171.934 310.035L157.816 273.59Z" fill="#1157F5"/>
<path d="M9.20716 303.234C20.6251 296.609 39.3634 296.609 50.7814 303.234C55.9259 306.199 58.715 310.035 59.2345 313.871L59.3244 313.781V318.055C59.3244 322.414 62.1993 326.773 67.8634 330.086C79.2814 336.711 98.0236 336.711 109.442 330.086C110.66 329.387 111.707 328.602 112.664 327.82C111.27 330 109.004 332.004 106.043 333.746C94.6251 340.371 75.8829 340.371 64.465 333.746C59.3244 330.781 56.5353 326.945 56.0119 323.109C54.7033 324.594 52.8751 325.988 50.6954 327.297C39.2775 333.922 20.5353 333.922 9.11732 327.297C-2.30065 320.668 -2.2108 309.859 9.20716 303.234ZM34.8322 323.199V324.941C34.8322 325.117 34.9181 325.289 35.1798 325.379C35.3556 325.551 35.6173 325.551 35.879 325.641C36.1369 325.641 36.3986 325.551 36.7501 325.379L43.1994 321.629C43.4611 321.453 43.6329 321.281 43.6329 321.105V319.363C43.6329 319.535 43.547 319.711 43.1994 319.887L36.7501 323.633C36.4884 323.809 36.1369 323.895 35.879 323.895C35.6173 323.895 35.3556 323.809 35.1798 323.633C34.9181 323.461 34.8322 323.371 34.8322 323.199ZM27.5978 307.242C27.8595 307.07 28.0314 306.895 28.0314 306.719V306.633C28.0314 306.633 28.0314 305.414 28.0314 305.152C27.9454 305.238 27.8595 305.414 27.5978 305.5L26.8986 305.938L27.5119 307.242H27.5978ZM17.5744 311.34L16.3517 312.039L18.0079 312.387V310.816C18.0079 310.992 17.8361 311.168 17.5744 311.34ZM22.3673 308.727C22.3673 308.898 22.4533 309.074 22.715 309.16C22.9767 309.336 23.1525 309.422 23.4142 309.422C23.6759 309.422 23.9376 309.336 24.2853 309.16L25.504 308.465L28.3829 314.566L29.254 314.742L25.504 306.719L24.2853 307.418C24.0236 307.594 23.6759 307.68 23.4142 307.68C23.1525 307.68 22.8908 307.594 22.715 307.418C22.4533 307.242 22.3673 307.156 22.3673 306.98V308.727ZM35.879 312.996C35.879 313.086 35.7892 313.258 35.6173 313.348L31.6954 315.613L33.09 316.484L35.6173 315.004C35.7892 314.914 35.879 314.742 35.879 314.652V312.996ZM39.3634 315.789L35.4415 318.055L36.8361 318.926L39.3634 317.445C39.5392 317.355 39.6251 317.184 39.6251 317.094V315.352C39.7111 315.527 39.5392 315.699 39.3634 315.789ZM28.8165 322.414C28.8165 322.5 28.9064 322.676 29.0783 322.762C29.254 322.848 29.4259 322.938 29.6017 322.938C29.7775 322.938 30.0392 322.848 30.2111 322.762L34.1329 320.496L36.3986 321.977L37.7931 321.191L34.1329 318.84L30.2111 321.105C30.0392 321.191 29.7775 321.281 29.6017 321.281C29.4259 321.281 29.254 321.191 29.0783 321.105C28.9025 321.02 28.8165 320.93 28.8165 320.758V322.414ZM25.0704 319.973C25.0704 320.059 25.1564 320.234 25.3322 320.32C25.504 320.406 25.6798 320.496 25.8556 320.496C26.0275 320.496 26.2033 320.406 26.465 320.32L30.3869 318.055L31.7814 318.926L33.1759 318.141L30.3869 316.312L26.465 318.578C26.2892 318.664 26.0275 318.75 25.8556 318.75C25.6798 318.75 25.504 318.664 25.3322 318.578C25.1564 318.488 25.0704 318.402 25.0704 318.23V319.973ZM12.3439 314.48C12.3439 314.652 12.4298 314.828 12.6915 314.914C12.9533 315.09 13.129 315.176 13.3908 315.176C13.6525 315.176 13.9142 315.09 14.2619 314.914L14.9572 314.48L26.8126 317.008L28.9923 315.789L15.047 312.824L14.3478 313.258C14.0861 313.434 13.7384 313.52 13.4767 313.52C13.215 313.52 12.9533 313.434 12.7814 313.258C12.5197 313.086 12.4298 312.996 12.4298 312.824V314.48H12.3439ZM5.02357 316.398C5.45716 313.086 7.89857 309.859 12.2579 307.332C22.0197 301.664 37.9689 301.664 47.7306 307.332C52.09 309.859 54.5314 313.086 54.965 316.398C55.4884 312.301 53.1369 308.117 47.7306 304.977C37.9689 299.309 22.0197 299.309 12.2579 304.977C6.8517 308.117 4.41419 312.301 5.02357 316.398ZM109.442 320.496C98.0236 327.121 79.2814 327.121 67.8634 320.496C56.4454 313.871 56.4454 303.059 67.8634 296.52C72.922 293.555 79.5431 291.988 86.1681 291.637L16.5275 251.359V203.848L25.504 215.441L40.5822 198.266L61.3283 252.145H79.2814L90.4415 272.895L131.317 255.547L140.469 284.75L153.281 276.121L179.43 343.773L180.215 345.863L117.895 309.859C117.371 313.781 114.582 317.617 109.442 320.496ZM86.3439 300.531C86.6056 300.355 86.7775 300.184 86.7775 300.008V299.922C86.7775 299.922 86.7775 298.699 86.7775 298.438C86.6915 298.527 86.6056 298.699 86.3439 298.785L85.6447 299.223L86.2579 300.531H86.3439ZM76.2345 304.629L75.0118 305.324L76.6681 305.676V304.105C76.6681 304.281 76.5822 304.453 76.2345 304.629ZM81.1134 302.012C81.1134 302.188 81.1993 302.363 81.4611 302.449C81.7228 302.625 81.8986 302.711 82.1603 302.711C82.422 302.711 82.6837 302.625 83.0314 302.449L84.2501 301.75L87.129 307.855L88.0001 308.027L84.2501 300.008L83.0314 300.707C82.7697 300.879 82.422 300.965 82.1603 300.965C81.8986 300.965 81.6368 300.879 81.4611 300.707C81.1993 300.531 81.1134 300.445 81.1134 300.27V302.012ZM94.5353 306.285C94.5353 306.371 94.4493 306.547 94.2736 306.633L90.3517 308.898L91.7462 309.773L94.2736 308.289C94.4493 308.203 94.5353 308.027 94.5353 307.941V306.285ZM98.1095 309.074L94.1876 311.34L95.5822 312.215L98.1095 310.73C98.2853 310.645 98.3712 310.469 98.3712 310.383V308.637C98.3712 308.898 98.2853 308.988 98.1095 309.074ZM93.4923 318.141C93.4923 318.316 93.5783 318.488 93.84 318.578C94.0118 318.75 94.2736 318.75 94.5353 318.84C94.797 318.84 95.0587 318.75 95.4064 318.578L101.86 314.828C102.117 314.652 102.293 314.48 102.293 314.305V312.562C102.293 312.734 102.207 312.91 101.86 313.086L95.4064 316.832C95.1447 317.008 94.797 317.094 94.5353 317.094C94.2736 317.094 94.0118 317.008 93.84 316.832C93.5783 316.66 93.4923 316.57 93.4923 316.398V318.141ZM87.5626 315.699C87.5626 315.789 87.6525 315.961 87.8243 316.051C88.0001 316.137 88.172 316.223 88.3478 316.223C88.5236 316.223 88.7853 316.137 88.9572 316.051L92.879 313.781L95.1447 315.266L96.5392 314.48L92.879 312.125L88.9572 314.395C88.7853 314.48 88.5236 314.566 88.3478 314.566C88.172 314.566 88.0001 314.48 87.8243 314.395C87.6525 314.305 87.5626 314.219 87.5626 314.043V315.699ZM83.7267 313.258C83.7267 313.348 83.8165 313.52 83.9884 313.609C84.1642 313.695 84.34 313.781 84.5118 313.781C84.6876 313.781 84.8634 313.695 85.1212 313.609L89.047 311.34L90.4415 312.215L91.8361 311.43L89.047 309.598L85.1212 311.863C84.9493 311.953 84.6876 312.039 84.5118 312.039C84.34 312.039 84.1642 311.953 83.9884 311.863C83.8165 311.777 83.7267 311.691 83.7267 311.516V313.258ZM71.004 307.766C71.004 307.941 71.09 308.117 71.3517 308.203C71.6134 308.379 71.7892 308.465 72.047 308.465C72.3087 308.465 72.5704 308.379 72.922 308.203L73.6173 307.766L85.4728 310.297L87.6525 309.074L73.7033 306.109L73.0079 306.547C72.7462 306.719 72.3986 306.809 72.1368 306.809C71.8751 306.809 71.6134 306.719 71.4376 306.547C71.1759 306.371 71.09 306.285 71.09 306.109V307.766H71.004ZM70.9142 298.266C65.5118 301.402 63.1603 305.586 63.6798 309.684C64.1173 306.371 66.5587 303.145 70.9142 300.617C77.5392 296.781 86.8673 295.562 95.3204 296.957L90.4415 294.168C83.465 293.816 76.2345 295.211 70.9142 298.266ZM112.84 306.98C113.277 307.855 113.539 308.727 113.625 309.684C113.711 308.988 113.711 308.203 113.625 307.504L112.84 306.98ZM231.379 398.438C242.797 391.809 261.535 391.809 272.953 398.438C284.371 405.062 284.371 415.871 272.953 422.41C261.535 428.949 242.797 429.035 231.379 422.41C219.961 415.785 219.961 405.062 231.379 398.438ZM267.899 410.207C268.16 410.379 268.508 410.465 268.77 410.465C269.031 410.465 269.293 410.379 269.469 410.207C269.731 410.031 269.817 409.945 269.817 409.77V408.027C269.817 408.199 269.731 408.375 269.469 408.461C269.207 408.637 269.031 408.723 268.77 408.723C268.508 408.723 268.246 408.637 267.899 408.461L267.203 408.027L253.254 410.988L255.434 412.211L267.289 409.684L267.899 410.207ZM256.656 403.754L257.875 404.449C258.137 404.625 258.484 404.711 258.746 404.711C259.008 404.711 259.27 404.625 259.445 404.449C259.707 404.277 259.793 404.191 259.793 404.016V402.273C259.793 402.445 259.707 402.621 259.445 402.707C259.184 402.883 259.008 402.969 258.746 402.969C258.484 402.969 258.223 402.883 257.875 402.707L256.656 402.012L252.906 410.031L253.777 409.855L256.656 403.754ZM246.543 408.547C246.371 408.461 246.281 408.289 246.281 408.199V409.945C246.281 410.031 246.371 410.207 246.543 410.293L249.07 411.773L250.465 410.902L246.543 408.547ZM242.797 410.988C242.621 410.902 242.535 410.727 242.535 410.641V412.383C242.535 412.473 242.621 412.645 242.797 412.734L245.324 414.215L246.719 413.344L242.797 410.988ZM255.262 401.137L254.563 400.703C254.301 400.527 254.215 400.441 254.129 400.355C254.129 400.703 254.129 401.836 254.129 401.836V401.922C254.129 402.098 254.301 402.273 254.563 402.445L254.649 402.531L255.262 401.137ZM265.809 407.242L264.586 406.543C264.324 406.367 264.152 406.195 264.152 406.02V407.59L265.809 407.242ZM256.305 415.699C256.481 415.699 256.656 415.609 256.828 415.523C257.004 415.438 257.09 415.348 257.09 415.176V413.43C257.09 413.52 257.004 413.691 256.828 413.781C256.656 413.867 256.481 413.953 256.305 413.953C256.133 413.953 255.957 413.867 255.695 413.781L251.774 411.512L248.985 413.344L250.379 414.129L251.774 413.258L255.695 415.523C255.957 415.609 256.133 415.699 256.305 415.699ZM251.949 417.965C252.121 418.051 252.383 418.137 252.559 418.137C252.735 418.137 252.906 418.051 253.082 417.965C253.254 417.879 253.344 417.789 253.344 417.617V415.871C253.344 415.961 253.254 416.133 253.082 416.219C252.906 416.309 252.735 416.395 252.559 416.395C252.383 416.395 252.121 416.309 251.949 416.219L248.027 413.953L244.363 416.309L245.758 417.094L248.027 415.609L251.949 417.965ZM238.527 416.309C238.527 416.48 238.613 416.656 238.961 416.832L245.41 420.578C245.672 420.754 246.02 420.84 246.281 420.84C246.543 420.84 246.805 420.754 246.981 420.578C247.242 420.406 247.328 420.316 247.328 420.145V418.398C247.328 418.574 247.242 418.75 246.981 418.836C246.805 419.012 246.543 419.012 246.281 419.098C246.02 419.098 245.758 419.012 245.41 418.836L238.961 415.086C238.699 414.914 238.527 414.738 238.527 414.562V416.309ZM227.195 411.602C227.629 408.289 230.07 405.062 234.43 402.531C244.192 396.867 260.141 396.867 269.902 402.531C274.262 405.062 276.703 408.289 277.137 411.602C277.66 407.504 275.309 403.316 269.902 400.18C260.141 394.512 244.192 394.512 234.43 400.18C229.024 403.316 226.586 407.504 227.195 411.602ZM180.391 358.77C191.809 352.141 210.547 352.141 221.965 358.77C233.383 365.395 233.383 376.203 221.965 382.742C210.547 389.367 191.809 389.367 180.391 382.742C168.973 376.117 168.973 365.305 180.391 358.77ZM216.91 370.449C217.172 370.625 217.52 370.711 217.781 370.711C218.043 370.711 218.305 370.625 218.477 370.449C218.738 370.277 218.828 370.188 218.828 370.016V368.27C218.828 368.445 218.738 368.621 218.477 368.707C218.219 368.883 218.043 368.969 217.781 368.969C217.52 368.969 217.258 368.883 216.91 368.707L216.211 368.27L202.266 371.234L204.445 372.457L216.301 369.926L216.91 370.449ZM205.664 364L206.887 364.695C207.149 364.871 207.496 364.957 207.758 364.957C208.02 364.957 208.281 364.871 208.453 364.695C208.715 364.523 208.805 364.434 208.805 364.262V362.516C208.805 362.691 208.715 362.867 208.453 362.953C208.195 363.129 208.02 363.215 207.758 363.215C207.496 363.215 207.235 363.129 206.887 362.953L205.664 362.254L201.918 370.277L202.789 370.102L205.664 364ZM191.457 372.629C191.457 372.719 191.547 372.891 191.719 372.98L194.246 374.461L195.641 373.59L191.719 371.32C191.547 371.234 191.457 371.062 191.457 370.973V372.629ZM195.293 370.188C195.293 370.277 195.383 370.449 195.555 370.539L198.082 372.02L199.477 371.148L195.555 368.883C195.383 368.793 195.293 368.621 195.293 368.531V370.188ZM204.27 361.469L203.574 361.035C203.313 360.859 203.227 360.773 203.137 360.688C203.137 361.035 203.137 362.168 203.137 362.168V362.254C203.137 362.43 203.313 362.605 203.574 362.777L203.66 362.867L204.27 361.469ZM213.16 367.836L214.817 367.484L213.598 366.789C213.336 366.613 213.16 366.441 213.16 366.266V367.836ZM205.317 375.941C205.492 375.941 205.664 375.855 205.84 375.77C206.016 375.68 206.102 375.594 206.102 375.418V373.676C206.102 373.762 206.016 373.938 205.84 374.023C205.664 374.113 205.492 374.199 205.317 374.199C205.145 374.199 204.969 374.113 204.707 374.023L200.785 371.758L197.996 373.59L199.391 374.375L200.785 373.5L204.707 375.77C204.969 375.941 205.145 375.941 205.317 375.941ZM200.961 378.297C201.133 378.383 201.395 378.473 201.57 378.473C201.742 378.473 201.918 378.383 202.094 378.297C202.266 378.211 202.356 378.121 202.356 377.949V376.203C202.356 376.293 202.266 376.465 202.094 376.555C201.918 376.641 201.742 376.727 201.57 376.727C201.395 376.727 201.133 376.641 200.961 376.555L197.035 374.285L193.375 376.641L194.77 377.426L197.035 375.941L200.961 378.297ZM187.535 376.641C187.535 376.816 187.625 376.988 187.973 377.164L194.422 380.91C194.684 381.086 195.031 381.172 195.293 381.172C195.555 381.172 195.817 381.086 195.992 380.91C196.254 380.738 196.34 380.652 196.34 380.477V378.734C196.34 378.906 196.254 379.082 195.992 379.168C195.817 379.344 195.555 379.344 195.293 379.43C195.031 379.43 194.77 379.344 194.422 379.168L187.973 375.418C187.711 375.246 187.535 375.07 187.535 374.898V376.641ZM176.207 371.934C176.641 368.621 179.082 365.395 183.442 362.867C193.203 357.199 209.152 357.199 218.914 362.867C223.274 365.395 225.711 368.621 226.149 371.934C226.672 367.836 224.317 363.648 218.914 360.512C209.152 354.844 193.203 354.844 183.442 360.512C178.035 363.562 175.594 367.836 176.207 371.934Z" fill="#22DBDE"/>
<path d="M63.7305 504.441L63.7227 502.879L65.2227 503.328L65.2305 504.895L63.7305 504.441Z" fill="#3B51AB" fill-opacity="0.749"/>
</svg>
