<svg width="1252" height="286" viewBox="0 0 1252 286" fill="none" xmlns="http://www.w3.org/2000/svg">
<path d="M136.902 18.6094L139.469 18.6523L146.438 11.6797L146.773 8.72266C141.234 3.79297 133.945 0.789062 125.969 0.789062C111.523 0.789062 99.332 10.625 95.7227 23.9492C96.4844 23.4141 98.1094 23.8125 98.1094 23.8125L112.043 21.5195C112.043 21.5195 112.762 20.3281 113.117 20.4023C113.859 19.5938 114.672 18.8594 115.551 18.1992C116.43 17.543 117.363 16.9727 118.352 16.4922C119.34 16.0117 120.363 15.6289 121.422 15.3398C122.484 15.0547 123.562 14.8711 124.656 14.7891C125.75 14.7031 126.844 14.7266 127.934 14.8516C129.027 14.9727 130.098 15.1992 131.145 15.5273C132.191 15.8555 133.203 16.2773 134.168 16.7969C135.137 17.3125 136.051 17.918 136.902 18.6094Z" fill="#EA4335"/>
<path d="M156.258 23.9727C155.457 21.0234 154.25 18.25 152.641 15.6562C151.031 13.0586 149.086 10.7461 146.801 8.71875L136.93 18.5977C137.941 19.4141 138.852 20.332 139.66 21.3516C140.469 22.3711 141.152 23.4688 141.715 24.6406C142.277 25.8125 142.699 27.0312 142.988 28.3008C143.277 29.5703 143.422 30.8516 143.422 32.1523V33.8984C148.227 33.8984 152.125 37.8086 152.125 42.6055C152.125 47.4023 148.215 51.3125 143.422 51.3125H126.012L124.27 53.0625V63.5156L126.012 65.25H143.422C144.16 65.25 144.898 65.2109 145.637 65.1367C146.375 65.0625 147.105 64.9531 147.832 64.8086C148.555 64.6602 149.273 64.4805 149.98 64.2617C150.691 64.0469 151.387 63.7969 152.07 63.5117C152.754 63.2266 153.422 62.9102 154.074 62.5586C154.727 62.2109 155.359 61.8281 155.977 61.418C156.59 61.0039 157.184 60.5625 157.758 60.0938C158.328 59.6211 158.875 59.125 159.398 58.6016C159.922 58.0781 160.418 57.5273 160.891 56.957C161.359 56.3828 161.801 55.7891 162.211 55.1719C162.621 54.5547 163.004 53.9219 163.352 53.2695C163.703 52.6133 164.02 51.9453 164.301 51.2617C164.586 50.5781 164.836 49.8828 165.051 49.1719C165.266 48.4648 165.449 47.7461 165.594 47.0195C165.738 46.293 165.848 45.5625 165.922 44.8242C165.996 44.0859 166.035 43.3477 166.035 42.6055C166.027 34.8945 162.141 28.0625 156.234 23.9727H156.258Z" fill="#4285F4"/>
<path d="M108.562 65.2695H125.965V51.3242H108.562C107.312 51.3281 106.117 51.0664 104.98 50.5469L102.469 51.3164L95.4961 58.293L94.8867 60.6484C96.8477 62.1562 99 63.3047 101.344 64.0977C103.684 64.8867 106.09 65.2812 108.562 65.2734V65.2695Z" fill="#34A853"/>
<path d="M108.562 19.9609C107.82 19.9609 107.082 20 106.344 20.0742C105.605 20.1484 104.875 20.2578 104.148 20.4023C103.422 20.5469 102.703 20.7305 101.992 20.9453C101.285 21.1602 100.59 21.4102 99.9023 21.6953C99.2188 21.9805 98.5508 22.2969 97.8984 22.6484C97.2422 22.9961 96.6094 23.3789 95.9922 23.7891C95.375 24.2031 94.7812 24.6445 94.2109 25.1133C93.6367 25.5859 93.0898 26.082 92.5625 26.6055C92.0391 27.1328 91.543 27.6797 91.0742 28.2539C90.6016 28.8281 90.1602 29.4219 89.75 30.0391C89.3359 30.6562 88.957 31.2891 88.6055 31.9453C88.2578 32.5977 87.9414 33.2656 87.6562 33.9531C87.3711 34.6367 87.1211 35.3359 86.9062 36.043C86.6914 36.7539 86.5078 37.4727 86.3633 38.1992C86.2188 38.9258 86.1094 39.6602 86.0352 40.3945C85.9609 41.1328 85.9258 41.875 85.9219 42.6172C85.9219 44.3633 86.1211 46.0898 86.5234 47.793C86.9219 49.4922 87.5117 51.1289 88.2891 52.6914C89.0664 54.2578 90.0156 55.7148 91.1289 57.0586C92.2461 58.4062 93.5 59.6055 94.8945 60.6602L104.988 50.5625C104.223 50.2148 103.523 49.7695 102.887 49.2227C102.25 48.6758 101.703 48.0508 101.25 47.3477C100.793 46.6445 100.449 45.8906 100.211 45.0859C99.9727 44.2812 99.8555 43.457 99.8555 42.6211C99.8555 37.8125 103.766 33.9141 108.559 33.9141C109.395 33.9141 110.215 34.0352 111.02 34.2734C111.824 34.5078 112.574 34.8555 113.281 35.3125C113.984 35.7656 114.609 36.3125 115.156 36.9492C115.703 37.582 116.148 38.2852 116.492 39.0469L126.586 28.9492C122.445 23.4961 115.91 19.9688 108.551 19.9688L108.562 19.9609Z" fill="#FBBC05"/>
<path d="M18.3242 109.199C13.5703 109.199 9.48828 107.516 6.05078 104.152C2.60938 100.785 0.890625 96.7344 0.890625 92.0117C0.890625 87.293 2.60547 83.2422 6.05078 79.875C9.49219 76.5078 13.5781 74.8242 18.3242 74.8242C20.5273 74.793 22.6445 75.1875 24.6875 76.0078C26.7305 76.8281 28.5312 78.0117 30.0977 79.5586L26.7852 82.875C25.6523 81.7774 24.3516 80.9375 22.8867 80.3594C21.4219 79.7774 19.8984 79.4961 18.3242 79.5195C14.8906 79.5195 11.9766 80.7305 9.58594 83.1719C8.41016 84.3399 7.51172 85.6914 6.89062 87.2266C6.26953 88.7617 5.97266 90.3594 6.00391 92.0156C6.00391 95.4844 7.19141 98.4258 9.58594 100.859C10.7227 102.051 12.0508 102.965 13.5703 103.602C15.0938 104.238 16.6758 104.539 18.3242 104.508C21.8164 104.508 24.7031 103.387 27.0039 101.066C28.3477 99.7188 29.2461 97.6992 29.5586 95.1524H18.332V90.457H34.1289C34.3008 91.293 34.3555 92.2539 34.3555 93.375C34.3555 97.9883 33.0039 101.648 30.2891 104.363C27.2109 107.582 23.2227 109.188 18.3008 109.188L18.3242 109.199ZM55.0391 106.059C52.8867 108.168 50.2617 109.199 47.1641 109.199C44.0625 109.199 41.4336 108.145 39.2852 106.059C37.1367 103.973 36.0625 101.316 36.0625 98.1563C36.0625 95 37.1367 92.3672 39.2852 90.2578C41.4336 88.1484 44.0625 87.1172 47.1641 87.1172C50.2617 87.1172 52.8906 88.1719 55.0391 90.2578C57.1875 92.3438 58.2656 95.0078 58.2656 98.1563C58.2656 101.309 57.1875 103.949 55.0391 106.059ZM42.7617 102.961C43.3281 103.578 43.9961 104.051 44.7617 104.383C45.5273 104.715 46.332 104.875 47.1641 104.867C48.8711 104.867 50.3359 104.234 51.5664 102.957C52.8008 101.684 53.4102 100.086 53.4102 98.1563C53.4102 96.2031 52.8047 94.5938 51.5898 93.332C50.3711 92.0703 48.9023 91.4453 47.1641 91.4453C46.3281 91.4336 45.5234 91.5899 44.7539 91.918C43.9844 92.2461 43.3125 92.7188 42.7422 93.332C41.5234 94.5859 40.918 96.1953 40.918 98.1563C40.918 100.082 41.5312 101.688 42.7617 102.957V102.961ZM79.2617 106.059C77.1055 108.168 74.4844 109.199 71.3828 109.199C68.2852 109.199 65.6562 108.145 63.5078 106.059C61.3594 103.973 60.2812 101.316 60.2812 98.1563C60.2812 95 61.3594 92.3672 63.5078 90.2578C65.6562 88.1484 68.2852 87.1172 71.3828 87.1172C74.4844 87.1172 77.1094 88.1719 79.2617 90.2578C81.4102 92.3438 82.4844 95.0078 82.4844 98.1563C82.4844 101.309 81.4102 103.949 79.2617 106.059ZM66.9844 102.961C67.5469 103.578 68.2148 104.051 68.9805 104.383C69.75 104.715 70.5508 104.875 71.3867 104.867C73.0898 104.867 74.5586 104.234 75.7891 102.957C77.0195 101.684 77.6328 100.086 77.6328 98.1563C77.6328 96.2031 77.0273 94.5938 75.8086 93.332C74.5898 92.0703 73.1211 91.4453 71.3867 91.4453C70.5469 91.4336 69.7461 91.5899 68.9727 91.918C68.2031 92.2461 67.5352 92.7188 66.9609 93.332C65.7461 94.5859 65.1406 96.1953 65.1406 98.1563C65.1406 100.082 65.75 101.688 66.9844 102.957V102.961ZM95.1797 119.164C92.7266 119.164 90.6562 118.504 88.9805 117.191C87.3086 115.875 86.1055 114.352 85.3789 112.617L89.6133 110.859C90.0586 111.922 90.7344 112.844 91.707 113.629C92.6797 114.41 93.8164 114.801 95.1875 114.801C97.0312 114.801 98.4805 114.238 99.5234 113.125C100.566 112.008 101.094 110.395 101.094 108.297V106.727H100.926C99.5781 108.402 97.6133 109.246 95.1016 109.246C92.2812 109.246 89.8086 108.168 87.6875 106.02C86.6445 104.992 85.8438 103.801 85.293 102.445C84.7383 101.09 84.4766 99.6797 84.5 98.2149C84.4766 96.7422 84.7383 95.3242 85.293 93.9609C85.8438 92.5938 86.6406 91.3945 87.6875 90.3555C89.8047 88.1914 92.2852 87.1055 95.1016 87.1055C96.3594 87.1055 97.5 87.3438 98.5156 87.8203C99.5352 88.3008 100.34 88.8828 100.926 89.5781H101.094V87.7969H105.703V107.676C105.703 111.535 104.723 114.414 102.75 116.336C100.773 118.246 98.2578 119.211 95.1836 119.211L95.1797 119.164ZM95.5195 104.863C96.3281 104.879 97.1016 104.719 97.8398 104.387C98.5781 104.051 99.207 103.574 99.7305 102.957C100.863 101.688 101.426 100.102 101.426 98.1953C101.426 96.2695 100.863 94.6602 99.7305 93.3711C99.2109 92.75 98.582 92.2695 97.8438 91.9297C97.1055 91.5938 96.3281 91.4336 95.5195 91.4453C93.8125 91.4453 92.3594 92.0899 91.1641 93.3711C89.9648 94.6484 89.3594 96.2617 89.3594 98.1953C89.3594 100.094 89.957 101.688 91.1641 102.957C92.3672 104.23 93.8164 104.867 95.5195 104.867V104.863ZM113.914 75.9922V108.535H109.055V75.9922H113.914ZM127.234 109.199C124.105 109.199 121.492 108.133 119.398 106.012C117.305 103.887 116.254 101.262 116.254 98.1289C116.254 94.8867 117.262 92.2266 119.293 90.1602C120.254 89.1484 121.375 88.3711 122.664 87.832C123.949 87.293 125.293 87.0313 126.688 87.0547C128.027 87.0547 129.273 87.2969 130.418 87.7891C131.492 88.2305 132.441 88.8594 133.266 89.6758C133.949 90.3555 134.551 91.1016 135.07 91.918C135.496 92.6133 135.859 93.3399 136.16 94.0977L136.664 95.3555L121.875 101.488C122.996 103.723 124.789 104.84 127.238 104.84C129.473 104.84 131.293 103.824 132.684 101.781L136.453 104.301C135.613 105.559 134.426 106.691 132.891 107.695C131.355 108.703 129.465 109.199 127.23 109.199H127.234ZM121.078 97.7969L130.945 93.6914C130.66 92.9883 130.152 92.4258 129.375 91.9922C128.582 91.5469 127.727 91.332 126.816 91.3477C125.391 91.3477 124.059 91.9297 122.82 93.1055C121.578 94.2774 120.98 95.8477 121.035 97.8008L121.078 97.7969ZM162.188 109.199C157.77 109.199 154.066 107.703 151.082 104.711C148.094 101.715 146.594 97.9883 146.594 93.5156C146.594 89.043 148.09 85.3086 151.082 82.3203C154.07 79.332 157.77 77.832 162.188 77.832C166.711 77.832 170.387 79.4688 173.207 82.7344L170.523 85.3399C168.508 82.793 165.703 81.5234 162.184 81.5234C158.906 81.5234 156.156 82.6289 153.883 84.8399C151.609 87.0469 150.512 89.9375 150.512 93.5156C150.512 97.0938 151.633 99.9883 153.883 102.199C156.137 104.414 158.891 105.516 162.184 105.516C165.785 105.516 168.859 104.063 171.379 101.156L174.059 103.84C172.637 105.535 170.914 106.844 168.898 107.758C166.762 108.742 164.516 109.223 162.16 109.199H162.188ZM181.375 108.535H177.52V78.5117H181.375V108.535ZM187.664 90.4453C189.648 88.3633 192.148 87.3164 195.246 87.3164C198.348 87.3164 200.848 88.3633 202.832 90.4453C204.816 92.5274 205.809 95.1563 205.809 98.2656C205.809 101.375 204.82 104.004 202.832 106.086C200.844 108.172 198.348 109.215 195.246 109.215C192.148 109.215 189.648 108.172 187.664 106.086C185.676 104.004 184.688 101.375 184.688 98.2656C184.688 95.1563 185.672 92.5274 187.664 90.4453ZM190.531 103.648C191.879 105 193.434 105.68 195.242 105.68C197.051 105.68 198.605 105 199.953 103.648C201.297 102.293 201.945 100.496 201.945 98.2617C201.945 96.0274 201.277 94.2266 199.953 92.875C198.629 91.5234 197.051 90.8399 195.242 90.8399C193.434 90.8399 191.879 91.5234 190.531 92.875C189.188 94.2266 188.543 96.0274 188.543 98.2617C188.543 100.496 189.207 102.297 190.531 103.648ZM227.137 108.535H223.445V105.684H223.277C222.695 106.66 221.797 107.496 220.598 108.152C219.398 108.809 218.129 109.184 216.785 109.184C214.211 109.184 212.27 108.402 210.941 106.836C209.617 105.266 208.949 103.168 208.949 100.543V87.9609H212.809V99.9102C212.809 103.746 214.496 105.656 217.875 105.656C218.645 105.672 219.371 105.512 220.062 105.172C220.75 104.832 221.32 104.352 221.773 103.73C222.801 102.426 223.305 100.945 223.281 99.2852V87.9609H227.141V108.512L227.137 108.535ZM240.207 109.199C237.555 109.199 235.258 108.148 233.336 106.055C231.41 103.957 230.445 101.359 230.445 98.2539C230.445 95.1445 231.41 92.5469 233.336 90.4492C235.258 88.3555 237.555 87.3047 240.207 87.3047C241.766 87.3047 243.176 87.6406 244.422 88.3086C245.668 88.9727 246.598 89.8164 247.211 90.8242H247.379L247.211 87.9766V78.5039H251.066V108.535H247.379V105.684H247.211C246.598 106.688 245.668 107.527 244.422 108.203C243.176 108.859 241.77 109.199 240.207 109.199ZM240.832 105.676C241.715 105.688 242.559 105.52 243.367 105.168C244.172 104.816 244.875 104.316 245.465 103.664C246.738 102.324 247.371 100.516 247.371 98.2774C247.371 96.0391 246.738 94.207 245.465 92.8906C244.875 92.2383 244.172 91.7383 243.367 91.3867C242.559 91.0352 241.715 90.8672 240.832 90.8789C239.043 90.8789 237.508 91.5586 236.223 92.9102C234.938 94.2656 234.297 96.0625 234.297 98.2969C234.297 100.531 234.938 102.332 236.223 103.684C236.809 104.34 237.504 104.844 238.309 105.195C239.113 105.551 239.957 105.727 240.832 105.719V105.676Z" fill="white"/>
<path d="M505.586 58.4804H501.613V43.0078C501.59 41.4765 501.648 39.9453 501.785 38.4218C501.656 39.1914 501.422 39.9257 501.09 40.6289L493.809 58.625H491.035L483.738 40.8086L483.047 38.4101C483.219 39.4297 483.219 40.957 483.219 43.1679V58.664H479.402V34.6953H485.125L491.543 50.6679L492.582 53.3867C492.848 52.3945 493.195 51.4336 493.621 50.5L500.211 34.5273H505.762L505.586 58.4804ZM513.043 37.75C512.363 37.7851 511.785 37.5586 511.309 37.0703C510.844 36.7031 510.586 36.1328 510.617 35.5429C510.551 34.9453 510.816 34.3593 511.309 34.0156C511.816 33.6054 512.395 33.3789 513.043 33.3359C513.727 33.3007 514.305 33.5273 514.777 34.0156C515.242 34.3828 515.5 34.9531 515.473 35.5429C515.539 36.1406 515.273 36.7265 514.777 37.0703C514.301 37.5586 513.727 37.7851 513.043 37.75ZM514.949 58.4804H510.961V41.3203H514.949V58.4804ZM532.805 57.8086C531.414 58.6562 529.684 59.0078 527.777 59.0078C525.176 59.0078 523.094 58.1601 521.531 56.6289C519.973 55.0976 519.125 53.0625 519.125 50.5078C519.125 47.6211 519.992 45.4101 521.727 43.7109C523.461 42.0078 525.715 41.1601 528.66 41.1601C530.105 41.1601 531.492 41.4453 532.82 42.0078V45.5703C531.688 44.7304 530.414 44.2773 529.004 44.2109C527.277 44.2109 525.883 44.7187 524.844 45.9101C524.309 46.5156 523.906 47.1992 523.637 47.9609C523.367 48.7187 523.25 49.5039 523.281 50.3086C523.281 52.0078 523.805 53.5351 524.844 54.5547C525.914 55.5781 527.352 56.125 528.832 56.082C530.301 56.0664 531.715 55.5234 532.82 54.5547V57.8086H532.805ZM546.848 45.0664C546.219 44.6992 545.496 44.5195 544.766 44.5586C543.559 44.5586 542.68 45.0664 541.816 46.0859C540.949 47.1054 540.609 48.4843 540.609 50.332V58.4922H536.621V41.3203H540.609V44.8867C540.945 43.7812 541.523 42.8164 542.344 42C543.102 41.3203 544.094 40.9531 545.117 40.9804C545.664 40.9726 546.184 41.0859 546.68 41.3203L546.848 45.0664ZM557.418 59.0078C554.648 59.0078 552.566 58.1562 551 56.625C549.434 55.0937 548.594 52.8867 548.594 50.3437C548.594 47.457 549.457 45.2461 551.191 43.5468C552.926 41.8476 555.18 41.1484 557.953 41.1484C560.727 41.1484 562.809 41.9961 564.375 43.5468C565.938 45.0976 566.609 47.2734 566.609 50.1601C566.68 52.5937 565.82 54.9648 564.199 56.789C562.262 58.2812 559.871 59.0664 557.418 59.0156V59.0078ZM557.594 44.0507C556.031 44.0507 554.82 44.5625 553.953 45.582C553.086 46.6015 552.566 48.1289 552.566 49.9804C552.566 51.832 553.086 53.207 553.953 54.2265C554.82 55.2461 556.039 55.7539 557.594 55.7539C559.148 55.7539 560.367 55.2461 561.23 54.2265C562.098 53.207 562.438 51.8476 562.438 49.8281C562.438 47.9609 562.09 46.4336 561.23 45.4297C560.742 44.9687 560.18 44.6172 559.551 44.3828C558.918 44.1484 558.266 44.0429 557.594 44.0703V44.0507ZM569.387 57.9726V54.3984C570.945 55.4179 572.508 56.0976 574.242 56.0976C576.668 56.0976 577.879 55.4179 577.879 54.0586C577.844 53.6914 577.727 53.3515 577.535 53.039C577.328 52.7226 577.023 52.4843 576.668 52.3593C576.281 52.1601 575.875 51.9882 575.461 51.8515L573.902 51.3437C573.254 51.0937 572.617 50.8086 571.996 50.4961C571.504 50.1953 571.039 49.8554 570.609 49.4765C570.219 49.0859 569.93 48.6328 569.742 48.1132C569.527 47.5703 569.41 47.0039 569.398 46.414C569.383 45.6367 569.559 44.8984 569.918 44.207C570.262 43.5195 570.785 43.0117 571.48 42.6797C572.172 42.1718 572.867 42 573.734 41.6601C574.59 41.4648 575.457 41.3515 576.332 41.3203C577.824 41.2695 579.266 41.4961 580.668 42V45.4062C579.41 44.5547 578.023 44.1562 576.508 44.2031C576.031 44.164 575.57 44.2226 575.117 44.3711C574.773 44.539 574.426 44.539 574.078 44.7109C573.77 44.8437 573.523 45.0859 573.383 45.3906C573.246 45.6523 573.184 45.9453 573.211 46.2382C573.184 46.5937 573.242 46.9336 573.383 47.2578C573.527 47.5781 573.758 47.8047 574.078 47.9375C574.465 48.1406 574.867 48.3086 575.281 48.4492C575.805 48.6172 576.148 48.7851 576.844 48.957C577.504 49.3125 578.195 49.5937 578.918 49.8047C579.613 49.9726 579.957 50.4843 580.477 50.8242C580.867 51.2461 581.211 51.6992 581.516 52.1836C581.73 52.7851 581.848 53.4101 581.863 54.0507C581.863 54.8984 581.691 55.75 581.168 56.2578C580.781 56.9062 580.262 57.4179 579.613 57.8007C578.836 58.2031 578.031 58.5429 577.203 58.8203C574.578 59.4804 571.805 59.1797 569.383 57.9687L569.387 57.9726ZM593.492 59.0078C590.719 59.0078 588.637 58.1562 587.07 56.625C585.508 55.0937 584.664 52.8867 584.664 50.3437C584.664 47.457 585.531 45.2461 587.266 43.5468C589 41.8476 591.254 41.1484 594.027 41.1484C596.797 41.1484 598.879 41.9961 600.445 43.5468C602.012 45.0976 602.699 47.2851 602.699 50.1718C602.773 52.6054 601.914 54.9765 600.293 56.8007C599.312 57.5351 598.234 58.0937 597.066 58.4726C595.898 58.8515 594.699 59.0312 593.473 59.0117L593.492 59.0078ZM593.664 44.0507C592.105 44.0507 590.891 44.5625 590.027 45.582C589.16 46.6015 588.637 48.1289 588.637 49.9804C588.637 51.832 589.16 53.207 590.027 54.2265C590.895 55.2461 592.109 55.7539 593.664 55.7539C595.219 55.7539 596.438 55.2461 597.305 54.2265C598.168 53.207 598.508 51.8476 598.508 49.8281C598.508 47.9609 598.164 46.4336 597.305 45.4297C596.816 44.9609 596.254 44.6054 595.621 44.3672C594.988 44.125 594.332 44.0156 593.656 44.039L593.664 44.0507ZM616.363 36.3945C615.777 36.039 615.141 35.8711 614.457 35.8867C612.551 35.8867 611.508 36.9062 611.508 39.1132V41.4922H615.496V44.5507H611.508V58.6679H607.535V44.5468H604.586V41.4882H607.535V38.7695C607.535 36.9023 608.059 35.5429 609.266 34.5195C610.227 33.7851 611.305 33.3125 612.496 33.1015C613.691 32.8867 614.867 32.9609 616.023 33.3203V36.3789H616.359L616.363 36.3945ZM627.816 58.3125C627.125 58.6523 626.082 58.8203 624.695 58.8203C621.227 58.8203 619.668 57.2929 619.668 54.0625V44.3828H616.719V41.3203H619.668V37.4101L623.656 36.3906V41.4882H627.816V44.5507H623.656V53.0586C623.598 53.8515 623.773 54.5859 624.176 55.2656C624.523 55.7734 625.215 55.9453 626.082 55.9453C626.715 55.957 627.293 55.7812 627.809 55.4179V58.3047L627.816 58.3125ZM503.707 93.7734H499.199L496.941 87.6562H487.23L485.148 93.7773H480.641L489.832 69.8164H494.328L503.707 93.7734ZM495.902 84.4257L492.438 74.914C492.285 74.4101 492.168 73.9023 492.09 73.3828C492.016 73.9023 491.898 74.4101 491.746 74.914L488.453 84.4257H495.902ZM519.504 78.2968L510.141 90.6953H519.5V93.7578H504.574V92.2578L514.289 79.6718H505.621V76.6093H519.668V78.3007L519.504 78.2968ZM538.207 93.7734H534.219V91.0586C533.961 91.539 533.641 91.9765 533.258 92.3672C532.879 92.7578 532.449 93.0898 531.973 93.3593C531.496 93.6289 530.992 93.8281 530.461 93.957C529.93 94.0859 529.391 94.1406 528.844 94.1172C524.684 94.1172 522.598 91.7382 522.598 86.8086V76.6093H526.586V86.4609C526.586 89.5195 527.801 91.0507 530.227 91.0507C530.781 91.0742 531.316 90.9804 531.832 90.7695C532.348 90.5586 532.793 90.2539 533.176 89.8515C533.977 88.8593 534.379 87.7265 534.379 86.4492V76.6093H538.363L538.207 93.7734ZM553.465 80.3515C552.84 79.9843 552.117 79.8086 551.383 79.8437C550.18 79.8437 549.301 80.3515 548.434 81.3711C547.566 82.3906 547.23 83.7695 547.23 85.6172V93.7773H543.242V76.6132H547.23V80.1797C547.562 79.0742 548.141 78.1093 548.961 77.2929C549.715 76.6172 550.691 76.2539 551.707 76.2734C552.254 76.2656 552.773 76.3789 553.266 76.6132L553.465 80.3515ZM571.148 86.2968H559.188C559.188 87.8242 559.711 89.1836 560.75 90.0351C561.617 90.8828 563.004 91.3945 564.738 91.3945C566.676 91.4375 568.414 90.8711 569.953 89.6953V92.7578C568.383 93.7812 566.293 94.2968 563.695 94.2968C562.559 94.3359 561.465 94.1445 560.41 93.7265C559.355 93.3086 558.426 92.6992 557.629 91.8984C556.066 90.3672 555.371 88.1562 555.371 85.2695C555.332 84.0781 555.52 82.9218 555.938 81.8047C556.355 80.6836 556.969 79.6875 557.781 78.8125C558.559 77.9687 559.477 77.3242 560.535 76.8789C561.594 76.4336 562.699 76.2265 563.848 76.2578C566.254 76.2578 568.008 76.9375 569.398 78.4687C570.785 79.9961 571.305 82.0351 571.305 84.75L571.148 86.2968ZM567.336 83.5781C567.336 82.2187 566.988 81.0273 566.293 80.3515C565.957 79.9375 565.547 79.625 565.055 79.4101C564.566 79.1992 564.055 79.1132 563.523 79.1484C562.965 79.1289 562.43 79.2226 561.918 79.4297C561.402 79.6406 560.953 79.9453 560.574 80.3515C559.707 81.1992 559.367 82.2187 559.184 83.5781H567.336Z" fill="white"/>
<path fill-rule="evenodd" clip-rule="evenodd" d="M433.902 35.5703L420.973 61.5234L443.742 87.8203L401.492 92.6016L467.051 93.2852L433.902 35.5703ZM431.352 25.3242L401.672 50.082L379.637 87.1367L398.395 85.2617L431.352 25.3242Z" fill="white"/>
<path d="M1095.15 28.6836V32.9375H1125.52V28.6836H1095.15ZM1129.81 28.6836V32.9375H1173.08C1173.08 32.9375 1168.66 28.6836 1162.81 28.6836H1129.81ZM1181.57 28.6836V32.9375H1207.75L1206.2 28.6836H1181.57ZM1226.52 28.6836L1224.96 32.9375H1250.9V28.6836H1226.52ZM1095.15 36.9531V41.207H1125.52V36.9531H1095.15ZM1129.81 36.957V41.207H1178.11C1178.11 41.207 1177.54 37.9336 1176.56 36.957H1129.81ZM1181.57 36.957V41.207H1210.63L1209.19 36.957H1181.57ZM1223.42 36.957L1221.98 41.207H1250.91V36.957H1223.42ZM1103.93 45.2227V49.4805H1117.07V45.2227H1103.93ZM1138.59 45.2227V49.4805H1151.7V45.2227H1138.59ZM1164.52 45.2227V49.4805H1177.68C1177.68 49.4805 1178.5 47.2344 1178.5 45.2227H1164.52ZM1190.34 45.2227V49.4805H1213.61L1212.05 45.2227H1190.34ZM1220.59 45.2227L1219.03 49.4805H1242.38V45.2227H1220.59ZM1103.93 53.4961V57.75H1117.07V53.4961H1103.93ZM1138.59 53.4961V57.75H1172.23C1172.23 57.75 1175.04 55.5664 1175.93 53.4961H1138.59ZM1190.35 53.4961V57.75H1203.5V55.3906L1204.33 57.7539H1228.41L1229.31 55.3906V57.7539H1242.38V53.5039H1217.69L1216.38 57.1055L1215.06 53.5039L1190.35 53.4961ZM1103.93 61.7734V66.0234H1117.07V61.7734H1103.93ZM1138.59 61.7734V66.0234H1175.88C1174.98 63.9609 1172.18 61.7734 1172.18 61.7734H1138.59ZM1190.35 61.7734V66.0234H1203.5V61.7734H1190.35ZM1205.89 61.7734L1207.48 66.0234H1225.54L1227.01 61.7734H1205.89ZM1229.32 61.7734V66.0234H1242.38V61.7734H1229.32ZM1103.93 70.0391V74.293H1117.07V70.0391H1103.93ZM1138.59 70.0391V74.293H1151.7V70.0391H1138.59ZM1164.52 70.0391V74.293H1178.52C1178.52 72.2891 1177.69 70.0391 1177.69 70.0391H1164.52ZM1190.34 70.0391V74.293H1203.49V70.0391H1190.34ZM1208.87 70.0391L1210.41 74.293H1222.52L1224.07 70.0391H1208.87ZM1229.31 70.0391V74.293H1242.38V70.0391H1229.31ZM1095.39 78.3086V82.5703H1125.77V78.3086H1095.39ZM1129.83 78.3086V82.5703H1176.58C1177.56 81.5977 1178.12 78.3086 1178.12 78.3086H1129.83ZM1181.82 78.3086V82.5703H1203.47V78.3086H1181.82ZM1211.83 78.3086L1213.41 82.5703H1219.58L1221.06 78.3086H1211.83ZM1229.28 78.3086V82.5703H1251.15V78.3086H1229.28ZM1095.39 86.5859V90.8398H1125.77V86.5859H1095.39ZM1129.83 86.5859V90.832H1162.83C1168.68 90.832 1173.11 86.5859 1173.11 86.5859H1129.83ZM1181.82 86.5859V90.8398H1203.47V86.5859H1181.82ZM1214.83 86.5859L1216.36 90.8242L1216.62 90.8281L1218.17 86.5781L1214.83 86.5859ZM1229.28 86.5859V90.8398H1251.15V86.5859H1229.28Z" fill="white"/>
<path d="M1136.5 257.078H1143.6V284.887H1136.5V257.078ZM1200.02 265.086C1199.79 264.863 1197.57 263.531 1194.02 263.531C1189.58 263.531 1186.25 266.645 1186.25 270.871C1186.25 275.098 1189.36 278.211 1194.02 278.211C1197.35 278.211 1199.57 276.879 1200.02 276.656V284.219C1199.13 284.441 1196.68 285.109 1193.57 285.109C1185.58 285.109 1178.7 279.77 1178.7 270.648C1178.7 262.418 1184.91 256.191 1193.57 256.191C1196.91 256.191 1199.35 257.078 1200.02 257.078V265.086ZM1126.72 265.086C1126.5 264.863 1124.28 263.531 1120.73 263.531C1116.29 263.531 1112.95 266.645 1112.95 270.871C1112.95 275.098 1116.06 278.211 1120.73 278.211C1124.06 278.211 1126.28 276.879 1126.72 276.656V284.219C1125.84 284.441 1123.39 285.109 1120.28 285.109C1112.51 285.109 1105.4 279.77 1105.4 270.648C1105.4 262.418 1111.62 256.191 1120.28 256.191C1123.61 256.191 1126.05 257.078 1126.72 257.078V265.086ZM1236.66 271.094C1236.66 279.102 1230.44 285.551 1222 285.551C1213.56 285.551 1207.34 279.102 1207.34 271.094C1207.34 263.086 1213.56 256.633 1222 256.633C1230.66 256.633 1236.66 263.086 1236.66 271.094ZM1222 263.754C1217.79 263.754 1214.68 267.09 1214.68 271.094C1214.68 275.098 1217.79 278.434 1222 278.434C1226.22 278.434 1229.33 275.098 1229.33 271.094C1229.33 267.09 1226.22 263.754 1222 263.754ZM1170.03 263.531C1170.03 263.531 1166.92 262.641 1164.48 262.641C1161.59 262.641 1160.04 263.531 1160.04 264.863C1160.04 266.645 1162.04 267.09 1163.15 267.535L1165.14 268.203C1169.59 269.758 1171.81 272.875 1171.81 276.211C1171.81 283.105 1165.59 285.551 1160.26 285.551C1156.48 285.551 1152.93 284.887 1152.71 284.887V278.434C1153.38 278.656 1156.26 279.547 1159.37 279.547C1162.93 279.547 1164.48 278.434 1164.48 276.879C1164.48 275.543 1163.15 274.652 1161.37 274.207C1160.93 273.984 1160.26 273.762 1159.82 273.762C1155.82 272.43 1152.71 270.203 1152.71 265.531C1152.71 260.418 1156.71 256.855 1163.15 256.855C1166.48 256.855 1169.81 257.746 1170.03 257.746V263.531Z" fill="white"/>
<path d="M1098.07 227.273C1098.08 226.797 1097.99 226.34 1097.81 225.902C1097.64 225.465 1097.38 225.078 1097.04 224.742C1096.71 224.406 1096.32 224.148 1095.89 223.973C1095.45 223.793 1094.99 223.707 1094.52 223.711C1094.05 223.707 1093.59 223.793 1093.15 223.973C1092.71 224.148 1092.33 224.406 1091.99 224.742C1091.66 225.078 1091.4 225.465 1091.22 225.902C1091.05 226.34 1090.96 226.797 1090.96 227.273V234.613C1090.96 235.086 1091.05 235.543 1091.22 235.98C1091.4 236.422 1091.66 236.809 1091.99 237.141C1092.33 237.477 1092.71 237.734 1093.15 237.914C1093.59 238.09 1094.05 238.18 1094.52 238.172C1094.99 238.18 1095.45 238.09 1095.89 237.914C1096.32 237.734 1096.71 237.477 1097.04 237.141C1097.38 236.809 1097.64 236.422 1097.81 235.98C1097.99 235.543 1098.08 235.086 1098.07 234.613V227.273Z" fill="white"/>
<path d="M1117.17 217.707C1117.18 217.234 1117.09 216.777 1116.91 216.336C1116.73 215.898 1116.48 215.512 1116.14 215.176C1115.81 214.84 1115.43 214.586 1114.98 214.406C1114.55 214.227 1114.09 214.141 1113.62 214.148C1111.62 214.148 1110.29 215.703 1110.29 217.707V234.613C1110.28 235.086 1110.37 235.543 1110.55 235.98C1110.72 236.422 1110.98 236.809 1111.32 237.141C1111.65 237.477 1112.04 237.734 1112.47 237.914C1112.91 238.09 1113.37 238.18 1113.84 238.172C1114.31 238.18 1114.77 238.09 1115.21 237.914C1115.64 237.734 1116.03 237.477 1116.37 237.141C1116.7 236.809 1116.96 236.422 1117.14 235.98C1117.32 235.543 1117.4 235.086 1117.39 234.613V217.707H1117.17ZM1136.5 204.582C1136.5 204.109 1136.41 203.652 1136.24 203.215C1136.06 202.773 1135.8 202.387 1135.47 202.051C1135.13 201.719 1134.75 201.461 1134.31 201.281C1133.87 201.102 1133.41 201.016 1132.94 201.023C1132.47 201.016 1132.01 201.102 1131.57 201.281C1131.14 201.461 1130.75 201.719 1130.41 202.051C1130.08 202.387 1129.82 202.773 1129.64 203.215C1129.47 203.652 1129.38 204.109 1129.39 204.582V241.508C1129.38 241.98 1129.47 242.438 1129.64 242.879C1129.82 243.316 1130.08 243.703 1130.41 244.039C1130.75 244.375 1131.14 244.629 1131.57 244.809C1132.01 244.988 1132.47 245.074 1132.94 245.066C1133.41 245.074 1133.87 244.988 1134.31 244.809C1134.75 244.629 1135.13 244.375 1135.47 244.039C1135.8 243.703 1136.06 243.316 1136.24 242.879C1136.41 242.438 1136.5 241.98 1136.5 241.508V204.582ZM1155.59 217.707C1155.6 217.234 1155.52 216.777 1155.34 216.336C1155.16 215.898 1154.9 215.512 1154.57 215.176C1154.23 214.84 1153.85 214.586 1153.41 214.406C1152.97 214.227 1152.52 214.141 1152.04 214.148C1151.57 214.141 1151.11 214.227 1150.68 214.406C1150.24 214.586 1149.85 214.84 1149.52 215.176C1149.18 215.512 1148.93 215.898 1148.75 216.336C1148.57 216.777 1148.48 217.234 1148.49 217.707V234.613C1148.48 235.086 1148.57 235.543 1148.75 235.98C1148.93 236.422 1149.18 236.809 1149.52 237.141C1149.85 237.477 1150.24 237.734 1150.68 237.914C1151.11 238.09 1151.57 238.18 1152.04 238.172C1152.52 238.18 1152.97 238.09 1153.41 237.914C1153.85 237.734 1154.23 237.477 1154.57 237.141C1154.9 236.809 1155.16 236.422 1155.34 235.98C1155.52 235.543 1155.6 235.086 1155.59 234.613V217.707Z" fill="white"/>
<path d="M1174.7 227.273C1174.7 226.797 1174.62 226.34 1174.44 225.902C1174.26 225.465 1174 225.078 1173.67 224.742C1173.34 224.406 1172.95 224.148 1172.51 223.973C1172.07 223.793 1171.62 223.707 1171.14 223.711C1170.67 223.707 1170.21 223.793 1169.78 223.973C1169.34 224.148 1168.95 224.406 1168.62 224.742C1168.28 225.078 1168.03 225.465 1167.85 225.902C1167.67 226.34 1167.58 226.797 1167.59 227.273V234.613C1167.58 235.086 1167.67 235.543 1167.85 235.98C1168.03 236.422 1168.28 236.809 1168.62 237.141C1168.95 237.477 1169.34 237.734 1169.78 237.914C1170.21 238.09 1170.67 238.18 1171.14 238.172C1171.62 238.18 1172.07 238.09 1172.51 237.914C1172.95 237.734 1173.34 237.477 1173.67 237.141C1174 236.809 1174.26 236.422 1174.44 235.98C1174.62 235.543 1174.7 235.086 1174.7 234.613V227.273Z" fill="white"/>
<path d="M1193.8 217.707C1193.8 217.234 1193.71 216.781 1193.53 216.344C1193.35 215.91 1193.09 215.523 1192.75 215.191C1192.42 214.855 1192.04 214.598 1191.6 214.418C1191.17 214.238 1190.71 214.148 1190.24 214.148C1189.77 214.148 1189.32 214.238 1188.88 214.418C1188.45 214.598 1188.06 214.855 1187.73 215.191C1187.4 215.523 1187.14 215.91 1186.96 216.344C1186.78 216.781 1186.69 217.234 1186.69 217.707V234.613C1186.69 235.086 1186.78 235.539 1186.96 235.973C1187.14 236.41 1187.4 236.797 1187.73 237.129C1188.06 237.465 1188.45 237.719 1188.88 237.902C1189.32 238.082 1189.77 238.172 1190.24 238.172C1190.71 238.172 1191.17 238.082 1191.6 237.902C1192.04 237.719 1192.42 237.465 1192.75 237.129C1193.09 236.797 1193.35 236.41 1193.53 235.973C1193.71 235.539 1193.8 235.086 1193.8 234.613V217.707ZM1212.9 204.582C1212.9 204.109 1212.81 203.656 1212.62 203.219C1212.45 202.785 1212.19 202.398 1211.86 202.066C1211.52 201.73 1211.14 201.477 1210.7 201.293C1210.27 201.113 1209.82 201.023 1209.34 201.023C1208.87 201.023 1208.42 201.113 1207.98 201.293C1207.55 201.477 1207.16 201.73 1206.83 202.066C1206.5 202.398 1206.24 202.785 1206.06 203.219C1205.88 203.656 1205.79 204.109 1205.79 204.582V241.508C1205.79 241.98 1205.88 242.434 1206.06 242.871C1206.24 243.305 1206.5 243.691 1206.83 244.023C1207.16 244.359 1207.55 244.617 1207.98 244.797C1208.42 244.977 1208.87 245.066 1209.34 245.066C1209.82 245.066 1210.27 244.977 1210.7 244.797C1211.14 244.617 1211.52 244.359 1211.86 244.023C1212.19 243.691 1212.45 243.305 1212.62 242.871C1212.81 242.434 1212.9 241.98 1212.9 241.508V204.582ZM1232 217.707C1232 217.234 1231.91 216.781 1231.73 216.344C1231.55 215.91 1231.29 215.523 1230.96 215.191C1230.62 214.855 1230.24 214.598 1229.8 214.418C1229.37 214.238 1228.91 214.148 1228.45 214.148C1227.97 214.148 1227.52 214.238 1227.09 214.418C1226.65 214.598 1226.27 214.855 1225.93 215.191C1225.6 215.523 1225.34 215.91 1225.16 216.344C1224.98 216.781 1224.89 217.234 1224.89 217.707V234.613C1224.89 235.086 1224.98 235.539 1225.16 235.973C1225.34 236.41 1225.6 236.797 1225.93 237.129C1226.27 237.465 1226.65 237.719 1227.09 237.902C1227.52 238.082 1227.97 238.172 1228.45 238.172C1228.91 238.172 1229.37 238.082 1229.8 237.902C1230.24 237.719 1230.62 237.465 1230.96 237.129C1231.29 236.797 1231.55 236.41 1231.73 235.973C1231.91 235.539 1232 235.086 1232 234.613V217.707ZM1251.1 227.273C1251.1 226.801 1251.01 226.348 1250.83 225.91C1250.65 225.473 1250.39 225.09 1250.06 224.754C1249.72 224.422 1249.34 224.164 1248.91 223.984C1248.47 223.805 1248.02 223.711 1247.54 223.711C1247.07 223.711 1246.62 223.805 1246.18 223.984C1245.75 224.164 1245.36 224.422 1245.03 224.754C1244.7 225.09 1244.44 225.473 1244.26 225.91C1244.08 226.348 1243.99 226.801 1243.99 227.273V234.613C1243.99 235.086 1244.08 235.539 1244.26 235.973C1244.44 236.41 1244.7 236.797 1245.03 237.129C1245.36 237.465 1245.75 237.719 1246.18 237.902C1246.62 238.082 1247.07 238.172 1247.54 238.172C1248.02 238.172 1248.47 238.082 1248.91 237.902C1249.34 237.719 1249.72 237.465 1250.06 237.129C1250.39 236.797 1250.65 236.41 1250.83 235.973C1251.01 235.539 1251.1 235.086 1251.1 234.613V227.273Z" fill="white"/>
<path d="M170.414 237.992L167.238 236.734C152.309 270.055 92.9376 249.797 89.3634 259.711C88.7696 266.41 121.789 260.984 145.395 262.121C152.594 262.465 156.199 267.859 153.145 276.648L159.164 276.664C166.109 255.184 188.274 266.145 189.199 259.055C187.68 254.395 163.727 259.055 170.414 237.992Z" fill="white"/>
<path d="M154.848 272.977C155.801 269.824 155.484 266.672 153.898 264.781C152.309 262.891 150.082 261.629 147.227 261.312L91.9688 260.684C91.6523 260.684 91.3359 260.367 91.0195 260.367C90.6992 260.055 90.6992 259.738 91.0195 259.422C91.3359 258.793 91.6523 258.477 92.2891 258.477L147.863 257.848C154.531 257.531 161.523 252.176 164.059 245.871L167.238 237.68C167.238 237.363 167.555 237.047 167.238 236.734C163.738 220.66 149.133 208.688 131.984 208.688C116.109 208.688 102.449 218.77 97.6875 232.953C94.5117 230.746 90.6992 229.484 86.2539 229.801C78.6328 230.43 72.5977 236.734 71.6445 244.297C71.3281 246.188 71.6445 248.078 71.9648 249.969C59.5781 250.285 49.4141 260.367 49.4141 272.977C49.4141 274.234 49.4141 275.184 49.7344 276.441C49.7344 277.07 50.3672 277.383 50.6875 277.383H152.621C153.266 277.383 153.902 277.07 153.902 276.441L154.852 272.977H154.848Z" fill="#F4811F"/>
<path d="M172.313 237.68H170.731C170.414 237.68 170.098 237.992 169.774 238.309L167.555 245.871C166.598 249.023 166.914 252.176 168.504 254.066C170.098 255.957 172.313 257.219 175.172 257.531L186.93 258.164C187.246 258.164 187.563 258.477 187.879 258.477C188.195 258.793 188.195 259.109 187.879 259.422C187.563 260.055 187.246 260.367 186.606 260.367L174.539 261C167.871 261.312 160.883 266.672 158.34 272.977L157.707 275.812C157.391 276.125 157.707 276.754 158.34 276.754H200.262C200.895 276.754 201.219 276.441 201.219 275.812C201.852 273.289 202.484 270.453 202.484 267.617C202.484 251.23 188.828 237.68 172.313 237.68Z" fill="#FAAD3F"/>
<path fill-rule="evenodd" clip-rule="evenodd" d="M887.687 77.664C875.461 86.6288 857.684 91.414 842.398 91.414C820.965 91.414 801.668 83.5429 787.074 70.4492C785.926 69.4218 786.953 68.0195 788.328 68.8163C804.082 77.9218 823.562 83.3945 843.68 83.3945C857.25 83.3945 872.18 80.6093 885.902 74.8242C887.976 73.9492 889.711 76.1718 887.684 77.664H887.687ZM892.781 71.8788C891.219 69.8906 882.453 70.9413 878.484 71.4062C877.281 71.5546 877.101 70.5117 878.18 69.7656C885.18 64.871 896.668 66.2851 898.008 67.9257C899.351 69.5624 897.66 81.0038 891.082 86.4648C890.07 87.3007 889.109 86.8554 889.559 85.7421C891.035 82.082 894.348 73.871 892.781 71.8788Z" fill="#FF9900"/>
<path fill-rule="evenodd" clip-rule="evenodd" d="M878.762 35.2266V30.4688C878.758 30.3086 878.785 30.1523 878.844 30.0039C878.902 29.8555 878.992 29.7227 879.105 29.6094C879.219 29.4961 879.352 29.4102 879.504 29.3477C879.652 29.2891 879.812 29.2617 879.973 29.2656H901.414C902.102 29.2656 902.652 29.7578 902.652 30.4688V34.5391C902.645 35.2227 902.062 36.1172 901.039 37.5273L889.93 53.2812C894.062 53.1797 898.414 53.793 902.16 55.8867C903.004 56.3594 903.215 57.0547 903.297 57.7383V62.8125C903.297 63.5039 902.527 64.3164 901.719 63.8984C895.121 60.4648 886.355 60.0859 879.062 63.9336C878.32 64.3359 877.539 63.5312 877.539 62.8398V58.0195C877.539 57.2461 877.547 55.9258 878.328 54.75L891.199 36.418H880.02C879.332 36.418 878.781 35.9375 878.781 35.2266H878.762ZM800.543 64.8984H794.02C793.395 64.8555 792.902 64.3906 792.855 63.7969V30.5508C792.855 29.8867 793.414 29.3594 794.109 29.3594H800.195C800.828 29.3867 801.332 29.8672 801.379 30.4688V34.8125H801.5C803.086 30.6133 806.066 28.6523 810.086 28.6523C814.168 28.6523 816.719 30.6133 818.555 34.8125C820.137 30.6133 823.719 28.6523 827.566 28.6523C830.301 28.6523 833.289 29.7734 835.117 32.2891C837.184 35.0859 836.762 39.1484 836.762 42.7109L836.746 63.6953C836.746 64.3633 836.184 64.8984 835.488 64.8984H828.953C828.324 64.8555 827.781 64.3359 827.781 63.6953V46.0508C827.781 44.6484 827.906 41.1484 827.598 39.8203C827.113 37.5898 825.652 36.9609 823.762 36.9609C822.18 36.9609 820.531 38.0078 819.863 39.6836C819.191 41.3633 819.258 44.168 819.258 46.0547V63.6758C819.258 64.3438 818.695 64.8789 818 64.8789H811.465C810.809 64.8359 810.293 64.3164 810.293 63.6758L810.285 46.0547C810.285 42.3438 810.898 36.8867 806.266 36.8867C801.578 36.8867 801.762 42.207 801.762 46.0547V63.6758C801.762 64.3438 801.199 64.8789 800.504 64.8789L800.543 64.8984ZM921.113 28.6797C930.793 28.6797 936.031 36.9336 936.031 47.4297C936.031 57.5703 930.242 65.6133 921.113 65.6133C911.629 65.6133 906.434 57.3594 906.434 47.0742C906.434 36.7227 911.672 28.6562 921.113 28.6562V28.6797ZM921.168 35.4414C916.363 35.4414 916.055 41.9492 916.055 46C916.055 50.0547 915.992 58.7383 921.109 58.7383C926.164 58.7383 926.406 51.7422 926.406 47.4766C926.406 44.6719 926.285 41.3164 925.438 38.6562C924.703 36.3438 923.242 35.4414 921.168 35.4414ZM948.586 64.8984H942.09C941.457 64.8555 940.914 64.3359 940.914 63.6953L940.906 30.4414C940.961 29.832 941.504 29.3594 942.164 29.3594H948.215C948.781 29.3867 949.25 29.7695 949.379 30.2891V35.375H949.5C951.324 30.8281 953.883 28.6602 958.391 28.6602C961.34 28.6602 964.168 29.707 966.004 32.5781C967.691 35.2344 967.691 39.7109 967.691 42.9258V63.8555C967.617 64.4414 967.074 64.9023 966.434 64.9023H959.922C959.324 64.8594 958.832 64.4219 958.766 63.8555V45.8008C958.766 42.1641 959.188 36.8438 954.684 36.8438C953.098 36.8438 951.637 37.8984 950.891 39.5C949.973 41.5312 949.852 43.5547 949.852 45.7969V63.6992C949.844 64.3672 949.277 64.9023 948.578 64.9023L948.586 64.8984ZM861.684 48.9961C861.684 51.5195 861.746 53.6016 860.461 55.8672C859.422 57.6875 857.773 58.8086 855.945 58.8086C853.441 58.8086 851.973 56.9141 851.973 54.1172C851.973 48.5938 856.957 47.5938 861.68 47.5938V48.9961H861.684ZM868.254 64.7852C867.824 65.168 867.203 65.1953 866.715 64.9375C864.551 63.1523 864.156 62.3242 862.973 60.6211C859.395 64.2461 856.855 65.332 852.219 65.332C846.723 65.332 842.457 61.9688 842.457 55.2344C842.457 49.9766 845.316 46.3984 849.41 44.6484C852.953 43.1016 857.898 42.8281 861.68 42.3984V41.5625C861.68 40.0234 861.801 38.1992 860.879 36.8711C860.09 35.6758 858.566 35.1836 857.215 35.1836C854.73 35.1836 852.516 36.4531 851.977 39.0781C851.867 39.6641 851.434 40.2344 850.84 40.2617L844.516 39.5898C843.984 39.4688 843.387 39.043 843.547 38.2266C844.996 30.6094 851.934 28.3164 858.133 28.3164C861.305 28.3164 865.453 29.1523 867.957 31.5391C871.133 34.4805 870.828 38.4102 870.828 42.6836V52.7773C870.828 55.8125 872.094 57.1406 873.289 58.7852C873.703 59.3711 873.793 60.0703 873.262 60.5078L868.27 64.8281L868.262 64.8047L868.254 64.7852ZM776.16 49.0195C776.16 51.543 776.223 53.6211 774.938 55.8867C773.898 57.707 772.258 58.8281 770.422 58.8281C767.918 58.8281 766.457 56.9375 766.457 54.1367C766.457 48.6172 771.441 47.6133 776.152 47.6133V49.0156L776.16 49.0195ZM782.73 64.8047C782.297 65.1875 781.676 65.2148 781.191 64.9609C779.027 63.1758 778.664 62.3438 777.449 60.6406C773.871 64.2656 771.336 65.3516 766.695 65.3516C761.211 65.3555 756.934 61.9922 756.934 55.2617C756.934 50.0039 759.805 46.4258 763.891 44.6758C767.434 43.125 772.379 42.8555 776.16 42.4258V41.5859C776.16 40.0469 776.277 38.2266 775.371 36.8945C774.57 35.7031 773.051 35.2109 771.707 35.2109C769.223 35.2109 767.004 36.4766 766.438 39.1016C766.328 39.6875 765.898 40.2617 765.312 40.2891L758.98 39.6133C758.449 39.4961 757.863 39.0703 758.012 38.2539C759.469 30.6328 766.398 28.3398 772.598 28.3398C775.77 28.3398 779.918 29.1797 782.422 31.5625C785.598 34.5078 785.293 38.4336 785.293 42.707V52.8008C785.293 55.8359 786.559 57.1641 787.754 58.8086C788.176 59.3945 788.27 60.0938 787.734 60.5312L782.758 64.8281L782.738 64.8047" fill="white"/>
<path d="M934.469 239.77C934.469 226.371 925.051 216.945 911.852 216.945C895.051 216.945 883.789 229.051 883.789 246.34C883.789 259.828 893.297 269.16 906.719 269.16C918.926 269.16 928.023 263.312 931.762 253.973H918.203C916.402 256.879 912.574 258.711 907.891 258.711C900.684 258.711 896.18 253.973 895.773 247.273H933.703C934.195 244.73 934.469 242.543 934.469 239.77ZM896.809 238.207C898.023 232.043 904.062 227.129 911.359 227.129C917.664 227.129 922.438 231.688 922.438 238.207H896.809ZM847.348 267.953L849.781 255.094C857.215 256.566 858.34 252.41 860.277 242.406L861.223 237.445C863.926 223.465 869.375 216.496 884.961 218.375L882.527 231.238C875.094 229.766 873.789 235.348 872.125 244.012L871.18 248.973C868.477 263.133 862.844 269.832 847.352 267.957L847.348 267.953ZM829.152 268L838.34 218.152H850.457L841.312 268H829.152ZM759.738 218.152H771.496L775.324 254.199L790.73 218.152H802.395L806.496 254.559L821.359 218.152H833.074L811.766 268H798.434L794.105 233.695L779.379 268.004H766.5L759.738 218.152Z" fill="white"/>
<path d="M715.82 231.371L701.855 244.594H725.594L728.07 238.832H716.043L723.566 231.371L719.199 223.914H739.602L720.773 268H727.844L749.152 218.152H707.984L715.82 231.371Z" fill="#00B9FF"/>
<path fill-rule="evenodd" clip-rule="evenodd" d="M545.75 248.875H520.016C520.625 255.008 525.125 256.977 530.234 256.977C535.469 256.977 539.684 255.801 543.164 253.961V264.508C540.953 265.773 538.613 266.703 536.137 267.297C533.66 267.891 531.148 268.129 528.605 268.004C515.805 268.004 506.801 260.059 506.801 244.234C506.801 230.922 514.43 220.34 526.914 220.34C539.426 220.34 545.941 230.762 545.941 244.172C545.941 245.441 545.812 248.176 545.75 248.875ZM526.848 231.016C523.562 231.016 519.922 233.336 519.922 239.215H533.488C533.488 233.336 530.074 231.016 526.848 231.016ZM486.082 268.004C481.484 268.004 478.676 266.098 476.82 264.699L476.758 279.41L463.605 282.176V221.199H475.609L475.863 224.438C477.258 223.125 478.844 222.113 480.625 221.406C482.406 220.695 484.258 220.34 486.176 220.34C495.434 220.34 504.117 228.602 504.117 243.855C504.117 260.473 495.5 268.004 486.082 268.004ZM483.047 231.938C480.016 231.938 478.133 233.02 476.758 234.512L476.82 253.961C478.098 255.355 479.949 256.438 483.047 256.438C487.898 256.438 491.156 251.195 491.156 244.141C491.156 237.309 487.836 231.938 483.047 231.938ZM445.504 221.199H458.688V267.082H445.504V221.199ZM445.504 206.262L458.688 203.496V214.176L445.504 216.973V206.262ZM431.711 235.973V267.082H418.559V221.199H430.371L430.754 225.074C433.945 219.449 440.555 220.594 442.312 221.199V233.242C440.652 232.699 435 231.875 431.711 235.973ZM404.418 250.973C404.418 258.695 412.715 256.309 414.375 255.613V266.289C412.621 267.242 409.461 268.004 405.152 268.004C404.254 268.031 403.359 267.965 402.477 267.812C401.59 267.656 400.73 267.414 399.895 267.086C399.059 266.758 398.266 266.348 397.512 265.859C396.762 265.371 396.066 264.809 395.43 264.18C394.793 263.551 394.223 262.863 393.727 262.117C393.23 261.371 392.812 260.586 392.477 259.754C392.141 258.926 391.891 258.07 391.73 257.191C391.57 256.312 391.5 255.426 391.52 254.531L391.551 212.68L404.383 209.949V221.199H414.41V232.414H404.418V251.004V250.973ZM388.742 253.195C388.742 262.633 381.367 268.004 370.449 268.004C365.496 268 360.75 267.016 356.211 265.051V252.562C360.613 254.945 366.105 256.723 370.449 256.723C373.387 256.723 375.332 255.961 375.332 253.547C375.332 247.254 355.348 249.605 355.348 235.117C355.348 225.867 362.625 220.34 373.289 220.34C377.633 220.34 381.973 220.977 386.348 222.723V235.051C382.25 232.906 377.887 231.781 373.258 231.684C370.512 231.684 368.66 232.477 368.66 234.543C368.66 240.422 388.742 237.625 388.742 253.227V253.195Z" fill="white"/>
</svg>
