<svg width="234" height="54" viewBox="0 0 234 54" fill="none" xmlns="http://www.w3.org/2000/svg">
<path d="M233.469 23.7695C233.469 10.3711 224.051 0.945312 210.852 0.945312C194.051 0.945312 182.789 13.0508 182.789 30.3398C182.789 43.8281 192.297 53.1602 205.719 53.1602C217.926 53.1602 227.023 47.3125 230.762 37.9727H217.203C215.402 40.8789 211.574 42.7109 206.891 42.7109C199.684 42.7109 195.18 37.9727 194.773 31.2734H232.703C233.195 28.7305 233.469 26.543 233.469 23.7695ZM195.809 22.207C197.023 16.043 203.062 11.1289 210.359 11.1289C216.664 11.1289 221.438 15.6875 221.438 22.207H195.809ZM146.348 51.9531L148.781 39.0938C156.215 40.5664 157.34 36.4102 159.277 26.4062L160.223 21.4453C162.926 7.46484 168.375 0.496094 183.961 2.375L181.527 15.2383C174.094 13.7656 172.789 19.3477 171.125 28.0117L170.18 32.9727C167.477 47.1328 161.844 53.832 146.352 51.957L146.348 51.9531ZM128.152 52L137.34 2.15234H149.457L140.312 52H128.152ZM58.7383 2.15234H70.4961L74.3242 38.1992L89.7305 2.15234H101.395L105.496 38.5586L120.359 2.15234H132.074L110.766 52H97.4336L93.1055 17.6953L78.3789 52.0039H65.5L58.7383 2.15234Z" fill="white"/>
<path d="M14.8203 15.3711L0.855469 28.5938H24.5938L27.0703 22.832H15.043L22.5664 15.3711L18.1992 7.91406H38.6016L19.7734 52H26.8438L48.1523 2.15234H6.98438L14.8203 15.3711Z" fill="#00B9FF"/>
</svg>
